<svg id="レイヤー_1" data-name="レイヤー 1" xmlns="http://www.w3.org/2000/svg" viewBox="0 0 300 300"><defs><style>.cls-1{fill:#fff;}</style></defs><title>development</title><path class="cls-1" d="M76,261.42a18.11,18.11,0,0,1-12.63,5.19,18.68,18.68,0,0,1-12.76-5.19L35.7,246.27a17.64,17.64,0,0,1-5.33-12.62,18.22,18.22,0,0,1,5.33-12.77l95.52-95.51a72.34,72.34,0,0,0,40.39,40.39Zm-3.65-45.73a9,9,0,1,0,9,9A9,9,0,0,0,72.31,215.69Zm185-96.07c-8.83,25-32.82,42.22-59.32,42.22a62.84,62.84,0,1,1,0-125.67c10.23,0,23.56,3.08,32.11,8.84a4.63,4.63,0,0,1,2.25,3.92,5,5,0,0,1-2.25,3.93L189,76.56V108l27.07,15c4.63-2.67,37.17-23.15,40-23.15s4.49,2.11,4.49,4.91C260.53,109.38,258.85,115.13,257.3,119.62Z"/></svg>