<svg id="レイヤー_1" data-name="レイヤー 1" xmlns="http://www.w3.org/2000/svg" xmlns:xlink="http://www.w3.org/1999/xlink" viewBox="0 0 120 120"><defs><style>.cls-1{fill:#f5cba5;}.cls-2,.cls-9{fill:#fff;}.cls-3{fill:#7d181d;}.cls-4{fill:#78161b;}.cls-5{fill:#efefef;}.cls-6{fill:#111e3c;}.cls-7{fill:#112c4f;}.cls-8{fill:#122545;}.cls-9{stroke:#e60012;stroke-linecap:round;stroke-linejoin:round;stroke-width:0.1px;}.cls-10{fill:#f8d7bd;}.cls-11{fill:#231815;}.cls-12{fill:url(#linear-gradient);}.cls-13{fill:#84959e;}.cls-14{fill:#46362c;}.cls-15{fill:#fae1cc;}.cls-16{fill:#3e3a39;}.cls-17{fill:#666464;}.cls-18{fill:#7d7d7d;}.cls-19{fill:#898989;}.cls-20{fill:#4c4948;}</style><linearGradient id="linear-gradient" x1="52.68" y1="52.42" x2="52.15" y2="60.91" gradientUnits="userSpaceOnUse"><stop offset="0" stop-color="#898989"/><stop offset="0.48" stop-color="#e6e6e6"/><stop offset="0.56" stop-color="#d2d2d2"/><stop offset="0.76" stop-color="#ababab"/><stop offset="0.91" stop-color="#929292"/><stop offset="1" stop-color="#898989"/></linearGradient></defs><title>interviewee-2</title><path class="cls-1" d="M62,79.2s.29-13.44-1.9-16.76a5.4,5.4,0,0,0-3.47-2.11L81.29,41.24s-4.59,7-3.9,11.49c.84,5.59,6.42,22.68,6.42,22.68S63.13,92.7,62,79.2Z"/><polygon class="cls-2" points="50.81 141.46 50.81 69.77 69.15 75.1 86.24 71.45 86.24 141.04 50.81 141.46"/><path class="cls-3" d="M70.55,86.24a7.88,7.88,0,0,1-2.5.5A11,11,0,0,1,66,86.06s-1.55-5.45-2.72-7.31L64.94,76a18.87,18.87,0,0,0,4.44.82,24,24,0,0,0,3.92-.71l1.28,1.43S71,83.75,70.55,86.24Z"/><path class="cls-4" d="M74.27,116.38c-1.38-21.08-3.72-30.14-3.72-30.14a7.88,7.88,0,0,1-2.5.5A11,11,0,0,1,66,86.06a58.35,58.35,0,0,1-2.42,10.48c-1.08,2.79-3.69,17-3.72,19.69S57.21,139,57.21,139l11.17.19,4.49.3S75.51,135.31,74.27,116.38Z"/><path class="cls-5" d="M78.49,57.5l1,3.61S78.1,71,69.15,75.1c0,0,6.75,7.55,8.18,11.71,0,0,7.82-15.1,6-22.06Z"/><path class="cls-5" d="M60.09,62.44s1.13,1.44,1.32,5.09c.09,1.51,4.15,4.78,7.74,7.57a5.49,5.49,0,0,0-2.3,1.52c-.65.93-7.11,8.9-7.11,8.9S57.94,75,57.8,72.38a28.09,28.09,0,0,1,.07-4.45Z"/><path class="cls-6" d="M30.35,142.08V106.47c-8.78,7.32-23.58,19.9-23.58,19.9L33.41,74s3.42-2.11,5.7-2.28S58,65.43,58,65.43s-4.72,57.65-3.58,66c0,0-1.31,7.65-2.61,9.93Z"/><path class="cls-6" d="M84.86,65.26s4.93,2.7,6.73,3.6c4,2,13.31,5,19.3,8.32,0,0-6.17,14.8-8.12,24.73S91,141.32,91,141.32l-20.52,1.3,3.26-6.84s8.63-35,9.93-44.79S84.86,65.26,84.86,65.26Z"/><path class="cls-7" d="M79.66,59.11s3.73,5.5,1.45,18.85c-1.58,9.27-10.48,57.47-10.48,57.47s16.3-22.64,22.2-56.49l-5.37-2.28L92.34,75l-3.55-8Z"/><path class="cls-7" d="M60.21,62.7a45.48,45.48,0,0,0-4.67,4c-1.31,1.46-4.89,5.21-4.89,5.21l2.93,2.12L48.7,75s.16,32.74,5.7,56.36c0,0,6.57-29.58,5.27-58.48C59.67,72.91,59.4,65.47,60.21,62.7Z"/><path class="cls-8" d="M110.89,77.18s3.86-.52,5,6-.82,24.24-.33,29.29-.7,16.17-.4,18.44c.48,3.75-2,9.77-6.68,10.91a44.78,44.78,0,0,1-16.11.28c-2.73-.56-26.57-1.26-26.57-1.26s6-2.76,6.46-5.52,1.9-4.86,1.24-7.13-4-5.28-4-5.28,11.51-1.05,15.31-.84c2.32.13,8.88,0,8.88,0A17.3,17.3,0,0,0,95.6,119c0-.49-.65-3.09.33-5.21s6.07-10.64,6.51-12.87C104.57,90.16,110.89,77.18,110.89,77.18Z"/><path class="cls-9" d="M48.36,56.34a1.08,1.08,0,0,1,.23-.73L59.94,42.87l2,5a1.09,1.09,0,0,1-.22.72L50.43,61.28Z"/><path class="cls-10" d="M48.68,66.45s1.93-.61,2.27-1.27A14.4,14.4,0,0,1,52.88,62c.61-.5-.05-1.77-2-1a6.28,6.28,0,0,0-2.33,1.28,5.38,5.38,0,0,1-2.16.45A3.67,3.67,0,0,0,48.68,66.45Z"/><path class="cls-1" d="M43.63,52.62a18,18,0,0,0-1.46,3.67l5.06-2.4,1,2.91s-3.12,2.42-3.6,2.89A26.84,26.84,0,0,0,42.92,62s-3.28.31-4-1.94-.68-5.93,1.26-8.27S44,48.7,44.66,49s1,.95.75,1.5A17.34,17.34,0,0,1,43.63,52.62Z"/><path class="cls-11" d="M50.94,62.86c-.53.6-1.18.58-1.44,0L47,56.89a2.36,2.36,0,0,1,.49-2.24L59.4,41.32c.53-.6,1.18-.58,1.44.06l2.47,5.92a2.33,2.33,0,0,1-.49,2.22Z"/><path class="cls-12" d="M49.5,62.81,47,56.89a2.36,2.36,0,0,1,.49-2.24L59.4,41.32a1,1,0,0,1,.83-.43v0l-1.35.07a1.13,1.13,0,0,0-.82.43L46.19,54.71a2.34,2.34,0,0,0-.48,2.23l2.46,5.92a.71.71,0,0,0,.68.49l1.34-.06,0,0A.68.68,0,0,1,49.5,62.81Z"/><path class="cls-13" d="M62.64,47.57l-2.44-6s-.13,0-.26.19L48.73,54.37l2.77,6.79L62.29,49A1.63,1.63,0,0,0,62.64,47.57Z"/><path class="cls-10" d="M28.09,72.51s1.58-3.64,1.58-5.07,1-2.84,2.69-3.95,2.69-6.16,3.17-8.7.63-3.2,1.07-3.58a68,68,0,0,1,5.76-3.88c.77-.44,1.33-.38,2.27.73a2.13,2.13,0,0,1,1,.16c.33.23.67.5.67.5s2.49-.33,2.71-.06,1.17,2.28,1.17,2.28.88,1.16,1.1,1.43-.11,1.78-2.1,1.06c0,0,.22,2.49-.22,2.66a1.87,1.87,0,0,1-2.11-1.16,12.61,12.61,0,0,1-.5-2.56l-.66-.27s-.87,2.25-2.27,1.55c-.34-.16-.89-.94-.11-3a3.85,3.85,0,0,1-1.44.5,6.46,6.46,0,0,1-.73,2.33s-.11,5.31.56,6.09,2.94,1.49,4.09,2.16a5,5,0,0,1,1.62,1.33s1.71,2.11,1.22,3.38a9.31,9.31,0,0,1-3.44,1,7.16,7.16,0,0,0-4.44,1.78c-1,1-3.55,6.68-3.55,6.68Z"/><path class="cls-1" d="M45.69,52.06c.19-.37.41-.73.58-1.1s.26-.66,0-1a20.5,20.5,0,0,0-1.68-1.85s0-.06,0-.09a.06.06,0,0,1,.08,0,9.37,9.37,0,0,1,1.86,1.76,1.11,1.11,0,0,1,.27.68,1.85,1.85,0,0,1-.24.66,4.94,4.94,0,0,1-.77,1,.07.07,0,0,1-.09,0A.05.05,0,0,1,45.69,52.06Z"/><path class="cls-1" d="M46.39,48.67a26.58,26.58,0,0,1,2.46,1.79c.17.18.44.3.54.64a2.89,2.89,0,0,1,.08.81,7.8,7.8,0,0,1-.18,1.53s0,.05-.08.05a.09.09,0,0,1-.05-.07l0-1.5a1.27,1.27,0,0,0-.53-1.18c-.74-.68-1.55-1.28-2.3-2a.06.06,0,0,1,0-.09A.08.08,0,0,1,46.39,48.67Z"/><path class="cls-1" d="M43.3,50.63a2.08,2.08,0,0,1,1.41-1.31.06.06,0,0,1,.08,0,.08.08,0,0,1,0,.07c-.48.41-.88.84-1.36,1.26a.06.06,0,0,1-.09,0A.07.07,0,0,1,43.3,50.63Z"/><path class="cls-1" d="M41.85,51.18a3.25,3.25,0,0,0-.73-.75,4.52,4.52,0,0,0-.91-.56.08.08,0,0,1,0-.09.15.15,0,0,1,.07,0A1.93,1.93,0,0,1,42,51.13a.08.08,0,0,1,0,.08A.08.08,0,0,1,41.85,51.18Z"/><path class="cls-5" d="M27,68.85s.31,1.13,2.9,1.83l10.41,2.76L35.56,86.73s-9.78.51-15.26-5.11Z"/><path class="cls-8" d="M23.88,72.55s-1,2.75.27,4.24,10.34,5,14.41,5.43c0,0-14.14,31-15.4,33.32-1.84,3.4-11,12.92-16.29,15-3.34,1.3-7.77-1.43-9-5.67C-3.1,121.71.65,110.53,2.18,106S23.88,72.55,23.88,72.55Z"/><path class="cls-10" d="M79.63,40.76c-.09-1.28-.89-2.4-2.12-1.68A13.27,13.27,0,0,0,64.88,24.5a13.87,13.87,0,0,0-13.52,7.17,7.56,7.56,0,0,0-1.11,5,37.72,37.72,0,0,1,1,5.24c-.1,1.59-.73,3,0,5.81,1.07,4.16,2.48,5.11,3.39,9.77.34,1.79.18,3.31,2.38,3.58a18.61,18.61,0,0,0,9.1-1.89c2.54-1.4,6.35-6.48,7.72-10.17,0,0,.38-.76.9-.82s4.33-2.06,4.45-2.55A27.8,27.8,0,0,0,79.63,40.76Z"/><path class="cls-14" d="M80.33,26.83c-.85-.95-2.63-3.24-3.64-4.17s-3.44-.17-3.44-.17-1.45-3.27-2.71-3.11a35.07,35.07,0,0,1-6.23.06c-2-.21-3-1-4.31-.49a13.17,13.17,0,0,1-4.76.75c-1.35-.06-2.47,2.06-2.47,2.06s-1.06.68-1.52-1.07c0,0-1.47,1-.14,2.12,0,0-2.87-.25-3.59,1.8a2.56,2.56,0,0,1,1.83-.3,5.42,5.42,0,0,0-1.8,7.33s.33-2.68,1.74-3.38c0,0-2.94,3.39-.11,6.86l.1-1s-.15,2.42,1.2,3.68l.11-2a7.12,7.12,0,0,1,1.64-3.87,5.21,5.21,0,0,1,3.63-1.57,31.87,31.87,0,0,0,4.94-.68c1.13-.44,4-1.32,4-1.32s.4,2.05,1.93,2.31,1.48,2.34,1.64,3.6.51,1.15,1.74,2,1.51,3.18,1.6,3.85.37,4.89.37,4.89,1.52-.64,1.81-1.27,2.84-6.53,5-4.07c1.09,1.22,1.15,6.5-1.76,7.21a1.81,1.81,0,0,0-1.63,1.82c-.16,1.3,1.08,4.78,1.08,4.78l.28-1.63s.39,3.12,1.15,3.77c0,0,.27-2.88.2-3.47A14.18,14.18,0,0,1,79.21,49L79.15,51s1-3.44,1.42-4.45c1-2.71,1-3.06,2.4-6.67S81.2,27.77,80.33,26.83Z"/><path class="cls-15" d="M75.34,41.32s-.15.06.25-.65,1.54-2.25,2.44-2.28A1.75,1.75,0,0,1,80,39.94a21.74,21.74,0,0,1-.08,5.25c-.25,1-.92,1.49-1.72,2.33a6.16,6.16,0,0,1-3.35,1.65,1,1,0,0,1-.76-1.56,3.09,3.09,0,0,1,1.73-1,8.39,8.39,0,0,0,3-1.48c.54-.51.8-2.67.67-3.37s-.57-2.3-1-2.2S76.9,41,76.49,41.22s0,1.2-.22,1.79S75.46,42,75.34,41.32Z"/><path class="cls-1" d="M76.74,41.31a4.48,4.48,0,0,0,.56.93c.38.51.9.89.82,1.46s-.69.65-1.37,1.61-1.23,1.39-1.11.73,1.09-2.21,1.12-2.65S76.74,41.31,76.74,41.31Z"/><polygon class="cls-16" points="34.35 127.84 -31.59 128.43 -46.73 66.09 18.9 62.49 34.35 127.84"/><polygon class="cls-17" points="36.39 125.96 34.35 127.84 18.9 62.49 20.95 60.62 36.39 125.96"/><polygon class="cls-18" points="20.95 60.62 18.9 62.49 -46.73 66.09 -44.69 64.22 20.95 60.62"/><polygon class="cls-19" points="0.23 136.64 -3.17 136.64 -1.47 116.48 -0.11 116.48 0.23 136.64"/><polygon class="cls-20" points="23.4 120.66 11.59 70.81 -44.03 73.86 -32.49 121.17 23.4 120.66"/><polygon class="cls-17" points="26.86 117.48 23.4 120.67 11.59 70.81 15.05 67.64 26.86 117.48"/><polygon class="cls-18" points="15.05 67.64 11.58 70.81 -44.03 73.86 -40.56 70.69 15.05 67.64"/></svg>