<svg id="レイヤー_1" data-name="レイヤー 1" xmlns="http://www.w3.org/2000/svg" viewBox="0 0 120 120"><defs><style>.cls-1{fill:#3e3a39;}.cls-2{fill:#7d7d7d;}.cls-3{fill:#4c4948;}.cls-4{fill:#facfb1;}.cls-5{fill:#fbd9bf;}.cls-6{fill:#655650;}.cls-7{fill:#dddbc6;}.cls-8{fill:#a84b51;}.cls-9{fill:#9f464c;}.cls-10{fill:#012e51;}.cls-11{fill:#001c3b;}.cls-12{fill:#0e3d64;}.cls-13{fill:#fffde5;}.cls-14{fill:#f8c5a3;}</style></defs><title>interviewee-1</title><polygon class="cls-1" points="174.35 127.84 108.41 128.43 93.27 66.09 158.9 62.49 174.35 127.84"/><polygon class="cls-2" points="160.95 60.62 158.9 62.49 93.27 66.09 95.31 64.22 160.95 60.62"/><polygon class="cls-3" points="163.4 120.66 151.59 70.81 95.97 73.86 107.51 121.17 163.4 120.66"/><polygon class="cls-2" points="155.05 67.64 151.58 70.81 95.97 73.86 99.44 70.69 155.05 67.64"/><path class="cls-4" d="M65.78,62.18a11.26,11.26,0,0,1-7.53,2.95c-4.27-.2-9-6-9-6,2.22-5,1.41-15.59,1.41-15.59l15.28-.63s-1.66,10.52,1,18.24Z"/><path class="cls-4" d="M67.53,33.19s1.37-1.25,1.88.08a16.69,16.69,0,0,1,.84,5.19c-.06,1.21-.81,2-1,3.14s-1.15,1.89-2,1.46-1.79-3.34-1.61-5.5A9.83,9.83,0,0,1,67.53,33.19Z"/><path class="cls-4" d="M45.57,38.71s-1.78-1.08-2.23.06.19,2.45.39,3.4,1.57,2.32,2.09,3.36,1.13,1.65,2.07,1.69S50,47,50,46.59,46.8,38.62,45.57,38.71Z"/><path class="cls-5" d="M67,31.89s.64,5.87.79,7.76a25.09,25.09,0,0,1-.27,6.5,49.72,49.72,0,0,1-2.46,6.59c-.38,1-1.18,2.57-4.44,3.25-3.81.79-5.48-.78-7.08-2.61A55.71,55.71,0,0,1,49,48.11a31,31,0,0,1-2.59-7.2c-.31-1.52-2.49-8.11-2.11-11.8s5.69-6.2,10-7.17S67.14,23.51,67,31.89Z"/><path class="cls-6" d="M48.06,28.5S52.6,29,55.55,28a19.67,19.67,0,0,1-5.14-.57,34.34,34.34,0,0,0,5.69-.55c1.88-.49,3.11-.17,3.48.44s2.14.26,2.14.26l.82-1.07L62,27.91a9.69,9.69,0,0,0,1.34-.84c.3-.28.07.89-.25,1.07s1.58.25,2.08,1.06a17.31,17.31,0,0,1,1.46,5.57,30.34,30.34,0,0,0,1.18,4.88,22.52,22.52,0,0,1,.9-5.21,6.51,6.51,0,0,0,.46-3.93,31,31,0,0,1-.09-3.84l-.67,1.27a11,11,0,0,0,0-2.6L68,26.1a16.37,16.37,0,0,0-1.6-3.19,8,8,0,0,0-2.66-2.79,17.06,17.06,0,0,0-5-1.8c-1.86-.55-5,.42-5,.42l.38-1a2.86,2.86,0,0,0-1.33.83c-.67.7-1.65.45-2.66.64s-3.17.09-4.14,1-.58,3.11-1.65,3.54-3.06,3.36-3.07,5.51A15.35,15.35,0,0,0,42.3,36c1.06,2.29,3.81,5.47,4.57,6.9a24.67,24.67,0,0,1-.36-4.56c.15-1.5-.83-3.39-.9-4.51-.15-2.25.94-4.26,1.49-4.38s2.81.5,3.75,0A6.38,6.38,0,0,1,48.06,28.5Z"/><path class="cls-7" d="M58.53,63,48.05,60.64a57.91,57.91,0,0,0-.82,7.44c-.12,3.42,4,14,6,17.49S58.32,96,58.32,96s6.8-13.81,8.14-18.75S68,61.55,68,61.55Z"/><path class="cls-8" d="M64.78,121.85c0-.4-1.62-42.51-2.3-44.35s-1.9-7.76-1.9-7.76l-3.78.08s-2.06,5.84-2.74,7.68-2.3,44-2.3,44.35-.68.92,1.62,1.7c1.27.44,3.31,1.12,4.89,1.63,1.59-.51,3.62-1.19,4.89-1.63C65.46,122.77,64.78,122.24,64.78,121.85Z"/><path class="cls-9" d="M58.9,70.14c1.47,0,1.68-.4,1.68-.4A11.87,11.87,0,0,0,62.83,64l-.94-1.11c0,.39-1.61.72-3.62.72s-3.62-.33-3.62-.72L53.71,64a13,13,0,0,1,3.09,5.85A5.08,5.08,0,0,0,58.9,70.14Z"/><path class="cls-10" d="M85.36,85.92c1.79-8.31,7-17.17,7-17.17s-4.83-2.14-8.69-3.35-10.48-3.76-11.86-4.29c0,0-7.32,29-14.08,33.79,0,0-12-30.7-11.72-35.81a72,72,0,0,1-11,4.57c-5.1,1.47-12.41,3.47-13.24,5.09,0,0,5.82,31.91,6.07,36.88,1.26,24.76-5.15,60.25-5.61,67.83,0,0,.61,1.39,5.68,2.17,0,0,10.82.82,16.62,1.49s39.72,2.74,46.41-4.44c0,0-4.56-35.66-4.69-40.22S83.56,94.23,85.36,85.92Z"/><path class="cls-11" d="M54.48,102.69a129.71,129.71,0,0,0-1.12,16l-.45,16.12c-.33,10.74-.71,21.48-1.25,32.21h0c.11-10.74.37-21.49.62-32.23l.28-16.11c.07-5.36.23-10.84,1.92-16h0S54.48,102.67,54.48,102.69Z"/><path class="cls-12" d="M56.72,107.19a1.54,1.54,0,1,0,0-3.07,1.54,1.54,0,1,0,0,3.07Z"/><path class="cls-13" d="M49.87,54.07s3,6.86,8.66,8.91a7.14,7.14,0,0,0-2.35,1.28c-.41.6-4.06,6.1-4.06,6.1s-4.28-7-4.49-9.65.07-2.49.07-2.49S48.94,56.08,49.87,54.07Z"/><path class="cls-13" d="M58.53,63a21,21,0,0,0,2.21-1.07,20.09,20.09,0,0,0,5.11-6.09l-.15-1s.62-.2.76.2l1.59,4.62L65.7,70.49s-4.21-6.16-5.24-6.64Z"/><path class="cls-11" d="M23.38,68.93s6.27,5.42,8.8,11c1.69,3.7,3.36,10.61,3.36,12.9s-.22,28.86.63,30.52,2.56,4,2.78,5.39a71.4,71.4,0,0,0,3,10c.85,1.88,5.33,11.21,6,12s2.3,6.6,2.75,7.76-8.94,9.46-8.94,9.46-1.49,2.9-2.35,1.45-1.28-2.07-3.62-1.87c-5.2.43-4.91-2.07-4.91-3.3s-3.21-16-3.21-17.24S23.38,68.93,23.38,68.93Z"/><path class="cls-12" d="M47.74,58.31l.28-.94s-.7-.27-1.59.6l-4.07,2.48L37.8,65.82l5.52-.27-5.4,3.29s.4,2.77,5.55,9.87c5.63,7.8,9.47,14.35,12.27,17.41.5.54,1.08,1.19,1.68,1.85l1.14-2.5C53.23,80.27,47.74,58.31,47.74,58.31Z"/><path class="cls-12" d="M77.52,69.64l-5.41-3.3,5.53.27-4.56-5.37L69,58.76c-.9-.87-1.59-.6-1.59-.6l.29.93s-7.32,29.24-13.25,43.59c0,0,3.29-3.64,5.24-5.77C62.5,93.85,66.33,87.29,72,79.5,77.12,72.39,77.52,69.64,77.52,69.64Z"/><path class="cls-10" d="M21.77,68.75s1.14-.7,3.18,1.61c1.65,1.88,7.49,11.63,8,14.75a136,136,0,0,1,1.45,16c0,1.08-.34,23.5-.34,23.5s-.21-.2,1.58,2.48c.83,2.42,7,16,8.9,19.78s6.35,12.47,6.35,12.47a45.63,45.63,0,0,1-10.35,5.23c-6.06,2.14-7.8,2.14-7.8,2.14S28,152.19,25.09,145.35a94.91,94.91,0,0,1-5.37-17.79c-.41-2.68-.43-35.34-.57-42.86C19.08,80.82,19.7,67.81,21.77,68.75Z"/><path class="cls-11" d="M88.91,75.47s-6.14,12.11-6.34,14.42-1.18,7.31-1.18,7.31l-7.32-5.39L61.21,99.89A62.35,62.35,0,0,0,66,107.78c1.78,2.11,5.14,5.77,6.53,8.07s13.25,18.08,13.25,18.08-.4-8.65-.4-10.19S88.91,75.47,88.91,75.47Z"/><path class="cls-5" d="M69.3,89.39S67.43,87.71,67.4,87a36.68,36.68,0,0,0-1-5.85c-.35-.6-2-3.1-2.29-3.76s-1.77-4.7-1.93-5.24a15.4,15.4,0,0,0-.5-2.37c-.29-.54-1.13-.66-1.57.66a5,5,0,0,0,.1,3.58l-.11,2.84s-.27.87-2.53-2.27c0,0-.35-1.82-.5-2.31s0-4.2-1.5-4.39c-1.23-.17-1,3.54-1,3.54A10.78,10.78,0,0,0,54,73.15c0,.25,0,1.91,0,1.91a9.4,9.4,0,0,1-1.11,1.59c-.31.2-.51,1.13-.51,1.13a3.43,3.43,0,0,0-1,.61c-.18.25-.34.76-.09,3s-.22,3,.83,3.82,2.33,2.22,3.39,3a12.42,12.42,0,0,0,2.33,1.1,6,6,0,0,1,2,1.38c.73.81,1.25,1.1,1.62,1.88s.19,1.34,2.4,2.34A7.14,7.14,0,0,1,67,97.38l5.65-5.21Z"/><path class="cls-14" d="M54,75.06a5.66,5.66,0,0,1-.36,3.12h0L54,75.06Z"/><path class="cls-13" d="M74.24,94.48l-5.47-6.89S62.56,89.74,61.23,94l6.33,8.39Z"/><path class="cls-10" d="M99.88,84.18c.15-.78-1.1-1.47-1.1-1.47s-3.49-13.07-4.34-13.78c-.66-.57-2.39-.23-3.12.59S82.88,82,83.48,96.25a12.5,12.5,0,0,0,1.47,6L73,90.3s-4,.41-4.81,1c-2.64,1.67-7.78,8.44-7.78,8.44s3,3.3,5.54,6.15S82.8,125.58,86.2,128.61c3.17,2.83,12.06,5.71,13.73,4.76,2.67-1.53,2.87-5.07,4-6.55s.32-3.62.32-3.62.66-1.25,1.13-2.34c1-2.38-5.75-20.27-5-27.26C100.42,92.81,99.74,85,99.88,84.18Z"/><path class="cls-11" d="M85,102.2s11.45,10,12,10.42,4.33,8.7,4.6,9.41a19.07,19.07,0,0,1,.54,2.84s0-2.93-.08-3.82-4.44-9.15-5-9.5S85,102.2,85,102.2Z"/></svg>