<svg id="レイヤー_1" data-name="レイヤー 1" xmlns="http://www.w3.org/2000/svg" viewBox="0 0 645.76 304.65"><defs><style>.cls-1{fill:#1e35a8;}.cls-2{fill:#444;}</style></defs><title>logo</title><path class="cls-1" d="M315.53,1.46l-45.1,97.12h0L211,226.46l7.67.17,3.3-7.17,9.29-20h78l9.25,20,2.94,6.83,8,.17h90Zm-77.74,184,32.62-70.23,32.46,70.23Z"/><polygon class="cls-1" points="534.03 214.58 534.03 1.29 435.37 1.29 435.37 226.63 534.03 226.63 644.7 226.63 644.7 214.58 534.03 214.58"/><path class="cls-1" d="M112.62,216.64a102.67,102.67,0,0,1-11-.59V11a105.34,105.34,0,0,1,11-.58,103,103,0,0,1,82.57,41.43l8.25-2.31c-.87-1.24-1.77-2.47-2.69-3.67A110.91,110.91,0,0,0,112.62,2.46q-5.57,0-11,.54a111.1,111.1,0,0,0,0,221.1c3.62.35,7.29.54,11,.54a111,111,0,0,0,90.73-47l-8.27-2.31A103,103,0,0,1,112.62,216.64Z"/><path class="cls-2" d="M6.93,257.59a16.1,16.1,0,0,1,12-4.83q9.77,0,14.28,6.48a14.17,14.17,0,0,1,2.68,7.29H27.74a11.17,11.17,0,0,0-2-4.24q-2.19-2.55-6.47-2.55a8,8,0,0,0-6.89,3.59q-2.52,3.6-2.52,10.18t2.66,9.85a8.31,8.31,0,0,0,6.76,3.28,7.67,7.67,0,0,0,6.41-2.81,12.46,12.46,0,0,0,2-4.54h8.12a17.61,17.61,0,0,1-5.37,10.4,15.61,15.61,0,0,1-11.06,4q-8.34,0-13.12-5.41T1.5,273.37Q1.5,263.14,6.93,257.59Z"/><path class="cls-2" d="M65.94,289.07q-3.66,4.51-11.12,4.52t-11.11-4.52a17.94,17.94,0,0,1,0-21.72q3.66-4.59,11.11-4.59t11.12,4.59a17.94,17.94,0,0,1,0,21.72Zm-6-4.18a11,11,0,0,0,1.77-6.7q0-4.35-1.77-6.69a6,6,0,0,0-5.1-2.34,6,6,0,0,0-5.1,2.34c-1.2,1.56-1.79,3.79-1.79,6.69s.59,5.13,1.79,6.7a6,6,0,0,0,5.1,2.36A6,6,0,0,0,59.89,284.89Z"/><path class="cls-2" d="M111.08,263.8a8.48,8.48,0,0,1,5,6.31,26.57,26.57,0,0,1,.26,4.27l0,18.23h-7.75V274.2a6,6,0,0,0-.53-2.71,3.77,3.77,0,0,0-3.71-2,4.34,4.34,0,0,0-4.32,2.6,8.13,8.13,0,0,0-.61,3.32v17.22H91.77V275.39a9.54,9.54,0,0,0-.53-3.74,3.69,3.69,0,0,0-3.74-2.1q-3.24,0-4.35,2.1a8,8,0,0,0-.61,3.55v17.41H74.88V263.74h7.34V268a12.16,12.16,0,0,1,2.66-3.21,10.54,10.54,0,0,1,11.06-.24A8.61,8.61,0,0,1,98.43,268a9.55,9.55,0,0,1,3.69-3.74,11.18,11.18,0,0,1,5.2-1.19A9.92,9.92,0,0,1,111.08,263.8Z"/><path class="cls-2" d="M147.63,266.8q3.54,3.74,3.54,11,0,7.64-3.46,11.64a11.25,11.25,0,0,1-8.91,4A9.32,9.32,0,0,1,133,291.7a10.92,10.92,0,0,1-2.46-2.78V304H123.1v-40.3h7.24V268a12.3,12.3,0,0,1,2.62-3,9.65,9.65,0,0,1,6-1.93A11.42,11.42,0,0,1,147.63,266.8Zm-5.8,5.43a5.4,5.4,0,0,0-5-2.57,5.69,5.69,0,0,0-5.71,3.9,14.57,14.57,0,0,0-.8,5.25q0,5,2.7,7.08a6.18,6.18,0,0,0,3.81,1.2,5.53,5.53,0,0,0,4.86-2.44,12.78,12.78,0,0,0,.14-12.42Z"/><path class="cls-2" d="M164,263.69v17.43a9.11,9.11,0,0,0,.58,3.71c.69,1.47,2,2.2,4,2.2a5.28,5.28,0,0,0,5.28-3.12,11.48,11.48,0,0,0,.74-4.49V263.69h7.66v28.92H175v-4.09c-.07.09-.25.35-.53.8a5.11,5.11,0,0,1-1,1.16,10.54,10.54,0,0,1-3.42,2.18,11.69,11.69,0,0,1-3.88.58q-6.41,0-8.62-4.61a17.71,17.71,0,0,1-1.24-7.51V263.69Z"/><path class="cls-2" d="M186.71,269.34V264h4v-8.07h7.48V264h4.7v5.38h-4.7v15.28a3.47,3.47,0,0,0,.45,2.22c.31.29,1.22.43,2.76.43h.73l.76,0v5.65l-3.58.13q-5.35.19-7.32-1.85a5.53,5.53,0,0,1-1.28-4v-17.8Z"/><path class="cls-2" d="M226.62,264.28a11.73,11.73,0,0,1,5,4.28,14.08,14.08,0,0,1,2.3,6,35.82,35.82,0,0,1,.25,5.74h-21q.16,4.35,3,6.1a7.62,7.62,0,0,0,4.17,1.09,5.86,5.86,0,0,0,5.75-3.32h7.72a9.45,9.45,0,0,1-2.8,5.23q-3.89,4.22-10.88,4.22A15.8,15.8,0,0,1,209.9,290q-4.41-3.55-4.41-11.58c0-5,1.33-8.85,4-11.52a13.93,13.93,0,0,1,10.33-4A16.4,16.4,0,0,1,226.62,264.28Zm-11.31,6.53a7.87,7.87,0,0,0-2,4.47h13a6.28,6.28,0,0,0-2-4.56,6.61,6.61,0,0,0-4.48-1.56A6,6,0,0,0,215.31,270.81Z"/><path class="cls-2" d="M254.05,263l.65,0v7.74c-.48-.05-.9-.09-1.27-.11l-.91,0q-4.56,0-6.12,3a11.45,11.45,0,0,0-.88,5.15v13.82h-7.61V263.69h7.21v5a16.19,16.19,0,0,1,3-4,8.3,8.3,0,0,1,5.52-1.78Z"/><path class="cls-2" d="M270.92,253.51h9.24L294,292.61h-8.86l-2.58-8h-14.4l-2.65,8H257Zm-.54,24.32h10l-4.94-15.38Z"/><path class="cls-2" d="M313.69,264.16a9.14,9.14,0,0,1,3.32,3.19V253.56h7.67v39.05h-7.35v-4a10.65,10.65,0,0,1-3.69,3.74,10.31,10.31,0,0,1-5.14,1.17,10.74,10.74,0,0,1-8.53-4.1,15.73,15.73,0,0,1-3.46-10.52q0-7.39,3.4-11.64A11.11,11.11,0,0,1,309,263,9.29,9.29,0,0,1,313.69,264.16Zm1.86,20.59a10.5,10.5,0,0,0,1.67-6.18q0-5.29-2.68-7.58a5.75,5.75,0,0,0-3.82-1.38,5.29,5.29,0,0,0-4.86,2.5,13.48,13.48,0,0,0,0,12.63,5.34,5.34,0,0,0,4.79,2.4A5.56,5.56,0,0,0,315.55,284.75Z"/><path class="cls-2" d="M349.36,263.69h8.12L347,292.61h-8L328.7,263.69h8.48l6,21.33Z"/><path class="cls-2" d="M369.53,260.24h-7.66v-7h7.66Zm-7.66,3.45h7.66v28.92h-7.66Z"/><path class="cls-2" d="M382.72,283.37a5,5,0,0,0,1,2.87q1.41,1.51,5.22,1.51a8,8,0,0,0,3.56-.66,2.13,2.13,0,0,0,1.32-2,2.16,2.16,0,0,0-1.06-1.94q-1.07-.66-7.91-2.28c-3.29-.81-5.6-1.83-6.95-3.05a6.61,6.61,0,0,1-2-5.2,9,9,0,0,1,3.15-6.88q3.15-2.88,8.86-2.88a16.3,16.3,0,0,1,8.84,2.16q3.42,2.16,3.92,7.47h-7.56a4.47,4.47,0,0,0-.82-2.31c-.84-1-2.26-1.54-4.26-1.54a6.13,6.13,0,0,0-3.52.77,2.22,2.22,0,0,0-1.05,1.81,2,2,0,0,0,1.11,1.88c.75.41,3.38,1.1,7.9,2.09a14.51,14.51,0,0,1,6.77,3.21,7.28,7.28,0,0,1,2.23,5.44,8.77,8.77,0,0,1-3.21,7q-3.19,2.72-9.9,2.72t-10.08-2.88a9.36,9.36,0,0,1-3.26-7.34Z"/><path class="cls-2" d="M425.91,264.28a11.76,11.76,0,0,1,5,4.28,14.21,14.21,0,0,1,2.3,6,37,37,0,0,1,.25,5.74H412.4q.18,4.35,3,6.1a7.67,7.67,0,0,0,4.17,1.09,6.39,6.39,0,0,0,4.2-1.33,6.22,6.22,0,0,0,1.56-2h7.71a9.38,9.38,0,0,1-2.8,5.23q-3.88,4.22-10.88,4.22A15.77,15.77,0,0,1,409.2,290q-4.41-3.55-4.41-11.58c0-5,1.32-8.85,4-11.52a14,14,0,0,1,10.34-4A16.35,16.35,0,0,1,425.91,264.28Zm-11.31,6.53a7.8,7.8,0,0,0-2,4.47h13a6.31,6.31,0,0,0-2-4.56,6.64,6.64,0,0,0-4.49-1.56A6,6,0,0,0,414.6,270.81Z"/><path class="cls-2" d="M453.34,263l.65,0v7.74c-.47-.05-.9-.09-1.27-.11l-.9,0c-3,0-5.09,1-6.13,3a11.62,11.62,0,0,0-.87,5.15v13.82H437.2V263.69h7.22v5a15.71,15.71,0,0,1,3.05-4A8.27,8.27,0,0,1,453,263Z"/><path class="cls-2" d="M459,253.51h8.17v32.07h19.53v7H459Z"/><path class="cls-2" d="M499.38,260.24h-7.67v-7h7.67Zm-7.67,3.45h7.67v28.92h-7.67Z"/><path class="cls-2" d="M542.78,263.8a8.44,8.44,0,0,1,5,6.31,25.23,25.23,0,0,1,.27,4.27L548,292.61h-7.74V274.2a6.11,6.11,0,0,0-.53-2.71,3.78,3.78,0,0,0-3.72-2,4.35,4.35,0,0,0-4.32,2.6,8.13,8.13,0,0,0-.61,3.32v17.22h-7.61V275.39a9.73,9.73,0,0,0-.53-3.74,3.71,3.71,0,0,0-3.74-2.1q-3.24,0-4.35,2.1a8,8,0,0,0-.61,3.55v17.41h-7.67V263.74h7.35V268a12.16,12.16,0,0,1,2.65-3.21,10.54,10.54,0,0,1,11.06-.24,8.54,8.54,0,0,1,2.5,3.48,9.53,9.53,0,0,1,3.68-3.74,11.21,11.21,0,0,1,5.2-1.19A10,10,0,0,1,542.78,263.8Z"/><path class="cls-2" d="M562.78,260.24h-7.67v-7h7.67Zm-7.67,3.45h7.67v28.92h-7.67Z"/><path class="cls-2" d="M567.13,269.34V264h4v-8.07h7.48V264h4.7v5.38h-4.7v15.28a3.47,3.47,0,0,0,.45,2.22c.3.29,1.22.43,2.76.43h.73l.76,0v5.65l-3.58.13q-5.37.19-7.32-1.85a5.53,5.53,0,0,1-1.28-4v-17.8Z"/><path class="cls-2" d="M607,264.28a11.7,11.7,0,0,1,5,4.28,14.21,14.21,0,0,1,2.3,6,35.82,35.82,0,0,1,.25,5.74H593.52q.18,4.35,3,6.1a7.62,7.62,0,0,0,4.17,1.09,6.34,6.34,0,0,0,4.19-1.33,6.22,6.22,0,0,0,1.56-2h7.72a9.51,9.51,0,0,1-2.8,5.23q-3.89,4.22-10.88,4.22A15.78,15.78,0,0,1,590.32,290q-4.41-3.55-4.41-11.58c0-5,1.33-8.85,4-11.52a14,14,0,0,1,10.34-4A16.32,16.32,0,0,1,607,264.28Zm-11.31,6.53a7.87,7.87,0,0,0-2,4.47h13a6.23,6.23,0,0,0-2-4.56,6.61,6.61,0,0,0-4.48-1.56A6,6,0,0,0,595.72,270.81Z"/><path class="cls-2" d="M633.74,264.16a9.11,9.11,0,0,1,3.31,3.19V253.56h7.67v39.05h-7.35v-4a10.71,10.71,0,0,1-3.68,3.74,10.35,10.35,0,0,1-5.15,1.17,10.76,10.76,0,0,1-8.53-4.1,15.73,15.73,0,0,1-3.46-10.52q0-7.39,3.41-11.64a11.09,11.09,0,0,1,9.11-4.25A9.32,9.32,0,0,1,633.74,264.16Zm1.86,20.59a10.57,10.57,0,0,0,1.67-6.18c0-3.53-.9-6.06-2.68-7.58a5.77,5.77,0,0,0-3.82-1.38,5.31,5.31,0,0,0-4.87,2.5,11.66,11.66,0,0,0-1.55,6.22,11.46,11.46,0,0,0,1.58,6.41,5.32,5.32,0,0,0,4.78,2.4A5.59,5.59,0,0,0,635.6,284.75Z"/></svg>