<svg id="レイヤー_1" data-name="レイヤー 1" xmlns="http://www.w3.org/2000/svg" viewBox="0 0 300 300"><defs><style>.cls-1{fill:#fff;}</style></defs><title>masse-series</title><path class="cls-1" d="M27.24,240.19V57.26a9.78,9.78,0,0,1,3.06-7.13,10.09,10.09,0,0,1,7.41-3.05H82.79a16.21,16.21,0,0,1,6.11,1.31,10.89,10.89,0,0,1,4.36,2.76l54.09,59.33,56.71-59a14.18,14.18,0,0,1,7.71-3.78,75.89,75.89,0,0,1,10-.58h39.26a10.42,10.42,0,0,1,10.18,10.18V240.19a10.34,10.34,0,0,1-2.91,7.41,9.61,9.61,0,0,1-7.27,3.06h-39a11.06,11.06,0,0,1-7.7-3.06,9.67,9.67,0,0,1-3.35-7.41v-107l-46.82,59.33q-5.82,7.86-14.83,7.85a18.74,18.74,0,0,1-8.29-1.89,16.19,16.19,0,0,1-6.25-5.09l-48-60.2.29,107a10.34,10.34,0,0,1-2.91,7.41A9.61,9.61,0,0,1,77,250.66H37.71a9.86,9.86,0,0,1-7.41-3.2A10.24,10.24,0,0,1,27.24,240.19Z"/></svg>