<svg id="レイヤー_1" data-name="レイヤー 1" xmlns="http://www.w3.org/2000/svg" viewBox="0 0 225.33 123.52"><defs><style>.cls-1{fill:#edc7a1;}.cls-2{fill:#ebedef;}.cls-3{fill:#33b5e6;}.cls-4{fill:#445a64;}.cls-5{fill:#788f9b;}.cls-6{fill:#fff;}.cls-7{fill:#ffe7ba;}.cls-8{fill:#37414c;}.cls-9{fill:#456975;}</style></defs><title>method-2</title><g id="_561125736" data-name=" 561125736"><polygon class="cls-1" points="36.29 86.85 38.84 86.85 46.58 86.85 49.13 86.85 50.16 97.67 52.01 99.15 55.91 101.63 47.57 121.32 37.84 121.32 29.51 101.63 33.4 99.15 35.25 97.67 36.29 86.85"/><polygon class="cls-2" points="32.05 99.95 21.41 103.35 34.4 121.32 49.54 121.32 60.82 102.36 53.31 99.98 46.69 104.65 38.75 104.65 32.05 99.95"/><polygon class="cls-3" points="40.33 104.22 41.24 106.46 40.07 121.32 45.35 121.32 44.17 106.46 45.08 104.22 42.71 104.13 40.33 104.22"/><path class="cls-4" d="M32.24,99.89l-18.83,6A7.43,7.43,0,0,0,10.24,111c-.44,2.31-.74,6.35-1,10.3H39.43Zm44,21.43c-.3-3.95-.6-8-1-10.3A7.43,7.43,0,0,0,72,105.9L53.31,100,46,121.32Z"/><path class="cls-5" d="M32.24,99.89l-4.06,1.3-.78,10.3s.21.85.86.77l3.66,1.38a.41.41,0,0,1,0,.54l-3.13,2.15,2.65,5h8L32.24,99.89ZM54,121.32l2.65-5-3.14-2.15a.42.42,0,0,1,0-.54l3.66-1.38c.64.08.86-.77.86-.77l-.78-10.27L53.31,100,46,121.32Z"/><path class="cls-6" d="M35.16,96.13C35.43,96.14,32,100,32,100L39,108.87l3.76-4.74c-4.29-2.1-6.84-4.83-7.55-8Z"/><path class="cls-6" d="M50.26,96.13C50,96.14,53.4,100,53.4,100l-7.2,8.66-3.49-4.52c4.28-2.1,6.84-4.83,7.55-8Z"/><path class="cls-7" d="M51.05,93.3a58,58,0,0,0,3.21-5.51,23.93,23.93,0,0,0,2-5.1,1.27,1.27,0,0,0,1.19-.37c1.33-1.17,2.77-6.84,1.8-8a1,1,0,0,0-1-.42c-.19.09-.44,0-.47-.17-.59-25.08-28.89-25.08-29.47,0,0,.24-.24.41-.48.17a1,1,0,0,0-1,.42c-1,1.17.47,6.84,1.8,8a1.27,1.27,0,0,0,1.19.37,23.42,23.42,0,0,0,2,5.1A61.43,61.43,0,0,0,35,93.12C39.91,99.34,46.25,100.05,51.05,93.3Z"/><path class="cls-8" d="M30.2,79.37,30,76.06l.62-2.69.22-3.93c5.65,6.09,22.83-6.74,23.52-2.19l.24,5.22,1.19,2.83L55.62,79s.93,0,1-2a6.6,6.6,0,0,1,1.21-3.44s2.28-9.21-.94-11.43c0-1.52-2.45-4.72-4.8-6.44C45.09,50.61,23.84,53.6,28,73.6A6.67,6.67,0,0,1,29.19,77c.06,1.93,1,2.33,1,2.33Z"/><polygon class="cls-1" points="177.71 86.85 180.26 86.85 188 86.85 190.55 86.85 191.59 97.67 193.44 99.15 197.33 101.63 189 121.32 179.26 121.32 170.93 101.63 174.82 99.15 176.67 97.67 177.71 86.85"/><polygon class="cls-2" points="173.47 99.95 162.84 103.35 175.82 121.32 190.97 121.32 202.25 102.36 194.73 99.98 188.11 104.65 180.18 104.65 173.47 99.95"/><polygon class="cls-3" points="181.76 104.22 182.66 106.46 181.49 121.32 186.77 121.32 185.6 106.46 186.51 104.22 184.13 104.13 181.76 104.22"/><path class="cls-4" d="M173.66,99.89l-18.82,6a7.43,7.43,0,0,0-3.17,5.12c-.45,2.31-.75,6.35-1,10.3h30.23Zm44,21.43c-.29-3.95-.59-8-1-10.3a7.43,7.43,0,0,0-3.17-5.12L194.73,100l-7.28,21.34Z"/><path class="cls-5" d="M173.66,99.89l-4.06,1.3-.78,10.3s.21.85.86.77l3.66,1.38a.42.42,0,0,1,0,.54l-3.14,2.15,2.65,5h8l-7.2-21.43Zm21.72,21.43,2.65-5-3.14-2.15a.42.42,0,0,1,0-.54l3.66-1.38c.65.08.86-.77.86-.77l-.77-10.27L194.73,100l-7.28,21.34Z"/><path class="cls-6" d="M176.58,96.13c.27,0-3.14,3.86-3.14,3.86l6.93,8.88,3.76-4.74c-4.28-2.1-6.84-4.83-7.55-8Z"/><path class="cls-6" d="M191.68,96.13c-.27,0,3.14,3.86,3.14,3.86l-7.2,8.66-3.49-4.52c4.28-2.1,6.84-4.83,7.55-8Z"/><path class="cls-7" d="M192.47,93.3a58,58,0,0,0,3.21-5.51,23.42,23.42,0,0,0,2-5.1,1.27,1.27,0,0,0,1.19-.37c1.33-1.17,2.78-6.84,1.8-8a1,1,0,0,0-1-.42c-.2.09-.45,0-.48-.17-.59-25.08-28.88-25.08-29.47,0,0,.24-.24.41-.48.17a1,1,0,0,0-1,.42c-1,1.17.47,6.84,1.8,8a1.28,1.28,0,0,0,1.2.37,23.4,23.4,0,0,0,2,5.1,61.43,61.43,0,0,0,3.1,5.33C181.33,99.34,187.68,100.05,192.47,93.3Z"/><path class="cls-8" d="M171.62,79.37l-.17-3.31.62-2.69.22-3.93c5.65,6.09,22.84-6.74,23.52-2.19l.24,5.22,1.2,2.83-.2,3.72s.92,0,1-2a6.57,6.57,0,0,1,1.22-3.44s2.27-9.21-.95-11.43c0-1.52-2.45-4.72-4.8-6.44-7-5.12-28.25-2.13-24.12,17.87A6.57,6.57,0,0,1,170.61,77c.06,1.93,1,2.33,1,2.33Z"/><polygon class="cls-1" points="103.45 71.7 107.41 71.7 119.43 71.7 123.39 71.7 125 88.51 127.88 90.81 133.93 94.66 122.64 121.32 104.2 121.32 92.91 94.66 98.96 90.81 101.83 88.51 103.45 71.7"/><polygon class="cls-2" points="96.87 92.05 80.34 97.33 97.68 121.32 126.38 121.32 141.56 95.79 129.88 92.09 119.6 99.35 107.27 99.35 96.87 92.05"/><polygon class="cls-3" points="109.73 98.68 111.14 102.17 109.63 121.32 117.21 121.32 115.7 102.17 117.11 98.68 113.42 98.54 109.73 98.68"/><path class="cls-9" d="M97.15,92l-29.24,9.33s-3.8,2.1-4.92,8c-.54,2.82-1,7.31-1.32,12.07H107Zm68,29.36c-.37-4.77-.78-9.25-1.32-12.07-1.12-5.86-4.93-8-4.93-8l-29-9.2-10,29.23Z"/><path class="cls-5" d="M97.15,92l-6.31,2-1.21,16s.34,1.31,1.34,1.19l5.69,2.14a.66.66,0,0,1,0,.85l-4.88,3.33,2,3.83H107L97.15,92ZM133,121.32l2-3.83-4.87-3.33a.65.65,0,0,1,0-.85l5.69-2.14c1,.12,1.33-1.19,1.33-1.19L136,94l-6.12-1.94-10,29.23Z"/><path class="cls-6" d="M101.69,86.11c.42,0-4.87,6-4.87,6l10.76,13.8,5.84-7.37c-6.65-3.27-10.62-7.49-11.73-12.43Z"/><path class="cls-6" d="M125.15,86.11c-.42,0,4.87,6,4.87,6l-11.17,13.45-5.43-7c6.65-3.27,10.62-7.49,11.73-12.43Z"/><path class="cls-7" d="M126.38,81.71a90.6,90.6,0,0,0,5-8.55,36.81,36.81,0,0,0,3.16-7.91,2,2,0,0,0,1.85-.59c2.06-1.82,4.31-10.62,2.79-12.45a1.55,1.55,0,0,0-1.55-.64c-.31.13-.7.07-.75-.26-.9-39-44.86-39-45.77,0a.41.41,0,0,1-.75.26,1.54,1.54,0,0,0-1.55.65c-1.52,1.82.73,10.62,2.79,12.44a2,2,0,0,0,1.86.59,36.3,36.3,0,0,0,3.16,7.91,95.16,95.16,0,0,0,4.81,8.28c7.65,9.66,17.5,10.77,25,.27Z"/><path class="cls-8" d="M94,60.08l-.27-5.15,1-4.18L95,44.66c8.79,9.46,35.48-10.48,36.54-3.41l.38,8.1,1.85,4.41-.3,5.78s1.44-.08,1.54-3.08a10.34,10.34,0,0,1,1.89-5.35s3.53-14.3-1.46-17.75c0-2.36-3.82-7.34-7.46-10-10.88-7.95-43.89-3.31-37.48,27.75a10.3,10.3,0,0,1,1.9,5.35c.1,3,1.57,3.63,1.57,3.63Z"/></g></svg>