<svg id="レイヤー_1" data-name="レイヤー 1" xmlns="http://www.w3.org/2000/svg" viewBox="0 0 180 180"><defs><style>.cls-1{fill:#c1cfd3;}.cls-2{fill:#c7d6dd;}.cls-3{fill:#acbfc6;}.cls-4{fill:#a6aaba;}.cls-5{fill:#27a2db;}.cls-6{fill:#2d93ba;}</style></defs><title>recruit-process-1</title><rect class="cls-1" x="26.97" y="167.3" width="123.3" height="5.7"/><polygon class="cls-2" points="121.47 8 26.97 8 26.97 167.3 150.57 167.3 150.57 37.1 121.47 8"/><polygon class="cls-3" points="121.47 37.1 150.57 37.1 121.47 8 121.47 37.1"/><rect class="cls-4" x="37.17" y="115.4" width="103.2" height="5.7"/><rect class="cls-4" x="37.17" y="131.9" width="103.2" height="5.7"/><rect class="cls-4" x="37.17" y="99.2" width="84.3" height="5.7"/><rect class="cls-4" x="37.17" y="83" width="103.2" height="5.7"/><rect class="cls-4" x="37.17" y="66.8" width="103.2" height="5.7"/><rect class="cls-4" x="37.17" y="148.1" width="47.1" height="5.7"/><polygon class="cls-1" points="121.47 37.1 150.57 61.7 150.57 37.1 121.47 37.1"/><rect class="cls-5" x="37.17" y="14.9" width="33.9" height="39.9"/><circle class="cls-6" cx="53.97" cy="28.1" r="7.2"/><path class="cls-6" d="M54,37.7a16.77,16.77,0,0,0-16.8,16.8h33.9C71.07,45.5,63.27,37.7,54,37.7Z"/></svg>