<svg id="レイヤー_1" data-name="レイヤー 1" xmlns="http://www.w3.org/2000/svg" viewBox="0 0 180 180"><defs><style>.cls-1{fill:#edc7a1;}.cls-2{fill:#ebedef;}.cls-3{fill:#33b5e6;}.cls-4{fill:#456975;}.cls-5{fill:#788f9b;}.cls-6{fill:#fff;}.cls-7{fill:#ffe7ba;}.cls-8{fill:#37414c;}.cls-9{fill:#c7d6dd;}.cls-10{fill:#e1e7ea;}.cls-11{fill:#e588c8;}.cls-12{fill:#a6aaba;}</style></defs><title>recruit-process-2</title><polygon class="cls-1" points="39.36 49.11 42.78 49.11 53.17 49.11 56.6 49.11 57.99 63.64 60.47 65.63 65.7 68.96 55.95 92 40.01 92 30.26 68.96 35.48 65.63 37.97 63.64 39.36 49.11"/><polygon class="cls-2" points="33.67 66.7 19.39 71.26 34.38 92 59.18 92 72.3 69.93 62.21 66.73 53.32 73.01 42.67 73.01 33.67 66.7"/><polygon class="cls-3" points="44.79 72.43 46.01 75.45 44.7 92 51.26 92 49.95 75.45 51.17 72.43 47.98 72.31 44.79 72.43"/><path class="cls-4" d="M33.92,66.62,8.65,74.69S5.36,76.5,4.39,81.56C3.93,84,3.58,87.88,3.25,92H42.44ZM92.7,92c-.32-4.12-.67-8-1.14-10.44-1-5.06-4.25-6.87-4.25-6.87l-25.1-8L53.59,92Z"/><path class="cls-5" d="M33.92,66.62l-5.45,1.74-1,13.83s.29,1.14,1.16,1l4.91,1.85a.56.56,0,0,1,0,.73l-4.21,2.88L31.07,92H42.44L33.92,66.62ZM64.88,92l1.76-3.31-4.21-2.88a.56.56,0,0,1,0-.73l4.92-1.85c.87.1,1.16-1,1.16-1L67.49,68.41l-5.28-1.67L53.59,92Z"/><path class="cls-6" d="M37.85,61.57c.36,0-4.22,5.19-4.22,5.19l9.3,11.92,5-6.37c-5.75-2.82-9.18-6.48-10.13-10.74Z"/><path class="cls-6" d="M58.11,61.57c-.36,0,4.22,5.19,4.22,5.19L52.67,78.37,48,72.31c5.75-2.82,9.18-6.48,10.13-10.74Z"/><path class="cls-7" d="M59.18,57.77a80.27,80.27,0,0,0,4.31-7.4,31.43,31.43,0,0,0,2.73-6.83,1.75,1.75,0,0,0,1.6-.51c1.79-1.58,3.73-9.18,2.42-10.76a1.37,1.37,0,0,0-1.35-.56c-.26.12-.6.07-.64-.22-.79-33.67-38.78-33.67-39.56,0a.35.35,0,0,1-.64.23,1.33,1.33,0,0,0-1.35.55c-1.31,1.58.63,9.18,2.41,10.76a1.77,1.77,0,0,0,1.61.51,31.43,31.43,0,0,0,2.73,6.83,82.63,82.63,0,0,0,4.16,7.16c6.61,8.35,15.13,9.31,21.57.24Z"/><path class="cls-8" d="M31.19,39.07,31,34.62,31.79,31l.29-5.27c7.59,8.18,30.66-9,31.58-2.94l.32,7,1.61,3.81-.27,5s1.25-.06,1.33-2.66a8.93,8.93,0,0,1,1.64-4.62S71.34,19,67,16c0-2-3.29-6.34-6.44-8.65-9.4-6.87-37.93-2.86-32.39,24a8.93,8.93,0,0,1,1.64,4.62c.08,2.6,1.36,3.14,1.36,3.14Z"/><rect class="cls-9" x="61.65" y="68.09" width="113.29" height="84.97" transform="translate(-19.24 196.04) rotate(-74.92)"/><path class="cls-10" d="M106.36,77.59,94.05,74.27A1.56,1.56,0,0,1,93,72.36l3.31-12.3A1.57,1.57,0,0,1,98.18,59l12.31,3.31a1.56,1.56,0,0,1,1.09,1.91l-3.31,12.31A1.57,1.57,0,0,1,106.36,77.59Z"/><path class="cls-11" d="M101.12,74.71a2.31,2.31,0,0,1-1.32-1.09L96.11,65l3.67-1.65,2.71,6.3,9.36-7,2.35,3.27-11.39,8.52a2.26,2.26,0,0,1-1.69.28Z"/><rect class="cls-12" x="139.16" y="51.23" width="2.83" height="44.75" transform="translate(32.94 190.2) rotate(-74.92)"/><rect class="cls-12" x="126.3" y="67.16" width="2.83" height="22.37" transform="translate(18.84 181.29) rotate(-74.92)"/><path class="cls-10" d="M100.13,100.69l-12.3-3.31a1.57,1.57,0,0,1-1.1-1.91l3.32-12.31a1.56,1.56,0,0,1,1.9-1.1l12.31,3.32a1.57,1.57,0,0,1,1.1,1.91L102,99.6A1.56,1.56,0,0,1,100.13,100.69Z"/><path class="cls-11" d="M94.9,97.82a2.28,2.28,0,0,1-1.32-1.09l-3.73-8.49,3.67-1.65,2.7,6.3,9.37-7,2.35,3.28L96.62,97.4a2,2,0,0,1-1.72.42Z"/><rect class="cls-12" x="132.94" y="74.34" width="2.83" height="44.75" transform="translate(6.02 201.28) rotate(-74.92)"/><rect class="cls-12" x="120.07" y="90.27" width="2.83" height="22.37" transform="translate(-8.08 192.37) rotate(-74.92)"/><path class="cls-10" d="M93.91,123.8,81.6,120.49a1.57,1.57,0,0,1-1.1-1.91l3.32-12.31a1.57,1.57,0,0,1,1.91-1.1L98,108.49a1.56,1.56,0,0,1,1.09,1.91l-3.31,12.3A1.57,1.57,0,0,1,93.91,123.8Z"/><path class="cls-11" d="M88.67,120.92a2.23,2.23,0,0,1-1.32-1.08l-3.73-8.49,3.68-1.65L90,116l9.37-7,2.34,3.27-11.39,8.52a2.87,2.87,0,0,1-1.65.14Z"/><rect class="cls-12" x="126.71" y="97.45" width="2.83" height="44.75" transform="translate(-20.9 212.37) rotate(-74.92)"/><rect class="cls-12" x="113.85" y="113.38" width="2.83" height="22.37" transform="translate(-35 203.46) rotate(-74.92)"/><path class="cls-10" d="M87.65,147.05l-12.31-3.32a1.57,1.57,0,0,1-1.1-1.91l3.32-12.3a1.57,1.57,0,0,1,1.91-1.1l12.3,3.31a1.57,1.57,0,0,1,1.1,1.91L89.56,146A1.68,1.68,0,0,1,87.65,147.05Z"/><rect class="cls-12" x="120.49" y="120.56" width="2.83" height="44.75" transform="translate(-47.82 223.46) rotate(-74.92)"/><rect class="cls-12" x="107.58" y="136.63" width="2.83" height="22.37" transform="translate(-62.08 214.61) rotate(-74.92)"/></svg>