<svg id="レイヤー_1" data-name="レイヤー 1" xmlns="http://www.w3.org/2000/svg" viewBox="0 0 322 230"><defs><style>.cls-1{fill:#41b3e2;}.cls-2{fill:#163d9e;}.cls-3{fill:#f2f2f2;}.cls-4{fill:#e45238;}.cls-5{fill:#324e5c;}.cls-6{fill:#999;}.cls-7{fill:#ccc;}.cls-8{fill:#445c6c;}.cls-9{fill:#788d9a;}.cls-10{fill:#dbdfe0;}.cls-11{fill:#eff3f5;}.cls-12{fill:#379fc8;}.cls-13{fill:#576f7c;}</style></defs><title>work-1</title><g id="g6090"><g id="g11321"><g id="g8149"><path id="path5167" class="cls-1" d="M321,81.79a67.73,67.73,0,1,1-67.73-67.72A67.73,67.73,0,0,1,321,81.79Z"/></g></g><g id="g5204"><path id="path4915" class="cls-2" d="M226.28,43.06A2.9,2.9,0,0,0,223.37,46v5.47h-7.6a9,9,0,0,0-9,9v51.91a9,9,0,0,0,9,9h73a9,9,0,0,0,9-9V60.48a9,9,0,0,0-9-9h-7.61V46a2.9,2.9,0,0,0-2.9-2.91h-2.53A2.91,2.91,0,0,0,272.84,46v5.47H231.72V46a2.91,2.91,0,0,0-2.92-2.91Z"/><g id="g5195-7-7-8"><path id="rect3007-7-0-5-5-4-8" class="cls-3" d="M208,111.48V60.21A8.9,8.9,0,0,1,217,51.28h72.13A8.91,8.91,0,0,1,298,60.21v51.27a8.9,8.9,0,0,1-8.93,8.92H217A8.9,8.9,0,0,1,208,111.48Z"/><path id="rect5135-1-0-2" class="cls-4" d="M217,51.28A8.9,8.9,0,0,0,208,60.21V71.64h90V60.21a8.91,8.91,0,0,0-8.93-8.93Z"/></g><path id="rect4523-4-71-9-4" class="cls-5" d="M227.34,43a2.87,2.87,0,0,0-2.87,2.88V56.74a2.86,2.86,0,0,0,2.87,2.87h2.5a2.87,2.87,0,0,0,2.88-2.87V45.88A2.88,2.88,0,0,0,229.84,43Zm48.88,0a2.87,2.87,0,0,0-2.88,2.88V56.74a2.86,2.86,0,0,0,2.88,2.87h2.49a2.85,2.85,0,0,0,2.87-2.87V45.88A2.87,2.87,0,0,0,278.71,43Z"/><path id="rect3797-4" class="cls-6" d="M215.12,78v6.67h6.66V78Z"/><path id="path7006-8" class="cls-4" d="M215.12,87.64V94.3h6.66V87.64Z"/><path id="path7008-8" class="cls-4" d="M215.12,97.29V104h6.66V97.29Z"/><path id="path7010-2" class="cls-4" d="M215.12,107v6.66h6.66V107Z"/><path id="path7189-5" class="cls-6" d="M226.54,78v6.67h6.66V78Z"/><path id="path7191-5" class="cls-7" d="M226.54,87.64V94.3h6.66V87.64Z"/><path id="path7193-1" class="cls-7" d="M226.54,97.29V104h6.66V97.29Z"/><path id="path7195-7" class="cls-7" d="M226.54,107v6.66h6.66V107Z"/><path id="path7197-1" class="cls-6" d="M238,78v6.67h6.66V78Z"/><path id="path7199-1" class="cls-7" d="M238,87.64V94.3h6.66V87.64Z"/><path id="path7201-5" class="cls-7" d="M238,97.29V104h6.66V97.29Z"/><path id="path7203-2" class="cls-7" d="M238,107v6.66h6.66V107Z"/><path id="path7205-7" class="cls-7" d="M249.37,78v6.67H256V78Z"/><path id="path7207-6" class="cls-7" d="M249.37,87.64V94.3H256V87.64Z"/><path id="path7209-1" class="cls-7" d="M249.37,97.29V104H256V97.29Z"/><path id="path7211-4" class="cls-7" d="M249.37,107v6.66H256V107Z"/><path id="path7213-2" class="cls-7" d="M260.79,78v6.67h6.66V78Z"/><path id="path7215-3" class="cls-7" d="M260.79,87.64V94.3h6.66V87.64Z"/><path id="path7217-2" class="cls-7" d="M260.79,97.29V104h6.66V97.29Z"/><path id="path7219-2" class="cls-7" d="M260.79,107v6.66h6.66V107Z"/><path id="path7221-1" class="cls-7" d="M272.2,78v6.67h6.66V78Z"/><path id="path7223-6" class="cls-7" d="M272.2,87.64V94.3h6.66V87.64Z"/><path id="path7225-8" class="cls-7" d="M272.2,97.29V104h6.66V97.29Z"/><path id="path7227-5" class="cls-7" d="M272.2,107v6.66h6.66V107Z"/><path id="path7229-7" class="cls-7" d="M283.62,78v6.67h6.66V78Z"/><path id="path7231-6" class="cls-7" d="M283.62,87.64V94.3h6.66V87.64Z"/><path id="path7233-1" class="cls-7" d="M283.62,97.29V104h6.66V97.29Z"/><path id="path7235-8" class="cls-7" d="M283.62,107v6.66h6.66V107Z"/></g></g><rect class="cls-8" x="135.28" y="124.47" width="3.17" height="5.98"/><path class="cls-9" d="M143.73,123.42a18.51,18.51,0,0,1-13.73,0v-6a18.51,18.51,0,0,1,13.73,0Z"/><polygon class="cls-10" points="222.21 177.97 186.31 189.23 11.04 185.01 37.09 145.59 89.53 145.59 106.77 130.1 154.64 130.1 222.21 177.97"/><polygon class="cls-11" points="89.18 148.4 105.37 132.92 158.16 132.92 154.64 130.1 106.77 130.1 89.53 145.59 37.09 145.59 35.33 148.4 89.18 148.4"/><rect class="cls-12" x="25.12" y="176.91" width="3.87" height="3.87"/><rect class="cls-12" x="32.51" y="176.91" width="3.87" height="3.87"/><rect class="cls-12" x="39.9" y="176.91" width="3.87" height="3.87"/><rect class="cls-12" x="47.29" y="176.91" width="3.87" height="3.87"/><rect class="cls-12" x="54.68" y="176.91" width="3.87" height="3.87"/><rect class="cls-12" x="62.43" y="176.91" width="3.87" height="3.87"/><rect class="cls-12" x="69.82" y="176.91" width="3.87" height="3.87"/><rect class="cls-12" x="77.21" y="176.91" width="3.87" height="3.87"/><rect class="cls-12" x="84.6" y="176.91" width="3.87" height="3.87"/><rect class="cls-12" x="91.99" y="176.91" width="3.87" height="3.87"/><rect class="cls-12" x="99.38" y="176.91" width="3.87" height="3.87"/><rect class="cls-12" x="107.13" y="176.91" width="3.87" height="3.87"/><rect class="cls-12" x="114.52" y="176.91" width="3.87" height="3.87"/><rect class="cls-12" x="121.91" y="176.91" width="3.87" height="3.87"/><rect class="cls-12" x="129.3" y="176.91" width="3.87" height="3.87"/><rect class="cls-12" x="136.69" y="176.91" width="3.87" height="3.87"/><rect class="cls-12" x="144.43" y="176.91" width="3.87" height="3.87"/><rect class="cls-12" x="151.82" y="176.91" width="3.87" height="3.87"/><rect class="cls-12" x="159.21" y="176.91" width="3.87" height="3.87"/><rect class="cls-12" x="166.61" y="176.91" width="3.87" height="3.87"/><rect class="cls-12" x="174" y="176.91" width="3.87" height="3.87"/><rect class="cls-12" x="181.39" y="176.91" width="3.87" height="3.87"/><rect class="cls-12" x="32.51" y="165.3" width="3.87" height="3.87"/><rect class="cls-12" x="39.9" y="165.3" width="3.87" height="3.87"/><rect class="cls-12" x="47.29" y="165.3" width="3.87" height="3.87"/><rect class="cls-12" x="54.68" y="165.3" width="3.87" height="3.87"/><rect class="cls-12" x="62.08" y="165.3" width="3.87" height="3.87"/><rect class="cls-12" x="69.82" y="165.3" width="3.87" height="3.87"/><rect class="cls-12" x="77.21" y="165.3" width="3.87" height="3.87"/><rect class="cls-12" x="84.6" y="165.3" width="3.87" height="3.87"/><rect class="cls-12" x="91.99" y="165.3" width="3.87" height="3.87"/><rect class="cls-12" x="99.38" y="165.3" width="3.87" height="3.87"/><rect class="cls-12" x="106.77" y="165.3" width="3.87" height="3.87"/><rect class="cls-12" x="114.52" y="165.3" width="3.87" height="3.87"/><rect class="cls-12" x="121.91" y="165.3" width="3.87" height="3.87"/><rect class="cls-12" x="129.3" y="165.3" width="3.87" height="3.87"/><rect class="cls-12" x="136.69" y="165.3" width="3.87" height="3.87"/><rect class="cls-12" x="144.08" y="165.3" width="3.87" height="3.87"/><rect class="cls-12" x="151.47" y="165.3" width="3.87" height="3.87"/><rect class="cls-12" x="159.21" y="165.3" width="3.87" height="3.87"/><rect class="cls-12" x="166.61" y="165.3" width="3.87" height="3.87"/><rect class="cls-12" x="174" y="165.3" width="3.87" height="3.87"/><rect class="cls-12" x="181.39" y="165.3" width="3.87" height="3.87"/><rect class="cls-12" x="188.78" y="165.3" width="3.87" height="3.87"/><rect class="cls-12" x="39.55" y="156.15" width="3.87" height="3.87"/><rect class="cls-12" x="46.94" y="156.15" width="3.87" height="3.87"/><rect class="cls-12" x="54.68" y="156.15" width="3.87" height="3.87"/><rect class="cls-12" x="62.08" y="156.15" width="3.87" height="3.87"/><rect class="cls-12" x="69.47" y="156.15" width="3.87" height="3.87"/><rect class="cls-12" x="76.86" y="156.15" width="3.87" height="3.87"/><rect class="cls-12" x="84.25" y="156.15" width="3.87" height="3.87"/><rect class="cls-12" x="91.99" y="156.15" width="3.87" height="3.87"/><rect class="cls-12" x="99.38" y="156.15" width="3.87" height="3.87"/><rect class="cls-12" x="106.77" y="156.15" width="3.87" height="3.87"/><rect class="cls-12" x="114.16" y="156.15" width="3.87" height="3.87"/><rect class="cls-12" x="121.56" y="156.15" width="3.87" height="3.87"/><rect class="cls-12" x="128.95" y="156.15" width="3.87" height="3.87"/><rect class="cls-12" x="136.69" y="156.15" width="3.87" height="3.87"/><rect class="cls-12" x="144.08" y="156.15" width="3.87" height="3.87"/><rect class="cls-12" x="151.47" y="156.15" width="3.87" height="3.87"/><rect class="cls-12" x="158.86" y="156.15" width="3.87" height="3.87"/><rect class="cls-12" x="166.25" y="156.15" width="3.87" height="3.87"/><rect class="cls-12" x="173.64" y="156.15" width="3.87" height="3.87"/><rect class="cls-12" x="181.39" y="156.15" width="3.87" height="3.87"/><polygon class="cls-9" points="215.53 173.04 18.79 173.04 20.55 170.58 211.66 170.58 215.53 173.04"/><polygon class="cls-9" points="202.15 163.89 25.12 163.89 26.53 161.43 198.63 161.43 202.15 163.89"/><polygon class="cls-9" points="189.13 154.74 31.1 154.74 32.86 152.28 185.61 152.28 189.13 154.74"/><rect class="cls-1" x="108.53" y="137.85" width="5.98" height="5.98"/><rect class="cls-1" x="119.09" y="137.85" width="5.98" height="5.98"/><rect class="cls-1" x="129.65" y="137.85" width="5.98" height="5.98"/><rect class="cls-1" x="140.21" y="137.85" width="5.98" height="5.98"/><path class="cls-8" d="M7.17,185h126a23.69,23.69,0,0,1,16.89-7h82.71l-30.62,30.62H17.73Z"/><path class="cls-13" d="M133.17,187.12h0a23.69,23.69,0,0,1,16.89-7h80.6l2.11-2.11H149.71a23.68,23.68,0,0,0-16.89,7H7.17l1.06,2.11Z"/><rect class="cls-1" x="20.19" y="193.45" width="3.87" height="3.87"/><rect class="cls-1" x="27.94" y="193.45" width="3.87" height="3.87"/><rect class="cls-1" x="35.33" y="193.45" width="3.87" height="3.87"/><rect class="cls-1" x="42.72" y="193.45" width="3.87" height="3.87"/><rect class="cls-1" x="50.11" y="193.45" width="3.87" height="3.87"/><rect class="cls-1" x="57.5" y="193.45" width="3.87" height="3.87"/><rect class="cls-1" x="64.89" y="193.45" width="3.87" height="3.87"/><rect class="cls-1" x="72.63" y="193.45" width="3.87" height="3.87"/><rect class="cls-1" x="80.03" y="193.45" width="3.87" height="3.87"/><rect class="cls-1" x="87.42" y="193.45" width="3.87" height="3.87"/><rect class="cls-1" x="94.81" y="193.45" width="3.87" height="3.87"/><rect class="cls-1" x="102.2" y="193.45" width="3.87" height="3.87"/><rect class="cls-1" x="109.94" y="193.45" width="3.87" height="3.87"/><rect class="cls-1" x="117.33" y="193.45" width="3.87" height="3.87"/><rect class="cls-1" x="124.72" y="193.45" width="3.87" height="3.87"/><rect class="cls-1" x="132.11" y="193.45" width="3.87" height="3.87"/><rect class="cls-1" x="139.5" y="193.45" width="3.87" height="3.87"/><rect class="cls-1" x="146.9" y="193.45" width="3.87" height="3.87"/><rect class="cls-1" x="154.64" y="193.45" width="3.87" height="3.87"/><rect class="cls-1" x="162.03" y="193.45" width="3.87" height="3.87"/><rect class="cls-1" x="169.42" y="193.45" width="3.87" height="3.87"/><rect class="cls-1" x="176.81" y="193.45" width="3.87" height="3.87"/><rect class="cls-9" x="51.17" y="120.95" width="17.6" height="24.99"/><rect class="cls-8" x="51.17" y="140.66" width="17.6" height="4.93"/><path class="cls-8" d="M79.67,130.1a2.41,2.41,0,0,0-2.46,2.47v13h4.58v-13A2.36,2.36,0,0,0,79.67,130.1Z"/><path class="cls-8" d="M45.89,130.1a2.41,2.41,0,0,0-2.47,2.47v13H48v-13A2.36,2.36,0,0,0,45.89,130.1Z"/><polygon class="cls-1" points="215.17 136.3 192.17 143.36 199.87 123.36 215.17 136.3"/></svg>