<svg id="レイヤー_1" data-name="レイヤー 1" xmlns="http://www.w3.org/2000/svg" viewBox="0 0 323 229.52"><defs><style>.cls-1{fill:#324a5e;}.cls-2{fill:#ffd05b;}.cls-3{fill:#f9b54c;}.cls-4{fill:#e6e9ee;}.cls-5{fill:#54c0eb;}.cls-6{fill:#2b3b4e;}.cls-7{fill:#fff;}.cls-8{fill:#ff7058;}.cls-9{fill:#acb3ba;}.cls-10{fill:#41b3e2;}.cls-11{fill:#c6ce7c;}.cls-12{fill:#51aea7;}.cls-13{fill:#b1b55d;}.cls-14{fill:#eff2f3;}.cls-15{fill:#fad882;}.cls-16{fill:#fdc77c;}.cls-17{fill:#f0786b;}.cls-18{fill:#41b1df;}.cls-19{fill:#788c99;}.cls-20{fill:#d45947;}.cls-21{fill:#379ec7;}.cls-22{fill:#455d6d;}</style></defs><title>work-2</title><path class="cls-1" d="M178,185.25H4.47A.45.45,0,0,1,4,184.8V170.33a.44.44,0,0,1,.44-.44H178a.45.45,0,0,1,.45.44V184.8A.43.43,0,0,1,178,185.25Z"/><path class="cls-2" d="M174,169.93H65.34V97.86a1.24,1.24,0,0,1,1.25-1.25H172.82a1.25,1.25,0,0,1,1.25,1.25v72.07Z"/><rect class="cls-3" x="155.27" y="107.42" width="7.41" height="51.75"/><rect class="cls-3" x="139.55" y="107.42" width="7.41" height="51.75"/><rect class="cls-3" x="123.83" y="107.42" width="7.41" height="51.75"/><rect class="cls-3" x="108.12" y="107.42" width="7.41" height="51.75"/><rect class="cls-3" x="92.4" y="107.42" width="7.41" height="51.75"/><rect class="cls-3" x="76.72" y="107.42" width="7.41" height="51.75"/><path class="cls-4" d="M24.93,110.54,10.64,133.45a3.72,3.72,0,0,0-.58,2V170H58V112.46a3.69,3.69,0,0,0-3.7-3.7H28.05A3.82,3.82,0,0,0,24.93,110.54Z"/><polygon class="cls-5" points="53.68 142.69 53.68 112.95 28.14 112.95 14.03 135.5 14.03 142.69 53.68 142.69"/><path class="cls-6" d="M143.26,175.74h0a18.7,18.7,0,0,0-18.71,18.71h0a18.7,18.7,0,0,0,18.71,18.71h0A18.71,18.71,0,0,0,162,194.45h0A18.65,18.65,0,0,0,143.26,175.74Z"/><path class="cls-6" d="M34.08,175.74h0a18.7,18.7,0,0,0-18.71,18.71h0a18.7,18.7,0,0,0,18.71,18.71h0a18.71,18.71,0,0,0,18.71-18.71h0A18.71,18.71,0,0,0,34.08,175.74Z"/><path class="cls-7" d="M34.08,183.06h0a11.38,11.38,0,0,0-11.39,11.39h0a11.38,11.38,0,0,0,11.39,11.38h0a11.38,11.38,0,0,0,11.39-11.38h0A11.44,11.44,0,0,0,34.08,183.06Z"/><path class="cls-7" d="M143.26,183.06h0a11.38,11.38,0,0,0-11.39,11.39h0a11.38,11.38,0,0,0,11.39,11.38h0a11.38,11.38,0,0,0,11.39-11.38h0A11.38,11.38,0,0,0,143.26,183.06Z"/><rect class="cls-8" x="7.87" y="150.24" width="5.09" height="9.65"/><rect class="cls-9" x="40.38" y="146.85" width="13.31" height="2.63"/><path class="cls-4" d="M117.36,199.49h-59a.3.3,0,0,1-.31-.31V177.92a.31.31,0,0,1,.31-.31h59a.31.31,0,0,1,.31.31v21.26A.3.3,0,0,1,117.36,199.49Z"/><g id="g11321"><g id="g8149"><path id="path5167" class="cls-10" d="M322.46,81.22a67.73,67.73,0,1,1-67.73-67.73A67.72,67.72,0,0,1,322.46,81.22Z"/></g></g><polygon class="cls-10" points="216.67 135.73 193.67 142.79 201.37 122.79 216.67 135.73"/><rect class="cls-11" x="219.37" y="39.93" width="71.86" height="84.73"/><rect class="cls-12" x="219.37" y="123.08" width="71.86" height="1.59"/><rect class="cls-13" x="227.93" y="48.01" width="57.56" height="71.41"/><rect class="cls-14" x="226.52" y="46.58" width="57.56" height="71.41"/><path class="cls-15" d="M264,38.63h-3.34a4.54,4.54,0,0,0-4.53-4.53h-1.55A4.54,4.54,0,0,0,250,38.63h-3.33a7.42,7.42,0,0,0-7.42,7.42v1.64h32.13V46.05A7.44,7.44,0,0,0,264,38.63Zm-11.13,0a1.72,1.72,0,0,1,1.71-1.71h1.55a1.71,1.71,0,0,1,1.71,1.71h-5Z"/><path class="cls-16" d="M239.23,46v1.71h32.13V46Z"/><path class="cls-17" d="M231.85,54.52V71h16.46V54.52Zm12.57,12.55h-8.67V58.41h8.67Z"/><path class="cls-18" d="M231.85,75.22V91.68h16.46V75.22Zm12.57,12.55h-8.67V79.11h8.67Z"/><path class="cls-19" d="M231.85,95.91v16.45h16.46V95.91Zm12.57,12.57h-8.67V99.81h8.67Z"/><polygon class="cls-20" points="239 64.92 236.61 61.9 237.73 61.01 239.23 62.92 243.23 59.71 244.1 60.81 239 64.92"/><rect class="cls-17" x="252.82" y="57.46" width="15.82" height="2.5"/><rect class="cls-17" x="252.82" y="65.52" width="25.68" height="2.5"/><rect class="cls-18" x="252.82" y="78.16" width="15.82" height="2.5"/><rect class="cls-18" x="252.82" y="86.22" width="25.68" height="2.5"/><rect class="cls-19" x="252.82" y="98.87" width="15.82" height="2.5"/><rect class="cls-19" x="252.82" y="106.91" width="25.68" height="2.5"/><rect class="cls-20" x="231.85" y="69.75" width="16.46" height="1.23"/><rect class="cls-21" x="231.85" y="90.43" width="16.46" height="1.23"/><rect class="cls-22" x="231.85" y="111.03" width="16.46" height="1.23"/></svg>