<svg id="レイヤー_1" data-name="レイヤー 1" xmlns="http://www.w3.org/2000/svg" viewBox="0 0 300 300"><defs><style>.cls-1{fill:#fff;stroke:#fff;stroke-miterlimit:10;stroke-width:3px;}</style></defs><title>aocm</title><path class="cls-1" d="M4.65,184.39h7.08l7.56-18.31,2.2-5.18.72-1.73v1.27h26v-1.32L49,160.9l2.2,5.18,7.75,18.31h7L35.27,114.44Zm19.54-29.95L35.27,128l11,26.49Z"/><path class="cls-1" d="M104.93,116.35a34.55,34.55,0,1,0,34.74,34.55A34.7,34.7,0,0,0,104.93,116.35Zm0,63a28.43,28.43,0,1,1,27.85-28.42A28.06,28.06,0,0,1,104.93,179.32Z"/><path class="cls-1" d="M185.31,122.48c7.09,0,14.65,2.39,19.62,6.12l2.59-5.07a38.22,38.22,0,0,0-21.82-7.18c-21.91,0-36.17,14.07-36.17,34.55s14.35,34.54,36.26,34.54a38.41,38.41,0,0,0,21.73-7l-2.59-5.17a34.74,34.74,0,0,1-19.52,6c-17.61,0-29-11.58-29-28.42S167.8,122.48,185.31,122.48Z"/><polygon class="cls-1" points="290.1 117.41 282.06 117.41 257.08 174.82 232.01 117.41 224.07 117.41 217.76 184.39 224.65 184.39 229.81 127.17 254.31 183.53 259.76 183.53 284.36 127.17 289.43 184.39 296.32 184.39 290.1 117.41"/></svg>