<svg id="レイヤー_1" data-name="レイヤー 1" xmlns="http://www.w3.org/2000/svg" viewBox="0 0 946.24 60"><defs><style>.cls-1{fill:#444;}</style></defs><title>company-name</title><path class="cls-1" d="M40.42,55.05c.06-1,.06-2,.06-3.23H12.12c-2.43,0-6,.19-8,.37V43.3c2.17.19,5,.37,7.77.37H40.54V17.92H12.62c-2.62,0-6,.13-7.71.25V9.53c2.3.25,5.53.37,7.71.37H43.9c1.8,0,4.42-.06,5.47-.12-.06,1.43-.18,3.91-.18,5.72V47.72c0,2.17.12,5.47.25,7.33Z"/><path class="cls-1" d="M85.88,39.69c10.58-6.28,18.72-15.8,22.64-24.19l4.85,8.77c-4.72,8.39-13,17-23,23a67.34,67.34,0,0,1-23.07,8.77l-5.23-8.21A64.08,64.08,0,0,0,85.88,39.69Zm0-20.15-6.34,6.53A129.88,129.88,0,0,0,64,12.64l5.85-6.22A130.12,130.12,0,0,1,85.88,19.54Z"/><path class="cls-1" d="M131.78,24.21A156.51,156.51,0,0,0,153.3,17.3a36.63,36.63,0,0,0,6-2.86,7.56,7.56,0,0,1-1.8-4.91,7.43,7.43,0,1,1,7.4,7.46,7.12,7.12,0,0,1-4-1.18l2.55,6c-2.43,1-5.22,2.18-7.28,2.93a215.86,215.86,0,0,1-24.38,7.58V43.86c0,2.67,1.25,3.36,4.05,3.92a57.85,57.85,0,0,0,7.21.37c6.47,0,16.54-.81,21.64-2.18v9.08a174.89,174.89,0,0,1-22.14,1.31,67.72,67.72,0,0,1-10.45-.75c-5.41-.93-8.52-3.91-8.52-9.26V12.45A52.41,52.41,0,0,0,123.08,6h9.2a47.7,47.7,0,0,0-.5,6.47Zm36.7-14.68a3.58,3.58,0,1,0-3.61,3.61A3.61,3.61,0,0,0,168.48,9.53Z"/><path class="cls-1" d="M216.62,46.91c1.61,0,4.48-.07,6.09-.25v8c-1.24-.06-4.29-.19-5.91-.19H184c-2.24,0-3.8.07-6.16.19V46.6c1.68.18,4,.31,6.16.31h20.15c.87-5.29,2.24-14.12,2.42-17.6H189.81c-2,0-4.41.18-6.22.31V21.41c1.62.18,4.48.37,6.16.37h15.92a14.94,14.94,0,0,0,4.67-.68l6,2.92a17.11,17.11,0,0,0-.63,2.61c-.49,3.67-2.11,14.37-3,20.28Z"/><path class="cls-1" d="M231.42,24.89c2.24.19,6.78.37,10,.37h33.4c2.86,0,5.66-.25,7.28-.37v9.76c-1.49-.06-4.67-.31-7.28-.31h-33.4c-3.54,0-7.71.13-10,.31Z"/><path class="cls-1" d="M341.07,14A28.79,28.79,0,0,0,339,18.42a71.53,71.53,0,0,1-8.59,17c2.3,1.43,4.42,2.86,6,4l-5.66,7.28A71.32,71.32,0,0,0,325,42.3,59.33,59.33,0,0,1,302,57.79l-7.21-6.28A52.67,52.67,0,0,0,318,37.58c-4.23-2.74-8.45-5.29-11.63-7.09l5.29-5.91c3.3,1.68,7.53,4,11.69,6.53a45.26,45.26,0,0,0,6.47-13.25H312a73,73,0,0,1-16.42,16l-6.71-5.16A57,57,0,0,0,308.66,8.1a27.49,27.49,0,0,0,2.8-6.53l9,2.8c-1.49,2.17-3.11,5-3.85,6.34l-.07.06h12.75a19.91,19.91,0,0,0,5.41-.68Z"/><path class="cls-1" d="M400.84,11.58a31,31,0,0,0-2.43,3.23c-2.92,4.86-8.83,12.69-15,17L377,26.69c5-3,9.82-8.52,11.44-11.56h-32.4c-2.61,0-4.67.18-7.59.43V6.92a49.73,49.73,0,0,0,7.59.62h33.52A31.21,31.21,0,0,0,395.86,7ZM375.46,20c0,15.42-.31,28.11-17.29,37.19L351,51.26a24.41,24.41,0,0,0,6.53-3.42c7.9-5.47,9.39-12.07,9.39-22.27a34.58,34.58,0,0,0-.44-5.59Z"/><path class="cls-1" d="M422.86,22c8.27,2.48,20.27,6.9,26,9.7l-3.48,8.64a167.21,167.21,0,0,0-22.51-9.26v17.6c0,1.74.31,6.09.62,8.64h-9.77a66.06,66.06,0,0,0,.62-8.64V12.89a43.47,43.47,0,0,0-.62-7.53h9.7a69.94,69.94,0,0,0-.55,7.53Zm16.54-2.74a50.44,50.44,0,0,0-5.47-9.58l5.22-2.24c1.74,2.62,4.23,6.6,5.66,9.39Zm8.52-3.48a58.24,58.24,0,0,0-5.78-9.33L447.3,4a82.94,82.94,0,0,1,5.84,9.21Z"/><path class="cls-1" d="M473.61,10.71l9.08,1.87c-.56,1.8-1.25,4.85-1.5,6.21a155.56,155.56,0,0,1-5.28,18.72A85.12,85.12,0,0,1,466.7,55.3L458,51.63a75.29,75.29,0,0,0,9.7-17.29A89.61,89.61,0,0,0,473.61,10.71Zm15.79,1.87,8.28-2.68c2.55,4.79,6.84,14.37,9.14,20.4,2.24,5.6,5.53,15.55,7.28,21.71l-9.21,3a191,191,0,0,0-6.47-22A171.87,171.87,0,0,0,489.4,12.58Zm19.78,0-5,2.17a78.81,78.81,0,0,0-4.85-8.64l4.91-2.06C505.82,6.36,508,10.27,509.18,12.58Zm7.47-2.87-5,2.18a64.92,64.92,0,0,0-5-8.58l4.92-2C513.22,3.62,515.53,7.54,516.65,9.71Z"/><path class="cls-1" d="M554.65,48.27a42.35,42.35,0,0,0,.56,8.15h-9.83a69.2,69.2,0,0,0,.44-8.15V27.87a121.44,121.44,0,0,1-21.4,8.46l-4.48-7.58a95.76,95.76,0,0,0,28.3-11.26C554.52,13.57,561,8,564.47,3.43l6.66,6a102.39,102.39,0,0,1-16.48,13.37Z"/><path class="cls-1" d="M624.18,17.49A35.67,35.67,0,0,0,631,17v8.27c-1.37-.12-3.54-.18-6.78-.18h-4.66v2.05c0,15.42-3.67,24.81-18.72,31.47l-6.66-6.28c12-4.23,17.29-9.58,17.29-24.88V25.08H596.75v8.45c0,2.8.19,5.29.25,6.54h-8.71a49.64,49.64,0,0,0,.38-6.54V25.08h-5.29c-3.11,0-5.35.12-6.72.25V16.87a40,40,0,0,0,6.72.62h5.29V11.27a48.92,48.92,0,0,0-.38-5.6h8.83a50.76,50.76,0,0,0-.37,5.66v6.16h14.74V10.9a39.12,39.12,0,0,0-.37-5.73H620a39.44,39.44,0,0,0-.43,5.73v6.59Zm-.25-2.3a82.08,82.08,0,0,0-3.17-8.52l4.17-1.37a62.57,62.57,0,0,1,3.29,8.52Zm6.53-2a54.8,54.8,0,0,0-3.36-8.46l4.23-1.37c1.18,2.49,2.61,6.09,3.42,8.46Z"/><path class="cls-1" d="M640.29,24.89c2.24.19,6.78.37,10,.37h33.4c2.86,0,5.66-.25,7.28-.37v9.76c-1.49-.06-4.67-.31-7.28-.31H650.3c-3.54,0-7.71.13-10,.31Z"/><path class="cls-1" d="M716.79,37.45c-.68-1.74-1.87-4.41-3.11-7V59h-7.22V34.9a54,54,0,0,1-5.84,13,45.74,45.74,0,0,0-3.48-7.46c3.73-4.79,7.09-13.56,8.89-21h-7.65V12.58h8.08V1h7.22V12.58h7.09v6.84h-7.09v1.8c1.8,2.3,6.34,9.45,7.34,11.26Zm28.79-3.85c2.74,6.34,7.1,12.68,11.51,16.42a31.18,31.18,0,0,0-5.35,5.78c-3.6-3.73-7-9.52-9.58-15.73V59h-7.27V40.62c-3.42,6.41-7.78,12-12.75,15.62a35.07,35.07,0,0,0-5-5.66C723,47,728.29,40.5,731.53,33.6H721.27V26.94h13.62V18.42H729.1A36.67,36.67,0,0,1,725.43,26a37.74,37.74,0,0,0-5.78-3.67c3.11-4.36,4.91-11.26,5.85-18.23l6.78,1.19c-.38,2.23-.75,4.41-1.25,6.53h3.86V1.07h7.27v10.7h11.63v6.65H742.16v8.52h13.19V33.6Z"/><path class="cls-1" d="M800,18.79c1.31,18.17,5.11,32.53,9.65,32.53,1.3,0,2.05-3.29,2.36-11.19a19.79,19.79,0,0,0,6.47,4.35C817.36,56.24,814.87,59.1,809,59.1c-10.63,0-15.3-18.41-16.79-40.31H761.26V11.58H791.8c-.13-3.36-.19-6.84-.19-10.26h8c-.06,3.42-.06,6.9.06,10.26h9.83a44.39,44.39,0,0,0-7.28-6.53l4.92-4a46.48,46.48,0,0,1,8.14,6.9L811,11.58h5.85v7.21ZM780.35,46.72c3.8-.68,7.78-1.43,11.57-2.18l.56,6.6c-10.2,2.23-21.15,4.54-29.17,6.22l-2-7.47c3.17-.5,7.28-1.12,11.75-1.86V33h-9.39V25.88H790.3V33h-9.95Z"/><path class="cls-1" d="M836.7,21.9a71.15,71.15,0,0,1-10.51,6.22,28.89,28.89,0,0,0-4.36-6.22C832.47,17.24,842.3,8.41,847,1.07h7.71A57,57,0,0,0,881,20.78a39.19,39.19,0,0,0-4.79,6.78,74.77,74.77,0,0,1-10.45-6v4.91h-29Zm-11,9.71h51.44v6.84H849.26c-1.8,3.67-3.85,7.52-5.72,11,6-.19,12.38-.44,18.72-.69a73.69,73.69,0,0,0-6.09-6.34L862.7,39c5.53,4.85,11.32,11.32,14.24,16L870,59.16a35.17,35.17,0,0,0-2.49-3.86c-14.62.81-30,1.43-40.55,1.93L826,50l9.39-.31a121.1,121.1,0,0,0,4.73-11.26H825.69Zm37.38-11.94A60.44,60.44,0,0,1,851.13,8.16a57,57,0,0,1-11.38,11.51Z"/><path class="cls-1" d="M907.35,42.18c-1.3-1.74-3.42-4.23-5.53-6.53V59.1h-7.34V37.64a52,52,0,0,1-7.71,6,30,30,0,0,0-3.49-7A46.85,46.85,0,0,0,900.7,19.17H885.65V12.51h8.83V1.07h7.34V12.51h2.8l1.3-.31,4.17,2.68a60.62,60.62,0,0,1-7.34,13.31c3,2.42,7.77,6.71,9.08,8ZM943,50.08v7.21h-35.2V50.08h14.37V27.32H910.34V20.16h11.82V1.57h7.58V20.16H941.5v7.16H929.74V50.08Z"/></svg>