<svg id="レイヤー_1" data-name="レイヤー 1" xmlns="http://www.w3.org/2000/svg" viewBox="0 0 2934.65 216.85"><defs><style>.cls-1{fill:#444;}.cls-2{fill:#1e35a8;}</style></defs><title>logo</title><path class="cls-1" d="M11.91,25.39a42.36,42.36,0,0,0-5.77.28V20.35a50.68,50.68,0,0,0,5.77.22H18.7c-.84-1.79-1.46-3.08-2.08-4.15H10.57c-2.75,0-4.88.12-6.67.28V11.1a48.41,48.41,0,0,0,6.39.33h1.79A23.58,23.58,0,0,0,8.27,6.22l5.61-2.13a39.89,39.89,0,0,1,4.31,7.34h3.2v-4a30.87,30.87,0,0,0-.28-4.37h6.11a38.19,38.19,0,0,0-.17,4.15v4.2h4V7.23a40.6,40.6,0,0,0-.17-4.15H37a29.24,29.24,0,0,0-.28,4.37v4h3.53a29.6,29.6,0,0,0,4-7.51L50,6.05c-1.34,2.24-2.24,3.65-3.47,5.38h1.57a46.28,46.28,0,0,0,6.33-.33v5.6c-1.73-.16-3.92-.28-6.67-.28h-5.6c-1.07,2.25-1.29,2.75-2.08,4.15h6.5a51.44,51.44,0,0,0,5.78-.22v5.32a41.88,41.88,0,0,0-5.78-.28H32v2.69H43.7a39.79,39.79,0,0,0,5.77-.28v5.05a40.21,40.21,0,0,0-5.77-.28H32v2.8H47.62A50.57,50.57,0,0,0,54.41,35v5.6a61.66,61.66,0,0,0-6.73-.34H36.41A29.15,29.15,0,0,0,44,44.79,47.84,47.84,0,0,0,55.7,48a22.37,22.37,0,0,0-3.2,5.72c-9.42-2.58-15.75-6-20.8-11.1a38,38,0,0,1,.17,4v2.75A32,32,0,0,0,32.26,55H25.65A42.36,42.36,0,0,0,26,49.27V46.58c0-1.29,0-1.51.16-3.81a31.18,31.18,0,0,1-8.07,6.17A54.44,54.44,0,0,1,6.64,53.65a22.58,22.58,0,0,0-3.42-5.39c8.19-1.73,13.85-4.2,18.34-8H11.13a62.49,62.49,0,0,0-6.78.34V35a52.94,52.94,0,0,0,6.72.33H25.93v-2.8H14.83a39.45,39.45,0,0,0-5.72.28V27.8a39,39,0,0,0,5.72.28h11.1V25.39Zm22-4.82a32,32,0,0,0,1.85-4.15H23a36.85,36.85,0,0,1,1.68,4.15Z"/><path class="cls-1" d="M85.52,38.62a29.15,29.15,0,0,0-4.43.23V33.47c-.56,1.4-.79,1.79-1.51,3.3a14.34,14.34,0,0,0-4.1-3.08,30,30,0,0,0,3.2-7.12H75.15l.11,22.7A5,5,0,0,1,74.08,53c-.78.73-2.52,1.12-5.21,1.12-1.24,0-3-.06-4.65-.17A16.1,16.1,0,0,0,63,48.49a32.42,32.42,0,0,0,5,.56c1.51,0,1.85-.22,1.79-1.35l-.06-13.39a33.3,33.3,0,0,1-8.24,11.88,23.53,23.53,0,0,0-2.8-6.11A30.85,30.85,0,0,0,68.2,26.57H64.33a27.12,27.12,0,0,0-4.71.28V20.91a31.09,31.09,0,0,0,5,.28h5.61a60.17,60.17,0,0,0-7.46-6.34l3.48-3.36a59.86,59.86,0,0,1,4.82,3.76,21.36,21.36,0,0,0,4.54-4.94H65.9a39.78,39.78,0,0,0-4.82.23V4.76A43.05,43.05,0,0,0,66.35,5h9.58a41.67,41.67,0,0,0,4.77-.17l3,3.25c-.22.28-.67.84-1.23,1.63a55.36,55.36,0,0,1-7.85,8.8c.51.56.73.73,1.24,1.34l-1.24,1.35H78A37.06,37.06,0,0,0,82.1,21l2.41,3a9.78,9.78,0,0,0-.67,1.74A35.41,35.41,0,0,0,93,22.25a25.46,25.46,0,0,1-4.6-5.77,47.67,47.67,0,0,1-4.31,4.93,18.75,18.75,0,0,0-4.26-3.81A28.75,28.75,0,0,0,88.21,6.78a16.1,16.1,0,0,0,1.4-4.26l5.83,1.12a17.18,17.18,0,0,0-.84,2c-.28.73-.5,1.24-.95,2.19h11.6a51.08,51.08,0,0,0,5.94-.28v5.72a27.74,27.74,0,0,0-4-.23,24.72,24.72,0,0,1-5.55,8.8,37.13,37.13,0,0,0,10.76,3.14,20.37,20.37,0,0,0-2.58,5.83c-6.11-1.73-9.36-3.08-12.61-5.21A30.14,30.14,0,0,1,92,28.42l5.72.06a3.79,3.79,0,0,0-.05.72c-.06.29-.12.62-.17,1s-.06.4-.11.9c-.06.79-.17,1.18-.28,2.19h8a25.24,25.24,0,0,0,4.43-.23,20.64,20.64,0,0,0-.23,2.47c-.45,6.67-1.18,11.77-2,14.07-1.12,3.42-2.58,4.32-7,4.32a54.81,54.81,0,0,1-5.94-.4,19,19,0,0,0-1.29-5.83,34.93,34.93,0,0,0,6.44.79c1.8,0,2.36-.67,3-3.53a39.72,39.72,0,0,0,.73-6.34H95.89c-2.41,7.68-6.84,12.28-15.7,16.15a22.83,22.83,0,0,0-3.47-5C83.89,47.09,87.59,44,89.83,38.62Zm5.72-5.32a40.87,40.87,0,0,0,.28-4.21,1,1,0,0,0-.06-.45c-2.13.9-3.31,1.29-6.39,2.3a19.31,19.31,0,0,0-1.85-3.36c-.73,2.35-1.18,3.53-2,5.55a39.89,39.89,0,0,0,4.59.17ZM92.36,13a19.59,19.59,0,0,0,4.82,6.06,15.73,15.73,0,0,0,4-6.06Z"/><path class="cls-1" d="M140.68,18.5a25,25,0,0,0-.22,4.54c-.23,9.58-1.74,15-5.55,19.84-3.37,4.32-7.46,7.18-14.47,10.09A19.85,19.85,0,0,0,116,46.58c4.54-1.34,7.07-2.58,9.81-4.76,5.72-4.54,7.52-9.36,7.52-20a13.78,13.78,0,0,0-.29-3.36Zm22.76-7.07c-.79,1-.79,1-2.24,3.93a35.75,35.75,0,0,1-8.64,11.27,35.28,35.28,0,0,1-6.72,4.65,18.81,18.81,0,0,0-5.05-5.1A25.9,25.9,0,0,0,149,21a23.38,23.38,0,0,0,5.32-7.12H124.87a53.8,53.8,0,0,0-7.62.34v-7a44.2,44.2,0,0,0,7.73.45h29.27c3.36,0,3.86-.06,5.43-.51Z"/><path class="cls-1" d="M201.22,9.3c1.69,0,2.36-.05,3.31-.11A6.48,6.48,0,1,1,211,15.64a8.64,8.64,0,0,1-1.07-.11c-4.54,18.33-14.46,29.76-32.18,37.16A20.64,20.64,0,0,0,172.8,46c15.53-4.82,25.68-15.25,29.26-30.16H175.38a40.24,40.24,0,0,0-7.06.34V8.91a38,38,0,0,0,7.17.39Zm6.11-.16a3.68,3.68,0,1,0,7.35,0,3.68,3.68,0,0,0-7.35,0Z"/><path class="cls-1" d="M232.28,5.88a29.11,29.11,0,0,0-.22,5.05V26.4a27.54,27.54,0,0,0,.22,4.93H224.6a39.86,39.86,0,0,0,.28-5V10.87a34.81,34.81,0,0,0-.23-5Zm25.45.06a26.93,26.93,0,0,0-.28,5.21v7.57c-.06,8.75-.45,13.46-1.46,17-1.62,5.6-5.21,9.81-11,13.06A47.88,47.88,0,0,1,234,53.09a19.18,19.18,0,0,0-3.93-6.68c5.5-1.06,8.75-2.24,12.11-4.48,5.27-3.48,7.12-6.89,7.74-14.29.22-2.42.28-4.88.28-9.37v-7a30,30,0,0,0-.28-5.33Z"/><path class="cls-1" d="M301.62,20.52c-.05.56-.05.56-.11,1.45-.73,9.53-2.8,15.48-7.23,20.75-3.59,4.2-7.62,7.06-14.58,10.25a16.64,16.64,0,0,0-4.65-6.16,31.57,31.57,0,0,0,11.38-6.45c5.1-4.54,7.46-10.31,8-19.84H281a46.41,46.41,0,0,1-9.3,11.38A17.38,17.38,0,0,0,266,27.47,41.65,41.65,0,0,0,277.8,12.05a28.78,28.78,0,0,0,2.8-8l7.29,1.74c-.45.9-.45.9-2.13,4.82-.45,1-1,2.25-1.68,3.65,1.62-.06,1.62-.06,24.49-.06a45,45,0,0,0,7.07-.34v6.9a19.89,19.89,0,0,0-3.42-.17c-.73,0-2,0-3.7-.05Z"/><path class="cls-1" d="M321.58,24.66a54.34,54.34,0,0,0,9.08.4h29.88a54.27,54.27,0,0,0,9.08-.4v7.8c-2.24-.28-2.86-.28-9.14-.28H330.72c-6.28,0-6.9,0-9.14.28Z"/><path class="cls-1" d="M381.23,19.11a79.39,79.39,0,0,1,14.91,7.63l-3.48,6.33a65.6,65.6,0,0,0-15.19-8.24ZM378.7,44.23c4.26-.06,10.37-1.4,16.2-3.65a34.25,34.25,0,0,0,16.21-12.33,41.6,41.6,0,0,0,6.5-12.39,29,29,0,0,0,5.83,5A49.27,49.27,0,0,1,415,35c-7.12,8.18-16.65,13.17-30.44,15.92a38.18,38.18,0,0,0-3.93.89Zm6.84-38.68a89,89,0,0,1,14.91,7.23L396.87,19a65.88,65.88,0,0,0-15-7.74Z"/><path class="cls-1" d="M437.68,51a35.29,35.29,0,0,0-5.05.22V45a25.68,25.68,0,0,0,5.05.39H459.2V36.88H439.7a34.88,34.88,0,0,0-5.05.23V31a25.22,25.22,0,0,0,5.05.39h19.5V23.6h-21a36.37,36.37,0,0,0-5.05.22V17.6a25.68,25.68,0,0,0,5.05.39h22.08a48.74,48.74,0,0,0,5.22-.22c-.11,2-.17,3.42-.17,5.88V49.33a29.27,29.27,0,0,0,.22,4.26h-6.44V51Z"/><path class="cls-1" d="M478.32,43.33a53.18,53.18,0,0,0,16.59-4.15,37.4,37.4,0,0,0,16.65-13.73,46.67,46.67,0,0,0,5.72-11.21,24.33,24.33,0,0,0,5.94,5.49c-4.76,10.26-10.09,16.87-17.77,22-5.72,3.81-12.67,6.55-21.36,8.41a19.18,19.18,0,0,0-3.7,1Zm4.76-34.81a79.81,79.81,0,0,1,14.47,10.82l-4.82,6.11a58.8,58.8,0,0,0-14.3-11.38Z"/><path class="cls-1" d="M535.89,47.59a48.23,48.23,0,0,0,.34,6.84h-6.56a50.38,50.38,0,0,0,.33-7v-37a62,62,0,0,0-.22-6.28,50.22,50.22,0,0,0,5.77.23h10.21a46.56,46.56,0,0,0,5.71-.23c-.11,1.63-.16,3.25-.16,5.22v8.63c0,2.52.05,3.59.16,5-1.45-.11-3.19-.16-5.15-.16H535.89Zm0-36h9.92v-3h-9.92Zm0,7h9.92v-3h-9.92Zm9.36,16.65c.11-2,.11-2.58.11-5.16a48,48,0,0,0-5.6.23v-5a38.05,38.05,0,0,0,5.66.28h16.26a40.31,40.31,0,0,0,5.83-.28v5a50.17,50.17,0,0,0-5.83-.23v5.16h.84a52.44,52.44,0,0,0,5.77-.22v5.15a40.76,40.76,0,0,0-5.77-.28h-.84v8.3A23.52,23.52,0,0,0,562,53h-5.89a25.6,25.6,0,0,0,.28-4.82V39.91h-6.28c-.61,5.94-2.46,9.64-6.78,13.85a25.8,25.8,0,0,0-4.48-3.87c3.75-2.91,5.32-5.44,6-10a39.64,39.64,0,0,0-5.94.28V35a53,53,0,0,0,5.83.22Zm5.33-5.16c0,2.52,0,2.52-.12,5.16h5.89V30.1Zm26.57,17.44c0,5-1.68,6.27-8,6.27-1,0-1.79,0-3.64-.11A20.18,20.18,0,0,0,564,47.76a40.15,40.15,0,0,0,5.16.45c1.79,0,2.13-.23,2.13-1.46V22.93h-11c-2,0-3.75.05-5.1.16.11-1.62.11-2.52.11-5V9.42c0-2.13-.05-3.59-.17-5.22a47.93,47.93,0,0,0,5.72.23H571.6a49.55,49.55,0,0,0,5.77-.23c-.16,2.08-.22,3.42-.22,6.22ZM560.89,11.6h10.43v-3H560.89Zm0,7h10.43v-3H560.89Z"/><path class="cls-1" d="M600,26.79c-1.73.06-2.35.12-3.75.23V24.55A55.47,55.47,0,0,1,586.34,30,21,21,0,0,0,583,24.83a47.53,47.53,0,0,0,10.71-5.44,38.26,38.26,0,0,0-7.85-7.34l4.6-3.42,1.79,1.46V4.26a31.86,31.86,0,0,0,4.66.28h10.37a31.84,31.84,0,0,0,4.82-.23c.56,2.25,1.35,3.54,3.48,6.11a29.83,29.83,0,0,0,3.3-3.58,9.28,9.28,0,0,0,1.18-1.63l.45-.73,5.16,2.86c-.17.23-.9,1.07-2.19,2.58a56,56,0,0,1-4.15,4.2c1.51,1.29,2.13,1.8,3.31,2.7A33.24,33.24,0,0,0,628.5,10L633.66,13c-.34.33-.45.5-1.57,1.74A44.26,44.26,0,0,1,627,19.84a49.53,49.53,0,0,0,9,4.26,23.26,23.26,0,0,0-3.14,5.55,56.46,56.46,0,0,1-9.25-5V27a44.54,44.54,0,0,0-5.38-.23v6.06h8.91a33.46,33.46,0,0,0,5.89-.34v6a43.38,43.38,0,0,0-5.89-.34h-8.91v8.36c0,1.17.06,1.29.9,1.51a13.15,13.15,0,0,0,3.59.28c3.08,0,4.42-.28,5-1.06s.84-2.53,1-5.61a18.87,18.87,0,0,0,6.05,2c-1.23,9.48-2.24,10.32-13,10.32-7.63,0-9.42-1-9.42-4.88V38.17h-7.23a19.8,19.8,0,0,1-3.48,8.08c-2.8,3.7-6.16,5.94-13.06,8.63a20.42,20.42,0,0,0-4-5.49c5.21-1.46,7.91-2.75,10.37-5a12.74,12.74,0,0,0,4-6.23h-7.17a35.84,35.84,0,0,0-5.89.34v-6a33.87,33.87,0,0,0,5.89.34h8c.06-.73.06-1.12.06-1.74ZM595.7,9.86a24.85,24.85,0,0,0-3.42.23,47.49,47.49,0,0,1,6.11,5.77,35.92,35.92,0,0,0,5.5-6Zm22.37,11.66h1.18a47,47,0,0,1-9.53-10.14,46.8,46.8,0,0,1-9.47,10.14h17.82Zm-12.22,10v1.29h6.56V26.79h-6.5Z"/><path class="cls-1" d="M643.07,38.9a57,57,0,0,1,11.27,11.89l-3.14,3a56.05,56.05,0,0,0-11-12.22Z"/><path class="cls-1" d="M687.92,9.47a6.69,6.69,0,0,0-.28,1.12l-.11,1-.28,1.62-.17,1.35c-2.36,16.09-6.73,27.13-14.24,35.76a24.46,24.46,0,0,0-6.39-4.82,37.68,37.68,0,0,0,8-11.94,67.55,67.55,0,0,0,5.27-19.23,40.68,40.68,0,0,0,.51-5.43V8.07Zm15.92-1.4A69.59,69.59,0,0,0,706.19,21c2.75,10.37,6.68,17.94,12.51,24.22a23.2,23.2,0,0,0-6.17,5.16c-7.46-8.91-12.67-21.81-14.86-36.89a22.94,22.94,0,0,0-.78-4Zm15.92,3.31a6.48,6.48,0,1,1-6.5-6.45A6.5,6.5,0,0,1,719.76,11.38Zm-10.15,0a3.68,3.68,0,1,0,3.65-3.65A3.64,3.64,0,0,0,709.61,11.38Z"/><path class="cls-1" d="M730.75,17.82a65.13,65.13,0,0,1,5.49,13.29l-6.33,2a56.46,56.46,0,0,0-5.1-13.57Zm32.18.4a11.71,11.71,0,0,0-.79,2.86c-1.62,7.62-4.15,13.79-7.73,18.66-4.15,5.67-8.81,9.31-17.1,13.51a20.54,20.54,0,0,0-4.49-5.55,36.2,36.2,0,0,0,9.53-5.15c6.56-4.77,10.32-10.49,12.73-19.46a24.72,24.72,0,0,0,1-6.44Zm-20.24-2.69a55.43,55.43,0,0,1,5.44,12.89l-6.23,2a60.93,60.93,0,0,0-5.1-13.17Z"/><path class="cls-1" d="M804.24,20.52c0,.56,0,.56-.11,1.45-.73,9.53-2.8,15.48-7.23,20.75-3.59,4.2-7.63,7.06-14.58,10.25a16.64,16.64,0,0,0-4.65-6.16,31.57,31.57,0,0,0,11.38-6.45c5.1-4.54,7.46-10.31,8-19.84H783.61a46.41,46.41,0,0,1-9.3,11.38,17.38,17.38,0,0,0-5.72-4.43,41.86,41.86,0,0,0,11.83-15.42,28.78,28.78,0,0,0,2.8-8l7.29,1.74c-.45.9-.45.9-2.13,4.82-.45,1-1,2.25-1.69,3.65,1.63-.06,1.63-.06,24.5-.06a45,45,0,0,0,7.07-.34v6.9a19.89,19.89,0,0,0-3.42-.17c-.73,0-2,0-3.7-.05Z"/><path class="cls-1" d="M824.2,24.66a54.27,54.27,0,0,0,9.08.4h29.88a54.34,54.34,0,0,0,9.08-.4v7.8c-2.24-.28-2.86-.28-9.14-.28H833.33c-6.27,0-6.89,0-9.13.28Z"/><path class="cls-1" d="M883.34,19.56a88.64,88.64,0,0,1,14.91,7.63l-3.48,6.33a64.54,64.54,0,0,0-15.19-8.18Zm-2.52,25.12A49.89,49.89,0,0,0,897,41c10.26-3.58,18.67-12.78,22.7-24.72a27.22,27.22,0,0,0,5.83,5c-6.95,17-18.78,26.18-38.85,30.1a32.64,32.64,0,0,0-3.92,1ZM887.66,6a92.38,92.38,0,0,1,14.91,7.23L899,19.39a68.08,68.08,0,0,0-15-7.68Zm29.15-1.12a36.12,36.12,0,0,1,5.88,8.24l-3.92,2.07a37.69,37.69,0,0,0-5.89-8.35Zm8.69,6.78a41.72,41.72,0,0,0-5.72-8.13l3.75-2a32.13,32.13,0,0,1,5.83,7.9Z"/><path class="cls-1" d="M939.79,8.18a80.1,80.1,0,0,1,7.57,17.89l-7.29,2.57A72,72,0,0,0,933,10.54Zm35.32,1.68c-.51,1.18-.68,1.69-1.52,5.5C971.41,25.45,967,34.64,961.15,41.2A51,51,0,0,1,945,53.42a21,21,0,0,0-5.15-6.05,43.22,43.22,0,0,0,15.58-10.71,42.26,42.26,0,0,0,9.14-15.92,50.68,50.68,0,0,0,2.8-12.67Z"/><path class="cls-1" d="M993.55,5.88a29.11,29.11,0,0,0-.22,5.05V26.4a27.54,27.54,0,0,0,.22,4.93h-7.68a39.86,39.86,0,0,0,.28-5V10.87a34.81,34.81,0,0,0-.23-5Zm25.45.06a26.93,26.93,0,0,0-.28,5.21v7.57c-.06,8.75-.45,13.46-1.46,17-1.62,5.6-5.21,9.81-11,13.06a47.88,47.88,0,0,1-10.93,4.32,19.18,19.18,0,0,0-3.93-6.68c5.5-1.06,8.75-2.24,12.11-4.48,5.27-3.48,7.12-6.89,7.74-14.29.22-2.42.28-4.88.28-9.37v-7a30,30,0,0,0-.28-5.33Z"/><path class="cls-1" d="M1063.23,45.13a25,25,0,0,0,5.16-.34v6.39a42.75,42.75,0,0,0-5.16-.22h-29.09a41.43,41.43,0,0,0-5.16.22V44.79a25.31,25.31,0,0,0,5.16.34h16.53c1-5,2.13-12.9,2.69-18h-13.9a35.54,35.54,0,0,0-5,.23V21a32.47,32.47,0,0,0,5.16.34h14.18a12.59,12.59,0,0,0,4.15-.51l3.08,2.69c-.67,1.74-.67,1.74-1.29,6.39-.84,6.17-1.45,10.15-2.41,15.2Z"/><path class="cls-1" d="M1076.85,24.66a54.34,54.34,0,0,0,9.08.4h29.88a54.27,54.27,0,0,0,9.08-.4v7.8c-2.24-.28-2.86-.28-9.13-.28H1086c-6.28,0-6.9,0-9.14.28Z"/><path class="cls-1" d="M1136.5,19.11a79.39,79.39,0,0,1,14.91,7.63l-3.48,6.33a65.6,65.6,0,0,0-15.19-8.24ZM1134,44.23c4.26-.06,10.37-1.4,16.2-3.65a34.28,34.28,0,0,0,16.2-12.33,41.6,41.6,0,0,0,6.5-12.39,29,29,0,0,0,5.83,5A49.05,49.05,0,0,1,1170.3,35c-7.12,8.18-16.65,13.17-30.44,15.92a37.24,37.24,0,0,0-3.92.89Zm6.83-38.68a89.54,89.54,0,0,1,14.92,7.23L1152.14,19a65.68,65.68,0,0,0-15-7.74Z"/><path class="cls-1" d="M1193,51a35.47,35.47,0,0,0-5,.22V45a25.68,25.68,0,0,0,5,.39h21.53V36.88H1195a34.88,34.88,0,0,0-5,.23V31a25.28,25.28,0,0,0,5,.39h19.51V23.6h-21a36.37,36.37,0,0,0-5,.22V17.6a25.68,25.68,0,0,0,5,.39h22.09a48.54,48.54,0,0,0,5.21-.22c-.11,2-.17,3.42-.17,5.88V49.33a27.65,27.65,0,0,0,.23,4.26h-6.45V51Z"/><path class="cls-1" d="M1233.59,43.33a53.18,53.18,0,0,0,16.59-4.15,37.34,37.34,0,0,0,16.65-13.73,46.67,46.67,0,0,0,5.72-11.21,24.51,24.51,0,0,0,5.94,5.49c-4.76,10.26-10.09,16.87-17.77,22-5.71,3.81-12.67,6.55-21.35,8.41a19.13,19.13,0,0,0-3.71,1Zm4.77-34.81a79.7,79.7,0,0,1,14.46,10.82L1248,25.45a58.61,58.61,0,0,0-14.3-11.38Z"/><path class="cls-1" d="M1291.16,47.59a49.81,49.81,0,0,0,.34,6.84h-6.56a50,50,0,0,0,.34-7v-37a61.49,61.49,0,0,0-.23-6.28,50.31,50.31,0,0,0,5.78.23H1301a46.86,46.86,0,0,0,5.72-.23c-.11,1.63-.17,3.25-.17,5.22v8.63c0,2.52.06,3.59.17,5-1.46-.11-3.2-.16-5.16-.16h-10.43Zm0-36h9.93v-3h-9.93Zm0,7h9.93v-3h-9.93Zm9.36,16.65c.12-2,.12-2.58.12-5.16a48.23,48.23,0,0,0-5.61.23v-5a38.13,38.13,0,0,0,5.66.28H1317a40.22,40.22,0,0,0,5.83-.28v5a50.06,50.06,0,0,0-5.83-.23v5.16h.84a52.65,52.65,0,0,0,5.78-.22v5.15a41,41,0,0,0-5.78-.28H1317v8.3a24.3,24.3,0,0,0,.28,4.76h-5.89a25.6,25.6,0,0,0,.28-4.82V39.91h-6.27c-.62,5.94-2.47,9.64-6.79,13.85a25.43,25.43,0,0,0-4.48-3.87c3.75-2.91,5.32-5.44,6-10a39.71,39.71,0,0,0-5.95.28V35a53.09,53.09,0,0,0,5.83.22Zm5.33-5.16c0,2.52,0,2.52-.11,5.16h5.88V30.1Zm26.57,17.44c0,5-1.68,6.27-8,6.27-1,0-1.79,0-3.64-.11a20.18,20.18,0,0,0-1.52-5.94,40.3,40.3,0,0,0,5.16.45c1.8,0,2.13-.23,2.13-1.46V22.93h-11c-2,0-3.76.05-5.11.16.12-1.62.12-2.52.12-5V9.42c0-2.13-.06-3.59-.17-5.22a47.93,47.93,0,0,0,5.72.23h10.7a49.64,49.64,0,0,0,5.78-.23c-.17,2.08-.23,3.42-.23,6.22ZM1316.17,11.6h10.42v-3h-10.42Zm0,7h10.42v-3h-10.42Z"/><path class="cls-1" d="M1355.24,26.79c-1.74.06-2.36.12-3.76.23V24.55a55.71,55.71,0,0,1-9.86,5.44,21.64,21.64,0,0,0-3.31-5.16,47.67,47.67,0,0,0,10.7-5.44,38.24,38.24,0,0,0-7.84-7.34l4.59-3.42,1.8,1.46V4.26a31.71,31.71,0,0,0,4.65.28h10.37a31.76,31.76,0,0,0,4.82-.23c.56,2.25,1.35,3.54,3.48,6.11a29.83,29.83,0,0,0,3.3-3.58,9.28,9.28,0,0,0,1.18-1.63l.45-.73L1381,7.34c-.17.23-.9,1.07-2.19,2.58a54.17,54.17,0,0,1-4.15,4.2c1.52,1.29,2.13,1.8,3.31,2.7a32.93,32.93,0,0,0,5.83-6.79l5.16,2.92c-.34.33-.45.5-1.57,1.74a43.47,43.47,0,0,1-5,5.15,49.53,49.53,0,0,0,9,4.26,23.26,23.26,0,0,0-3.14,5.55,56.46,56.46,0,0,1-9.25-5V27a44.54,44.54,0,0,0-5.38-.23v6.06h8.92a33.41,33.41,0,0,0,5.88-.34v6a43.33,43.33,0,0,0-5.88-.34h-8.92v8.36c0,1.17.06,1.29.9,1.51a13.15,13.15,0,0,0,3.59.28c3.08,0,4.43-.28,5-1.06s.84-2.53,1-5.61a18.84,18.84,0,0,0,6.06,2c-1.24,9.48-2.25,10.32-13,10.32-7.62,0-9.42-1-9.42-4.88V38.17h-7.23a19.79,19.79,0,0,1-3.47,8.08c-2.81,3.7-6.17,5.94-13.07,8.63a20.21,20.21,0,0,0-4-5.49c5.22-1.46,7.91-2.75,10.37-5a12.67,12.67,0,0,0,4-6.23h-7.17a35.84,35.84,0,0,0-5.89.34v-6a33.87,33.87,0,0,0,5.89.34h8c.06-.73.06-1.12.06-1.74ZM1351,9.86a24.65,24.65,0,0,0-3.42.23,48.86,48.86,0,0,1,6.11,5.77,36.28,36.28,0,0,0,5.49-6Zm22.36,11.66h1.18A47,47,0,0,1,1365,11.38a46.8,46.8,0,0,1-9.47,10.14h17.82Zm-12.22,10v1.29h6.56V26.79h-6.5Z"/><path class="cls-1" d="M1413.54,28.76a6.67,6.67,0,1,1-6.67-6.67A6.65,6.65,0,0,1,1413.54,28.76Z"/><path class="cls-1" d="M1433.1,43.67c-1.85,5.21-3,7.29-5.88,10.93a14.28,14.28,0,0,0-5-3.87,26.2,26.2,0,0,0,5.83-9.58Zm-4-2.86a31.37,31.37,0,0,0-3.92.11c.11-2,.17-3.64.17-5.6V9.81a44.72,44.72,0,0,0-.23-5.05,41.72,41.72,0,0,0,5,.23h8a33.11,33.11,0,0,0,4.71-.23,44.52,44.52,0,0,0-.17,4.6v26.8a44.48,44.48,0,0,0,.17,4.76c-1.35-.11-2.08-.11-4-.11Zm1.68-25.23h6.45V10.31h-6.45Zm0,9.76h6.45V20.46h-6.45Zm0,10.2h6.45V30.27h-6.45Zm42.78-14a34.66,34.66,0,0,0-1.74,5.39,49.46,49.46,0,0,1-6.06,14.18,33.77,33.77,0,0,0,10.09,7.51,22.44,22.44,0,0,0-3.42,5.89c-4.93-3.2-7.68-5.44-10.37-8.52a44.53,44.53,0,0,1-10.37,9.08,14.92,14.92,0,0,0-3.87-4.88,37.57,37.57,0,0,1-2.57,4.65,17.61,17.61,0,0,0-4.38-3.7,16.29,16.29,0,0,0-2.13,2,64.37,64.37,0,0,1-4.71-9.59l4.88-2.24a54.73,54.73,0,0,0,3.25,6.5c3-5.66,4.21-14,4.26-28.7,0-2.08,0-4.37.06-6.84v-.79c0-2.35-.06-4.48-.22-6.39,2,.17,3.92.28,6.33.28h15.87A48.62,48.62,0,0,0,1474.7,5v6.33c-1.8-.17-3.65-.28-6.17-.28h-16.2v7.4h14a21.4,21.4,0,0,0,4.54-.28Zm-21.36,2.36c-.39,13.12-1.52,19.79-4.26,26a38.24,38.24,0,0,0,10.59-8.74c-3-4.71-4.54-9-6.28-17.27Zm5.21,0c1.29,5.32,2.58,8.8,4.65,12.16a40.58,40.58,0,0,0,4.6-12.16Z"/><path class="cls-1" d="M1501.66,32.85a13.12,13.12,0,0,0-.34,2.41c-.5,5.32-2.41,9.75-5.43,12.84a25.84,25.84,0,0,1-6.62,4.59,34,34,0,0,1-6,2.13,22.14,22.14,0,0,0-4-6.22,24,24,0,0,0,7.68-2.07c3.92-1.8,6.17-4,7.23-7a18.74,18.74,0,0,0,.9-5.27,11,11,0,0,0-.17-1.8Zm-21.41,4.43a23.3,23.3,0,0,0,.28-4v-4a29.44,29.44,0,0,0-.23-4.15,56.76,56.76,0,0,0,6,.23h37.06c2.69,0,4.09-.06,6.05-.23a25.07,25.07,0,0,0-.23,4v4.09a21.48,21.48,0,0,0,.29,4.1h-6.56V30.77h-36.22v6.51Zm21.19-30.16a23.51,23.51,0,0,0-.28-4.32H1508a17.36,17.36,0,0,0-.33,4.32v.67h15.13a47,47,0,0,0,6.73-.34v6a64.15,64.15,0,0,0-6.56-.28h-15.3v3.7h12.5a36.74,36.74,0,0,0,5.72-.28v5.77a49.05,49.05,0,0,0-5.72-.22H1489.5a50.48,50.48,0,0,0-5.67.22V16.54a36.4,36.4,0,0,0,5.67.28h11.94v-3.7H1487a52.6,52.6,0,0,0-6.62.28V7.45a47.51,47.51,0,0,0,6.79.34h14.24Zm11.66,39.13c0,1.45.5,1.68,4.31,1.68s5.16-.23,5.66-1,.73-2.25,1-7a19.13,19.13,0,0,0,6,1.91c-.45,5.66-1.29,8.69-2.8,10.09-1.29,1.23-3.92,1.63-10.37,1.63-8.52,0-10-.73-10-4.82V37.33a31.52,31.52,0,0,0-.22-4.65h6.73a22.54,22.54,0,0,0-.28,4.37Z"/><path class="cls-1" d="M1538.49,38.9a57,57,0,0,1,11.27,11.89l-3.14,3a56.05,56.05,0,0,0-11-12.22Z"/><path class="cls-1" d="M1573.53,6.11a41.5,41.5,0,0,0-.45,7.23V43.5a41.86,41.86,0,0,0,.45,7.23H1565a41.86,41.86,0,0,0,.45-7.23V13.34a41.42,41.42,0,0,0-.45-7.23Z"/><path class="cls-1" d="M1606.71,43.44a46.1,46.1,0,0,0,.45,7.29h-8.46a47.85,47.85,0,0,0,.44-7.29V12.84h-7.56a55.73,55.73,0,0,0-7.68.39V5.72a56.3,56.3,0,0,0,7.62.39h22.2a59.56,59.56,0,0,0,8.24-.39v7.51a59,59,0,0,0-8.24-.39h-7Z"/><path class="cls-1" d="M1634.69,47.31a61.79,61.79,0,0,0-6.9.23V40.3a35.56,35.56,0,0,0,7,.4h25.51V16.25h-24.56a53.21,53.21,0,0,0-7.17.29V9.25a38.18,38.18,0,0,0,7.23.39h27c2.92,0,2.92,0,4.88-.11a33.56,33.56,0,0,0-.17,4.65V45a37.48,37.48,0,0,0,.28,5.77h-7.51V47.31Z"/><path class="cls-1" d="M1678.19,43.33a53.18,53.18,0,0,0,16.59-4.15,37.4,37.4,0,0,0,16.65-13.73,46.67,46.67,0,0,0,5.72-11.21,24.15,24.15,0,0,0,5.94,5.49c-4.77,10.26-10.09,16.87-17.77,22-5.72,3.81-12.67,6.55-21.36,8.41a19.18,19.18,0,0,0-3.7,1ZM1683,8.52c6.67,4.15,10.15,6.73,14.46,10.82l-4.82,6.11a58.57,58.57,0,0,0-14.29-11.38Z"/><path class="cls-1" d="M1759,15.53l.06-2.53V11.21A36.17,36.17,0,0,0,1758.8,5H1766a20.6,20.6,0,0,0-.22,3.75c0,3.42,0,3.42-.06,6.79h3.59a39.17,39.17,0,0,0,7.28-.4V22a57.75,57.75,0,0,0-7.17-.28h-3.76c-.11,6.73-.11,7.12-.39,9.25-.78,7.18-3.19,11.94-8.07,16.09-3,2.58-5.78,4-10.93,5.89a16.69,16.69,0,0,0-4.21-5.94c5.33-1.63,8-3,10.71-5.33,3.81-3.31,5.44-7,5.94-13.45.11-1.29.11-2.64.23-6.51h-14.52V30.1a34.33,34.33,0,0,0,.22,4.71h-7.29a36.41,36.41,0,0,0,.23-4.82v-8.3h-3.42A57.94,57.94,0,0,0,1727,22V15.13a39.35,39.35,0,0,0,7.29.4h3.31V9.92a30.41,30.41,0,0,0-.28-5h7.34a28.54,28.54,0,0,0-.22,4.82v5.78Z"/><path class="cls-1" d="M1795,6.61c-.22,1.57-.22,1.57-.56,12.56s-1.62,17.27-4.54,23a35.48,35.48,0,0,1-7.73,10.37,20.09,20.09,0,0,0-5.67-5.44,22.94,22.94,0,0,0,5.78-6.44c4-6.45,5.32-13.68,5.32-29.38a28.69,28.69,0,0,0-.22-5.1Zm14.86-.67a29.93,29.93,0,0,0-.39,5.33l-.28,31.89a22.53,22.53,0,0,0,8.57-6.39,27.33,27.33,0,0,0,5.5-10.26,23.12,23.12,0,0,0,5.27,5.27,34.87,34.87,0,0,1-8.92,13.07c-3.19,2.74-6.11,4.42-11.94,6.72-1.23.45-1.68.68-2.41,1l-3.59-3.81a24.88,24.88,0,0,0,.51-5.94l.28-31.62V9.53a23.94,23.94,0,0,0-.23-3.7Z"/><path class="cls-1" d="M1860.49,27.19c-.28,6.44-1.51,11.1-3.92,15.08-3,4.93-7.07,8-14.64,11a17.83,17.83,0,0,0-4.54-6.17c6.73-2.07,10.94-5,13.29-9.36,1.46-2.58,2.3-6.22,2.47-10.59h-13.68a54.47,54.47,0,0,0-7.12.28V20.8a40.06,40.06,0,0,0,7.23.39h32.79a40.52,40.52,0,0,0,7.24-.39v6.67a54.47,54.47,0,0,0-7.12-.28ZM1838,6.67a37.77,37.77,0,0,0,7.23.39h21.53a37.71,37.71,0,0,0,7.23-.39v6.84a51.81,51.81,0,0,0-7.12-.28h-21.75a51.9,51.9,0,0,0-7.12.28Z"/><path class="cls-1" d="M1924.23,17.94a10.23,10.23,0,0,0-1.91,1.85A75.16,75.16,0,0,1,1911.9,29V48a32.42,32.42,0,0,0,.28,5.38l-7.24-.05a33,33,0,0,0,.28-5.33V33a79.36,79.36,0,0,1-15.86,7.12,22.69,22.69,0,0,0-3.48-5.83,60,60,0,0,0,13.29-5.05,63.82,63.82,0,0,0,15.92-11.38,20.89,20.89,0,0,0,3.42-4Z"/><path class="cls-1" d="M1933.48,43.33a53.18,53.18,0,0,0,16.59-4.15,37.4,37.4,0,0,0,16.65-13.73,46.67,46.67,0,0,0,5.72-11.21,24.33,24.33,0,0,0,5.94,5.49c-4.76,10.26-10.09,16.87-17.77,22-5.72,3.81-12.67,6.55-21.36,8.41a19.18,19.18,0,0,0-3.7,1Zm4.76-34.81a79.81,79.81,0,0,1,14.47,10.82l-4.82,6.11a58.8,58.8,0,0,0-14.3-11.38Z"/><path class="cls-1" d="M2026.65,15.25a10.88,10.88,0,0,0-1.4,3.36c-3.31,10-6,15-11.27,21.19A56.58,56.58,0,0,1,1994,54a18.73,18.73,0,0,0-4.76-5.88c14.68-5.61,24.16-15.64,28.64-30.22L2001,18.1a55.75,55.75,0,0,1-13.12,14.41c-1.68-2.3-2.52-3-5.44-4.82,6.06-4,10.54-9.08,14.52-16.26A21.55,21.55,0,0,0,1999.85,4l7.68,1.57a6.45,6.45,0,0,0-1,1.68c-.45,1-1,2.13-1.52,3.25a8.39,8.39,0,0,0-.39.79l-.45.84c.68-.06,1.57-.12,2.69-.12l12.28-.16a25.37,25.37,0,0,0,2.92-.12,34.55,34.55,0,0,0-4.1-7l4.15-1.4a35.26,35.26,0,0,1,5,8.85l-2.41.9Zm3.64-4a39.81,39.81,0,0,0-4.82-8.69l4-1.4a33,33,0,0,1,4.93,8.52Z"/><path class="cls-1" d="M2046,11.88a33,33,0,0,1-5.72,6.28,22.68,22.68,0,0,0-4.2-4,22.85,22.85,0,0,0,6.67-6.95,16.12,16.12,0,0,0,2-4.54l6.06,1.12c-1.18,2.3-1.18,2.3-1.57,3h7.17a33.92,33.92,0,0,0,5.44-.34V11a21.06,21.06,0,0,0,5-8.25l5.61,1.52c-.11.22-.51,1.06-1.24,2.52h10.26a41.38,41.38,0,0,0,6.17-.34v5.78a43,43,0,0,0-5.89-.28h-4.37a28.7,28.7,0,0,1,2.19,3.92L2074,17.6a33.18,33.18,0,0,0-2.75-5.66h-3.08a29.16,29.16,0,0,1-3.37,4,15.86,15.86,0,0,0-.22,2.86h12.67a43.15,43.15,0,0,0,6.11-.28v5.6a47.67,47.67,0,0,0-6.06-.33H2064.6v3.64H2081a46.57,46.57,0,0,0,6.5-.34V32.9a53.77,53.77,0,0,0-6.45-.33h-4.93v3.64h4.43a55.39,55.39,0,0,0,6.5-.33v5.77a54.21,54.21,0,0,0-6.56-.34h-4.37v7.8c0,2.69-.84,4.14-2.91,4.87-1.13.4-3.2.56-6.62.56-1.18,0-2.13,0-4.2-.11a21.43,21.43,0,0,0-1.68-5.83,59.24,59.24,0,0,0,7,.39c2,0,2.47-.22,2.47-1.34V41.31h-18.28a58.34,58.34,0,0,1,7.74,7.29l-5.05,3.87a39.46,39.46,0,0,0-7.73-7.9l4.2-3.26h-6.84a52.45,52.45,0,0,0-6.5.34V35.88a54.48,54.48,0,0,0,6.45.33h26V32.57h-26.29a57.71,57.71,0,0,0-6.56.33V27.07a45.76,45.76,0,0,0,6.45.34h15V23.77h-10.88a54.84,54.84,0,0,0-6.16.28V18.5a46,46,0,0,0,6.22.28h10.82a12.53,12.53,0,0,0-.34-3.25h4.09a14.41,14.41,0,0,0-3-2.41c.56-.51.79-.68,1.24-1.13-.79-.05-2.08-.11-3-.11h-2.86a26.31,26.31,0,0,1,2,4l-5.49,1.68a30,30,0,0,0-2.3-5.66Z"/><path class="cls-1" d="M2095.88,38.9a57.23,57.23,0,0,1,11.27,11.89l-3.14,3A55.83,55.83,0,0,0,2093,41.54Z"/><path class="cls-1" d="M2133.66,49.39a34.12,34.12,0,0,0,.28,5.38h-6.11a31.65,31.65,0,0,0,.34-5.38V18.22h-1.91V37.73a48.6,48.6,0,0,0,.17,5.71H2121c.17-1.9.28-4,.28-6V17.6a39.87,39.87,0,0,0-.22-5.1,34.5,34.5,0,0,0,4.59.22h2.53V8.29a31.75,31.75,0,0,0-.34-5.26H2134a26.11,26.11,0,0,0-.34,5.26v4.43h3.25a24.57,24.57,0,0,0,3.93-.22,43.35,43.35,0,0,0-.12,4.76V37.61c0,3.7-1.12,4.83-4.76,4.83a6.8,6.8,0,0,1-.95-.06,14,14,0,0,0-1.12-5.61,6.86,6.86,0,0,0,1.12.17c.5,0,.73-.17.73-.62V18.22h-2.08Zm7.74-45.13a34.45,34.45,0,0,0,5.32.33h19.62a36.61,36.61,0,0,0,5.5-.33v5.83a35.75,35.75,0,0,0-5.5-.28h-19.62a35.06,35.06,0,0,0-5.32.28Zm1.23,29.37c0-2.35-.11-4-.22-5.77a54.27,54.27,0,0,0,5.83.22h17.49a53.74,53.74,0,0,0,5.77-.22c-.17,1.79-.22,3.59-.22,5.72V48.1a54.26,54.26,0,0,0,.28,6.56h-5.95V52.3h-17.54v2.36h-5.72c.17-1.85.28-3.76.28-6.45Zm1.63-16.81a34.32,34.32,0,0,0-.23-4.43,47.88,47.88,0,0,0,5.44.22H2164a44.09,44.09,0,0,0,5.21-.22,26.91,26.91,0,0,0-.22,4.37V21a34.47,34.47,0,0,0,.22,4.43,46.58,46.58,0,0,0-5.44-.22h-14.23a50.86,50.86,0,0,0-5.5.22,34,34,0,0,0,.23-4.37Zm3.81,20.74h6.17V33.07h-6.17Zm0,9.7h6.17V42.38h-6.17Zm1.9-26.8h13.18V17.1H2150Zm9.65,17.1h6.28V33.07h-6.28Zm0,9.64h6.28V42.38h-6.28Z"/><path class="cls-1" d="M2201.16,6.44a13.7,13.7,0,0,0-.28-3.19h6.89a13.35,13.35,0,0,0-.28,3.31V9.25h13.9a45.67,45.67,0,0,0,6.51-.34v6.5a47.83,47.83,0,0,0-6.51-.28h-33.24c-.06,21-1.68,30.28-7.06,39.41a30.9,30.9,0,0,0-4.94-5.27c4.38-7.23,5.67-14.63,5.67-32.29,0-4.2-.06-6.05-.23-8a44.24,44.24,0,0,0,5.83.28h13.74Zm-14.75,39.92c.67,0,.9,0,1.46,0s2.8,0,4-.11c4.37-8.8,9.19-23.71,9.59-29.43l7.12,1.74c-.45,1.46-.51,1.74-.9,3-3.31,11.21-5.61,17.49-9,24.16A175.9,175.9,0,0,0,2217,43.5a98.14,98.14,0,0,0-7.11-11l5.26-3a116.76,116.76,0,0,1,12.62,21.75l-5.55,3.58c-1.12-2.91-1.52-3.86-2.58-6.16-7.79,1.51-8.24,1.57-14.3,2.35-1.29.17-6.5.73-15.69,1.74-1,.11-1.35.17-2,.28Z"/><path class="cls-1" d="M2242.75,8.86a65.11,65.11,0,0,0-.45,8.52,104.39,104.39,0,0,0,1.07,15c1,5.83,2.74,9.42,4.54,9.42.84,0,1.62-.84,2.3-2.41a41.72,41.72,0,0,0,3-10.15,27.88,27.88,0,0,0,5.6,5.1c-2.91,10.93-6.16,15.47-10.93,15.47-3.75,0-6.78-2.74-9-8.12-2.3-5.61-3.31-13.74-3.54-29.27a25.5,25.5,0,0,0-.22-3.58Zm26.52,2.52c7.06,8.46,11,17.82,12.61,30.16l-7,2.63a57,57,0,0,0-3.59-16.2,48.91,48.91,0,0,0-8-13.79Z"/><path class="cls-1" d="M2302.06,6.11a41.5,41.5,0,0,0-.45,7.23V43.5a41.86,41.86,0,0,0,.45,7.23h-8.52a42.89,42.89,0,0,0,.45-7.23V13.34a42.44,42.44,0,0,0-.45-7.23Z"/><path class="cls-1" d="M2335.25,43.44a46.1,46.1,0,0,0,.45,7.29h-8.47a46.5,46.5,0,0,0,.45-7.29V12.84h-7.57a55.73,55.73,0,0,0-7.68.39V5.72a56.5,56.5,0,0,0,7.62.39h22.2a59.82,59.82,0,0,0,8.25-.39v7.51a59.25,59.25,0,0,0-8.25-.39h-7Z"/><path class="cls-1" d="M2385,15.53l0-2.53V11.21A35.1,35.1,0,0,0,2384.8,5H2392a20.6,20.6,0,0,0-.22,3.75c0,3.42,0,3.42-.06,6.79h3.59a39.35,39.35,0,0,0,7.29-.4V22a57.94,57.94,0,0,0-7.18-.28h-3.75c-.12,6.73-.12,7.12-.4,9.25-.78,7.18-3.19,11.94-8.07,16.09-3,2.58-5.77,4-10.93,5.89a16.52,16.52,0,0,0-4.2-5.94c5.32-1.63,8-3,10.7-5.33,3.81-3.31,5.44-7,5.95-13.45.11-1.29.11-2.64.22-6.51h-14.52V30.1a36,36,0,0,0,.22,4.71h-7.28a36.7,36.7,0,0,0,.22-4.82v-8.3h-3.42A57.75,57.75,0,0,0,2353,22V15.13a39.17,39.17,0,0,0,7.28.4h3.31V9.92a29.33,29.33,0,0,0-.28-5h7.34a28.54,28.54,0,0,0-.22,4.82v5.78Z"/><path class="cls-1" d="M2408.18,24.66a54.27,54.27,0,0,0,9.08.4h29.88a54.34,54.34,0,0,0,9.08-.4v7.8c-2.24-.28-2.86-.28-9.14-.28h-29.77c-6.27,0-6.89,0-9.13.28Z"/><path class="cls-1" d="M2474.16,23.21c8.46-1.57,20.85-6.56,24.5-10l4.48,6.33c-.39.17-2.07,1-5,2.41a94.85,94.85,0,0,1-23.94,7.74v7.4a3.48,3.48,0,0,0-.06.73c0,3.25.23,4.54,1,5.32.95,1,4.15,1.46,9.59,1.46a105.82,105.82,0,0,0,13-.9,32.46,32.46,0,0,0,6.39-1.34l.34,7.45c-1.18,0-1.46.06-7.4.62-3.31.34-10.37.67-13.79.67-7.06,0-10.93-.72-13.12-2.41-1.57-1.17-2.41-3-2.75-5.71a43.73,43.73,0,0,1-.16-5.16l-.06-26a30.19,30.19,0,0,0-.22-5.16h7.51a27.85,27.85,0,0,0-.28,5.21ZM2500.79,4a35.92,35.92,0,0,1,5.6,8.53l-4,1.85a35.9,35.9,0,0,0-5.55-8.58Zm8.41,7.12a42.16,42.16,0,0,0-5.39-8.35L2507.68,1a33,33,0,0,1,5.5,8.13Z"/><path class="cls-1" d="M2558.08,51.91a107.87,107.87,0,0,0-17.21-16.65,66.63,66.63,0,0,1-21.36,16.2,22.52,22.52,0,0,0-4.54-6.22,46.12,46.12,0,0,0,11.21-6.17A54,54,0,0,0,2545,16.25l.61-1.45c-.89,0-.89,0-18.55.33a44.75,44.75,0,0,0-6.11.45l-.23-7.17a24.68,24.68,0,0,0,4.94.33H2527l19.73-.28c3.14-.05,3.59-.11,5-.61l3.7,3.81a10.71,10.71,0,0,0-1.79,3,74.57,74.57,0,0,1-8.75,15.47,86.43,86.43,0,0,1,10.38,8.13c1.4,1.23,1.4,1.23,8.18,7.79Z"/><path class="cls-1" d="M2569.85,9.75c2.3.51,5.89.73,13,.73a22.37,22.37,0,0,0,2.24-7l7.34.78a48.55,48.55,0,0,0-2.24,5.05c-.28.62-.39.78-.51,1,.45-.06.45-.06,3.54-.23,6.5-.39,11.6-1,14.68-1.9l.4,6.39c-1.57.11-1.57.11-4.43.45-4.09.5-11.21,1-16.88,1.12a28.82,28.82,0,0,1-5.15,7.45l.05.12c.4-.28.4-.28,1.12-.84a13.58,13.58,0,0,1,7.91-2.53c4.37,0,7.12,2.08,8,6q6.48-2.36,8.58-3c3-1.07,3.25-1.12,4.15-1.68l2.64,6.44a50.55,50.55,0,0,0-6.23,1.52c-.78.22-3.59,1.17-8.41,2.86v.61c.06,1.46.06,1.46.06,2.25v2.24c-.06.95-.06,1.46-.06,1.85a23.36,23.36,0,0,0,.17,3l-6.5.17a44.94,44.94,0,0,0,.34-6.51V34.7a34.45,34.45,0,0,0-5.39,2.91c-2,1.46-2.91,3-2.91,4.6,0,2.92,2.69,4.09,9.47,4.09s12.5-.84,16.48-2.35l.56,7.23a17.36,17.36,0,0,0-2.57.22,101.23,101.23,0,0,1-14.35,1c-5.95,0-9.65-.67-12.51-2.35a8.13,8.13,0,0,1-4.09-7.23,8.92,8.92,0,0,1,2.47-6.23c2.52-3.13,5.72-5.27,12-7.9a3.08,3.08,0,0,0-3.42-3c-3.25,0-7.17,2-11.49,5.78a24.88,24.88,0,0,0-4.88,5.1l-5.1-5a34.48,34.48,0,0,0,5.05-5,74,74,0,0,0,6.72-9.58,3,3,0,0,1,.45-.73c-.22,0-.95.05-.95.05-.9,0-5.83-.11-7.07-.11-1.06-.05-1.06-.05-1.57-.05a6.89,6.89,0,0,0-.89.05Z"/><path class="cls-1" d="M2634.71,30.89c-3.53,3-5.1,5.32-5.1,7.73,0,3.65,4.09,5.22,13.56,5.22,6.68,0,14-1,17.61-2.41l.61,7.68a21.35,21.35,0,0,0-2.46.22,90.45,90.45,0,0,1-15.14,1.29c-6.11,0-11-.62-14-1.85-4.83-1.91-7.18-5-7.18-9.36s2.19-8,7.23-12.22Zm-8.52-23c4.31,1,9.3,1.4,16.82,1.4,7.12,0,11.1-.28,14.8-1.07l.22,6.34c-3.36,1.45-10.26,5.77-15,9.25l-4.88-3.87c3.54-2.24,4.15-2.64,5.55-3.42.57-.34.73-.45,1.46-.9a9.23,9.23,0,0,0,1.24-.67,59.25,59.25,0,0,1-8.41.45,88.84,88.84,0,0,1-10.26-.67c-.68-.06-1.07-.12-1.29-.12s-.39-.05-.79-.05Zm29.6,12.44a36.57,36.57,0,0,1,5.88,8.24l-3.92,2.08a37.76,37.76,0,0,0-5.89-8.36Zm8.69,6.78a41.52,41.52,0,0,0-5.72-8.12l3.75-2a32,32,0,0,1,5.83,7.91Z"/><path class="cls-1" d="M2707.25,47.82a48.73,48.73,0,0,0,6,.28c3.47,0,6.33-.12,9.3-.4a24.07,24.07,0,0,0-1.45,5.95c-1.91.05-4,.05-5.67.05-8,0-12.44-.67-15.86-2.35a20.42,20.42,0,0,1-6.28-5.1,36.76,36.76,0,0,1-5.89,8.69,20,20,0,0,0-4.26-3.87c-.56,2.58-2.07,3.36-6.56,3.36-1.23,0-2.63,0-4.65-.17a16.73,16.73,0,0,0-1.29-5.77,46.9,46.9,0,0,0,4.77.34c1.62,0,2-.28,2-1.69V34.53c-1.29.51-2,.73-3,1.07-1.34.5-2.13.78-2.91,1.12l-.9-6.23a36.41,36.41,0,0,0,6.84-1.79v-10H2675a34.8,34.8,0,0,0-4,.23V13a19.84,19.84,0,0,0,4.15.33h2.3V8.86a31,31,0,0,0-.34-5.72h6.67a30.43,30.43,0,0,0-.33,5.66v4.48h1.85l2.41,0a2.73,2.73,0,0,1,.5-.06c.12-.05.23-.05.45-.11v5.83a31.71,31.71,0,0,0-3.31-.17h-1.9v7.85c2.07-.78,2.63-1,4.88-2V27a35.49,35.49,0,0,0,4.65.22h23.32a32.38,32.38,0,0,0,5.16-.28v5.72a35.43,35.43,0,0,0-5.16-.28h-9v4.65h7a29,29,0,0,0,5-.28v5.44a31.33,31.33,0,0,0-5-.28h-7Zm-10-12.17c-.17.45-.4,1.12-1,3.25-.23.73-.4,1.24-.68,2.19a13.87,13.87,0,0,0,5.89,5.27v-14h-9.08a31.22,31.22,0,0,0-4.32.22V30.33c-1.9.84-2.52,1.12-4.65,2V48.94a11.9,11.9,0,0,1-.06,1.4,24,24,0,0,0,4.88-6.17,27.05,27.05,0,0,0,3.19-9.92Zm-2-11.15c-2.24,0-3.14,0-4.71.11.06-.84.12-2.75.17-5.72V10c0-2.18-.05-3.87-.17-5.27A52.29,52.29,0,0,0,2696,5h16.71a48.33,48.33,0,0,0,5.38-.23,30.9,30.9,0,0,0-.28,5.05v9.25c0,2.07,0,2.24.22,5.6-1.46-.11-3.25-.16-5.55-.16Zm1.18-12.06h15.64V9.86h-15.64Zm0,7.29h15.64V17h-15.64Z"/><path class="cls-1" d="M2743,4c-.28.73-.45,1.07-.84,2.3a68.3,68.3,0,0,1-3.93,10V48.15c0,1.91.12,4.71.28,6.51h-6.67a50.51,50.51,0,0,0,.34-6.56V32.18c0-3.14,0-3.93.17-6.28a35.77,35.77,0,0,1-4.6,6.39,32.44,32.44,0,0,0-2.52-6.79,45.3,45.3,0,0,0,11.38-23.26Zm13.23,36.84a46.28,46.28,0,0,1-12.62,13.9A27.7,27.7,0,0,0,2738.7,50a30.31,30.31,0,0,0,6.89-5.6,32.5,32.5,0,0,0,5.16-7Zm6.95-27.08V8.13a29.56,29.56,0,0,0-.28-4.71h6.67a31.7,31.7,0,0,0-.34,4.76v5.61h2.53a34.41,34.41,0,0,0,5.38-.34v6.39a34.77,34.77,0,0,0-5.38-.33h-2.53v11.6h4a27.87,27.87,0,0,0,5.33-.34v6.4a34.16,34.16,0,0,0-5.33-.34H2745.7a34.1,34.1,0,0,0-5.32.34v-6.4a32.23,32.23,0,0,0,5.32.34h3.2V19.51h-1.62a29,29,0,0,0-5.33.33V13.45a36.17,36.17,0,0,0,5.33.34h1.62V8a29.77,29.77,0,0,0-.34-4.59h6.68a27.32,27.32,0,0,0-.28,4.65v5.72Zm0,17.32V19.51H2755v11.6Zm3.59,6.11a36.94,36.94,0,0,0,5.49,7,28.74,28.74,0,0,0,6.73,5.27,39.19,39.19,0,0,0-4.49,5.38,45.14,45.14,0,0,1-6.67-5.94,47.07,47.07,0,0,1-6.28-8.24Z"/><path class="cls-1" d="M2796.16,5.38a51.24,51.24,0,0,0-.68,7.57c-.22,5.21-.56,16.59-.56,20.57,0,5.33.34,7.35,1.46,9,1.29,1.85,4,2.91,7.51,2.91,6.06,0,10.94-3.42,13.57-9.58a37.92,37.92,0,0,0,2.58-9.42,24.23,24.23,0,0,0,6.78,4.31c-2.24,7.57-3.92,11.22-6.67,14.3-4.2,4.76-9.75,7.12-16.82,7.12a18.31,18.31,0,0,1-9.81-2.47c-3.87-2.58-5.49-6.89-5.49-14.4,0-2.92.11-8.53.45-22.6.05-1.68.05-2.86.05-3.64a27.6,27.6,0,0,0-.22-3.81Z"/><path class="cls-1" d="M2874.3,50.68A37.52,37.52,0,0,0,2863.93,43a23.87,23.87,0,0,0-3-1.41v.62c0,3.53-1,5.94-3.14,7.57s-5.16,2.41-9.25,2.41c-8.19,0-12.9-3.2-12.9-8.75,0-6.11,5.55-9.69,15-9.69a29.07,29.07,0,0,1,3.76.22,10.24,10.24,0,0,0-.06-1.35V31.39c-.06-.78-.06-.78-.11-3-2.69.06-4.43.12-5.61.12-3.42,0-5.49-.06-10.14-.4-.73,0-1.29,0-2.13,0l.11-6.06a72.14,72.14,0,0,0,13.06,1c1.12,0,3-.06,4.6-.12,0-.5,0-2.41-.06-5.6-1.79.05-2.69.05-3.53.05-2.75,0-10-.28-13.74-.56-.61-.05-1.06-.05-1.23-.05h-.9l.06-6.23c2.86.73,8.63,1.18,15.08,1.18.9,0,2.8,0,4.2-.11,0-5.61,0-5.66-.28-7.06h7.12c-.28,1.51-.33,2.24-.39,6.84,7.62-.45,12.5-1.07,16.14-2.13l.29,6.22a33,33,0,0,0-4.43.5c-4.94.68-7.12.84-12.06,1.12.06,1.41.06,2.08.12,5.55,2.8-.16,2.8-.16,8-.73a40.91,40.91,0,0,0,6.95-1.23l.17,6.17c-1,.05-2.36.22-3.65.39-.84.11-3.36.39-7.57.79-.78,0-1.62.11-3.81.22.17,5.44.17,5.44.23,6.78,4.93,1.46,9.3,3.65,15.36,7.91,1,.61,1.23.84,2,1.29ZM2849.8,39.3c-4.54,0-7.28,1.45-7.28,3.86,0,2.08,2.41,3.37,6.39,3.37,2.35,0,4.09-.68,4.88-1.8a7.18,7.18,0,0,0,.67-3.58V39.8A19.8,19.8,0,0,0,2849.8,39.3Z"/><path class="cls-1" d="M2916,25.06c0,.22.06.67.06,1.34a17.12,17.12,0,0,1,1.79,7.91c0,6.11-2.91,11.38-8.35,15.13-2.35,1.63-4.93,2.81-10.15,4.6-1.56-3.48-2.13-4.32-4-6.34,4.6-.89,6.9-1.68,9.53-3.25,3.82-2.18,6.06-5,6.51-8.18-1.63,2.58-4.54,4-8.24,4a10.37,10.37,0,0,1-6.51-2,8.77,8.77,0,0,1-3.86-7.57c0-5.94,4.65-10.2,11.15-10.2a9.4,9.4,0,0,1,5.83,1.68,2.57,2.57,0,0,1-.05-.67c-.06-.11-.06-3.25-.06-4.77-8,.23-13.29.4-15.75.56-8.47.62-8.47.62-10,.84l-.23-6.67a22.92,22.92,0,0,0,2.75.12c1.4,0,2.3,0,9.53-.28,3.64-.12,4.2-.12,8.8-.23,1.85,0,1.85,0,4.77-.17-.06-5.32-.06-5.32-.34-6.78l7.06-.06a45.43,45.43,0,0,0-.28,6.68c9.76-.06,14.13-.17,16.21-.4l.05,6.45c-2.07-.17-4.76-.28-9.42-.28-1.34,0-2.35,0-6.78.11v3.65Zm-11.43.56c-2.86,0-5.22,2-5.22,4.48a4.43,4.43,0,0,0,4.77,4.43c3.19,0,5.49-2.13,5.49-5C2909.56,27.13,2907.6,25.62,2904.52,25.62Z"/><path class="cls-2" d="M152,105.92l-21.53,46.36h0l-28.35,61,3.66.08,1.58-3.42,4.43-9.55H149l4.42,9.55,1.4,3.26,3.82.08h43Zm-37.11,87.83,15.57-33.52L146,193.75Z"/><polygon class="cls-2" points="256.29 207.65 256.29 105.84 209.19 105.84 209.19 213.4 256.29 213.4 309.11 213.4 309.11 207.65 256.29 207.65"/><path class="cls-2" d="M55.15,208.63a50.54,50.54,0,0,1-5.25-.28V110.5a47.92,47.92,0,0,1,5.25-.28A49.18,49.18,0,0,1,94.56,130l3.94-1.1c-.42-.59-.85-1.18-1.29-1.75A52.93,52.93,0,0,0,55.15,106.4c-1.77,0-3.52.09-5.25.26a53,53,0,0,0,0,105.53c1.73.17,3.48.26,5.25.26A53,53,0,0,0,98.45,190l-3.94-1.1A49.18,49.18,0,0,1,55.15,208.63Z"/><path class="cls-1" d="M907.75,208.09c.12-1.93.12-4,.12-6.28h-54c-4.61,0-11.36.37-15.26.73V185.27c4.14.37,9.46.73,14.79.73H908V136H854.87c-5,0-11.36.24-14.68.48V119.72c4.38.48,10.53.73,14.68.73h59.51c3.43,0,8.4-.12,10.41-.25-.11,2.78-.35,7.61-.35,11.11v62.54c0,4.22.24,10.62.47,14.24Z"/><path class="cls-1" d="M994.25,178.27c20.11-12.19,35.61-30.66,43.07-47l9.22,17c-9,16.3-24.72,33-43.77,44.67a126.58,126.58,0,0,1-43.9,17l-9.94-15.93A120.48,120.48,0,0,0,994.25,178.27Zm0-39.11-12.07,12.67c-6.15-6.76-20.94-19.91-29.58-26.07l11.12-12.07C972,119.36,987.38,131.92,994.25,139.16Z"/><path class="cls-1" d="M1081.57,148.21c14-3.5,30.41-8.81,40.94-13.4a70.33,70.33,0,0,0,11.35-5.55,15,15,0,0,1-3.43-9.54,14.14,14.14,0,1,1,14.08,14.49,13.45,13.45,0,0,1-7.57-2.29l4.85,11.71c-4.61,1.93-9.94,4.22-13.84,5.67A403.65,403.65,0,0,1,1081.57,164v22.33c0,5.19,2.36,6.52,7.69,7.61a109.09,109.09,0,0,0,13.72.72c12.31,0,31.48-1.57,41.18-4.22v17.62c-11.12,1.69-29.11,2.54-42.12,2.54a128,128,0,0,1-19.88-1.45c-10.29-1.81-16.21-7.61-16.21-18V125.4a102,102,0,0,0-1-12.56h17.51a94.23,94.23,0,0,0-.94,12.56Zm69.81-28.49a6.81,6.81,0,1,0-6.87,7A6.94,6.94,0,0,0,1151.38,119.72Z"/><path class="cls-1" d="M1243,192.28c3.07,0,8.52-.12,11.59-.49v15.58c-2.36-.12-8.16-.37-11.24-.37H1181c-4.26,0-7.22.13-11.72.37v-15.7a112.11,112.11,0,0,0,11.72.61h38.33c1.66-10.27,4.26-27.41,4.62-34.17h-32c-3.78,0-8.4.36-11.83.61V142.78c3.08.36,8.52.72,11.71.72h30.29c2.49,0,7.34-.48,8.88-1.32l11.36,5.67a33.63,33.63,0,0,0-1.19,5.07c-.94,7.12-4,27.89-5.79,39.36Z"/><path class="cls-1" d="M1271.12,149.54c4.26.36,12.89.73,19.05.73h63.53c5.45,0,10.77-.49,13.85-.73v19c-2.84-.12-8.88-.6-13.85-.6h-63.53c-6.75,0-14.67.24-19.05.6Z"/><path class="cls-1" d="M1479.72,128.41a57.31,57.31,0,0,0-3.91,8.58,140.3,140.3,0,0,1-16.33,33.07c4.38,2.78,8.4,5.56,11.36,7.73l-10.77,14.12a138.38,138.38,0,0,0-11-8.57,112.8,112.8,0,0,1-43.66,30.06l-13.72-12.19c20.94-6.52,34.31-16.78,44.13-27-8-5.31-16.09-10.26-22.13-13.76l10.06-11.47c6.27,3.26,14.32,7.84,22.24,12.67,5.8-8.57,10.53-18.47,12.31-25.71h-34c-8.28,11.23-19.28,22.82-31.23,31.15l-12.78-10A109.74,109.74,0,0,0,1418.07,117a54.16,54.16,0,0,0,5.33-12.68l17.15,5.43c-2.84,4.23-5.91,9.78-7.33,12.32l-.12.12h24.25a37.12,37.12,0,0,0,10.3-1.33Z"/><path class="cls-1" d="M1593.42,123.71a60.23,60.23,0,0,0-4.61,6.27c-5.57,9.42-16.81,24.63-28.52,33.08l-12.19-10c9.47-5.91,18.7-16.54,21.78-22.45h-61.65c-5,0-8.87.36-14.43.84V114.65a91.17,91.17,0,0,0,14.43,1.21H1572c3.32,0,9.83-.36,12-1.09ZM1545.15,140c0,29.94-.59,54.57-32.9,72.2l-13.72-11.47a46.58,46.58,0,0,0,12.42-6.64c15-10.63,17.87-23.42,17.87-43.22A68.59,68.59,0,0,0,1528,140Z"/><path class="cls-1" d="M1635.31,143.87c15.73,4.83,38.57,13.4,49.46,18.83l-6.63,16.78c-12.31-6.64-30.05-13.64-42.83-18v34.17c0,3.38.59,11.83,1.18,16.78h-18.57a133.44,133.44,0,0,0,1.18-16.78V126.24a87.77,87.77,0,0,0-1.18-14.61h18.45a134.94,134.94,0,0,0-1.06,14.61Zm31.47-5.32A99,99,0,0,0,1656.37,120l9.94-4.34c3.31,5.07,8,12.79,10.76,18.23Zm16.21-6.76a113.42,113.42,0,0,0-11-18.1l9.82-4.71a160.57,160.57,0,0,1,11.12,17.86Z"/><path class="cls-1" d="M1731.86,122l17.27,3.62c-1.06,3.5-2.36,9.41-2.84,12.07a306,306,0,0,1-10,36.34,167.15,167.15,0,0,1-17.52,34.52l-16.56-7.12a146.44,146.44,0,0,0,18.46-33.56A177,177,0,0,0,1731.86,122Zm30.05,3.62,15.74-5.19c4.85,9.29,13,27.88,17.39,39.59,4.26,10.87,10.53,30.18,13.85,42.14L1791.37,208a377.92,377.92,0,0,0-12.3-42.61C1774.57,152.68,1766.88,134.81,1761.91,125.64Zm37.63,0-9.47,4.22c-2.48-5-6-12.19-9.23-16.78l9.35-4C1793.15,113.57,1797.29,121.17,1799.54,125.64Zm14.2-5.56-9.47,4.23a127.86,127.86,0,0,0-9.47-16.66l9.35-4A188.51,188.51,0,0,1,1813.74,120.08Z"/><path class="cls-1" d="M1886,194.93c0,5.31.24,12.8,1.06,15.82H1868.4a138.78,138.78,0,0,0,.83-15.82v-39.6a228.45,228.45,0,0,1-40.7,16.42L1820,157a179.79,179.79,0,0,0,53.83-21.86c12-7.6,24.26-18.35,30.88-27.28l12.66,11.71a194.11,194.11,0,0,1-31.35,26Z"/><path class="cls-1" d="M2018.31,135.17a67,67,0,0,0,13-1v16.06c-2.61-.25-6.75-.37-12.9-.37h-8.87v4c0,29.94-7,48.17-35.62,61.08l-12.66-12.19c22.84-8.21,32.89-18.59,32.89-48.29V149.9h-28v16.42c0,5.43.36,10.26.48,12.68H1950a98.82,98.82,0,0,0,.71-12.68V149.9h-10.06c-5.91,0-10.17.24-12.78.49V134a73.64,73.64,0,0,0,12.78,1.2h10.06V123.1a98.93,98.93,0,0,0-.71-10.86h16.8a99.63,99.63,0,0,0-.71,11v11.95h28V122.38a77.2,77.2,0,0,0-.71-11.11h16.92a76.67,76.67,0,0,0-.82,11.11v12.79Zm-.47-4.46a162.49,162.49,0,0,0-6-16.54l7.93-2.66a123.43,123.43,0,0,1,6.27,16.54Zm12.42-4a108.85,108.85,0,0,0-6.39-16.41l8.05-2.66c2.25,4.83,5,11.83,6.5,16.42Z"/><path class="cls-1" d="M2049,149.54c4.26.36,12.89.73,19.05.73h63.53c5.45,0,10.77-.49,13.85-.73v19c-2.84-.12-8.88-.6-13.85-.6H2068c-6.75,0-14.67.24-19.05.6Z"/><path class="cls-1" d="M394.49,171.93c-1.3-3.38-3.55-8.57-5.91-13.64v55.53H374.85V167c-3.19,10-7,19-11.12,25.23a87.62,87.62,0,0,0-6.63-14.49c7.1-9.29,13.49-26.32,16.92-40.8H359.47V123.64h15.38V101.18h13.73v22.46h13.48v13.28H388.58v3.5c3.43,4.46,12.06,18.35,14,21.85Zm54.78-7.49c5.21,12.32,13.49,24.63,21.89,31.87A60.58,60.58,0,0,0,461,207.54c-6.86-7.24-13.26-18.47-18.22-30.54v36.82H428.92V178.08c-6.51,12.44-14.79,23.3-24.25,30.3a69.31,69.31,0,0,0-9.47-11c11.12-6.88,21.18-19.56,27.33-33H403V151.52h25.91V135h-11a72.19,72.19,0,0,1-7,14.6,72.79,72.79,0,0,0-11-7.12c5.92-8.45,9.35-21.85,11.13-35.37L424,109.39c-.71,4.35-1.42,8.57-2.36,12.68h7.33V101.3h13.85v20.77h22.12V135H442.77v16.53h25.08v12.92Z"/><path class="cls-1" d="M552.8,135.71c2.49,35.25,9.71,63.14,18.34,63.14,2.49,0,3.91-6.4,4.5-21.73A37.53,37.53,0,0,0,588,185.57c-2.14,22.81-6.87,28.37-18.11,28.37-20.23,0-29.11-35.74-31.94-78.23H479.09v-14h58.1c-.24-6.52-.36-13.28-.36-19.92H552c-.12,6.64-.12,13.4.11,19.92h18.7c-3.2-4.11-9.11-9.06-13.85-12.68l9.35-7.85c5.33,3.75,12.31,9.42,15.5,13.4l-8,7.13h11.12v14Zm-37.39,54.2c7.22-1.32,14.79-2.77,22-4.22l1.07,12.8c-19.41,4.34-40.23,8.81-55.5,12.07l-3.9-14.49c6-1,13.84-2.17,22.36-3.62V163.36H483.59V149.47h50.75v13.89H515.41Z"/><path class="cls-1" d="M622.61,141.75a136.25,136.25,0,0,1-20,12.07,55.59,55.59,0,0,0-8.28-12.07c20.24-9.06,38.93-26.2,47.8-40.45h14.68a108.39,108.39,0,0,0,50.05,38.27c-3.56,3.75-6.63,8.94-9.12,13.16A142.09,142.09,0,0,1,677.87,141v9.54H622.61Zm-20.94,18.83h97.85v13.28h-53c-3.43,7.12-7.33,14.61-10.88,21.37,11.35-.37,23.54-.85,35.61-1.33a144.4,144.4,0,0,0-11.59-12.32L672.07,175c10.53,9.41,21.53,22,27.09,31L686,214.06a64.8,64.8,0,0,0-4.73-7.49c-27.81,1.57-57,2.78-77.15,3.75l-1.89-14,17.87-.6c3.19-6.76,6.5-14.73,9-21.85H601.67Zm71.11-23.18c-9.11-7-17.28-14.85-22.72-22.33-5.09,7.36-12.66,15.21-21.65,22.33Z"/><path class="cls-1" d="M757,181.1c-2.48-3.38-6.51-8.21-10.53-12.67v45.51h-14V172.29a97.87,97.87,0,0,1-14.67,11.59c-1.18-3.87-4.5-10.87-6.63-13.64,12.9-7.13,25.32-19.8,33.13-33.81H715.73V123.52h16.8V101.3h14v22.22h5.33l2.48-.61,7.93,5.19a117.86,117.86,0,0,1-14,25.84c5.68,4.71,14.79,13,17.27,15.45Zm67.8,15.33v14h-67v-14h27.33V152.25H762.7V138.37h22.48v-36.1h14.44v36.1H822v13.88H799.62v44.18Z"/></svg>