<svg id="レイヤー_1" data-name="レイヤー 1" xmlns="http://www.w3.org/2000/svg" viewBox="0 0 1574.24 497.11"><defs><style>.cls-1{fill:#1e35a8;}.cls-2{fill:#444;}</style></defs><title>logo-name</title><path class="cls-1" d="M779.16,6.46l-45.11,97.12h0L674.66,231.46l7.67.17,3.3-7.17,9.29-20H773l9.24,20,2.95,6.83,8,.17h90Zm-77.74,184L734,120.23l32.46,70.23Z"/><polygon class="cls-1" points="997.66 219.58 997.66 6.29 898.99 6.29 898.99 231.63 997.66 231.63 1108.33 231.63 1108.33 219.58 997.66 219.58"/><path class="cls-1" d="M576.25,221.64a102.53,102.53,0,0,1-11-.59V16a105.19,105.19,0,0,1,11-.58,103,103,0,0,1,82.57,41.43l8.25-2.31c-.88-1.24-1.77-2.47-2.69-3.67A110.91,110.91,0,0,0,576.25,7.46q-5.57,0-11,.54a111.1,111.1,0,0,0,0,221.1c3.62.35,7.29.54,11,.54a110.94,110.94,0,0,0,90.72-47l-8.26-2.31A103,103,0,0,1,576.25,221.64Z"/><path class="cls-2" d="M470.57,276.59a16.09,16.09,0,0,1,12-4.83q9.75,0,14.27,6.48a14.09,14.09,0,0,1,2.68,7.29h-8.17a11.17,11.17,0,0,0-2-4.24c-1.46-1.7-3.61-2.55-6.47-2.55a8,8,0,0,0-6.89,3.59q-2.52,3.6-2.52,10.18t2.66,9.85a8.32,8.32,0,0,0,6.76,3.28,7.67,7.67,0,0,0,6.41-2.81,12.3,12.3,0,0,0,2-4.54h8.12a17.61,17.61,0,0,1-5.37,10.4,15.61,15.61,0,0,1-11.06,4q-8.34,0-13.12-5.41t-4.78-14.91Q465.13,282.14,470.57,276.59Z"/><path class="cls-2" d="M529.57,308.07q-3.66,4.51-11.12,4.52t-11.11-4.52a17.94,17.94,0,0,1,0-21.72q3.66-4.59,11.11-4.59t11.12,4.59a17.94,17.94,0,0,1,0,21.72Zm-6.05-4.18a13.48,13.48,0,0,0,0-13.39,6.73,6.73,0,0,0-10.2,0,13.42,13.42,0,0,0,0,13.39,6.69,6.69,0,0,0,10.2,0Z"/><path class="cls-2" d="M574.72,282.8a8.32,8.32,0,0,1,3.36,2.6,8.19,8.19,0,0,1,1.65,3.71,25.44,25.44,0,0,1,.26,4.27l0,18.23H572.2V293.2a6,6,0,0,0-.54-2.71,3.77,3.77,0,0,0-3.71-2,4.34,4.34,0,0,0-4.32,2.6,8.13,8.13,0,0,0-.61,3.32v17.22H555.4V294.39a9.54,9.54,0,0,0-.53-3.74,3.69,3.69,0,0,0-3.74-2.1q-3.23,0-4.35,2.1a8.18,8.18,0,0,0-.61,3.55v17.41h-7.66V282.74h7.34V287a12.36,12.36,0,0,1,2.66-3.21,10.54,10.54,0,0,1,11.06-.24,8.52,8.52,0,0,1,2.49,3.48,9.55,9.55,0,0,1,3.69-3.74,11.21,11.21,0,0,1,5.2-1.19A10,10,0,0,1,574.72,282.8Z"/><path class="cls-2" d="M611.26,285.8q3.54,3.74,3.54,11,0,7.64-3.46,11.64a11.23,11.23,0,0,1-8.9,4,9.33,9.33,0,0,1-5.77-1.73,10.92,10.92,0,0,1-2.46-2.78V323h-7.48v-40.3H594V287a12.3,12.3,0,0,1,2.62-3,9.65,9.65,0,0,1,6-1.93A11.42,11.42,0,0,1,611.26,285.8Zm-5.8,5.43a5.4,5.4,0,0,0-5-2.57,5.69,5.69,0,0,0-5.71,3.9,14.57,14.57,0,0,0-.8,5.25q0,5,2.7,7.08a6.18,6.18,0,0,0,3.81,1.2,5.52,5.52,0,0,0,4.86-2.44,12.78,12.78,0,0,0,.14-12.42Z"/><path class="cls-2" d="M627.66,282.69v17.43a9.28,9.28,0,0,0,.58,3.71q1,2.21,4,2.2a5.28,5.28,0,0,0,5.28-3.12,11.48,11.48,0,0,0,.74-4.49V282.69H646v28.92h-7.35v-4.09c-.07.09-.25.35-.53.8a5.11,5.11,0,0,1-1,1.16,10.54,10.54,0,0,1-3.42,2.18,11.65,11.65,0,0,1-3.88.58q-6.39,0-8.62-4.61a17.71,17.71,0,0,1-1.24-7.51V282.69Z"/><path class="cls-2" d="M650.34,288.34V283h4v-8.07h7.49V283h4.69v5.38h-4.69v15.28a3.47,3.47,0,0,0,.45,2.22c.3.29,1.22.43,2.75.43h.73l.76,0v5.65L663,312q-5.36.19-7.32-1.85a5.53,5.53,0,0,1-1.28-4v-17.8Z"/><path class="cls-2" d="M690.25,283.28a11.73,11.73,0,0,1,5,4.28,14.09,14.09,0,0,1,2.31,6,38.36,38.36,0,0,1,.25,5.74H676.74q.16,4.35,3,6.1a7.62,7.62,0,0,0,4.17,1.09,5.86,5.86,0,0,0,5.75-3.32h7.72a9.45,9.45,0,0,1-2.8,5.23q-3.89,4.22-10.88,4.22A15.75,15.75,0,0,1,673.54,309q-4.42-3.55-4.42-11.58c0-5,1.33-8.85,4-11.52a13.94,13.94,0,0,1,10.34-4A16.39,16.39,0,0,1,690.25,283.28Zm-11.31,6.53a7.87,7.87,0,0,0-2,4.47h13a6.28,6.28,0,0,0-2-4.56,6.61,6.61,0,0,0-4.48-1.56A6,6,0,0,0,678.94,289.81Z"/><path class="cls-2" d="M717.68,282l.65,0v7.74c-.48-.05-.9-.09-1.27-.11l-.91,0q-4.56,0-6.12,3a11.45,11.45,0,0,0-.88,5.15v13.82h-7.61V282.69h7.21v5a16.19,16.19,0,0,1,3-4,8.3,8.3,0,0,1,5.52-1.78Z"/><path class="cls-2" d="M734.55,272.51h9.25l13.83,39.1h-8.86l-2.58-8h-14.4l-2.65,8h-8.55ZM734,296.83h10l-4.94-15.38Z"/><path class="cls-2" d="M777.33,283.16a9.19,9.19,0,0,1,3.31,3.19V272.56h7.67v39.05H781v-4a10.65,10.65,0,0,1-3.69,3.74,10.31,10.31,0,0,1-5.14,1.17,10.76,10.76,0,0,1-8.53-4.1,15.73,15.73,0,0,1-3.46-10.52q0-7.39,3.41-11.64a11.08,11.08,0,0,1,9.11-4.25A9.35,9.35,0,0,1,777.33,283.16Zm1.85,20.59a10.5,10.5,0,0,0,1.67-6.18q0-5.29-2.68-7.58a5.75,5.75,0,0,0-3.82-1.38,5.29,5.29,0,0,0-4.86,2.5,13.56,13.56,0,0,0,0,12.63,5.35,5.35,0,0,0,4.79,2.4A5.56,5.56,0,0,0,779.18,303.75Z"/><path class="cls-2" d="M813,282.69h8.12l-10.44,28.92h-8l-10.37-28.92h8.49l6,21.33Z"/><path class="cls-2" d="M833.16,279.24H825.5v-7h7.66Zm-7.66,3.45h7.66v28.92H825.5Z"/><path class="cls-2" d="M846.35,302.37a5,5,0,0,0,1,2.87q1.41,1.51,5.22,1.51a8,8,0,0,0,3.56-.66,2.13,2.13,0,0,0,1.32-2,2.16,2.16,0,0,0-1.06-1.94q-1.06-.66-7.91-2.28c-3.29-.81-5.6-1.83-6.95-3.05a6.61,6.61,0,0,1-2-5.2,9,9,0,0,1,3.15-6.88q3.15-2.88,8.86-2.88a16.3,16.3,0,0,1,8.84,2.16q3.42,2.16,3.92,7.47h-7.56a4.47,4.47,0,0,0-.82-2.31c-.84-1-2.25-1.54-4.26-1.54a6.13,6.13,0,0,0-3.52.77,2.22,2.22,0,0,0-1,1.81,2,2,0,0,0,1.12,1.88c.74.41,3.37,1.1,7.89,2.09a14.51,14.51,0,0,1,6.77,3.21,7.28,7.28,0,0,1,2.23,5.44,8.79,8.79,0,0,1-3.2,7q-3.21,2.72-9.9,2.72t-10.09-2.88a9.36,9.36,0,0,1-3.26-7.34Z"/><path class="cls-2" d="M889.54,283.28a11.76,11.76,0,0,1,5,4.28,14.21,14.21,0,0,1,2.3,6,37,37,0,0,1,.25,5.74H876q.18,4.35,3,6.1a7.67,7.67,0,0,0,4.17,1.09,6.37,6.37,0,0,0,4.2-1.33,6.22,6.22,0,0,0,1.56-2h7.72a9.47,9.47,0,0,1-2.81,5.23Q890,312.59,883,312.59A15.77,15.77,0,0,1,872.83,309q-4.41-3.55-4.41-11.58c0-5,1.33-8.85,4-11.52a14,14,0,0,1,10.34-4A16.35,16.35,0,0,1,889.54,283.28Zm-11.31,6.53a7.8,7.8,0,0,0-2,4.47h13a6.31,6.31,0,0,0-2-4.56,6.64,6.64,0,0,0-4.49-1.56A6,6,0,0,0,878.23,289.81Z"/><path class="cls-2" d="M917,282l.65,0v7.74c-.47-.05-.9-.09-1.27-.11l-.9,0q-4.56,0-6.13,3a11.62,11.62,0,0,0-.87,5.15v13.82h-7.62V282.69h7.22v5a16,16,0,0,1,3.05-4,8.27,8.27,0,0,1,5.52-1.78Z"/><path class="cls-2" d="M922.67,272.51h8.17v32.07h19.52v7H922.67Z"/><path class="cls-2" d="M963,279.24h-7.66v-7H963Zm-7.66,3.45H963v28.92h-7.66Z"/><path class="cls-2" d="M1006.41,282.8a8.44,8.44,0,0,1,5,6.31,25.23,25.23,0,0,1,.27,4.27l-.05,18.23h-7.75V293.2a6.11,6.11,0,0,0-.53-2.71,3.77,3.77,0,0,0-3.71-2,4.36,4.36,0,0,0-4.33,2.6,8.13,8.13,0,0,0-.61,3.32v17.22H987.1V294.39a9.73,9.73,0,0,0-.53-3.74,3.71,3.71,0,0,0-3.74-2.1q-3.24,0-4.35,2.1a8,8,0,0,0-.61,3.55v17.41H970.2V282.74h7.35V287a12.35,12.35,0,0,1,2.65-3.21,10.54,10.54,0,0,1,11.06-.24,8.54,8.54,0,0,1,2.5,3.48,9.59,9.59,0,0,1,3.68-3.74,11.21,11.21,0,0,1,5.2-1.19A10,10,0,0,1,1006.41,282.8Z"/><path class="cls-2" d="M1026.41,279.24h-7.67v-7h7.67Zm-7.67,3.45h7.67v28.92h-7.67Z"/><path class="cls-2" d="M1030.76,288.34V283h4v-8.07h7.48V283h4.7v5.38h-4.7v15.28a3.47,3.47,0,0,0,.45,2.22c.31.29,1.23.43,2.76.43h.73l.76,0v5.65l-3.58.13q-5.36.19-7.32-1.85a5.53,5.53,0,0,1-1.28-4v-17.8Z"/><path class="cls-2" d="M1070.66,283.28a11.7,11.7,0,0,1,5,4.28,14.08,14.08,0,0,1,2.3,6,35.82,35.82,0,0,1,.25,5.74h-21.06q.18,4.35,3,6.1a7.62,7.62,0,0,0,4.17,1.09,5.86,5.86,0,0,0,5.75-3.32h7.72a9.45,9.45,0,0,1-2.8,5.23q-3.88,4.22-10.88,4.22A15.8,15.8,0,0,1,1054,309q-4.41-3.55-4.41-11.58c0-5,1.33-8.85,4-11.52a13.93,13.93,0,0,1,10.33-4A16.32,16.32,0,0,1,1070.66,283.28Zm-11.31,6.53a7.87,7.87,0,0,0-2,4.47h13a6.28,6.28,0,0,0-2-4.56,6.61,6.61,0,0,0-4.48-1.56A6,6,0,0,0,1059.35,289.81Z"/><path class="cls-2" d="M1097.37,283.16a9.22,9.22,0,0,1,3.32,3.19V272.56h7.66v39.05H1101v-4a10.63,10.63,0,0,1-3.68,3.74,10.35,10.35,0,0,1-5.15,1.17,10.76,10.76,0,0,1-8.53-4.1,15.73,15.73,0,0,1-3.46-10.52q0-7.39,3.41-11.64a11.09,11.09,0,0,1,9.11-4.25A9.32,9.32,0,0,1,1097.37,283.16Zm1.86,20.59a10.57,10.57,0,0,0,1.67-6.18c0-3.53-.9-6.06-2.68-7.58a5.77,5.77,0,0,0-3.82-1.38,5.32,5.32,0,0,0-4.87,2.5,11.66,11.66,0,0,0-1.55,6.22,11.54,11.54,0,0,0,1.58,6.41,5.34,5.34,0,0,0,4.79,2.4A5.57,5.57,0,0,0,1099.23,303.75Z"/><path class="cls-2" d="M483.63,491.3c.11-1.67.11-3.44.11-5.43H436.19c-4.06,0-10,.32-13.45.63V471.59c3.65.31,8.34.63,13,.63h48.06V429.05H437c-4.38,0-10,.21-12.93.42V415c3.86.42,9.28.63,12.93.63h52.44c3,0,7.41-.11,9.18-.21-.11,2.4-.32,6.57-.32,9.59v54c0,3.65.21,9.18.42,12.31Z"/><path class="cls-2" d="M559.85,465.54C577.58,455,591.24,439.06,597.8,425l8.14,14.7c-7.93,14.08-21.79,28.47-38.58,38.58A112.86,112.86,0,0,1,528.68,493l-8.76-13.76A107.34,107.34,0,0,0,559.85,465.54Zm0-33.78-10.63,10.95a216.8,216.8,0,0,0-26.07-22.52l9.8-10.43C540.25,414.66,553.8,425.5,559.85,431.76Z"/><path class="cls-2" d="M636.8,439.58c12.3-3,26.8-7.61,36.08-11.57a62.06,62.06,0,0,0,10-4.8,12.69,12.69,0,0,1-3-8.24,12.46,12.46,0,1,1,12.41,12.52,11.89,11.89,0,0,1-6.67-2l4.27,10.12c-4.06,1.67-8.76,3.65-12.2,4.9a360.29,360.29,0,0,1-40.87,12.72v19.29c0,4.48,2.09,5.63,6.78,6.57a99,99,0,0,0,12.09.62c10.85,0,27.74-1.35,36.29-3.65V491.3c-9.8,1.46-25.65,2.19-37.12,2.19a114.37,114.37,0,0,1-17.52-1.26c-9.07-1.56-14.28-6.56-14.28-15.53V419.87A86.14,86.14,0,0,0,622.2,409h15.43a79.67,79.67,0,0,0-.83,10.84ZM698.32,415a6,6,0,1,0-6.05,6A6,6,0,0,0,698.32,415Z"/><path class="cls-2" d="M779,477.64c2.71,0,7.51-.11,10.22-.42v13.45c-2.09-.1-7.2-.31-9.91-.31H724.39c-3.76,0-6.36.1-10.33.31V477.12a101.21,101.21,0,0,0,10.33.52h33.78c1.46-8.87,3.75-23.67,4.06-29.51H734.08c-3.33,0-7.4.31-10.42.52V434.89c2.71.31,7.5.62,10.32.62h26.69c2.19,0,6.46-.41,7.82-1.14l10,4.9a27.85,27.85,0,0,0-1,4.38c-.84,6.15-3.55,24.08-5.11,34Z"/><path class="cls-2" d="M803.83,440.73c3.76.31,11.37.62,16.79.62h56c4.8,0,9.49-.41,12.2-.62V457.1c-2.5-.11-7.82-.52-12.2-.52h-56c-5.94,0-12.93.2-16.79.52Z"/><path class="cls-2" d="M987.66,422.48a49.12,49.12,0,0,0-3.45,7.4,120,120,0,0,1-14.38,28.57c3.85,2.4,7.4,4.8,10,6.68l-9.49,12.19a121.58,121.58,0,0,0-9.7-7.4,99.39,99.39,0,0,1-38.47,26l-12.1-10.53c18.46-5.63,30.24-14.49,38.89-23.35-7.09-4.59-14.18-8.87-19.5-11.89l8.87-9.9c5.52,2.81,12.61,6.77,19.6,10.94,5.11-7.4,9.28-15.95,10.84-22.21H938.86c-7.3,9.7-17,19.71-27.53,26.91l-11.26-8.66a95.35,95.35,0,0,0,33.26-34.62,45.83,45.83,0,0,0,4.7-10.94l15.11,4.69c-2.5,3.65-5.21,8.44-6.46,10.63l-.11.11H968a33.08,33.08,0,0,0,9.07-1.15Z"/><path class="cls-2" d="M1087.86,418.41a52.27,52.27,0,0,0-4.07,5.43c-4.9,8.13-14.81,21.27-25.13,28.56l-10.74-8.65c8.34-5.11,16.48-14.28,19.19-19.39h-54.33c-4.38,0-7.82.31-12.72.73v-14.5a82.16,82.16,0,0,0,12.72,1.05H1069c2.92,0,8.66-.32,10.53-.94Zm-42.55,14.08c0,25.86-.52,47.13-29,62.35l-12.1-9.9a41.17,41.17,0,0,0,10.95-5.74c13.24-9.17,15.75-20.23,15.75-37.33a58,58,0,0,0-.73-9.38Z"/><path class="cls-2" d="M1124.77,435.83c13.86,4.17,34,11.57,43.58,16.26l-5.84,14.49c-10.84-5.73-26.48-11.78-37.74-15.53v29.51c0,2.92.52,10.21,1,14.49h-16.37a112.19,112.19,0,0,0,1-14.49v-60a73.49,73.49,0,0,0-1-12.61h16.27a112.55,112.55,0,0,0-.94,12.61Zm27.73-4.59a85.23,85.23,0,0,0-9.17-16.06l8.75-3.75c2.92,4.38,7.09,11.05,9.49,15.74Zm14.29-5.84a97.53,97.53,0,0,0-9.7-15.64l8.65-4.07a135.38,135.38,0,0,1,9.8,15.44Z"/><path class="cls-2" d="M1209.85,417l15.22,3.13c-.94,3-2.08,8.13-2.5,10.43a261.19,261.19,0,0,1-8.86,31.38,143.34,143.34,0,0,1-15.44,29.82l-14.59-6.15a125.44,125.44,0,0,0,16.26-29A149.89,149.89,0,0,0,1209.85,417Zm26.48,3.13,13.87-4.48c4.28,8,11.47,24.08,15.33,34.2,3.75,9.38,9.28,26.06,12.2,36.39l-15.44,5a320.11,320.11,0,0,0-10.84-36.8C1247.49,443.44,1240.71,428,1236.33,420.08Zm33.16,0-8.34,3.65c-2.19-4.27-5.32-10.53-8.14-14.49l8.24-3.44C1263.86,409.66,1267.51,416.22,1269.49,420.08Zm12.51-4.79-8.34,3.65a110.78,110.78,0,0,0-8.34-14.39l8.23-3.44A161.3,161.3,0,0,1,1282,415.29Z"/><path class="cls-2" d="M1345.71,479.93c0,4.59.21,11.05.93,13.66h-16.47a116.08,116.08,0,0,0,.73-13.66v-34.2A203.38,203.38,0,0,1,1295,459.91l-7.5-12.72A160.33,160.33,0,0,0,1335,428.32c10.53-6.57,21.37-15.85,27.21-23.56l11.16,10.11a171.32,171.32,0,0,1-27.63,22.42Z"/><path class="cls-2" d="M1462.28,428.32a60.07,60.07,0,0,0,11.47-.83v13.86c-2.3-.21-6-.31-11.37-.31h-7.82v3.44c0,25.86-6.15,41.6-31.38,52.76L1412,486.71c20.12-7.09,29-16.06,29-41.71v-4h-24.72v14.18c0,4.69.32,8.86.42,10.95h-14.6a83,83,0,0,0,.63-10.95V441h-8.86c-5.22,0-9,.21-11.26.42V427.28a65.91,65.91,0,0,0,11.26,1h8.86V417.89a84,84,0,0,0-.63-9.38h14.81a82.61,82.61,0,0,0-.63,9.49v10.32H1441V417.27a66.41,66.41,0,0,0-.63-9.6h14.91a64.59,64.59,0,0,0-.73,9.6v11.05Zm-.42-3.86a138.18,138.18,0,0,0-5.32-14.28l7-2.3a104.74,104.74,0,0,1,5.52,14.29Zm11-3.44a93.66,93.66,0,0,0-5.63-14.18l7.09-2.29c2,4.17,4.38,10.21,5.73,14.18Z"/><path class="cls-2" d="M1489.28,440.73c3.76.31,11.37.62,16.79.62h56c4.8,0,9.49-.41,12.2-.62V457.1c-2.5-.11-7.82-.52-12.2-.52h-56c-5.94,0-12.93.2-16.79.52Z"/><path class="cls-2" d="M32.53,458.29c-1.15-2.92-3.13-7.4-5.21-11.78v48H15.22V454c-2.81,8.66-6.15,16.37-9.8,21.8A75.8,75.8,0,0,0-.42,463.29c6.26-8,11.89-22.73,14.91-35.24H1.67V416.58H15.22V397.19h12.1v19.39H39.2v11.47H27.32v3c3,3.85,10.63,15.84,12.3,18.87Zm48.27-6.47c4.59,10.64,11.89,21.27,19.29,27.53a52.49,52.49,0,0,0-9,9.7c-6-6.26-11.68-16-16.06-26.38v31.8H62.87V463.61c-5.73,10.74-13,20.12-21.37,26.17a59.47,59.47,0,0,0-8.35-9.49c9.81-5.94,18.67-16.89,24.09-28.47H40V440.67H62.87V426.38h-9.7A61.3,61.3,0,0,1,47,439a63.53,63.53,0,0,0-9.69-6.15c5.21-7.3,8.23-18.87,9.8-30.55l11.36,2c-.62,3.75-1.25,7.4-2.08,11h6.46V397.29h12.2v17.94h19.5v11.15H75.07v14.29h22.1v11.15Z"/><path class="cls-2" d="M172,427c2.19,30.44,8.55,54.53,16.16,54.53,2.19,0,3.44-5.53,4-18.77a33.19,33.19,0,0,0,10.84,7.3c-1.87,19.71-6,24.5-15.95,24.5-17.83,0-25.65-30.86-28.15-67.56H107.08v-12.1h51.19c-.21-5.63-.31-11.47-.31-17.2h13.35c-.11,5.73-.11,11.57.1,17.2h16.48c-2.82-3.54-8-7.82-12.2-10.94l8.23-6.78c4.7,3.23,10.85,8.13,13.66,11.57l-7.09,6.15h9.8V427Zm-32.95,46.81c6.36-1.14,13-2.39,19.39-3.64l.94,11.05c-17.1,3.75-35.45,7.61-48.9,10.42l-3.44-12.51c5.32-.83,12.2-1.88,19.71-3.13V450.89H111v-12h44.73v12H139.09Z"/><path class="cls-2" d="M233.55,432.22a120.18,120.18,0,0,1-17.62,10.43,48.42,48.42,0,0,0-7.3-10.43c17.83-7.82,34.31-22.62,42.13-34.93h12.93a95.38,95.38,0,0,0,44.1,33.06c-3.13,3.23-5.84,7.71-8,11.36a126,126,0,0,1-17.51-10.11v8.23h-48.7ZM215.1,448.49h86.22V460H254.61c-3,6.15-6.46,12.61-9.59,18.45,10-.31,20.75-.73,31.39-1.15a126.38,126.38,0,0,0-10.22-10.63l10.95-5.73c9.28,8.13,19,19,23.87,26.79l-11.57,7a55.32,55.32,0,0,0-4.17-6.47c-24.5,1.36-50.26,2.4-68,3.23l-1.67-12.09,15.74-.52A199.38,199.38,0,0,0,239.29,460H215.1Zm62.66-20c-8-6.05-15.22-12.83-20-19.29a94.48,94.48,0,0,1-19.08,19.29Z"/><path class="cls-2" d="M352,466.21c-2.19-2.92-5.74-7.09-9.28-10.95v39.31h-12.3v-36a87,87,0,0,1-12.93,10,50.19,50.19,0,0,0-5.84-11.78c11.36-6.15,22.31-17.1,29.19-29.2H315.61V416.48h14.81V397.29h12.3v19.19h4.69l2.19-.52,7,4.48a101.14,101.14,0,0,1-12.31,22.31c5,4.07,13,11.26,15.23,13.35Zm59.74,13.24v12.1h-59v-12.1h24.08V441.29H357v-12h19.81V398.13h12.72V429.3h19.71v12H389.53v38.16Z"/></svg>