<svg id="レイヤー_1" data-name="レイヤー 1" xmlns="http://www.w3.org/2000/svg" viewBox="0 0 6668.6 494.9"><defs><style>.cls-1{fill:#444;}.cls-2{fill:#1e35a8;}</style></defs><title>logo</title><path class="cls-1" d="M26.42,55.32A94.64,94.64,0,0,0,13.29,56V43.84a114,114,0,0,0,13.13.51H41.85c-1.91-4.08-3.32-7-4.72-9.43H23.36c-6.25,0-11.09.25-15.17.64V22.81a108.1,108.1,0,0,0,14.53.76H26.8c-2.42-4.46-3.95-6.5-8.67-11.86L30.88,6.87a89.9,89.9,0,0,1,9.82,16.7H48v-9a71.27,71.27,0,0,0-.64-9.95h13.9A84.85,84.85,0,0,0,60.85,14v9.56H69.9V14a92.57,92.57,0,0,0-.38-9.44H83.41a67.38,67.38,0,0,0-.64,10v9.05h8A68.29,68.29,0,0,0,100,6.49l13.13,4.84c-3.06,5.1-5.1,8.29-7.9,12.24h3.56a103.52,103.52,0,0,0,14.41-.76V35.56c-4-.39-8.92-.64-15.17-.64H95.27c-2.42,5.1-2.93,6.25-4.72,9.43h14.79a115.6,115.6,0,0,0,13.14-.51V56a93.74,93.74,0,0,0-13.14-.64H72.06v6.12H98.71a92.53,92.53,0,0,0,13.14-.64V72.28a92.15,92.15,0,0,0-13.14-.64H72.06V78h35.58a112.84,112.84,0,0,0,15.43-.76V90a137.75,137.75,0,0,0-15.3-.77H82.14a66,66,0,0,0,17.34,10.2c8.16,3.45,14.79,5.23,26.52,7.27a50.6,50.6,0,0,0-7.27,13c-21.42-5.87-35.83-13.65-47.3-25.25a87.85,87.85,0,0,1,.38,9.05v6.25a72.33,72.33,0,0,0,.89,12.88h-15a95.35,95.35,0,0,0,.76-13v-6.12a84.26,84.26,0,0,1,.39-8.67,71.11,71.11,0,0,1-18.36,14,123.94,123.94,0,0,1-26,10.71,52.36,52.36,0,0,0-7.78-12.24c18.61-4,31.49-9.57,41.69-18.11H24.63A139.89,139.89,0,0,0,9.21,90V77.25a118.46,118.46,0,0,0,15.3.76H58.3V71.64H33.05a90,90,0,0,0-13,.64V60.8a90.38,90.38,0,0,0,13,.64H58.3V55.32Zm50-11a75.74,75.74,0,0,0,4.21-9.43H51.54a80.73,80.73,0,0,1,3.82,9.43Z"/><path class="cls-1" d="M193.82,85.41a66.24,66.24,0,0,0-10.07.51V73.68c-1.28,3.19-1.78,4.08-3.44,7.52a32.42,32.42,0,0,0-9.31-7A68,68,0,0,0,178.27,58h-8l.26,51.63c0,4-.76,6.63-2.68,8.54-1.78,1.66-5.74,2.55-11.85,2.55-2.81,0-6.76-.12-10.59-.38a36,36,0,0,0-2.67-12.49A73.17,73.17,0,0,0,154,109.12c3.45,0,4.21-.51,4.08-3.06L158,75.59c-4.84,11.22-10.71,19.64-18.74,27a53.71,53.71,0,0,0-6.37-13.9c10.32-8.8,16.06-17,21.55-30.72h-8.8a60.74,60.74,0,0,0-10.71.63V45.12a69.61,69.61,0,0,0,11.47.64h12.75a138,138,0,0,0-16.95-14.41l7.9-7.65c7.14,5.35,7.78,5.74,11,8.54A48.41,48.41,0,0,0,171.38,21H149.2a92.48,92.48,0,0,0-11,.51V8.4a100.09,100.09,0,0,0,12,.51H172a95.21,95.21,0,0,0,10.84-.38l6.88,7.39c-.51.64-1.53,1.91-2.8,3.7-5.48,7.52-12.88,15.94-17.85,20,1.14,1.27,1.66,1.65,2.8,3l-2.8,3.07h7.65a81.81,81.81,0,0,0,9.31-.39l5.48,6.76A22.64,22.64,0,0,0,190,56.08a81.11,81.11,0,0,0,20.91-7.9,58.11,58.11,0,0,1-10.46-13.13,106.7,106.7,0,0,1-9.82,11.22A41.69,41.69,0,0,0,181,37.6c9.56-8.29,14.66-14.92,19-24.61a35.62,35.62,0,0,0,3.19-9.69l13.26,2.55a37,37,0,0,0-1.91,4.46c-.64,1.66-1.15,2.81-2.17,5H238.7a118.54,118.54,0,0,0,13.52-.63v13a64.37,64.37,0,0,0-9.18-.51c-3.95,9.43-6.63,13.64-12.62,20,7.52,3.57,13.51,5.23,24.48,7.14-3.07,5-4,7.14-5.87,13.26-13.9-4-21.29-7-28.69-11.86a69.4,69.4,0,0,1-11.86,6.5l13,.13a7.68,7.68,0,0,0-.13,1.66c-.12.64-.25,1.4-.38,2.29,0,.64-.13.89-.26,2-.12,1.79-.38,2.68-.63,5h18.1a58.85,58.85,0,0,0,10.08-.5,44.85,44.85,0,0,0-.52,5.61c-1,15.17-2.67,26.77-4.46,32-2.55,7.77-5.86,9.81-15.81,9.81a123.21,123.21,0,0,1-13.51-.89A43,43,0,0,0,211,106.06a80.59,80.59,0,0,0,14.67,1.79c4.08,0,5.35-1.53,6.76-8a92,92,0,0,0,1.65-14.4h-16.7c-5.48,17.47-15.55,27.92-35.7,36.72a51.59,51.59,0,0,0-7.9-11.35c16.32-6.12,24.73-13.26,29.83-25.37Zm13-12.12a88.59,88.59,0,0,0,.64-9.56,2.44,2.44,0,0,0-.13-1c-4.85,2-7.52,2.93-14.54,5.23a45.55,45.55,0,0,0-4.2-7.65c-1.66,5.35-2.68,8-4.47,12.62a89.28,89.28,0,0,0,10.46.38Zm2.55-46.15c2.42,5,6,9.31,11,13.77,4.59-4.72,6.63-7.65,9.06-13.77Z"/><path class="cls-1" d="M319.28,39.64c-.38,2.42-.38,2.55-.51,10.32-.51,21.8-3.95,34-12.62,45.14-7.65,9.82-17,16.32-32.9,23-3.31-6.89-5-9.18-10.07-14.54,10.33-3.06,16.06-5.86,22.31-10.83,13-10.33,17.09-21.3,17.09-45.39a32.2,32.2,0,0,0-.64-7.65Zm51.77-16.07c-1.79,2.17-1.79,2.3-5.11,8.92a80.78,80.78,0,0,1-19.63,25.63A79.75,79.75,0,0,1,331,68.71c-3.82-5.36-5.74-7.27-11.47-11.61,8.54-3.82,13.38-6.75,18.61-11.73a52.72,52.72,0,0,0,12.11-16.19H283.32c-8.92,0-12.11.13-17.34.77V14c4.85.76,8.8,1,17.6,1h66.55c7.65,0,8.8-.13,12.37-1.15Z"/><path class="cls-1" d="M457,18.73c3.82,0,5.35-.13,7.52-.26a14.73,14.73,0,1,1,14.66,14.66,17,17,0,0,1-2.42-.25c-10.33,41.69-32.89,67.7-73.18,84.53-3.32-6.63-5.49-9.56-11.22-15.17,35.31-11,58.39-34.68,66.55-68.6H398.2c-9.43,0-11.86.13-16.06.77V17.83c4.59.77,7.65.9,16.32.9Zm13.9-.39a8.35,8.35,0,1,0,8.28-8.29A8.27,8.27,0,0,0,470.88,18.34Z"/><path class="cls-1" d="M527.61,11c-.51,3.57-.51,4.72-.51,11.47V57.61c0,6.38,0,8,.51,11.22H510.14a90.34,90.34,0,0,0,.64-11.47V22.29a80.78,80.78,0,0,0-.51-11.47Zm57.89.13c-.51,3.18-.64,4.59-.64,11.85V40.15c-.13,19.89-1,30.6-3.32,38.63-3.69,12.75-11.85,22.31-25.11,29.7-6.76,3.83-13.14,6.38-24.87,9.82-2.29-6.25-3.57-8.41-8.92-15.17,12.49-2.42,19.89-5.1,27.54-10.2,12-7.9,16.19-15.68,17.59-32.51.51-5.49.64-11.09.64-21.29V23.19c0-6.5-.13-9.18-.64-12.11Z"/><path class="cls-1" d="M685.33,44.23c-.13,1.27-.13,1.27-.26,3.31-1.66,21.67-6.37,35.19-16.45,47.18-8.16,9.56-17.34,16.06-33.15,23.33-3.18-6.5-5.1-9-10.58-14,11-3.82,18.36-8,25.88-14.66C662.38,79,667.73,65.9,669,44.23h-30.6c-7.4,11.85-12,17.46-21.17,25.88-4.84-5.23-6.88-6.76-13-10.07C616,50.47,624.38,39.51,631.14,25c3.82-7.9,5.35-12.62,6.37-18.23l16.58,3.95c-1,2-1,2-4.85,11-1,2.29-2.29,5.1-3.82,8.29,3.7-.13,3.7-.13,55.72-.13,9.18,0,10.71-.13,16.06-.77V44.73a45.9,45.9,0,0,0-7.78-.38c-1.65,0-4.46,0-8.41-.12Z"/><path class="cls-1" d="M730.71,53.66c5.61.77,8,.89,20.66.89h68c12.63,0,15-.12,20.66-.89V71.38c-5.1-.63-6.5-.63-20.78-.63H751.49c-14.27,0-15.68,0-20.78.63Z"/><path class="cls-1" d="M866.37,41a180.67,180.67,0,0,1,33.92,17.34l-7.91,14.41A148.94,148.94,0,0,0,857.83,54Zm-5.74,57.12c9.69-.13,23.59-3.19,36.85-8.29,15.81-6.12,26.65-14.41,36.85-28.05,6.88-9.18,10.83-16.83,14.79-28.18A65.76,65.76,0,0,0,962.38,45c-5.87,14.15-11.22,22.95-19.13,32.26-16.19,18.61-37.86,30-69.23,36.21a81.28,81.28,0,0,0-8.93,2Zm15.56-88A204.7,204.7,0,0,1,910.1,26.63l-8.16,14c-11.6-7.77-23-13.76-34-17.59Z"/><path class="cls-1" d="M994.76,113.46a80.78,80.78,0,0,0-11.47.51V99.81a57.84,57.84,0,0,0,11.47.9h49V81.45H999.35a80.69,80.69,0,0,0-11.47.51V68.07a57.07,57.07,0,0,0,11.47.89h44.37V51.24H996a83.35,83.35,0,0,0-11.48.51V37.6a58.81,58.81,0,0,0,11.48.89h50.23a112.14,112.14,0,0,0,11.86-.51c-.26,4.59-.38,7.78-.38,13.39v58.39a64.36,64.36,0,0,0,.5,9.69h-14.66v-6Z"/><path class="cls-1" d="M1087.19,96.12c11-.64,26.14-4.34,37.74-9.44,15.94-6.88,27.8-16.7,37.87-31.23a106.8,106.8,0,0,0,13-25.5,55,55,0,0,0,13.51,12.49c-10.84,23.33-23,38.38-40.41,50-13,8.67-28.82,14.92-48.58,19.13a44.71,44.71,0,0,0-8.42,2.16ZM1098,16.94c15.17,9.43,23.08,15.3,32.9,24.61l-11,13.9a133.78,133.78,0,0,0-32.51-25.89Z"/><path class="cls-1" d="M1218.13,105.81a111.89,111.89,0,0,0,.77,15.55H1204a112.4,112.4,0,0,0,.77-15.81V21.4a138.65,138.65,0,0,0-.52-14.28,114.28,114.28,0,0,0,13.14.51h23.2a106.23,106.23,0,0,0,13-.51c-.26,3.7-.39,7.4-.39,11.86V38.61c0,5.74.13,8.16.39,11.48-3.32-.25-7.27-.38-11.73-.38h-23.72Zm0-81.86h22.57V17.2h-22.57Zm0,15.94h22.57V33h-22.57Zm21.29,37.87c.26-4.47.26-5.87.26-11.73a111.74,111.74,0,0,0-12.75.51V55.06a85.42,85.42,0,0,0,12.88.64h37a90.05,90.05,0,0,0,13.26-.64V66.54a116,116,0,0,0-13.26-.51V77.76h1.91a115,115,0,0,0,13.14-.51V89a91.42,91.42,0,0,0-13.14-.64h-1.91v18.87c0,5.87.13,8,.64,10.84H1264a59.53,59.53,0,0,0,.64-11V88.34h-14.28c-1.4,13.51-5.61,21.93-15.43,31.49a56.84,56.84,0,0,0-10.2-8.79c8.55-6.64,12.11-12.37,13.65-22.7a88.8,88.8,0,0,0-13.52.64V77.25a116.09,116.09,0,0,0,13.26.51ZM1251.54,66c0,5.73,0,5.73-.26,11.73h13.39V66ZM1312,105.68c0,11.35-3.82,14.28-18.1,14.28-2.3,0-4.08,0-8.29-.25a45.6,45.6,0,0,0-3.44-13.52,90.67,90.67,0,0,0,11.73,1c4.08,0,4.84-.51,4.84-3.32V49.71h-25c-4.46,0-8.54.13-11.6.38.25-3.7.25-5.74.25-11.48V19c0-4.85-.12-8.16-.38-11.86a109,109,0,0,0,13,.51h24.35a112.55,112.55,0,0,0,13.13-.51c-.38,4.72-.51,7.78-.51,14.16ZM1275,24h23.71V17.2H1275Zm0,15.94h23.71V33H1275Z"/><path class="cls-1" d="M1363.86,58.51c-3.95.12-5.35.25-8.54.5v-5.6a125.61,125.61,0,0,1-22.44,12.36A48.38,48.38,0,0,0,1325.36,54a108.9,108.9,0,0,0,24.35-12.36c-7.14-8.29-11.47-12.24-17.85-16.71l10.46-7.77,4.08,3.31V7.25a73,73,0,0,0,10.58.64h23.59a73.69,73.69,0,0,0,11-.51c1.28,5.1,3.06,8,7.91,13.9,4.08-4.08,5-4.85,7.52-8.16a22.65,22.65,0,0,0,2.67-3.7c.64-1,.64-1,1-1.66l11.74,6.5c-.39.51-2.05,2.43-5,5.87a129,129,0,0,1-9.43,9.56c3.44,2.93,4.84,4.08,7.52,6.12a75,75,0,0,0,13.26-15.43L1440.49,27c-.76.77-1,1.15-3.57,4a98.39,98.39,0,0,1-11.48,11.72,114.22,114.22,0,0,0,20.4,9.7c-2.93,3.82-3.69,5.22-7.13,12.62-10.46-4.85-14.16-6.89-21-11.48V59a103.77,103.77,0,0,0-12.24-.5V72.28h20.27a75.87,75.87,0,0,0,13.39-.77V85.15a97.46,97.46,0,0,0-13.39-.76h-20.27v19c0,2.67.13,2.93,2,3.44,1.65.51,3.82.64,8.16.64,7,0,10.07-.64,11.47-2.43,1.15-1.53,1.92-5.73,2.3-12.75a43.44,43.44,0,0,0,13.77,4.47c-2.81,21.54-5.1,23.45-29.58,23.45-17.34,0-21.42-2.16-21.42-11.09V84.39h-16.45c-1.66,7.65-4.08,13.26-7.9,18.36-6.38,8.41-14,13.51-29.71,19.63a46.57,46.57,0,0,0-9-12.49c11.85-3.32,18-6.25,23.58-11.35a28.89,28.89,0,0,0,9-14.15h-16.31a82.3,82.3,0,0,0-13.39.76V71.51a76.68,76.68,0,0,0,13.39.77h18.23c.13-1.66.13-2.56.13-4ZM1354.17,20a57,57,0,0,0-7.77.51,110.11,110.11,0,0,1,13.89,13.13A82.19,82.19,0,0,0,1372.79,20Zm50.88,26.52h2.67a106.63,106.63,0,0,1-21.67-23.08,106.31,106.31,0,0,1-21.55,23.08h40.55Zm-27.8,22.82v2.94h14.92V58.51h-14.79Z"/><path class="cls-1" d="M1461.91,86c10.45,8.42,16.95,15.31,25.62,27l-7.14,6.75A127.09,127.09,0,0,0,1455.28,92Z"/><path class="cls-1" d="M1563.9,19.11a14.08,14.08,0,0,0-.63,2.55l-.26,2.17-.64,3.69-.38,3.06c-5.36,36.59-15.3,61.71-32.38,81.35-6-5.74-8.42-7.65-14.54-11,7.65-7.65,12.88-15.43,18.23-27.16s10-27.66,12-43.73a94.39,94.39,0,0,0,1.15-12.36V15.92Zm36.21-3.19c.13,5.87,2.43,18.36,5.36,29.33,6.25,23.58,15.17,40.79,28.43,55.07-6.5,4.08-9.18,6.25-14,11.73-17-20.27-28.82-49.59-33.79-83.89-.77-5.23-1.15-7.27-1.79-9.18Zm36.21,7.52a14.73,14.73,0,1,1-14.79-14.66A14.8,14.8,0,0,1,1636.32,23.44Zm-23.07,0a8.35,8.35,0,1,0,8.28-8.28A8.26,8.26,0,0,0,1613.25,23.44Z"/><path class="cls-1" d="M1661.31,38.11c5.36,9.81,7.91,15.93,12.5,30.21l-14.41,4.59c-3.32-12.87-5.87-19.63-11.6-30.85Zm73.19.89a26.75,26.75,0,0,0-1.79,6.5c-3.7,17.34-9.43,31.37-17.59,42.46-9.44,12.88-20,21.16-38.89,30.72-3.31-5.6-4.84-7.52-10.2-12.62a82.93,82.93,0,0,0,21.68-11.73c14.91-10.84,23.45-23.84,28.94-44.24a56.85,56.85,0,0,0,2.29-14.66Zm-46-6.12c6.76,12.62,9.18,18.23,12.37,29.32l-14.15,4.47a140.33,140.33,0,0,0-11.61-30Z"/><path class="cls-1" d="M1828.46,44.23c-.13,1.27-.13,1.27-.25,3.31-1.66,21.67-6.38,35.19-16.45,47.18-8.16,9.56-17.34,16.06-33.15,23.33-3.19-6.5-5.1-9-10.58-14,11-3.82,18.36-8,25.88-14.66,11.6-10.33,17-23.46,18.23-45.13h-30.6c-7.39,11.85-12,17.46-21.16,25.88-4.85-5.23-6.89-6.76-13-10.07,11.73-9.57,20.15-20.53,26.9-35.07,3.83-7.9,5.36-12.62,6.38-18.23l16.57,3.95c-1,2-1,2-4.84,11-1,2.29-2.29,5.1-3.82,8.29,3.69-.13,3.69-.13,55.71-.13,9.18,0,10.71-.13,16.07-.77V44.73a46,46,0,0,0-7.78-.38c-1.66,0-4.46,0-8.41-.12Z"/><path class="cls-1" d="M1873.85,53.66c5.61.77,8,.89,20.65.89h68c12.62,0,15-.12,20.66-.89V71.38c-5.11-.63-6.51-.63-20.79-.63h-67.7c-14.28,0-15.68,0-20.78.63Z"/><path class="cls-1" d="M2008.36,42.06a200.26,200.26,0,0,1,33.91,17.34l-7.9,14.4c-8.42-6.5-22.82-14.27-34.55-18.61Zm-5.74,57.12c10-.13,23.33-3.06,36.85-8.29,23.33-8.16,42.46-29.07,51.63-56.23A62.09,62.09,0,0,0,2104.36,46c-15.8,38.63-42.71,59.54-88.35,68.47a77.57,77.57,0,0,0-8.93,2.16Zm15.56-88a209.9,209.9,0,0,1,33.91,16.45l-8.16,14c-10.33-7-24.73-14.54-34-17.47Zm66.3-2.55a82.56,82.56,0,0,1,13.38,18.75l-8.92,4.71a86,86,0,0,0-13.39-19Zm19.76,15.43a94.59,94.59,0,0,0-13-18.49l8.55-4.46a74.19,74.19,0,0,1,13.26,18Z"/><path class="cls-1" d="M2136.75,16.17C2144.52,30,2148.35,39,2154,56.85l-16.58,5.86c-3.57-14.53-9.68-30.09-16.19-41.18ZM2217.07,20c-1.15,2.68-1.53,3.83-3.44,12.49-5,23-15.05,43.87-28.31,58.78-10.07,11.48-21,19.77-36.72,27.8-4.2-6.76-6.11-8.93-11.72-13.77,14.91-6.38,25.62-13.77,35.44-24.35,9.18-10,15.55-20.91,20.78-36.22,3.7-11.09,6-21,6.38-28.81Z"/><path class="cls-1" d="M2259,11c-.51,3.57-.51,4.72-.51,11.47V57.61c0,6.38,0,8,.51,11.22h-17.47a92.25,92.25,0,0,0,.64-11.47V22.29a80.78,80.78,0,0,0-.51-11.47Zm57.88.13c-.51,3.18-.64,4.59-.64,11.85V40.15c-.12,19.89-1,30.6-3.31,38.63-3.7,12.75-11.86,22.31-25.12,29.7-6.76,3.83-13.13,6.38-24.86,9.82-2.3-6.25-3.57-8.41-8.93-15.17,12.5-2.42,19.89-5.1,27.54-10.2,12-7.9,16.2-15.68,17.6-32.51.51-5.49.64-11.09.64-21.29V23.19c0-6.5-.13-9.18-.64-12.11Z"/><path class="cls-1" d="M2417.5,100.2c5.86,0,8.28-.13,11.73-.77V114a98.08,98.08,0,0,0-11.73-.51h-66.17a95.12,95.12,0,0,0-11.73.51V99.43a57.31,57.31,0,0,0,11.73.77h37.61c2.17-11.35,4.84-29.33,6.12-40.93h-31.62a82.29,82.29,0,0,0-11.35.51V45.37a72.85,72.85,0,0,0,11.73.77h32.26a28.48,28.48,0,0,0,9.43-1.15l7,6.12c-1.53,4-1.53,4-2.93,14.53-1.91,14-3.31,23.08-5.48,34.56Z"/><path class="cls-1" d="M2448.48,53.66c5.61.77,8,.89,20.65.89h68c12.62,0,15-.12,20.65-.89V71.38c-5.1-.63-6.5-.63-20.78-.63h-67.7c-14.28,0-15.68,0-20.78.63Z"/><path class="cls-1" d="M2584.14,41a180.58,180.58,0,0,1,33.91,17.34l-7.9,14.41A149,149,0,0,0,2575.59,54Zm-5.74,57.12c9.69-.13,23.59-3.19,36.84-8.29,15.81-6.12,26.65-14.41,36.85-28.05,6.89-9.18,10.84-16.83,14.79-28.18A65.76,65.76,0,0,0,2680.14,45c-5.86,14.15-11.22,22.95-19.12,32.26-16.2,18.61-37.87,30-69.24,36.21a81,81,0,0,0-8.92,2Zm15.55-88a204.81,204.81,0,0,1,33.92,16.45l-8.16,14c-11.61-7.77-22.95-13.76-34-17.59Z"/><path class="cls-1" d="M2712.52,113.46a80.87,80.87,0,0,0-11.47.51V99.81a57.84,57.84,0,0,0,11.47.9h49V81.45h-44.36a80.94,80.94,0,0,0-11.48.51V68.07a57.18,57.18,0,0,0,11.48.89h44.36V51.24H2713.8a83.09,83.09,0,0,0-11.47.51V37.6a58.63,58.63,0,0,0,11.47.89H2764a112,112,0,0,0,11.86-.51c-.25,4.59-.38,7.78-.38,13.39v58.39a64.11,64.11,0,0,0,.51,9.69h-14.66v-6Z"/><path class="cls-1" d="M2805,96.12c11-.64,26.14-4.34,37.74-9.44,15.94-6.88,27.79-16.7,37.87-31.23a106.41,106.41,0,0,0,13-25.5,55,55,0,0,0,13.52,12.49c-10.84,23.33-23,38.38-40.42,50-13,8.67-28.82,14.92-48.58,19.13a44.34,44.34,0,0,0-8.41,2.16Zm10.84-79.18c15.17,9.43,23.08,15.3,32.89,24.61l-11,13.9a133.82,133.82,0,0,0-32.52-25.89Z"/><path class="cls-1" d="M2935.9,105.81a111.89,111.89,0,0,0,.77,15.55h-14.92a112.81,112.81,0,0,0,.76-15.81V21.4A139.15,139.15,0,0,0,2922,7.12a114.17,114.17,0,0,0,13.14.51h23.2a106.34,106.34,0,0,0,13-.51c-.26,3.7-.39,7.4-.39,11.86V38.61c0,5.74.13,8.16.39,11.48-3.32-.25-7.27-.38-11.73-.38H2935.9Zm0-81.86h22.57V17.2H2935.9Zm0,15.94h22.57V33H2935.9Zm21.29,37.87c.26-4.47.26-5.87.26-11.73a111.63,111.63,0,0,0-12.75.51V55.06a85.27,85.27,0,0,0,12.87.64h37a90.05,90.05,0,0,0,13.26-.64V66.54a116.09,116.09,0,0,0-13.26-.51V77.76h1.91a115.16,115.16,0,0,0,13.14-.51V89a91.5,91.5,0,0,0-13.14-.64h-1.91v18.87c0,5.87.13,8,.64,10.84H2981.8a59.53,59.53,0,0,0,.64-11V88.34h-14.28c-1.41,13.51-5.61,21.93-15.43,31.49a57.19,57.19,0,0,0-10.2-8.79c8.54-6.64,12.11-12.37,13.64-22.7a88.57,88.57,0,0,0-13.51.64V77.25a116,116,0,0,0,13.26.51ZM2969.31,66c0,5.73,0,5.73-.26,11.73h13.39V66Zm60.43,39.65c0,11.35-3.82,14.28-18.11,14.28-2.29,0-4.08,0-8.28-.25a45.91,45.91,0,0,0-3.45-13.52,91,91,0,0,0,11.73,1c4.08,0,4.85-.51,4.85-3.32V49.71h-25c-4.46,0-8.54.13-11.6.38.25-3.7.25-5.74.25-11.48V19c0-4.85-.12-8.16-.38-11.86a108.77,108.77,0,0,0,13,.51h24.36a112.66,112.66,0,0,0,13.13-.51c-.38,4.72-.51,7.78-.51,14.16Zm-37-81.73h23.72V17.2h-23.72Zm0,15.94h23.72V33h-23.72Z"/><path class="cls-1" d="M3081.63,58.51c-4,.12-5.36.25-8.54.5v-5.6a126,126,0,0,1-22.44,12.36A48.12,48.12,0,0,0,3043.12,54a109.19,109.19,0,0,0,24.36-12.36c-7.14-8.29-11.48-12.24-17.85-16.71l10.45-7.77,4.08,3.31V7.25a73.11,73.11,0,0,0,10.58.64h23.59a73.93,73.93,0,0,0,11-.51c1.27,5.1,3.06,8,7.9,13.9,4.08-4.08,5-4.85,7.52-8.16a22.31,22.31,0,0,0,2.68-3.7c.64-1,.64-1,1-1.66l11.73,6.5c-.38.51-2,2.43-5,5.87a131.3,131.3,0,0,1-9.44,9.56c3.44,2.93,4.85,4.08,7.52,6.12a74.39,74.39,0,0,0,13.26-15.43L3158.26,27c-.77.77-1,1.15-3.58,4a98.27,98.27,0,0,1-11.47,11.72,113.89,113.89,0,0,0,20.4,9.7c-2.93,3.82-3.7,5.22-7.14,12.62-10.45-4.85-14.15-6.89-21-11.48V59a103.66,103.66,0,0,0-12.24-.5V72.28h20.28a75.75,75.75,0,0,0,13.38-.77V85.15a97.3,97.3,0,0,0-13.38-.76h-20.28v19c0,2.67.13,2.93,2,3.44,1.66.51,3.83.64,8.16.64,7,0,10.08-.64,11.48-2.43,1.15-1.53,1.91-5.73,2.29-12.75a43.44,43.44,0,0,0,13.77,4.47c-2.8,21.54-5.1,23.45-29.58,23.45-17.34,0-21.42-2.16-21.42-11.09V84.39h-16.45c-1.65,7.65-4.08,13.26-7.9,18.36-6.37,8.41-14,13.51-29.71,19.63a46.57,46.57,0,0,0-9-12.49c11.86-3.32,18-6.25,23.59-11.35a29,29,0,0,0,9.05-14.15h-16.32a82.38,82.38,0,0,0-13.39.76V71.51a76.75,76.75,0,0,0,13.39.77h18.23c.13-1.66.13-2.56.13-4ZM3071.94,20a57.17,57.17,0,0,0-7.78.51,110.28,110.28,0,0,1,13.9,13.13A82.11,82.11,0,0,0,3090.55,20Zm50.87,26.52h2.68a106.91,106.91,0,0,1-21.68-23.08,106.27,106.27,0,0,1-21.54,23.08h40.54ZM3095,69.34v2.94h14.92V58.51h-14.79Z"/><path class="cls-1" d="M3214.23,63a15.18,15.18,0,1,1-15.18-15.17A15.13,15.13,0,0,1,3214.23,63Z"/><path class="cls-1" d="M3258.72,96.88c-4.21,11.86-6.76,16.58-13.39,24.87A32,32,0,0,0,3234,113c6.63-7.27,9.57-12.24,13.27-21.8Zm-9-6.5a68.94,68.94,0,0,0-8.93.26c.26-4.47.39-8.29.39-12.76v-58a100.49,100.49,0,0,0-.52-11.47,96.63,96.63,0,0,0,11.35.51h18.24a76.66,76.66,0,0,0,10.71-.51c-.26,3.19-.39,5.1-.39,10.45v61a104.82,104.82,0,0,0,.39,10.84c-3.07-.26-4.72-.26-9.18-.26ZM3253.49,33h14.66V21h-14.66Zm0,22.18h14.66V44.1h-14.66Zm0,23.21h14.66v-12h-14.66Zm97.28-31.88c-1.4,3.32-1.78,4.46-3.95,12.24C3343,72.4,3339.05,81.58,3333.05,91A76.52,76.52,0,0,0,3356,108.1a50.77,50.77,0,0,0-7.78,13.39c-11.22-7.27-17.46-12.37-23.58-19.38-7,8.29-12.24,12.88-23.59,20.65-2.8-5.09-5.61-8.67-8.8-11.09a85.18,85.18,0,0,1-5.86,10.58,39.63,39.63,0,0,0-9.95-8.41,36.08,36.08,0,0,0-4.84,4.46,144.1,144.1,0,0,1-10.71-21.8L3272,91.4a122.21,122.21,0,0,0,7.4,14.79c6.75-12.88,9.56-31.87,9.69-65.28,0-4.72,0-9.94.12-15.55V23.57c0-5.36-.12-10.2-.51-14.53,4.47.38,8.93.63,14.41.63h36.08a108.35,108.35,0,0,0,14.15-.76V23.32a140.11,140.11,0,0,0-14-.64h-36.85V39.51h31.75c5.23,0,8-.13,10.33-.64Zm-48.57,5.36c-.89,29.83-3.44,45-9.69,59.16,10.2-6,17.21-11.73,24.09-19.89-6.88-10.71-10.32-20.4-14.28-39.27Zm11.85,0c2.94,12.11,5.87,20,10.59,27.66,5.1-8.92,7.52-15.55,10.45-27.66Z"/><path class="cls-1" d="M3414.65,72.28a29.43,29.43,0,0,0-.77,5.48c-1.15,12.11-5.48,22.18-12.37,29.2a58.68,58.68,0,0,1-15,10.45c-3.44,1.66-6.63,2.8-13.77,4.84a50.16,50.16,0,0,0-9.18-14.15c7.9-1.14,12-2.17,17.47-4.71,8.92-4.08,14-9.06,16.44-15.82a42.83,42.83,0,0,0,2.05-12,23.81,23.81,0,0,0-.39-4.08Zm-48.71,10.07a52,52,0,0,0,.64-9.18v-9a68.13,68.13,0,0,0-.51-9.44,131.48,131.48,0,0,0,13.64.51H3464c6.12,0,9.31-.13,13.77-.51a58.1,58.1,0,0,0-.51,9V73a50,50,0,0,0,.64,9.31H3463V67.56h-82.36V82.35Zm48.2-68.6a52.37,52.37,0,0,0-.64-9.81h15.55c-.63,2.55-.76,5.1-.76,9.81v1.53h34.42a109.28,109.28,0,0,0,15.3-.76V28a148,148,0,0,0-14.91-.63h-34.81v8.41h28.43a82.23,82.23,0,0,0,13-.64V48.31a110.24,110.24,0,0,0-13-.51H3387a113.39,113.39,0,0,0-12.88.51V35.17a81.44,81.44,0,0,0,12.88.64h27.16V27.4h-32.77a122.19,122.19,0,0,0-15,.63V14.52a110.36,110.36,0,0,0,15.43.76h32.39Zm26.52,89c0,3.31,1.15,3.82,9.81,3.82,8.93,0,11.74-.51,12.88-2.17s1.66-5.09,2.3-15.8a44,44,0,0,0,13.64,4.33c-1,12.88-2.93,19.76-6.37,22.95-2.94,2.8-8.93,3.7-23.59,3.7-19.38,0-22.82-1.66-22.82-11V82.48a70.6,70.6,0,0,0-.52-10.59h15.3a52.52,52.52,0,0,0-.63,10Z"/><path class="cls-1" d="M3498.41,86c10.46,8.42,17,15.31,25.63,27l-7.14,6.75A126.87,126.87,0,0,0,3491.78,92Z"/><path class="cls-1" d="M3578.1,11.46a94.68,94.68,0,0,0-1,16.45V96.5a95.78,95.78,0,0,0,1,16.45h-19.38a96.81,96.81,0,0,0,1-16.45V27.91a95.76,95.76,0,0,0-1-16.45Z"/><path class="cls-1" d="M3653.57,96.37a106.49,106.49,0,0,0,1,16.58h-19.25a106.33,106.33,0,0,0,1-16.58V26.76h-17.21a126.32,126.32,0,0,0-17.47.89V10.57a129.53,129.53,0,0,0,17.34.89h50.49a136.75,136.75,0,0,0,18.75-.89V27.65c-4.72-.64-9.57-.89-18.75-.89h-15.94Z"/><path class="cls-1" d="M3717.19,105.17a143.27,143.27,0,0,0-15.68.51V89.23c4.72.77,7,.89,15.94.89h58V34.53h-55.84c-9,0-11.73.13-16.32.64V18.6c4.72.76,7.14.89,16.45.89h61.32c6.63,0,6.63,0,11.1-.25a75.78,75.78,0,0,0-.39,10.58v70a84.12,84.12,0,0,0,.64,13.14h-17.08v-7.78Z"/><path class="cls-1" d="M3816.13,96.12c11-.64,26.14-4.34,37.74-9.44,15.94-6.88,27.8-16.7,37.87-31.23a106.41,106.41,0,0,0,13-25.5,55.21,55.21,0,0,0,13.52,12.49c-10.84,23.33-23,38.38-40.42,50-13,8.67-28.81,14.92-48.57,19.13a44.49,44.49,0,0,0-8.42,2.16ZM3827,16.94c15.17,9.43,23.08,15.3,32.89,24.61l-11,13.9a133.78,133.78,0,0,0-32.51-25.89Z"/><path class="cls-1" d="M4000,32.88l.13-5.74V23.06c0-8.41-.13-11.22-.64-14.15h16.45a47.29,47.29,0,0,0-.51,8.54c0,7.78,0,7.78-.13,15.43h8.16c9.06,0,11.61-.13,16.58-.89V47.54a129.71,129.71,0,0,0-16.32-.64h-8.55c-.25,15.3-.25,16.19-.89,21-1.78,16.32-7.27,27.16-18.36,36.59-6.88,5.87-13.13,9.18-24.86,13.39-2.42-5.48-4.08-7.91-9.56-13.52,12.11-3.69,18.23-6.75,24.35-12.11,8.67-7.52,12.37-15.93,13.51-30.6.26-2.93.26-6,.52-14.79h-33V66a79,79,0,0,0,.51,10.71h-16.57a84.5,84.5,0,0,0,.51-11V46.9h-7.78a129.52,129.52,0,0,0-16.32.64V32c5,.76,7.52.89,16.58.89h7.52V20.13a67.87,67.87,0,0,0-.64-11.35h16.7c-.51,4.21-.51,4.46-.51,11V32.88Z"/><path class="cls-1" d="M4081.84,12.61c-.51,3.56-.51,3.56-1.28,28.56s-3.69,39.27-10.32,52.4c-4.34,8.79-9.18,15.3-17.6,23.59-5-6.38-6.88-8.29-12.88-12.37,6.25-5.1,9.31-8.55,13.14-14.67C4062.08,75.46,4065,59,4065,23.32c0-7,0-8.16-.51-11.61Zm33.79-1.53a68.05,68.05,0,0,0-.89,12.11l-.64,72.54c8.92-4.2,14-8,19.5-14.53,5.87-6.88,9.57-13.9,12.5-23.33a53.4,53.4,0,0,0,12,12c-5.22,12.63-11.85,22.19-20.27,29.71-7.27,6.25-13.9,10.07-27.15,15.3a54.11,54.11,0,0,0-5.49,2.3l-8.16-8.68c.89-3.69,1-6.5,1.15-13.51l.64-71.91V19.24a55.53,55.53,0,0,0-.51-8.42Z"/><path class="cls-1" d="M4230.76,59.4c-.64,14.66-3.45,25.24-8.93,34.29-6.76,11.23-16.06,18.24-33.27,25.12-3.19-6.5-4.85-8.67-10.33-14,15.3-4.72,24.86-11.48,30.21-21.3,3.32-5.86,5.23-14.15,5.61-24.09h-31.11a126,126,0,0,0-16.19.64V44.86c4.85.77,7.65.9,16.45.9h74.59c8.67,0,11.6-.13,16.44-.9V60A126,126,0,0,0,4258,59.4Zm-51.13-46.67c4.72.77,7.27.9,16.45.9h49c9.18,0,11.72-.13,16.44-.9V28.29c-4.2-.51-7.26-.64-16.19-.64h-49.47c-8.92,0-12,.13-16.19.64Z"/><path class="cls-1" d="M4375.72,38.36a24.8,24.8,0,0,0-4.33,4.21,171,171,0,0,1-23.72,20.91v43.35a75.31,75.31,0,0,0,.64,12.24l-16.45-.13a76.4,76.4,0,0,0,.64-12.11V72.66c-11.48,6.75-20.65,10.83-36.08,16.19a52.39,52.39,0,0,0-7.91-13.26,136.18,136.18,0,0,0,30.22-11.47,145.47,145.47,0,0,0,36.21-25.89c4.21-4.2,5.74-6,7.78-9.18Z"/><path class="cls-1" d="M4396.76,96.12c11-.64,26.14-4.34,37.74-9.44,15.94-6.88,27.79-16.7,37.87-31.23a106.41,106.41,0,0,0,13-25.5,54.85,54.85,0,0,0,13.52,12.49c-10.84,23.33-23,38.38-40.42,50-13,8.67-28.82,14.92-48.58,19.13a44.34,44.34,0,0,0-8.41,2.16Zm10.84-79.18c15.17,9.43,23.07,15.3,32.89,24.61l-11,13.9A133.82,133.82,0,0,0,4397,29.56Z"/><path class="cls-1" d="M4608.66,32.24c-1.15,1.66-1.79,3.19-3.19,7.65-7.52,22.7-13.64,34-25.62,48.19-11.35,13-27,24.23-45.4,32.26A42.2,42.2,0,0,0,4523.62,107c33.4-12.76,54.95-35.58,65.15-68.73l-38.38.51c-7.14,11.73-19.25,25-29.83,32.77-3.83-5.23-5.74-6.88-12.37-11,13.77-9.18,24-20.66,33-37,3.83-6.88,6.12-12.88,6.5-17l17.47,3.57A15.52,15.52,0,0,0,4563,14c-1,2.29-2.16,4.84-3.44,7.39a19.11,19.11,0,0,0-.89,1.79l-1,1.91c1.53-.13,3.57-.25,6.12-.25l27.92-.39a64.38,64.38,0,0,0,6.63-.25A78.77,78.77,0,0,0,4589,8.27l9.44-3.19a81.29,81.29,0,0,1,11.35,20.15l-5.48,2Zm8.29-9.18A91.33,91.33,0,0,0,4606,3.3l9.18-3.19a74.41,74.41,0,0,1,11.22,19.38Z"/><path class="cls-1" d="M4652.65,24.59a75.2,75.2,0,0,1-13,14.28,50.19,50.19,0,0,0-9.56-9.18c7.52-5.61,11.35-9.56,15.17-15.81a36.59,36.59,0,0,0,4.59-10.33l13.77,2.55c-2.68,5.23-2.68,5.23-3.57,6.76h16.32a75,75,0,0,0,12.37-.77V22.55a47.85,47.85,0,0,0,11.34-18.74l12.76,3.44c-.26.51-1.15,2.42-2.81,5.74h23.33a96,96,0,0,0,14-.77V25.36a99.92,99.92,0,0,0-13.39-.64h-9.94a64.52,64.52,0,0,1,5,8.92l-12.63,4a75.08,75.08,0,0,0-6.24-12.88h-7a68.11,68.11,0,0,1-7.65,9.05,32.35,32.35,0,0,0-.51,6.5h28.81a97.05,97.05,0,0,0,13.9-.63V52.39a106,106,0,0,0-13.77-.77H4695v8.29h37.23a108.25,108.25,0,0,0,14.79-.77V72.4a120.24,120.24,0,0,0-14.67-.76h-11.22v8.28h10.07a123.64,123.64,0,0,0,14.79-.76V92.29a121.39,121.39,0,0,0-14.91-.76h-10v17.72c0,6.12-1.91,9.43-6.63,11.09-2.55.9-7.26,1.28-15,1.28-2.68,0-4.85-.13-9.56-.26a48.15,48.15,0,0,0-3.83-13.26,134.5,134.5,0,0,0,15.94.9c4.59,0,5.61-.52,5.61-3.07V91.53H4666c7,5.61,9.06,7.52,17.6,16.57l-11.48,8.8c-6.5-8.29-9.81-11.73-17.59-18l9.56-7.39h-15.56a117.88,117.88,0,0,0-14.78.76V79.16a121.33,121.33,0,0,0,14.66.76h59.16V71.64h-59.8a129.22,129.22,0,0,0-14.92.76V59.14a106.17,106.17,0,0,0,14.67.77h34.17V51.62H4657a126.88,126.88,0,0,0-14,.64V39.64a103.48,103.48,0,0,0,14.16.63h24.61a29.14,29.14,0,0,0-.77-7.39h9.31a33.53,33.53,0,0,0-6.76-5.48c1.28-1.15,1.79-1.53,2.8-2.55-1.78-.13-4.71-.26-6.88-.26h-6.5a60,60,0,0,1,4.46,9.05l-12.5,3.83a67,67,0,0,0-5.22-12.88Z"/><path class="cls-1" d="M4766.12,86c10.45,8.42,16.95,15.31,25.62,27l-7.14,6.75A127.09,127.09,0,0,0,4759.49,92Z"/><path class="cls-1" d="M4852.05,109.89a77.74,77.74,0,0,0,.63,12.24h-13.89a73.59,73.59,0,0,0,.76-12.24V39h-4.33V83.37a112.79,112.79,0,0,0,.38,13h-12.37c.39-4.33.64-9.18.64-13.77v-45a91.84,91.84,0,0,0-.51-11.61,79.59,79.59,0,0,0,10.45.51h5.74V16.43a74.21,74.21,0,0,0-.76-12h14c-.63,3.18-.76,6.37-.76,12V26.5h7.39a56.33,56.33,0,0,0,8.93-.51,103.7,103.7,0,0,0-.26,10.84V83.11c0,8.42-2.55,11-10.83,11a16.3,16.3,0,0,1-2.17-.13c-.38-6.5-.9-8.92-2.55-12.75a15.55,15.55,0,0,0,2.55.38c1.15,0,1.65-.38,1.65-1.4V39h-4.71ZM4869.64,7.25a77.28,77.28,0,0,0,12.12.76h44.62a81.62,81.62,0,0,0,12.5-.76V20.51a83,83,0,0,0-12.5-.64h-44.62a81.55,81.55,0,0,0-12.12.64Zm2.81,66.81c0-5.35-.26-9-.51-13.13a125,125,0,0,0,13.26.51H4925a123.83,123.83,0,0,0,13.13-.51c-.38,4.08-.51,8.16-.51,13v33a125.74,125.74,0,0,0,.64,14.91h-13.52v-5.35h-39.9v5.35h-13c.38-4.2.64-8.54.64-14.66Zm3.69-38.25a79.72,79.72,0,0,0-.5-10.07,109.78,109.78,0,0,0,12.36.51h33a101.69,101.69,0,0,0,11.86-.51,60.15,60.15,0,0,0-.51,9.94v9.57a79.57,79.57,0,0,0,.51,10.07,104.93,104.93,0,0,0-12.37-.51h-32.38a114.35,114.35,0,0,0-12.49.51,78.94,78.94,0,0,0,.5-10ZM4884.82,83h14V72.79h-14Zm0,22.05h14V94h-14Zm4.33-60.94h30V36.45h-30ZM4911.08,83h14.28V72.79h-14.28Zm0,21.93h14.28V94h-14.28Z"/><path class="cls-1" d="M5005.56,12.22a30.75,30.75,0,0,0-.64-7.26h15.68a29.81,29.81,0,0,0-.64,7.52V18.6h31.62a105.55,105.55,0,0,0,14.79-.77V32.62a106.91,106.91,0,0,0-14.79-.63H4976c-.13,47.81-3.83,68.85-16.07,89.63-6-7.4-6.12-7.4-11.22-12,10-16.44,12.88-33.27,12.88-73.44,0-9.56-.13-13.77-.51-18.23a98.93,98.93,0,0,0,13.26.64h31.24ZM4972,103a30.56,30.56,0,0,0,3.32.13c1.53,0,6.37-.13,9.05-.25,9.94-20,20.91-53.94,21.8-66.94l16.2,4c-1,3.32-1.15,4-2,6.88-7.53,25.51-12.76,39.79-20.41,55,21.94-2,27.16-2.68,41.57-5.23a227.08,227.08,0,0,0-16.19-25.12l12-6.75c12.37,17.21,21.93,33.78,28.69,49.46l-12.62,8.16c-2.55-6.62-3.45-8.79-5.87-14-17.72,3.44-18.74,3.57-32.51,5.36-2.93.38-14.79,1.65-35.7,4-2.29.25-3.06.38-4.46.63Z"/><path class="cls-1" d="M5100.16,17.71a147.64,147.64,0,0,0-1,19.38c0,11.09,1,26.39,2.42,34.16,2.17,13.27,6.25,21.43,10.33,21.43,1.91,0,3.69-1.92,5.23-5.49a93.79,93.79,0,0,0,6.75-23.07,63.36,63.36,0,0,0,12.75,11.6c-6.63,24.86-14,35.19-24.86,35.19-8.54,0-15.43-6.25-20.53-18.49-5.22-12.75-7.52-31.24-8-66.55a61.62,61.62,0,0,0-.51-8.16Zm60.3,5.73c16.07,19.25,25,40.55,28.69,68.6l-15.81,6a129.2,129.2,0,0,0-8.16-36.85,111.09,111.09,0,0,0-18.1-31.36Z"/><path class="cls-1" d="M5235.05,11.46a94.68,94.68,0,0,0-1,16.45V96.5a95.78,95.78,0,0,0,1,16.45h-19.38a96.81,96.81,0,0,0,1-16.45V27.91a95.76,95.76,0,0,0-1-16.45Z"/><path class="cls-1" d="M5310.53,96.37a105.27,105.27,0,0,0,1,16.58h-19.26a106.23,106.23,0,0,0,1-16.58V26.76H5276.1a126.41,126.41,0,0,0-17.47.89V10.57a129.73,129.73,0,0,0,17.34.89h50.49a136.75,136.75,0,0,0,18.75-.89V27.65c-4.72-.64-9.57-.89-18.75-.89h-15.93Z"/><path class="cls-1" d="M5423.74,32.88l.13-5.74V23.06c0-8.41-.13-11.22-.64-14.15h16.45a47.29,47.29,0,0,0-.51,8.54c0,7.78,0,7.78-.13,15.43h8.16c9.06,0,11.61-.13,16.58-.89V47.54a129.61,129.61,0,0,0-16.32-.64h-8.54c-.26,15.3-.26,16.19-.9,21-1.78,16.32-7.26,27.16-18.36,36.59-6.88,5.87-13.13,9.18-24.86,13.39-2.42-5.48-4.08-7.91-9.56-13.52,12.11-3.69,18.23-6.75,24.35-12.11,8.67-7.52,12.37-15.93,13.52-30.6.25-2.93.25-6,.51-14.79h-33V66a79,79,0,0,0,.51,10.71h-16.57a84.5,84.5,0,0,0,.51-11V46.9h-7.78a129.61,129.61,0,0,0-16.32.64V32c5,.76,7.52.89,16.58.89H5375V20.13a67.87,67.87,0,0,0-.64-11.35h16.7c-.51,4.21-.51,4.46-.51,11V32.88Z"/><path class="cls-1" d="M5476.4,53.66c5.61.77,8,.89,20.65.89h68c12.62,0,15.05-.12,20.66-.89V71.38c-5.11-.63-6.51-.63-20.79-.63h-67.7c-14.28,0-15.68,0-20.78.63Z"/><path class="cls-1" d="M5626.46,50.35c19.26-3.58,47.43-14.92,55.72-22.7l10.2,14.41c-.89.38-4.72,2.17-11.47,5.48a215.45,215.45,0,0,1-54.45,17.59V82a8.35,8.35,0,0,0-.13,1.66c0,7.4.52,10.33,2.3,12.11,2.17,2.3,9.43,3.32,21.8,3.32A241.5,241.5,0,0,0,5680,97,75.57,75.57,0,0,0,5694.55,94l.76,17c-2.68,0-3.31.13-16.83,1.4-7.52.77-23.59,1.53-31.36,1.53-16.07,0-24.87-1.66-29.84-5.48-3.57-2.68-5.48-6.76-6.25-13a97.31,97.31,0,0,1-.38-11.73l-.12-59.16c0-6.5,0-8.54-.52-11.73h17.09c-.51,3.06-.64,5.36-.64,11.86ZM5687,6.74c5.1,5.74,8.55,11,12.75,19.38l-9.18,4.21A81.38,81.38,0,0,0,5678,10.82Zm19.13,16.19a94.87,94.87,0,0,0-12.24-19l8.8-4.08a74.79,74.79,0,0,1,12.49,18.48Z"/><path class="cls-1" d="M5817.33,115.63a245.05,245.05,0,0,0-39.15-37.87,151.39,151.39,0,0,1-48.57,36.84c-3.57-6.63-5.1-8.67-10.33-14.15,9.82-3.82,15.94-7.26,25.5-14,19.25-13.52,34.55-32,42.84-51.9l1.4-3.31c-2,.13-2,.13-42.2.77a99,99,0,0,0-13.9,1l-.51-16.32a56.39,56.39,0,0,0,11.22.76h3.06l44.88-.64c7.14-.12,8.16-.25,11.35-1.4l8.42,8.67a24.37,24.37,0,0,0-4.08,6.89,169.18,169.18,0,0,1-19.9,35.19A197.18,197.18,0,0,1,5811,84.64c3.19,2.81,3.19,2.81,18.62,17.72Z"/><path class="cls-1" d="M5844.1,19.75c5.23,1.14,13.39,1.65,29.58,1.65,3.44-7.65,4.59-11.47,5.1-15.81l16.7,1.79c-.76,1.27-.76,1.27-5.1,11.47-.63,1.4-.89,1.79-1.15,2.3,1-.13,1-.13,8-.51,14.79-.89,26.39-2.3,33.4-4.34l.89,14.54c-3.56.25-3.56.25-10.07,1-9.3,1.15-25.5,2.17-38.37,2.55a66.25,66.25,0,0,1-11.73,17l.12.25c.9-.64.9-.64,2.55-1.91A30.84,30.84,0,0,1,5892,44c9.95,0,16.19,4.72,18.23,13.52q14.73-5.35,19.51-6.89c6.89-2.42,7.39-2.55,9.44-3.83l6,14.67c-3.57.51-7.4,1.53-14.15,3.44q-2.69.77-19.13,6.5v1.41c.13,3.31.13,3.31.13,5.09V83c-.13,2.16-.13,3.31-.13,4.2a53.32,53.32,0,0,0,.38,6.76l-14.79.38c.51-2.29.77-8.8.77-14.79V76.48c-6.25,2.93-9.56,4.72-12.24,6.63-4.46,3.32-6.63,6.76-6.63,10.46,0,6.63,6.12,9.31,21.55,9.31s28.43-1.92,37.48-5.36l1.27,16.45a36.68,36.68,0,0,0-5.86.51,231.67,231.67,0,0,1-32.64,2.29c-13.51,0-21.93-1.53-28.43-5.35A18.49,18.49,0,0,1,5863.48,95c0-5.23,1.53-9.31,5.61-14.15,5.74-7.14,13-12,27.41-18-.63-4.72-3.19-6.88-7.77-6.88-7.4,0-16.32,4.46-26.14,13.13a57.39,57.39,0,0,0-11.1,11.6l-11.6-11.48a77.5,77.5,0,0,0,11.48-11.34c5-5.87,12.75-17,15.3-21.8a6.3,6.3,0,0,1,1-1.66c-.51,0-2.17.12-2.17.12-2,0-13.26-.25-16.06-.25-2.43-.13-2.43-.13-3.58-.13a13.7,13.7,0,0,0-2,.13Z"/><path class="cls-1" d="M5991.61,67.81c-8,6.76-11.6,12.11-11.6,17.6,0,8.28,9.31,11.86,30.86,11.86,15.17,0,31.87-2.3,40-5.49l1.4,17.47a55.23,55.23,0,0,0-5.61.51c-15.3,2.29-23.46,2.93-34.42,2.93-13.9,0-25.12-1.4-31.87-4.21-11-4.33-16.32-11.34-16.32-21.29s5-18.23,16.44-27.79Zm-19.37-52.4c9.81,2.3,21.16,3.19,38.24,3.19,16.2,0,25.25-.64,33.66-2.43l.51,14.41c-7.65,3.32-23.33,13.14-34,21l-11.09-8.8c8-5.1,9.43-6,12.62-7.77,1.28-.77,1.66-1,3.32-2a26.63,26.63,0,0,0,2.8-1.53,136.8,136.8,0,0,1-19.12,1A201.66,201.66,0,0,1,5975.8,31c-1.53-.13-2.42-.26-2.93-.26-.25,0-.89-.13-1.78-.13Zm67.31,28.31a82.61,82.61,0,0,1,13.39,18.74L6044,67.17a86.27,86.27,0,0,0-13.39-19Zm19.77,15.42a94.59,94.59,0,0,0-13-18.49l8.54-4.46a73.67,73.67,0,0,1,13.26,18Z"/><path class="cls-1" d="M6156.6,106.32a108.74,108.74,0,0,0,13.64.64c7.9,0,14.41-.26,21.16-.9a55,55,0,0,0-3.31,13.52c-4.34.13-9.18.13-12.88.13-18.23,0-28.3-1.54-36.08-5.36a46.16,46.16,0,0,1-14.28-11.6c-4.34,8.54-6.63,11.73-13.39,19.76-3.95-4.46-4.46-4.84-9.69-8.8-1.27,5.87-4.71,7.65-14.92,7.65-2.8,0-6-.12-10.58-.38a37.9,37.9,0,0,0-2.93-13.13,103.11,103.11,0,0,0,10.84.76c3.69,0,4.46-.64,4.46-3.82V76.1c-2.93,1.15-4.46,1.66-6.89,2.42-3.06,1.15-4.84,1.79-6.62,2.55l-2.05-14.15c3.45-.38,8.16-1.66,15.56-4.08V40.15h-5.48a79.91,79.91,0,0,0-9.18.5V27a44.71,44.71,0,0,0,9.43.77h5.23V17.71c0-6.38-.13-9.18-.77-13h15.18c-.64,3.7-.77,6.63-.77,12.88v10.2h4.21l5.48-.13a7,7,0,0,1,1.15-.13,7.17,7.17,0,0,1,1-.25V40.53a69.42,69.42,0,0,0-7.52-.38h-4.34V58c4.72-1.79,6-2.3,11.1-4.59V59a79.57,79.57,0,0,0,10.58.52h53a75.05,75.05,0,0,0,11.73-.64v13a79.14,79.14,0,0,0-11.73-.64h-20.4V81.84h15.93a67,67,0,0,0,11.35-.64V93.57a69.79,69.79,0,0,0-11.35-.64H6156.6Zm-22.82-27.67c-.39,1-.9,2.55-2.3,7.39-.51,1.66-.89,2.81-1.53,5,3.44,5.48,7.27,8.79,13.39,12V71.25h-20.66a68.33,68.33,0,0,0-9.82.51V66.54c-4.33,1.91-5.73,2.55-10.58,4.46v37.87a28.22,28.22,0,0,1-.13,3.18,54.08,54.08,0,0,0,11.1-14,61.71,61.71,0,0,0,7.26-22.57Zm-4.47-25.37c-5.1,0-7.14,0-10.71.25q.19-2.87.39-13V20.38c0-5-.13-8.79-.39-12a120.79,120.79,0,0,0,12.37.51h38a112.07,112.07,0,0,0,12.24-.51,70.33,70.33,0,0,0-.64,11.47v21c0,4.72,0,5.1.51,12.75-3.32-.25-7.4-.38-12.63-.38ZM6132,25.87h35.57V20H6132Zm0,16.57h35.57V36.32H6132Z"/><path class="cls-1" d="M6237.81,6.74c-.63,1.66-1,2.42-1.91,5.23A154.82,154.82,0,0,1,6227,34.79v72.29c0,4.34.26,10.71.64,14.79h-15.17a117.18,117.18,0,0,0,.76-14.91V70.75c0-7.14,0-8.93.39-14.28A81.28,81.28,0,0,1,6203.13,71c-2.29-7.91-2.93-9.69-5.73-15.43,13-13.51,23.46-34.93,25.88-52.91Zm30.09,83.77c-9,14.28-15.68,21.67-28.69,31.62a63.24,63.24,0,0,0-11.09-10.84c7-4.46,10.71-7.4,15.69-12.75,4.84-5.1,7.39-8.54,11.72-15.94Zm15.81-61.58V16.05a66.13,66.13,0,0,0-.64-10.71h15.18a70.9,70.9,0,0,0-.77,10.83V28.93h5.74a80,80,0,0,0,12.24-.77V42.69a79.07,79.07,0,0,0-12.24-.76h-5.74V68.32h9.18a63.2,63.2,0,0,0,12.11-.76V82.09a79.37,79.37,0,0,0-12.11-.76h-62.6a79.37,79.37,0,0,0-12.11.76V67.56a74.9,74.9,0,0,0,12.11.76h7.27V41.93h-3.7a66.38,66.38,0,0,0-12.11.76V28.16a84,84,0,0,0,12.11.77h3.7V15.79a69.53,69.53,0,0,0-.77-10.45h15.18a62.49,62.49,0,0,0-.64,10.58v13Zm0,39.39V41.93H6265.1V68.32Zm8.16,13.9A84.17,84.17,0,0,0,6304.37,98a65.38,65.38,0,0,0,15.3,12c-3.57,3.58-5.1,5.36-10.2,12.24a101.6,101.6,0,0,1-15.17-13.51A106.27,106.27,0,0,1,6280,90Z"/><path class="cls-1" d="M6358.8,9.8c-.76,3.7-1,7.4-1.52,17.21-.51,11.86-1.28,37.74-1.28,46.79,0,12.12.77,16.71,3.32,20.53,2.93,4.21,9.05,6.63,17.08,6.63,13.77,0,24.86-7.77,30.86-21.8a85.56,85.56,0,0,0,5.86-21.42c6.88,5.61,9.18,7,15.43,9.82-5.1,17.21-8.93,25.5-15.18,32.51-9.56,10.84-22.18,16.19-38.25,16.19-8.79,0-16.95-2-22.31-5.61-8.8-5.86-12.49-15.68-12.49-32.77,0-6.63.25-19.37,1-51.38.12-3.82.12-6.5.12-8.29a63.74,63.74,0,0,0-.5-8.66Z"/><path class="cls-1" d="M6536.54,112.82c-5.61-6.25-14.41-12.75-23.59-17.47a57.8,57.8,0,0,0-6.88-3.19v1.41c0,8-2.3,13.51-7.15,17.21s-11.72,5.48-21,5.48c-18.62,0-29.33-7.26-29.33-19.89,0-13.89,12.62-22.05,34-22.05a65.45,65.45,0,0,1,8.55.51,24.18,24.18,0,0,0-.13-3.07V69c-.13-1.79-.13-1.79-.26-6.88-6.11.12-10.07.25-12.74.25-7.78,0-12.5-.13-23.08-.89-1.66-.13-2.93-.13-4.85-.13l.26-13.77c5.48,1.27,17.59,2.17,29.7,2.17,2.55,0,6.89-.13,10.46-.26,0-1.14,0-5.48-.13-12.75-4.08.13-6.12.13-8,.13-6.25,0-22.7-.64-31.24-1.27-1.4-.13-2.42-.13-2.8-.13h-2l.13-14.15c6.5,1.65,19.63,2.67,34.29,2.67,2,0,6.38-.12,9.57-.25-.13-12.75-.13-12.88-.64-16.07h16.19c-.64,3.45-.76,5.1-.89,15.56,17.34-1,28.43-2.42,36.72-4.85l.63,14.15c-2.8.13-2.8.13-10.07,1.15-11.22,1.53-16.19,1.92-27.41,2.55.13,3.19.13,4.72.26,12.62,6.37-.38,6.37-.38,18.1-1.65,8-1,10.07-1.28,15.81-2.81l.38,14c-2.17.13-5.35.51-8.28.89-1.92.26-7.66.89-17.22,1.78-1.78.13-3.7.26-8.67.52.38,12.36.38,12.36.51,15.42,11.22,3.32,21.17,8.29,34.94,18,2.16,1.4,2.8,1.91,4.59,2.93Zm-55.72-25.88c-10.33,0-16.57,3.31-16.57,8.79,0,4.72,5.48,7.66,14.53,7.66,5.35,0,9.31-1.54,11.09-4.08,1-1.66,1.53-4.34,1.53-8.16V88.08A44.77,44.77,0,0,0,6480.82,86.94Z"/><path class="cls-1" d="M6631.27,54.55c0,.51.13,1.53.13,3.06a38.9,38.9,0,0,1,4.08,18c0,13.9-6.63,25.88-19,34.42-5.36,3.7-11.22,6.38-23.08,10.46-3.57-7.91-4.85-9.82-9-14.41,10.45-2,15.68-3.82,21.67-7.39,8.67-5,13.77-11.48,14.79-18.62-3.7,5.87-10.33,9.06-18.74,9.06a23.54,23.54,0,0,1-14.79-4.59,20,20,0,0,1-8.8-17.22c0-13.51,10.59-23.2,25.37-23.2,5.49,0,10.33,1.4,13.26,3.82a5.52,5.52,0,0,1-.12-1.53c-.13-.25-.13-7.39-.13-10.83-18.23.51-30.22.89-35.83,1.27-19.25,1.4-19.25,1.4-22.69,1.91l-.51-15.17a54.42,54.42,0,0,0,6.25.26c3.18,0,5.22,0,21.67-.64,8.29-.26,9.56-.26,20-.51,4.21-.13,4.21-.13,10.84-.39-.13-12.11-.13-12.11-.77-15.42l16.07-.13c-.51,3.95-.51,4.21-.64,15.17,22.18-.12,32.13-.38,36.85-.89l.12,14.66c-4.72-.38-10.83-.63-21.42-.63-3.06,0-5.35,0-15.42.25v8.29Zm-26,1.28c-6.5,0-11.86,4.59-11.86,10.2,0,5.86,4.46,10.07,10.84,10.07,7.27,0,12.49-4.85,12.49-11.47C6616.73,59.27,6612.27,55.83,6605.26,55.83Z"/><path class="cls-2" d="M291.63,205.1,250.33,294h0L196,411.09l7,.15,3-6.56,8.51-18.31H286l8.47,18.31,2.69,6.25,7.33.16h82.39ZM220.46,373.55l29.86-64.29L280,373.55Z"/><polygon class="cls-2" points="491.67 400.21 491.67 204.94 401.34 204.94 401.34 411.24 491.67 411.24 592.99 411.24 592.99 400.21 491.67 400.21"/><path class="cls-2" d="M105.86,402.1a95.74,95.74,0,0,1-10.07-.54V213.87a95.74,95.74,0,0,1,10.07-.54,94.32,94.32,0,0,1,75.6,37.93l7.55-2.11c-.8-1.13-1.62-2.26-2.47-3.36A101.52,101.52,0,0,0,105.86,206c-3.4,0-6.75.17-10.07.49a101.71,101.71,0,0,0,0,202.42c3.32.33,6.67.5,10.07.5a101.57,101.57,0,0,0,83.06-43l-7.56-2.11A94.33,94.33,0,0,1,105.86,402.1Z"/><path class="cls-1" d="M9.11,452.4a14.75,14.75,0,0,1,11-4.42q8.94,0,13.07,5.93a12.9,12.9,0,0,1,2.45,6.68H28.15a10.07,10.07,0,0,0-1.83-3.89,7.38,7.38,0,0,0-5.92-2.33,7.31,7.31,0,0,0-6.31,3.29c-1.54,2.2-2.31,5.3-2.31,9.32s.82,7,2.44,9a7.62,7.62,0,0,0,6.19,3,7,7,0,0,0,5.86-2.58,11.11,11.11,0,0,0,1.86-4.15h7.43a16.13,16.13,0,0,1-4.91,9.52,14.33,14.33,0,0,1-10.13,3.67q-7.63,0-12-5T4.13,466.85Q4.13,457.48,9.11,452.4Z"/><path class="cls-1" d="M63.12,481.22q-3.34,4.14-10.17,4.14t-10.18-4.14a16.42,16.42,0,0,1,0-19.88q3.36-4.2,10.18-4.2t10.17,4.2a16.42,16.42,0,0,1,0,19.88Zm-5.53-3.82a12.41,12.41,0,0,0,0-12.26A5.52,5.52,0,0,0,52.92,463a5.53,5.53,0,0,0-4.67,2.15,12.28,12.28,0,0,0,0,12.26,5.51,5.51,0,0,0,4.67,2.16A5.5,5.5,0,0,0,57.59,477.4Z"/><path class="cls-1" d="M104.46,458.09a7.6,7.6,0,0,1,3.08,2.38,7.52,7.52,0,0,1,1.51,3.4,23.74,23.74,0,0,1,.24,3.91l-.05,16.68h-7.09V467.61a5.45,5.45,0,0,0-.49-2.48,3.44,3.44,0,0,0-3.4-1.85,4,4,0,0,0-4,2.38,7.4,7.4,0,0,0-.56,3v15.76h-7V468.7a8.69,8.69,0,0,0-.49-3.42,3.38,3.38,0,0,0-3.42-1.92q-3,0-4,1.92a7.4,7.4,0,0,0-.55,3.25v15.93h-7V458H78v3.86A11.09,11.09,0,0,1,80.46,459a8.37,8.37,0,0,1,5.22-1.55,8.27,8.27,0,0,1,4.91,1.33,7.88,7.88,0,0,1,2.28,3.18,8.88,8.88,0,0,1,3.38-3.42,10.26,10.26,0,0,1,4.76-1.09A9.14,9.14,0,0,1,104.46,458.09Z"/><path class="cls-1" d="M137.91,460.83q3.24,3.42,3.24,10.06,0,7-3.16,10.66a10.29,10.29,0,0,1-8.15,3.66,8.55,8.55,0,0,1-5.28-1.57,10.31,10.31,0,0,1-2.25-2.55v13.79h-6.85V458h6.63v3.91a11.2,11.2,0,0,1,2.39-2.72,8.86,8.86,0,0,1,5.53-1.77A10.46,10.46,0,0,1,137.91,460.83Zm-5.31,5a4.92,4.92,0,0,0-4.57-2.36A5.21,5.21,0,0,0,122.8,467a13.47,13.47,0,0,0-.74,4.81q0,4.62,2.48,6.49a5.66,5.66,0,0,0,3.48,1.09,5.07,5.07,0,0,0,4.46-2.23,11.73,11.73,0,0,0,.12-11.37Z"/><path class="cls-1" d="M152.93,458v16a8.52,8.52,0,0,0,.53,3.4,3.68,3.68,0,0,0,3.7,2A4.82,4.82,0,0,0,162,476.5a10.48,10.48,0,0,0,.68-4.11V458h7v26.47H163v-3.74c-.06.08-.22.33-.48.73a5.25,5.25,0,0,1-.92,1.07,9.67,9.67,0,0,1-3.14,2,10.57,10.57,0,0,1-3.55.53c-3.9,0-6.54-1.4-7.89-4.22a16.21,16.21,0,0,1-1.14-6.87V458Z"/><path class="cls-1" d="M173.7,463.16v-4.93h3.69v-7.38h6.85v7.38h4.29v4.93h-4.29v14c0,1.09.13,1.76.41,2a4.5,4.5,0,0,0,2.52.4h.67l.69,0v5.17l-3.27.13c-3.28.11-5.51-.46-6.71-1.7a5.11,5.11,0,0,1-1.16-3.67v-16.3Z"/><path class="cls-1" d="M210.23,458.53a10.74,10.74,0,0,1,4.57,3.91,13,13,0,0,1,2.11,5.48,33.72,33.72,0,0,1,.23,5.25H197.86c.11,2.65,1,4.52,2.77,5.58a7,7,0,0,0,3.81,1,5.34,5.34,0,0,0,5.27-3h7.07a8.66,8.66,0,0,1-2.57,4.79q-3.56,3.86-10,3.86a14.43,14.43,0,0,1-9.32-3.26q-4-3.25-4-10.59,0-6.88,3.65-10.55a12.73,12.73,0,0,1,9.46-3.67A15,15,0,0,1,210.23,458.53Zm-10.36,6A7.2,7.2,0,0,0,198,468.6H210a5.77,5.77,0,0,0-1.84-4.18A6.07,6.07,0,0,0,204,463,5.5,5.5,0,0,0,199.87,464.51Z"/><path class="cls-1" d="M235.34,457.37l.6,0v7.09c-.44-.05-.83-.08-1.17-.1l-.82,0c-2.79,0-4.66.9-5.61,2.72a10.5,10.5,0,0,0-.8,4.71v12.65h-7V458h6.6v4.61A14.36,14.36,0,0,1,230,459a7.55,7.55,0,0,1,5.05-1.63Z"/><path class="cls-1" d="M250.79,448.66h8.46l12.67,35.8h-8.11l-2.36-7.36H248.26l-2.42,7.36H238Zm-.49,22.27h9.16l-4.52-14.08Z"/><path class="cls-1" d="M290,458.42a8.42,8.42,0,0,1,3,2.92V448.71h7v35.75h-6.72v-3.67a9.74,9.74,0,0,1-3.38,3.43,9.48,9.48,0,0,1-4.71,1.07,9.86,9.86,0,0,1-7.81-3.75,14.46,14.46,0,0,1-3.17-9.63q0-6.78,3.12-10.67a10.15,10.15,0,0,1,8.35-3.88A8.48,8.48,0,0,1,290,458.42Zm1.7,18.85a9.64,9.64,0,0,0,1.53-5.66c0-3.23-.82-5.55-2.45-6.94a5.3,5.3,0,0,0-3.5-1.26,4.87,4.87,0,0,0-4.46,2.29,10.71,10.71,0,0,0-1.42,5.7,10.55,10.55,0,0,0,1.45,5.86,4.87,4.87,0,0,0,4.38,2.2A5.11,5.11,0,0,0,291.65,477.27Z"/><path class="cls-1" d="M322.6,458H330l-9.56,26.47h-7.29L303.68,458h7.78L317,477.52Z"/><path class="cls-1" d="M341.07,454.83h-7v-6.38h7Zm-7,3.16h7v26.47h-7Z"/><path class="cls-1" d="M353.14,476a4.69,4.69,0,0,0,.95,2.62c.87.93,2.46,1.39,4.79,1.39a7.35,7.35,0,0,0,3.25-.61,2,2,0,0,0,.24-3.59q-1-.61-7.24-2.09-4.51-1.12-6.36-2.8a6,6,0,0,1-1.85-4.76,8.27,8.27,0,0,1,2.89-6.3q2.88-2.62,8.12-2.63a14.92,14.92,0,0,1,8.09,2c2.08,1.32,3.28,3.59,3.59,6.83h-6.92a4.07,4.07,0,0,0-.76-2.11q-1.14-1.41-3.9-1.41a5.57,5.57,0,0,0-3.22.71,2,2,0,0,0-1,1.65,1.8,1.8,0,0,0,1,1.72,44.82,44.82,0,0,0,7.23,1.92,13.35,13.35,0,0,1,6.2,2.94,6.68,6.68,0,0,1,2,5,8,8,0,0,1-2.94,6.42q-2.92,2.49-9.06,2.49t-9.24-2.63a8.6,8.6,0,0,1-3-6.72Z"/><path class="cls-1" d="M392.69,458.53a10.74,10.74,0,0,1,4.57,3.91,13.09,13.09,0,0,1,2.11,5.48,33.72,33.72,0,0,1,.23,5.25H380.32c.1,2.65,1,4.52,2.77,5.58a6.93,6.93,0,0,0,3.81,1,5.37,5.37,0,0,0,5.27-3h7.07a8.72,8.72,0,0,1-2.57,4.79q-3.56,3.86-10,3.86a14.43,14.43,0,0,1-9.32-3.26q-4-3.25-4-10.59,0-6.88,3.64-10.55a12.76,12.76,0,0,1,9.47-3.67A15.07,15.07,0,0,1,392.69,458.53Zm-10.36,6a7.13,7.13,0,0,0-1.84,4.09h11.92a5.77,5.77,0,0,0-1.84-4.18,6.09,6.09,0,0,0-4.11-1.43A5.5,5.5,0,0,0,382.33,464.51Z"/><path class="cls-1" d="M417.8,457.37l.6,0v7.09c-.44-.05-.83-.08-1.17-.1l-.82,0c-2.79,0-4.66.9-5.61,2.72a10.48,10.48,0,0,0-.81,4.71v12.65h-7V458h6.61v4.61a14.62,14.62,0,0,1,2.79-3.61,7.59,7.59,0,0,1,5.05-1.63Z"/><path class="cls-1" d="M423,448.66h7.48V478h17.88v6.43H423Z"/><path class="cls-1" d="M460,454.83h-7v-6.38h7Zm-7,3.16h7v26.47h-7Z"/><path class="cls-1" d="M499.68,458.09a7.71,7.71,0,0,1,4.59,5.78,23.74,23.74,0,0,1,.24,3.91l0,16.68h-7.1V467.61a5.59,5.59,0,0,0-.48-2.48,3.46,3.46,0,0,0-3.4-1.85,4,4,0,0,0-4,2.38,7.57,7.57,0,0,0-.56,3v15.76h-7V468.7a8.92,8.92,0,0,0-.48-3.42,3.4,3.4,0,0,0-3.43-1.92c-2,0-3.3.64-4,1.92a7.38,7.38,0,0,0-.56,3.25v15.93h-7V458h6.73v3.86a11.09,11.09,0,0,1,2.43-2.94,8.33,8.33,0,0,1,5.22-1.55,8.24,8.24,0,0,1,4.9,1.33,7.8,7.8,0,0,1,2.29,3.18,8.8,8.8,0,0,1,3.37-3.42,10.29,10.29,0,0,1,4.76-1.09A9.06,9.06,0,0,1,499.68,458.09Z"/><path class="cls-1" d="M518,454.83h-7v-6.38h7ZM511,458h7v26.47h-7Z"/><path class="cls-1" d="M522,463.16v-4.93h3.69v-7.38h6.85v7.38h4.29v4.93h-4.29v14c0,1.09.13,1.76.41,2a4.5,4.5,0,0,0,2.52.4h.67l.69,0v5.17l-3.27.13c-3.28.11-5.51-.46-6.71-1.7a5.11,5.11,0,0,1-1.16-3.67v-16.3Z"/><path class="cls-1" d="M558.51,458.53a10.74,10.74,0,0,1,4.57,3.91,13,13,0,0,1,2.11,5.48,33.72,33.72,0,0,1,.23,5.25H546.14c.11,2.65,1,4.52,2.77,5.58a7,7,0,0,0,3.81,1,5.34,5.34,0,0,0,5.27-3h7.07a8.66,8.66,0,0,1-2.57,4.79q-3.56,3.86-10,3.86a14.43,14.43,0,0,1-9.32-3.26q-4-3.25-4-10.59,0-6.88,3.65-10.55a12.73,12.73,0,0,1,9.46-3.67A15,15,0,0,1,558.51,458.53Zm-10.36,6a7.13,7.13,0,0,0-1.84,4.09h11.92a5.77,5.77,0,0,0-1.84-4.18,6.07,6.07,0,0,0-4.11-1.43A5.5,5.5,0,0,0,548.15,464.51Z"/><path class="cls-1" d="M583,458.42a8.47,8.47,0,0,1,3,2.92V448.71h7v35.75h-6.73v-3.67a9.72,9.72,0,0,1-3.37,3.43,9.54,9.54,0,0,1-4.71,1.07,9.83,9.83,0,0,1-7.81-3.75,14.46,14.46,0,0,1-3.17-9.63q0-6.78,3.12-10.67a10.15,10.15,0,0,1,8.34-3.88A8.52,8.52,0,0,1,583,458.42Zm1.7,18.85a9.64,9.64,0,0,0,1.53-5.66c0-3.23-.82-5.55-2.46-6.94a5.27,5.27,0,0,0-3.49-1.26,4.86,4.86,0,0,0-4.46,2.29,12.4,12.4,0,0,0,0,11.56,4.9,4.9,0,0,0,4.39,2.2A5.11,5.11,0,0,0,584.66,477.27Z"/><path class="cls-1" d="M804.78,423c.22-3.47.22-7.17.22-11.3H707.84c-8.31,0-20.46.65-27.49,1.3V382c7.46.65,17,1.3,26.64,1.3h98.22v-90H709.54c-8.95,0-20.45.43-26.42.87V263.91c7.88.87,19,1.3,26.42,1.3H816.72c6.18,0,15.13-.21,18.75-.43-.21,5-.64,13.69-.64,20V397.39c0,7.61.43,19.13.85,25.65Z"/><path class="cls-1" d="M960.54,369.35c36.23-22,64.14-55.22,77.56-84.57l16.62,30.65c-16.19,29.35-44.53,59.35-78.83,80.44-21.53,13.26-49,25.44-79,30.65l-17.9-28.69C912.18,393,939.87,382,960.54,369.35Zm0-70.44-21.73,22.83c-11.08-12.18-37.72-35.87-53.27-47l20-21.74C920.49,263.26,948.18,285.87,960.54,298.91Z"/><path class="cls-1" d="M1117.79,315.21c25.15-6.3,54.76-15.87,73.72-24.13a125.46,125.46,0,0,0,20.46-10,26.74,26.74,0,0,1-6.18-17.17c0-14.35,11.29-26.09,25.36-26.09s25.57,11.74,25.57,26.09S1245.21,290,1231.15,290a24.2,24.2,0,0,1-13.64-4.13l8.73,21.08c-8.3,3.48-17.89,7.61-24.92,10.22-21.52,8.7-55.83,19.57-83.53,26.52v40.22c0,9.35,4.26,11.74,13.85,13.7a195.4,195.4,0,0,0,24.72,1.3c22.16,0,56.68-2.82,74.15-7.6V423c-20,3-52.42,4.57-75.86,4.57a229.39,229.39,0,0,1-35.79-2.61c-18.54-3.26-29.19-13.69-29.19-32.39V274.13a185.64,185.64,0,0,0-1.71-22.61h31.54a168.45,168.45,0,0,0-1.71,22.61Zm125.71-51.3a12.26,12.26,0,1,0-12.35,12.61A12.49,12.49,0,0,0,1243.5,263.91Z"/><path class="cls-1" d="M1408.43,394.57c5.54,0,15.34-.22,20.88-.87v28c-4.26-.22-14.7-.65-20.25-.65H1296.78c-7.68,0-13,.22-21.1.65V393.48a201.23,201.23,0,0,0,21.1,1.09h69c3-18.48,7.67-49.35,8.31-61.53h-57.53c-6.82,0-15.13.65-21.31,1.09v-28.7c5.54.65,15.35,1.31,21.1,1.31h54.54c4.48,0,13.22-.87,16-2.39l20.45,10.21a61.74,61.74,0,0,0-2.13,9.13c-1.71,12.83-7.24,50.22-10.44,70.88Z"/><path class="cls-1" d="M1459.14,317.61c7.67.65,23.22,1.3,34.3,1.3h114.42c9.8,0,19.39-.87,24.93-1.3v34.13c-5.11-.22-16-1.09-24.93-1.09H1493.44c-12.14,0-26.42.44-34.3,1.09Z"/><path class="cls-1" d="M1834.78,279.56a103.67,103.67,0,0,0-7,15.44,252.33,252.33,0,0,1-29.4,59.56c7.88,5,15.13,10,20.45,13.92l-19.39,25.43a247.89,247.89,0,0,0-19.81-15.43A203.31,203.31,0,0,1,1701,432.61l-24.71-22c37.71-11.74,61.79-30.22,79.47-48.69-14.49-9.57-29-18.48-39.84-24.79L1734,316.52c11.29,5.87,25.78,14.13,40.06,22.83,10.44-15.44,19-33.27,22.16-46.31h-61.16c-14.91,20.22-34.73,41.09-56.25,56.09l-23-18c37.5-23.48,57.32-53.27,68-72.18a97.2,97.2,0,0,0,9.59-22.83l30.9,9.78c-5.12,7.61-10.66,17.61-13.21,22.18l-.22.22h43.68c6.61,0,13.85-.87,18.54-2.4Z"/><path class="cls-1" d="M2039.55,271.08a107.89,107.89,0,0,0-8.31,11.31c-10,16.95-30.26,44.35-51.35,59.56l-22-18c17-10.65,33.67-29.78,39.21-40.44h-111c-9,0-16,.66-26,1.53V254.78a166.27,166.27,0,0,0,26,2.17H2001c6,0,17.68-.65,21.52-2Zm-86.94,29.35c0,53.92-1.06,98.27-59.23,130l-24.72-20.66A83.43,83.43,0,0,0,1891,397.83c27.07-19.13,32.18-42.18,32.18-77.83a123.61,123.61,0,0,0-1.49-19.57Z"/><path class="cls-1" d="M2115,307.39c28.34,8.69,69.46,24.13,89.06,33.91l-11.93,30.22C2170,359.56,2138,347,2115,339.13v61.52c0,6.09,1.06,21.31,2.13,30.22h-33.45a241.72,241.72,0,0,0,2.13-30.22v-125a156.66,156.66,0,0,0-2.13-26.31h33.24a239.32,239.32,0,0,0-1.92,26.31Zm56.68-9.57c-6.18-13.69-10.87-22.39-18.76-33.48l17.9-7.82c6,9.13,14.49,23,19.39,32.82Zm29.19-12.17A204.5,204.5,0,0,0,2181,253l17.69-8.48c6.17,8.69,15.12,22.39,20,32.17Z"/><path class="cls-1" d="M2288.85,268l31.11,6.52c-1.92,6.31-4.27,17-5.12,21.74a552.5,552.5,0,0,1-18.11,65.44c-7.67,21.09-20.24,45.87-31.53,62.17l-29.83-12.82a263.49,263.49,0,0,0,33.23-60.44C2278.19,326.3,2286.29,295.65,2288.85,268Zm54.12,6.52,28.34-9.35c8.73,16.74,23.43,50.22,31.32,71.31,7.67,19.57,19,54.35,24.93,75.87L2396,422.83c-6-25.87-13.63-53.27-22.16-76.74C2365.76,323.26,2351.92,291.08,2343,274.56Zm67.76,0-17.05,7.61c-4.48-8.91-10.87-22-16.62-30.22l16.83-7.17C2399.22,252.82,2406.67,266.52,2410.73,274.56Zm25.56-10-17,7.61a229.22,229.22,0,0,0-17.05-30L2419,235A339.93,339.93,0,0,1,2436.29,264.56Z"/><path class="cls-1" d="M2566.48,399.35c0,9.56.43,23,1.92,28.48h-33.67c.86-5.22,1.5-18.92,1.5-28.48V328c-21.95,11.31-48.58,22.61-73.3,29.57l-15.34-26.52c37.29-8.27,73.08-24.35,96.94-39.35,21.53-13.7,43.68-33.05,55.62-49.14l22.79,21.09a349.1,349.1,0,0,1-56.46,46.74Z"/><path class="cls-1" d="M2804.7,291.74c11.29,0,17.68-.66,23.43-1.74v28.91c-4.68-.43-12.14-.65-23.22-.65h-16v7.17c0,53.92-12.57,86.75-64.13,110l-22.81-22c41.13-14.78,59.24-33.48,59.24-87v-8.26h-50.5v29.56c0,9.79.64,18.48.85,22.83h-29.83a179.12,179.12,0,0,0,1.28-22.83V318.26h-18.11c-10.65,0-18.32.43-23,.87V289.56a131.8,131.8,0,0,0,23,2.18H2683V270a178.93,178.93,0,0,0-1.28-19.56H2712a175.84,175.84,0,0,0-1.28,19.78v21.53h50.5V268.69a139.94,139.94,0,0,0-1.28-20h30.47a136.05,136.05,0,0,0-1.49,20v23.05Zm-.85-8.05c-3-9.13-6.82-21.09-10.87-29.78l14.27-4.79a224.08,224.08,0,0,1,11.3,29.79Zm22.37-7.17c-3-9.35-7-21.09-11.51-29.57l14.49-4.78c4.05,8.69,9,21.3,11.72,29.56Z"/><path class="cls-1" d="M2859.88,317.61c7.68.65,23.23,1.3,34.31,1.3h114.42c9.8,0,19.39-.87,24.93-1.3v34.13c-5.11-.22-16-1.09-24.93-1.09H2894.19c-12.14,0-26.42.44-34.31,1.09Z"/><path class="cls-1" d="M3122,361.52c-2.35-6.09-6.4-15.43-10.66-24.57V437H3086.6V352.61c-5.76,18-12.58,34.13-20,45.43-2.35-7.39-7.89-19.13-11.93-26.08,12.78-16.74,24.28-47.4,30.46-73.49h-26.2V274.56h27.7V234.12h24.71v40.44h24.29v23.91h-24.29v6.31c6.18,8,21.74,33,25.15,39.35ZM3220.62,348c9.38,22.18,24.29,44.35,39.42,57.4-5.76,4.78-14.28,13.91-18.33,20.21-12.35-13-23.86-33.26-32.81-55V437H3184V372.61c-11.72,22.39-26.63,42-43.68,54.56a124.24,124.24,0,0,0-17.05-19.78c20-12.39,38.14-35.22,49.22-59.35h-35.15V324.78H3184V295h-19.82a129.62,129.62,0,0,1-12.57,26.3c-4.26-3.69-14.27-10-19.81-12.82,10.65-15.22,16.83-39.35,20-63.7l23.22,4.13c-1.28,7.82-2.56,15.43-4.26,22.82H3184V234.34h24.93v37.39h39.84V295H3208.9v29.78h45.17V348Z"/><path class="cls-1" d="M3407.06,296.3c4.47,63.48,17.47,113.7,33,113.7,4.48,0,7-11.52,8.1-39.13,5.75,6.09,15.13,12.61,22.16,15.22-3.84,41.08-12.36,51.09-32.6,51.09-36.44,0-52.42-64.35-57.53-140.88h-105.9V271.08h104.62c-.43-11.74-.64-23.91-.64-35.87h27.28c-.22,12-.22,24.13.21,35.87h33.66c-5.75-7.39-16.4-16.3-24.93-22.82l16.84-14.14c9.59,6.74,22.16,17,27.91,24.14l-14.49,12.82h20V296.3Zm-67.34,97.61c13-2.39,26.64-5,39.64-7.61l1.91,23.05c-34.94,7.82-72.44,15.87-99.93,21.74l-7-26.09c10.87-1.74,24.93-3.91,40.27-6.52V346.09h-32.17v-25h91.41v25h-34.1Z"/><path class="cls-1" d="M3532.77,307.17a245.62,245.62,0,0,1-36,21.74,100.9,100.9,0,0,0-14.92-21.74c36.44-16.3,70.1-47.18,86.09-72.83h26.42c22.58,32,56.46,56.74,90.13,68.92-6.4,6.74-11.93,16.08-16.41,23.69a256.09,256.09,0,0,1-35.8-21.08V323h-99.5Zm-37.72,33.92h176.21V365h-95.45c-6.18,12.83-13.21,26.31-19.6,38.48,20.45-.65,42.4-1.52,64.13-2.39a255.57,255.57,0,0,0-20.88-22.18l22.37-12c19,17,38.78,39.56,48.8,55.87L3647,437.39a117.5,117.5,0,0,0-8.53-13.48c-50.07,2.83-102.7,5-138.92,6.74l-3.41-25.21,32.17-1.09a422.06,422.06,0,0,0,16.2-39.35h-49.44Zm128.06-41.75c-16.41-12.61-31.11-26.74-40.91-40.21-9.16,13.26-22.8,27.39-39,40.21Z"/><path class="cls-1" d="M3774.82,378c-4.48-6.08-11.72-14.78-19-22.82v82h-25.14v-75A176,176,0,0,1,3704.29,383c-2.13-7-8.1-19.56-11.93-24.56,23.22-12.83,45.6-35.66,59.66-60.87h-51.57V274.34h30.26v-40h25.14v40h9.59l4.48-1.08,14.27,9.34a212,212,0,0,1-25.14,46.53c10.23,8.48,26.63,23.48,31.11,27.82Zm122.09,27.61v25.22h-120.6V405.65h49.22V326.08h-40.48v-25h40.48v-65h26v65h40.27v25h-40.27v79.57Z"/></svg>