<svg id="レイヤー_1" data-name="レイヤー 1" xmlns="http://www.w3.org/2000/svg" viewBox="0 0 226.67 124.43"><defs><style>.cls-1{fill:#ffd05b;}.cls-2{fill:#d8d8d7;}.cls-3{fill:#819281;}.cls-4{fill:#99a99a;}.cls-5{fill:#ececec;}.cls-6{fill:#9e978f;}.cls-7{fill:#445c6c;}.cls-8{fill:#29a5d1;}</style></defs><title>method-1</title><path class="cls-1" d="M195.69,60.26a28.41,28.41,0,0,0-56.81,0c0,11.17,6,16.55,11.55,25.44,2,3.18,4.29,15,4.29,15h25.13s2.32-11.77,4.29-15C189.66,76.82,195.69,71.43,195.69,60.26Z"/><path class="cls-2" d="M154.73,100.65v10.66a12.58,12.58,0,1,0,25.16,0V100.65Z"/><rect class="cls-3" x="154.73" y="100.65" width="25.17" height="3.58"/><rect class="cls-4" x="154.73" y="107.87" width="25.17" height="3.58"/><path class="cls-5" d="M183.07,45l-7.35,7.3s11.74,6.67,5.39,24.76C181.11,77,194.55,65,183.07,45Z"/><polygon class="cls-5" points="108.8 59.44 127.06 62.69 127.06 56.18 108.8 59.44"/><polygon class="cls-5" points="225.78 59.44 207.51 56.18 207.51 62.69 225.78 59.44"/><polygon class="cls-5" points="167.29 0.94 164.03 19.21 170.54 19.21 167.29 0.94"/><polygon class="cls-5" points="125.93 18.07 136.54 33.29 141.14 28.69 125.93 18.07"/><polygon class="cls-5" points="208.65 100.8 198.03 85.58 193.43 90.18 208.65 100.8"/><polygon class="cls-5" points="208.65 18.07 193.43 28.69 198.03 33.29 208.65 18.07"/><polygon class="cls-5" points="125.93 100.8 141.15 90.18 136.55 85.58 125.93 100.8"/><path class="cls-6" d="M60.69,60.26a28.41,28.41,0,0,0-56.81,0c0,11.17,6,16.55,11.55,25.44,2,3.18,4.29,15,4.29,15H44.85s2.32-11.77,4.29-15C54.66,76.82,60.69,71.43,60.69,60.26Z"/><path class="cls-2" d="M19.7,100.65v10.66A12.77,12.77,0,0,0,32.28,124.2a12.78,12.78,0,0,0,12.59-12.89V100.65Z"/><rect class="cls-3" x="19.7" y="100.65" width="25.17" height="3.58"/><rect class="cls-4" x="19.7" y="107.87" width="25.17" height="3.58"/><path class="cls-7" d="M18.84,58.44c.32-3,.89-4.47,2.31-6.26,2.4-3.09,6.58-4.79,11.74-4.79,5.45,0,9.72,1.83,11.67,5A8.76,8.76,0,0,1,45.74,57a7.33,7.33,0,0,1-2.48,6c-1,.85-1.38,1.14-4.72,3-2,1.18-2.64,2.11-2.64,4.14A10.19,10.19,0,0,0,36,71.56H27.17a6.24,6.24,0,0,0,.08-1.34,9.45,9.45,0,0,1,1.34-5.65,7.89,7.89,0,0,1,2.48-2.43c.44-.29.44-.29,2.35-1.38,1.51-.82,2.16-1.71,2.16-2.93,0-1.63-1.18-2.64-3.17-2.64a3.12,3.12,0,0,0-3,1.42,4.94,4.94,0,0,0-.65,2.68ZM36.35,74v9H26.76V74Z"/><path class="cls-8" d="M72.88,81.4H88v3.66c0,2,1.1,2.59,1.89,2.59,1.28,0,2.31-.85,3.48-2l8-8C102,77,103,76.1,103,75.14s-1-1.88-1.67-2.52l-8-8c-1.17-1.17-2.2-2-3.48-2-.79,0-1.89.6-1.89,2.59v3.66H72.88a1.26,1.26,0,0,0-1.24,1.25V80.15a1.26,1.26,0,0,0,1.24,1.25Z"/></svg>