<svg id="レイヤー_1" data-name="レイヤー 1" xmlns="http://www.w3.org/2000/svg" viewBox="0 0 225 123.18"><defs><style>.cls-1{fill:#f8cf95;}.cls-2{fill:#491e1e;}.cls-3{fill:#0d1414;}.cls-4{fill:#e4b174;}.cls-5{fill:#d0995f;}.cls-6{fill:#ffe2c3;}.cls-7{fill:#fff;}.cls-8{fill:#98a898;}.cls-9{fill:#d0e198;}.cls-10{fill:#6d3c3c;}.cls-11{fill:#456975;}</style></defs><title>method-3</title><path class="cls-1" d="M162.64,87.94c-1,15-12,19-34.5,24-18.6,4.14-34.5-10.74-34.5-24s15.45-24,34.5-24S163.52,74.72,162.64,87.94Z"/><path class="cls-2" d="M168.74,90.83a26.36,26.36,0,0,1,2.15,4.32c.87,1.94,2,3.88,2.81,5.83.65,1.29.65,2.8,1.51,4.1a31.19,31.19,0,0,1,1.73,2.8,70.05,70.05,0,0,0,5.39,7.77,6.3,6.3,0,0,0,2.59,1.51c1.3.43,1.73.43,2.16-1.08,1.08-5-.86-10.79-1.51-15.75a50.54,50.54,0,0,0-1.94-8.2c-.87-2.16-1.73-5.4-3.24-7.12a4.5,4.5,0,0,0-4.32-1.08c-1.08.21-2.16,1.72-3,2.37-.86.86-1.73,1.94-2.59,2.81-.43.43-1.29,1.08-1.29,1.51"/><path class="cls-3" d="M39.25,111.77c.44,0,1.3-2.81,1.51-3.24a23.7,23.7,0,0,1,1.73-4.1c1.08-2.59,2.37-5.4,2.37-8.2a12.2,12.2,0,0,0-3-.65,5.74,5.74,0,0,0-1.94,0c-.43.22-.43.22-.65.86-.64,2.81-.43,5.61-.64,8.42a39.82,39.82,0,0,0,.64,5,3,3,0,0,0,0,2"/><path class="cls-4" d="M72.92,52.64c2.8,2.59,8.63,1.72,12.3,1.94,4.53,0,7.34-1.73,11.44-2.81a116.6,116.6,0,0,1,11.87-2.59c1.51-.21,5.61-1.51,7.12-.64,1.94,1.07,1.94,4.1,2.37,6,.43,2.59,2.16,3.23,4.1,5a44.17,44.17,0,0,0,5,3.89c3.45,2.59,6.9,5.61,10.57,8.2C144.13,76.37,151,80,156.43,86.52c2.38,3,5.83,6,5.4,10.36-.22,3.23-4.53,6.68-7.77,6.25-2.37-.21-2.59-1.72-3.67-3.45a9.8,9.8,0,0,0-4.53-4.32c-3.24-1.72-7.12-4.53-10.57-6,1.29,3.24,5.18,5.18,7.76,7.34,3,2.59,6.48,3,6.26,7.77-.21,4.1-3.88,5.61-7.55,6.26-4.75.64-5.61-2.81-9.5-4.1a19.88,19.88,0,0,1,4.54,4.1c.86,1.94-.22,3.45-1.73,4.53-2.59,1.94-7.34,2.16-9.5-.65-.43,4.53-5.82,6.47-9.71,4.75-4.1-1.73-7.55-5-11.43-7.12-4.32-2.38-8.64-5-13-7.34-3.67-2.16-7.34-4.1-11-6.26-3.67-1.94-6.9-4.53-10.57-6.47-4.75-2.38-8.85-3.89-11-9.28A60.42,60.42,0,0,1,55.22,68,14.24,14.24,0,0,1,57,59.54c2.16-3.88,5.83-7.55,10.79-6.9"/><path class="cls-5" d="M87.16,104c-3.88.86-7.55,1.08-10.57-2a5.47,5.47,0,0,1-1.94-4.53c-.22-1.51.86-3.67,2.37-4.1,1.94-.65,3.67.22,5.18,1.3,1.94,1.29,2.59,3,3.88,5a4.42,4.42,0,0,0,1.73,1.73c.86.21.86-.65,1.51-1.3a4.61,4.61,0,0,1,5.39-1.29,6.89,6.89,0,0,1,4.11,3.67c.43,1.29.86,3.88.21,5.18,1.73-.44,3.24-1.08,5-.44a10.25,10.25,0,0,1,4.1,2.59c1.3,1.3,1.52,2.81,1.52,4.75,0,1.3-.44,1.3-1.52,1.73a9,9,0,0,1-3.45.86A7.33,7.33,0,0,1,99,115a7.14,7.14,0,0,1-1.51-5c-1.29,2.59-5.61,1.29-7.34-.22a10.72,10.72,0,0,1-1.72-2.59c-.65-1.29-.65-2.15-1.3-3.23"/><path class="cls-1" d="M100.54,110.47c-.21,1.3,2.59,2.59,3.45,3.24.44.43,1.51.86,1.08,1.72-.21.44-1.51.44-1.94.44-2.59,0-5.61-3.67-3-5.62"/><path class="cls-1" d="M90,102.49c.86,1.07,1.72,2.59,3.23,3.45.65.43,1.51.43,1.3,1.29,0,.65-.86,1.08-1.51,1.08-3.24,1.08-5.18-2.37-3.67-5.18"/><path class="cls-1" d="M75.94,98.39c.22,1.07,1.29,1.72,1.94,2.37.65.43,2.59,1.51,1.08,2.16-1.94.64-5-2.81-3.24-4.32"/><path class="cls-1" d="M156.87,55.44c-9.5,3-17.92-5.18-26.33-8-4.1-1.3-8-1.08-12.09-.44-3.88.65-9.06-.43-12.3,2.16-3.23,2.38-3.88,7.34-6.9,10.36-1.73,1.73-3.46,3-2,5.4,1.3,1.94,4.1,1.94,6,1.72a14,14,0,0,0,5-1.94c1.73-1.08,3.24-3.24,5.18-4.1,3.67-1.51,9.06,0,11.87,2.16C132.7,68,137.23,71.84,146.08,79c3.23,2.59,6.9,4.75,9.71,7.56,1.94,1.94,6,9.28,8.2,4.53.86-2.16.43-6,.43-8.2,0-3,.65-6,.43-9.07-.43-5.61-3.24-11.65-6.26-16.18"/><path class="cls-6" d="M100.54,58.46c.86,0,3,.43,2.81,1.51-.22.87-2.16,1.73-2.81,2.16s-3.45.86-2.8-.65c.21-.43,1.08-.86,1.29-1.29a10.61,10.61,0,0,1,1.51-1.73"/><path class="cls-4" d="M99,62.35c.43.43,1.3-.22,1.73-.43.64-.22,1.29-.65,1.94-.87A3.71,3.71,0,0,0,104,59.76a.4.4,0,0,0,0-.65l-.21-.22s.43,0,.43-.21-.86-.22-1.08-.22h-1.08c-.43,0-1.51-.43-1.72,0h.86c.21,0,.65.22.86.22.43.21,1.08.43,1.3.86s-.43,1.08-.65,1.3a13.91,13.91,0,0,1-1.73.86,6.63,6.63,0,0,1-1.94.65"/><path class="cls-5" d="M157.51,101.84c-2.59-.22-3.88,1.51-5.82-1.3a15.07,15.07,0,0,0-4.75-5c-3.89-2.37-8.2-3.88-12.09-6.26.44.43.44.65.87,1.08a19.19,19.19,0,0,1-2.59-1.94c-.87-.65-1.94-.86-2.81-1.51-.65-.65-.86-1.3-1.72-1.73-.65-.43-1.73,0-1.3-1.29a5.29,5.29,0,0,1,3.45,1.29c1.51,1.08,3.24,1.51,4.75,2.59a23,23,0,0,0,3.67,2.59c1.08.65,2.59,1.73,3.67,1.73a1.43,1.43,0,0,1,.86-1.51v1.94c1.51,0,2.38.65,3.89,1.08,1.29.43,1.72,1.29,2.8.65.87-.44,1.51-2.16,2.16-2.81.43-.43,1.51-1.94,2.37-1.73.22,1.08-.64.87-.86,1.51s-.22,1.51-.43,2.16c-.22,1.08-1.51,2.81-1.51,3.89,0,.64.65.64.65.86.21.43-.22.65,0,1.08.21.65.43,1.51.86,1.73,1.08.86,2.59.21,3.88.86"/><path class="cls-5" d="M148.23,106.8c-.64,2.16-5.61,3.67-7.55,3.67-1.51,0-2.16-.86-3.45-1.51s-3-1.29-4.32-1.94c.65.43,1.3,1.08,1.94,1.51-1.51-1.73-3.88-2.38-5.82-3.45a52.13,52.13,0,0,1-5.4-4.1A15.13,15.13,0,0,0,118,98.17c-.86-.22-2.37-.43-2.59-1.51-.21-.86.43-1.73.43-2.59,2.16-.43,2.16,1.51,3.46,2.59.64.43,1.72.43,2.37.86a19.11,19.11,0,0,1,1.94,2.16c1.94,1.73,4.75,4.32,7.34,5.4a29.34,29.34,0,0,0,4.53,1.51,21.81,21.81,0,0,1,3.89,1.72,6,6,0,0,0,3.88.43,28.15,28.15,0,0,0,4.1-1.07c.43-.22.65,0,.86-.22"/><path class="cls-5" d="M110,115.22c4.1,1.72,9.71,7.34,13.59,2.16.65-.87.65-3.24,1.94-3,.22,0,1.08,1.29,1.52,1.29a7.59,7.59,0,0,0,2.37.43c1.51.22,2.8.22,3.88-.65.65-.43,1.95-1.51,1.95-2.15-1.3.43-2.16,1.29-3.67,1.51a9.71,9.71,0,0,1-4.32-.22,12.6,12.6,0,0,1-3.67-1.29,21.08,21.08,0,0,1-3.67-2.16c-2.59-1.94-5.82-3-8.2-5-1.29-1.07-3.88-5.17-5.61-5-.43,1.73-.21,2.37,1.3,3.45l3.88,2.59c3.24,1.73,6.48,3.24,9.5,5.18,1.29.87,2.8,1.3,2.59,3.24-.22,1.73-1.73,2.37-3.46,2.16-3.23-.22-6.47-2.16-9.49-2.81h-.22"/><path class="cls-7" d="M51.34,45.3c8.63,2.16,17.48,5,25.68,7.55-1.51,1.94-1.73,5.61-2.16,8-.43,2.8-.65,5.61-1.08,8.41-.86,5.4-1.72,10.79-3,16.19A53.2,53.2,0,0,1,65.37,101c-2.81,5-9.72,3.88-14.89,3.88-3.89,0-6.69-1.3-10.15-2.59-1.08-.43-4.53-.86-5.18-1.51-.86-.86-.21-3.88-.21-5,0-3.46.21-6.91.21-10.36.22-10.36,2.38-19.86,5.18-29.78A14.41,14.41,0,0,1,47,46.59"/><ellipse class="cls-8" cx="51.34" cy="96.22" rx="4.1" ry="4.53" transform="translate(-45.77 145.87) rotate(-89)"/><path class="cls-9" d="M148.67,54.79a77.16,77.16,0,0,1,6.25,13.6c2.16,6,5.4,12.08,6.91,18.13a33.52,33.52,0,0,0,1.73,6.69c.86,1.51-.22,1.08,1.51,1.72,1.08.43,2.59,0,3.67-.21,2.58-.43,5.39-1.51,7.76-2.16,1.95-.43,6.69-.86,7.34-2.81.65-1.72-2.37-6.47-3-8a97.1,97.1,0,0,1-4.32-11c-1.72-4.53-4.31-8.41-6.47-12.73-.86-1.73-1.73-4.75-3-6-1.73-1.51-3-.43-5.18.21a54.11,54.11,0,0,1-13.16,2.16"/><path class="cls-10" d="M159,52.42c3.46,3.45,5.61,9.5,7.34,14,2.38,5.61,4.32,11.43,7.34,17,3.24,6,4.1,13.16,6.26,19.42,1.72,5,4.1,9.92,6.26,14.67a49.05,49.05,0,0,1,9.06-4.1c2.37-.65,5.39-1.08,7.77-2.37,4.53-2.59,5-11.66,5.39-16.62.65-12.08,0-23.09-6.47-33.23a51.53,51.53,0,0,0-8.2-9.93c-2.16-2.16-5.83-6.69-9.07-7.12-3.66-.43-8.63,2.37-12.3,3.24-4.53,1.08-8.63,3.23-12.94,4.74"/><path class="cls-11" d="M58,46.16c-7.34,9.71-10.58,23.52-14,35.18-1.73,5.82-3.24,11.22-3.67,17.26-.21,4.53-1.08,8.85-1.29,13.6-1.3-.22-1.73-1.3-2.81-2.16-2.16-1.51-4.53-2.16-6.9-3.24-3.24-1.29-6.48-2.59-9.5-3.88C16,101.41,16,99.25,15.3,95.36A110.48,110.48,0,0,1,14.22,83.5C13.79,68,14.87,58,25.87,45.3c1.51-1.73,5.4-4.75,7.56-5.18,1.94-.43,9.92,1.94,11.87,2.37A95.68,95.68,0,0,1,58,46.16"/></svg>