<svg id="レイヤー_1" data-name="レイヤー 1" xmlns="http://www.w3.org/2000/svg" viewBox="0 0 2146.65 114.85"><defs><style>.cls-1{fill:#1e35a8;}.cls-2{fill:#444;}</style></defs><title>mobile-logo</title><path class="cls-1" d="M152,3.92,130.47,50.28h0l-28.35,61,3.66.08,1.58-3.42,4.43-9.55H149l4.42,9.55,1.4,3.26,3.82.08h43ZM114.89,91.75l15.57-33.52L146,91.75Z"/><polygon class="cls-1" points="256.29 105.65 256.29 3.85 209.19 3.85 209.19 111.4 256.29 111.4 309.11 111.4 309.11 105.65 256.29 105.65"/><path class="cls-1" d="M55.15,106.63a50.54,50.54,0,0,1-5.25-.28V8.5a47.92,47.92,0,0,1,5.25-.28A49.18,49.18,0,0,1,94.56,28l3.94-1.1c-.42-.59-.85-1.18-1.29-1.75A52.93,52.93,0,0,0,55.15,4.4c-1.77,0-3.52.09-5.25.26a53,53,0,0,0,0,105.53c1.73.17,3.48.26,5.25.26A53,53,0,0,0,98.45,88l-3.94-1.1A49.18,49.18,0,0,1,55.15,106.63Z"/><path class="cls-2" d="M903.86,107.44c.11-1.94.11-4,.11-6.28H850c-4.61,0-11.36.36-15.26.72V84.62c4.14.36,9.46.72,14.79.72h54.54v-50H851c-5,0-11.36.25-14.67.49V19.07c4.37.48,10.53.72,14.67.72h59.51c3.43,0,8.4-.12,10.42-.24-.12,2.78-.36,7.61-.36,11.11V93.19c0,4.23.24,10.62.47,14.25Z"/><path class="cls-2" d="M990.35,77.62c20.11-12.19,35.61-30.67,43.07-47l9.23,17c-9,16.3-24.73,33-43.78,44.67a126.78,126.78,0,0,1-43.9,17L945,93.43A120.31,120.31,0,0,0,990.35,77.62Zm0-39.12L978.28,51.18c-6.15-6.76-20.94-19.92-29.58-26.08L959.82,13C968.1,18.71,983.49,31.26,990.35,38.5Z"/><path class="cls-2" d="M1077.67,47.56c14-3.5,30.41-8.81,40.94-13.4A70.07,70.07,0,0,0,1130,28.6a14.85,14.85,0,0,1-3.44-9.53,14.14,14.14,0,1,1,28.28,0,14.38,14.38,0,0,1-14.19,14.48,13.41,13.41,0,0,1-7.58-2.29L1137.89,43c-4.61,1.93-9.93,4.23-13.84,5.67a401.7,401.7,0,0,1-46.38,14.73V85.71c0,5.19,2.37,6.52,7.69,7.6a108.92,108.92,0,0,0,13.73.73c12.3,0,31.47-1.57,41.17-4.23v17.63c-11.12,1.69-29.11,2.53-42.12,2.53a126.77,126.77,0,0,1-19.88-1.45c-10.29-1.81-16.21-7.6-16.21-18V24.74a102,102,0,0,0-1-12.55h17.52a92.51,92.51,0,0,0-.95,12.55Zm69.81-28.49a6.81,6.81,0,1,0-6.86,7A6.93,6.93,0,0,0,1147.48,19.07Z"/><path class="cls-2" d="M1239.06,91.62c3.08,0,8.52-.12,11.6-.48v15.57c-2.37-.12-8.17-.36-11.25-.36h-62.35c-4.26,0-7.22.12-11.71.36V91a112,112,0,0,0,11.71.6h38.34c1.65-10.26,4.26-27.4,4.61-34.16h-32c-3.78,0-8.4.36-11.83.6V42.12c3.08.37,8.52.73,11.72.73h30.29c2.48,0,7.33-.48,8.87-1.33l11.36,5.68a33.5,33.5,0,0,0-1.18,5.07c-1,7.12-4,27.88-5.8,39.35Z"/><path class="cls-2" d="M1267.22,48.89c4.26.36,12.9.72,19,.72h63.54c5.44,0,10.76-.48,13.84-.72v19c-2.84-.12-8.87-.6-13.84-.6h-63.54c-6.75,0-14.67.24-19,.6Z"/><path class="cls-2" d="M1475.82,27.76a57.72,57.72,0,0,0-3.91,8.57,140.09,140.09,0,0,1-16.32,33.08c4.37,2.78,8.39,5.55,11.35,7.72l-10.76,14.13a136.44,136.44,0,0,0-11-8.57,112.91,112.91,0,0,1-43.66,30.06l-13.72-12.19c20.94-6.52,34.31-16.79,44.13-27-8.05-5.31-16.09-10.26-22.13-13.76l10.06-11.47c6.27,3.26,14.32,7.85,22.25,12.68,5.79-8.57,10.53-18.47,12.3-25.72h-34c-8.28,11.23-19.28,22.82-31.23,31.15l-12.78-10a109.65,109.65,0,0,0,37.74-40.08,54,54,0,0,0,5.33-12.68l17.15,5.44c-2.84,4.22-5.91,9.78-7.33,12.31l-.12.12h24.25a36.7,36.7,0,0,0,10.3-1.33Z"/><path class="cls-2" d="M1589.52,23.05a60.36,60.36,0,0,0-4.61,6.28c-5.56,9.42-16.8,24.63-28.52,33.08l-12.18-10c9.46-5.92,18.69-16.54,21.77-22.46h-61.65c-5,0-8.87.36-14.43.85V14a92.38,92.38,0,0,0,14.43,1.2h63.78c3.31,0,9.82-.36,12-1.08Zm-48.27,16.3c0,29.94-.59,54.57-32.9,72.19l-13.72-11.47a46.29,46.29,0,0,0,12.42-6.64c15-10.62,17.87-23.42,17.87-43.22a68.38,68.38,0,0,0-.83-10.86Z"/><path class="cls-2" d="M1631.41,43.21C1647.15,48,1670,56.61,1680.87,62l-6.63,16.78c-12.3-6.63-30-13.64-42.83-18V95c0,3.38.59,11.83,1.18,16.78H1614A133.31,133.31,0,0,0,1615.2,95V25.59A86.63,86.63,0,0,0,1614,11h18.45a134.75,134.75,0,0,0-1.06,14.61Zm31.47-5.31a98.64,98.64,0,0,0-10.41-18.59l9.94-4.35c3.31,5.07,8,12.8,10.77,18.23Zm16.21-6.76a112.81,112.81,0,0,0-11-18.11l9.82-4.71A160.7,160.7,0,0,1,1689,26.19Z"/><path class="cls-2" d="M1728,21.36,1745.24,25c-1.07,3.5-2.37,9.42-2.85,12.08a305.39,305.39,0,0,1-10.05,36.33c-4.26,11.71-11.24,25.48-17.51,34.53l-16.57-7.12a146.06,146.06,0,0,0,18.46-33.56A177.16,177.16,0,0,0,1728,21.36ZM1758,25l15.74-5.19c4.85,9.3,13,27.89,17.39,39.6,4.26,10.86,10.53,30.18,13.85,42.13l-17.52,5.8a378.7,378.7,0,0,0-12.3-42.62C1770.67,52,1763,34.16,1758,25Zm37.63,0-9.47,4.23c-2.48-4.95-6-12.2-9.23-16.78l9.35-4C1789.25,12.91,1793.39,20.52,1795.64,25Zm14.2-5.55-9.47,4.22A129,129,0,0,0,1790.91,7l9.34-4A188.62,188.62,0,0,1,1809.84,19.43Z"/><path class="cls-2" d="M1882.13,94.28c0,5.31.24,12.79,1.07,15.81h-18.7a136.17,136.17,0,0,0,.83-15.81V54.68a228.45,228.45,0,0,1-40.7,16.42l-8.52-14.73a179.79,179.79,0,0,0,53.83-21.85c12-7.61,24.26-18.35,30.89-27.28L1913.49,19a194.58,194.58,0,0,1-31.36,26Z"/><path class="cls-2" d="M2014.41,34.52a66.06,66.06,0,0,0,13-1V49.61c-2.61-.24-6.75-.36-12.9-.36h-8.87v4c0,29.94-7,48.17-35.62,61.09l-12.66-12.2c22.84-8.2,32.89-18.59,32.89-48.28V49.25h-28V65.67c0,5.43.36,10.26.48,12.67h-16.57a98.51,98.51,0,0,0,.71-12.67V49.25h-10.06c-5.91,0-10.17.24-12.77.48V33.31a73.21,73.21,0,0,0,12.77,1.21h10.06V22.45a99.34,99.34,0,0,0-.71-10.87h16.8a100,100,0,0,0-.71,11v12h28V21.72a78.76,78.76,0,0,0-.7-11.1h16.91a76.38,76.38,0,0,0-.82,11.1v12.8Zm-.47-4.47a164.86,164.86,0,0,0-6-16.54l7.92-2.65a123.43,123.43,0,0,1,6.27,16.54Zm12.42-4A108.32,108.32,0,0,0,2020,9.65L2028,7c2.25,4.83,5,11.84,6.51,16.42Z"/><path class="cls-2" d="M2045.06,48.89c4.26.36,12.9.72,19.05.72h63.54c5.44,0,10.76-.48,13.84-.72v19c-2.84-.12-8.87-.6-13.84-.6h-63.54c-6.75,0-14.67.24-19.05.6Z"/><path class="cls-2" d="M390.59,71.27c-1.3-3.38-3.55-8.57-5.91-13.64v55.53H371V66.32c-3.19,10-7,19-11.12,25.23a87.9,87.9,0,0,0-6.63-14.48c7.1-9.3,13.49-26.32,16.92-40.81H355.57V23H371V.53h13.73V23h13.49V36.26H384.68v3.5c3.43,4.47,12.07,18.35,14,21.85Zm54.78-7.48c5.21,12.31,13.49,24.62,21.9,31.87a60,60,0,0,0-10.18,11.23c-6.86-7.25-13.25-18.48-18.22-30.55v36.82H425V77.43c-6.5,12.43-14.79,23.3-24.25,30.3a68.94,68.94,0,0,0-9.47-11c11.13-6.88,21.18-19.55,27.34-32.95H399.11V50.87H425V34.33H414a72.55,72.55,0,0,1-7,14.61,73.18,73.18,0,0,0-11-7.12C402,33.36,405.38,20,407.16,6.44l12.89,2.3c-.71,4.34-1.41,8.57-2.36,12.67H425V.65h13.85V21.41H461V34.33H438.87V50.87H464V63.79Z"/><path class="cls-2" d="M548.9,35.06c2.49,35.25,9.71,63.13,18.34,63.13,2.49,0,3.91-6.4,4.5-21.73a37.64,37.64,0,0,0,12.31,8.45c-2.13,22.82-6.87,28.37-18.11,28.37-20.23,0-29.1-35.73-31.94-78.22H475.19v-14h58.1c-.24-6.52-.36-13.28-.36-19.92h15.15c-.12,6.64-.12,13.4.11,19.92h18.7c-3.2-4.1-9.11-9-13.84-12.67L562.39.53c5.33,3.74,12.31,9.41,15.5,13.4l-8,7.12H581v14Zm-37.38,54.2c7.21-1.33,14.79-2.78,22-4.23l1.07,12.8c-19.41,4.35-40.23,8.81-55.49,12.07l-3.91-14.48c6-1,13.85-2.18,22.36-3.63V62.7H479.69V48.82h50.76V62.7H511.52Z"/><path class="cls-2" d="M618.71,41.09a135.81,135.81,0,0,1-20,12.07,56.25,56.25,0,0,0-8.29-12.07C610.67,32,629.36,14.89,638.24.65h14.67A108.39,108.39,0,0,0,703,38.92c-3.55,3.74-6.63,8.93-9.11,13.16A143.17,143.17,0,0,1,674,40.37V49.9H618.71ZM597.77,59.92h97.85V73.2h-53c-3.43,7.13-7.33,14.61-10.88,21.37,11.36-.36,23.54-.84,35.61-1.33a144.24,144.24,0,0,0-11.59-12.31l12.42-6.64c10.53,9.42,21.53,22,27.1,31l-13.14,8.08a64.74,64.74,0,0,0-4.73-7.48c-27.81,1.57-57,2.78-77.15,3.74l-1.89-14,17.87-.61a233.51,233.51,0,0,0,9-21.85H597.77Zm71.11-23.17c-9.11-7-17.27-14.85-22.72-22.34-5.08,7.37-12.66,15.21-21.65,22.34Z"/><path class="cls-2" d="M753.12,80.45c-2.48-3.38-6.5-8.21-10.53-12.68v45.51h-14V71.63A97.24,97.24,0,0,1,714,83.22c-1.18-3.86-4.5-10.86-6.63-13.64,12.9-7.12,25.32-19.8,33.13-33.8H711.83V22.86h16.8V.65h14V22.86h5.33l2.48-.6,7.93,5.19a117.79,117.79,0,0,1-14,25.83c5.68,4.71,14.79,13,17.27,15.46Zm67.8,15.33v14H754v-14h27.33V51.59H758.8V37.71h22.48V1.61h14.44v36.1h22.36V51.59H795.72V95.78Z"/></svg>