<svg id="レイヤー_1" data-name="レイヤー 1" xmlns="http://www.w3.org/2000/svg" viewBox="0 0 2146.65 114.85"><defs><style>.cls-1{fill:#1e35a8;}.cls-2{fill:#444;}</style></defs><title>mobile-logo</title><path class="cls-1" d="M152,3.92,130.47,50.28h0l-28.35,61,3.66.08,1.58-3.42,4.43-9.55H149l4.42,9.55,1.4,3.26,3.82.08h43ZM114.89,91.75l15.57-33.52L146,91.75Z"/><polygon class="cls-1" points="256.29 105.65 256.29 3.85 209.19 3.85 209.19 111.4 256.29 111.4 309.11 111.4 309.11 105.65 256.29 105.65"/><path class="cls-1" d="M55.15,106.63a50.54,50.54,0,0,1-5.25-.28V8.5a47.92,47.92,0,0,1,5.25-.28A49.18,49.18,0,0,1,94.56,28l3.94-1.1c-.42-.59-.85-1.18-1.29-1.75A52.93,52.93,0,0,0,55.15,4.4c-1.77,0-3.52.09-5.25.26a53,53,0,0,0,0,105.53c1.73.17,3.48.26,5.25.26A53,53,0,0,0,98.45,88l-3.94-1.1A49.18,49.18,0,0,1,55.15,106.63Z"/><path class="cls-2" d="M423.75,106.09c.12-1.93.12-4,.12-6.28H369.92c-4.61,0-11.36.37-15.26.73V83.27c4.14.37,9.46.73,14.79.73H424V34H370.87c-5,0-11.36.24-14.68.48V17.72c4.38.48,10.53.73,14.68.73h59.51c3.43,0,8.4-.12,10.41-.25-.11,2.78-.35,7.61-.35,11.11V91.85c0,4.22.24,10.62.47,14.24Z"/><path class="cls-2" d="M510.25,76.27c20.11-12.19,35.61-30.66,43.07-47l9.22,17c-9,16.3-24.72,33-43.77,44.67a126.58,126.58,0,0,1-43.9,17l-9.94-15.93A120.48,120.48,0,0,0,510.25,76.27Zm0-39.11L498.18,49.83C492,43.07,477.24,29.92,468.6,23.76l11.12-12.07C488,17.36,503.38,29.92,510.25,37.16Z"/><path class="cls-2" d="M597.57,46.21c14-3.5,30.41-8.81,40.94-13.4a70.33,70.33,0,0,0,11.35-5.55,15,15,0,0,1-3.43-9.54,14.14,14.14,0,1,1,28.28,0,14.39,14.39,0,0,1-14.2,14.49,13.45,13.45,0,0,1-7.57-2.29l4.85,11.71c-4.61,1.93-9.94,4.22-13.84,5.67A403.65,403.65,0,0,1,597.57,62V84.36c0,5.19,2.36,6.52,7.69,7.61a109.09,109.09,0,0,0,13.72.72c12.31,0,31.48-1.57,41.18-4.22v17.62c-11.12,1.69-29.11,2.54-42.12,2.54a128,128,0,0,1-19.88-1.45c-10.29-1.81-16.21-7.61-16.21-18V23.4a102,102,0,0,0-1-12.56h17.51a94.23,94.23,0,0,0-.94,12.56Zm69.81-28.49a6.81,6.81,0,1,0-6.87,7A6.94,6.94,0,0,0,667.38,17.72Z"/><path class="cls-2" d="M759,90.28c3.07,0,8.52-.12,11.59-.49v15.58c-2.36-.12-8.16-.37-11.24-.37H697c-4.26,0-7.22.13-11.72.37V89.67a112.11,112.11,0,0,0,11.72.61h38.33C737,80,739.55,62.87,739.91,56.11H708c-3.78,0-8.4.36-11.83.61V40.78c3.08.36,8.52.72,11.71.72h30.29c2.49,0,7.34-.48,8.88-1.32l11.36,5.67a33.63,33.63,0,0,0-1.19,5.07c-.94,7.12-4,27.89-5.79,39.36Z"/><path class="cls-2" d="M787.12,47.54c4.26.36,12.89.73,19,.73H869.7c5.45,0,10.77-.49,13.85-.73V66.49c-2.84-.12-8.88-.6-13.85-.6H806.17c-6.75,0-14.67.24-19,.6Z"/><path class="cls-2" d="M995.72,26.41A57.31,57.31,0,0,0,991.81,35a140.3,140.3,0,0,1-16.33,33.07c4.38,2.78,8.4,5.56,11.36,7.73L976.07,89.91a138.38,138.38,0,0,0-11-8.57,112.8,112.8,0,0,1-43.66,30.06L907.69,99.21c20.94-6.52,34.31-16.78,44.13-27-8.05-5.31-16.09-10.26-22.13-13.76l10.06-11.47C946,50.2,954.07,54.78,962,59.61c5.8-8.57,10.53-18.47,12.31-25.71h-34c-8.28,11.23-19.28,22.82-31.23,31.15L896.33,55A109.74,109.74,0,0,0,934.07,15,54.16,54.16,0,0,0,939.4,2.27L956.55,7.7c-2.84,4.23-5.91,9.78-7.33,12.32l-.12.12h24.25a37.12,37.12,0,0,0,10.3-1.33Z"/><path class="cls-2" d="M1109.42,21.71a60.23,60.23,0,0,0-4.61,6.27c-5.57,9.42-16.81,24.63-28.52,33.08L1064.1,51c9.47-5.91,18.7-16.54,21.78-22.45h-61.65c-5,0-8.87.36-14.43.84V12.65a91.17,91.17,0,0,0,14.43,1.21H1088c3.32,0,9.83-.36,12-1.09ZM1061.15,38c0,29.94-.59,54.57-32.9,72.2l-13.72-11.47A46.58,46.58,0,0,0,1027,92.09c15-10.63,17.87-23.42,17.87-43.22A68.59,68.59,0,0,0,1044,38Z"/><path class="cls-2" d="M1151.31,41.87c15.73,4.83,38.57,13.4,49.46,18.83l-6.63,16.78c-12.31-6.64-30.05-13.64-42.83-18V93.66c0,3.38.59,11.83,1.18,16.78h-18.57a133.44,133.44,0,0,0,1.18-16.78V24.24a87.77,87.77,0,0,0-1.18-14.61h18.45a134.94,134.94,0,0,0-1.06,14.61Zm31.47-5.32A99,99,0,0,0,1172.37,18l9.94-4.34c3.31,5.07,8,12.79,10.76,18.23ZM1199,29.79a113.42,113.42,0,0,0-11-18.1L1197.81,7a160.57,160.57,0,0,1,11.12,17.86Z"/><path class="cls-2" d="M1247.86,20l17.27,3.62c-1.06,3.5-2.36,9.41-2.84,12.07a306,306,0,0,1-10,36.34,167.15,167.15,0,0,1-17.52,34.52l-16.56-7.12a146.44,146.44,0,0,0,18.46-33.56A177,177,0,0,0,1247.86,20Zm30.05,3.62,15.74-5.19c4.85,9.29,13,27.88,17.39,39.59,4.26,10.87,10.53,30.18,13.85,42.14L1307.37,106a377.92,377.92,0,0,0-12.3-42.61C1290.57,50.68,1282.88,32.81,1277.91,23.64Zm37.63,0-9.47,4.22c-2.48-4.95-6-12.19-9.23-16.78l9.35-4C1309.15,11.57,1313.29,19.17,1315.54,23.64Zm14.2-5.56-9.47,4.23a127.86,127.86,0,0,0-9.47-16.66l9.35-4A188.51,188.51,0,0,1,1329.74,18.08Z"/><path class="cls-2" d="M1402,92.93c0,5.31.24,12.8,1.06,15.82H1384.4a138.78,138.78,0,0,0,.83-15.82V53.33a228.45,228.45,0,0,1-40.7,16.42L1336,55a179.79,179.79,0,0,0,53.83-21.86c12-7.6,24.26-18.35,30.88-27.28l12.66,11.71a194.11,194.11,0,0,1-31.35,26Z"/><path class="cls-2" d="M1534.31,33.17a67,67,0,0,0,13-1V48.27c-2.61-.25-6.75-.37-12.9-.37h-8.87v4c0,29.94-7,48.17-35.62,61.08l-12.66-12.19c22.84-8.21,32.89-18.59,32.89-48.29V47.9h-28V64.32c0,5.43.36,10.26.48,12.68H1466a98.82,98.82,0,0,0,.71-12.68V47.9h-10.06c-5.91,0-10.17.24-12.78.49V32a73.64,73.64,0,0,0,12.78,1.2h10.06V21.1a98.93,98.93,0,0,0-.71-10.86h16.8a99.63,99.63,0,0,0-.71,11v12h28V20.38a77.2,77.2,0,0,0-.71-11.11h16.92a76.67,76.67,0,0,0-.82,11.11V33.17Zm-.47-4.46a162.49,162.49,0,0,0-6-16.54l7.93-2.66A123.43,123.43,0,0,1,1542,26.05Zm12.42-4a108.85,108.85,0,0,0-6.39-16.41l8.05-2.66c2.25,4.83,5,11.83,6.5,16.42Z"/><path class="cls-2" d="M1565,47.54c4.26.36,12.89.73,19,.73h63.53c5.45,0,10.77-.49,13.85-.73V66.49c-2.84-.12-8.88-.6-13.85-.6H1584c-6.75,0-14.67.24-19,.6Z"/><path class="cls-2" d="M1710.49,71.93c-1.3-3.38-3.55-8.57-5.91-13.64v55.53h-13.73V67c-3.19,10-7,19-11.12,25.23a87.62,87.62,0,0,0-6.63-14.49c7.1-9.29,13.49-26.32,16.92-40.8h-14.55V23.64h15.38V1.18h13.73V23.64h13.48V36.92h-13.48v3.5c3.43,4.46,12.06,18.35,14,21.85Zm54.78-7.49c5.21,12.32,13.49,24.63,21.89,31.87A60.58,60.58,0,0,0,1777,107.54c-6.86-7.24-13.26-18.47-18.22-30.54v36.82h-13.85V78.08c-6.51,12.44-14.79,23.3-24.25,30.3a69.31,69.31,0,0,0-9.47-11c11.12-6.88,21.18-19.56,27.33-33H1719V51.52h25.91V35h-11a72.19,72.19,0,0,1-7,14.6,72.79,72.79,0,0,0-11-7.12c5.92-8.45,9.35-21.85,11.13-35.37L1740,9.39c-.71,4.35-1.42,8.57-2.36,12.68h7.33V1.3h13.85V22.07h22.12V35h-22.12V51.52h25.08V64.44Z"/><path class="cls-2" d="M1868.8,35.71c2.49,35.25,9.71,63.14,18.34,63.14,2.49,0,3.91-6.4,4.5-21.73A37.53,37.53,0,0,0,1904,85.57c-2.14,22.81-6.87,28.37-18.11,28.37-20.23,0-29.11-35.74-31.94-78.23h-58.81v-14h58.1c-.24-6.52-.36-13.28-.36-19.92H1868c-.12,6.64-.12,13.4.11,19.92h18.7c-3.2-4.11-9.11-9.06-13.85-12.68l9.35-7.85c5.33,3.75,12.31,9.42,15.5,13.4l-8,7.13h11.12v14Zm-37.39,54.2c7.22-1.32,14.79-2.77,22-4.22l1.07,12.8c-19.41,4.34-40.23,8.81-55.5,12.07l-3.9-14.49c6-1,13.84-2.17,22.36-3.62V63.36h-17.86V49.47h50.75V63.36h-18.93Z"/><path class="cls-2" d="M1938.61,41.75a136.25,136.25,0,0,1-20,12.07,55.59,55.59,0,0,0-8.28-12.07c20.24-9.06,38.93-26.2,47.8-40.45h14.68a108.39,108.39,0,0,0,50,38.27c-3.56,3.75-6.63,8.94-9.12,13.16A142.09,142.09,0,0,1,1993.87,41v9.54h-55.26Zm-20.94,18.83h97.85V73.86h-53c-3.43,7.12-7.33,14.61-10.88,21.37,11.35-.37,23.54-.85,35.61-1.33a144.4,144.4,0,0,0-11.59-12.32L1988.07,75c10.53,9.41,21.53,22,27.09,31L2002,114.06a64.8,64.8,0,0,0-4.73-7.49c-27.81,1.57-57,2.78-77.15,3.75l-1.89-14,17.87-.6c3.19-6.76,6.5-14.73,9-21.85h-27.45Zm71.11-23.18c-9.11-7-17.28-14.85-22.72-22.33-5.09,7.36-12.66,15.21-21.65,22.33Z"/><path class="cls-2" d="M2073,81.1c-2.48-3.38-6.51-8.21-10.53-12.67v45.51h-14V72.29a97.87,97.87,0,0,1-14.67,11.59c-1.18-3.87-4.5-10.87-6.63-13.64,12.9-7.13,25.32-19.8,33.13-33.81h-28.63V23.52h16.8V1.3h14V23.52h5.33l2.48-.61,7.93,5.19a117.86,117.86,0,0,1-14,25.84c5.68,4.71,14.79,13,17.27,15.45Zm67.8,15.33v14h-67v-14h27.33V52.25H2078.7V38.37h22.48V2.27h14.44v36.1H2138V52.25h-22.36V96.43Z"/></svg>