<svg id="レイヤー_1" data-name="レイヤー 1" xmlns="http://www.w3.org/2000/svg" viewBox="0 0 180 180"><defs><style>.cls-1{fill:#d1d2d3;}.cls-2{fill:#e0e1e2;}.cls-3{fill:#d9e2e2;}.cls-4{fill:#6f92e2;}.cls-5{fill:#df2c2c;}</style></defs><title>recruit-process-4</title><path id="_パス_" data-name="&lt;パス&gt;" class="cls-1" d="M88.66,83.23A89.86,89.86,0,0,0,72.1,104.77c-2.39,4.44-4.37,9.21-4.74,14.23a11.54,11.54,0,0,0,.68,5.5c1.26,2.9,4.34,4.74,7.48,5.26a20.1,20.1,0,0,0,9.38-1.16,65,65,0,0,0,18.44-10,104,104,0,0,0,20.55-20.25A65,65,0,0,0,134,80.53a21.43,21.43,0,0,0,1.47-9.15,10.07,10.07,0,0,0-4.57-7.75c-2.73-1.57-6.18-1.36-9.25-.71-11.85,2.49-22.36,10.31-31,18.43C90,82,89.31,82.61,88.66,83.23Z"/><path id="_パス_2" data-name="&lt;パス&gt;" class="cls-2" d="M90.54,85.11a76.52,76.52,0,0,0-14.17,18.43,31.13,31.13,0,0,0-4.06,12.19,9.89,9.89,0,0,0,.58,4.71,8.36,8.36,0,0,0,6.38,4.5,17.33,17.33,0,0,0,8-1,55.21,55.21,0,0,0,15.77-8.53,88.77,88.77,0,0,0,17.59-17.31,57,57,0,0,0,8.67-15.26A18.24,18.24,0,0,0,130.58,75a8.55,8.55,0,0,0-3.93-6.63c-2.35-1.36-5.25-1.16-7.92-.61C108.59,70,99.62,76.64,92.18,83.57,91.63,84.05,91.08,84.59,90.54,85.11Z"/><path id="_パス_3" data-name="&lt;パス&gt;" class="cls-3" d="M114.09,109.1a98.5,98.5,0,0,1-8.43,7.45L111.09,146l16.18,7.34-9-48.67C117,106.17,115.59,107.64,114.09,109.1Z"/><path id="_パス_4" data-name="&lt;パス&gt;" class="cls-3" d="M75.18,129.69l14.13,6.42-1.61-8.74C82.92,129.31,78.62,130.13,75.18,129.69Z"/><path id="_パス_5" data-name="&lt;パス&gt;" class="cls-3" d="M135.36,70.53a23.19,23.19,0,0,1-1.54,9.9l15.26,82.81,16.18,7.34-9.93-54Z"/><path id="_パス_6" data-name="&lt;パス&gt;" class="cls-4" d="M87.7,127.37l1.61,8.74L111.09,146l-5.43-29.45A73.7,73.7,0,0,1,87.7,127.37Z"/><path id="_パス_7" data-name="&lt;パス&gt;" class="cls-5" d="M118.32,104.67l9,48.67,21.78,9.9L133.79,80.43C131.3,87.7,125.9,96.34,118.32,104.67Z"/><path id="_パス_8" data-name="&lt;パス&gt;" class="cls-4" d="M177.62,168.06l-22.29-51.41,10,54,6.69,3A4.26,4.26,0,0,0,177.62,168.06Z"/><path id="_パス_9" data-name="&lt;パス&gt;" class="cls-4" d="M64.59,54.25,85.38,78.72l-24.1-21.2a2.33,2.33,0,0,1-.1-3.41h0A2.32,2.32,0,0,1,64.59,54.25Z"/><path id="_パス_10" data-name="&lt;パス&gt;" class="cls-4" d="M31.72,92.14l29.36,13-30.93-8.6a2.33,2.33,0,0,1-1.57-3h0A2.34,2.34,0,0,1,31.72,92.14Z"/><path id="_パス_11" data-name="&lt;パス&gt;" class="cls-4" d="M106,28.2l5.09,31.68-9.66-30.62a2.33,2.33,0,0,1,1.7-3h0A2.34,2.34,0,0,1,106,28.2Z"/><path id="_パス_12" data-name="&lt;パス&gt;" class="cls-5" d="M75.89,17.14,98.73,65.61,71.63,19.39a2.32,2.32,0,0,1,.92-3.24l.13-.07A2.31,2.31,0,0,1,75.89,17.14Z"/><path id="_パス_13" data-name="&lt;パス&gt;" class="cls-5" d="M25.23,66.23l47.39,25L23.19,70.6A2.35,2.35,0,0,1,22,67.46l.07-.14A2.33,2.33,0,0,1,25.23,66.23Z"/><polygon id="_パス_14" data-name="&lt;パス&gt;" class="cls-4" points="27.73 32.37 32.98 34.21 37.49 30.9 37.35 36.46 41.89 39.7 36.53 41.34 34.86 46.63 31.69 42.06 26.12 42.09 29.47 37.66 27.73 32.37"/><polygon id="_パス_15" data-name="&lt;パス&gt;" class="cls-4" points="36.77 118.01 39.02 118.83 41.01 117.4 40.94 119.82 42.92 121.22 40.6 121.91 39.84 124.23 38.48 122.25 36.06 122.25 37.52 120.33 36.77 118.01"/><polygon id="_パス_16" data-name="&lt;パス&gt;" class="cls-5" points="56.02 20.14 58.31 20.93 60.26 19.53 60.19 21.92 62.17 23.35 59.85 24.04 59.1 26.36 57.73 24.34 55.31 24.38 56.78 22.43 56.02 20.14"/><path class="cls-5" d="M19.23,82.41l-4,1.23-1.3,4-2.39-3.45H7.31l2.56-3.34-1.33-4,4,1.4,3.38-2.49-.1,4.2Zm-10.38,1h3.07L13.66,86,14.58,83l2.94-.88L15,80.33l.07-3.08-2.5,1.81L9.7,78l1,2.94Z"/><path class="cls-4" d="M89.41,21.1l-3.14-4.54-5.5,0,3.35-4.4L82.38,7l5.19,1.81L92,5.53,91.9,11l4.47,3.21-5.29,1.6Zm1.06-5.84L94.67,14l-3.55-2.56.1-4.37L87.7,9.66,83.57,8.23l1.37,4.17-2.66,3.48,4.37,0,2.49,3.59Z"/><polygon id="_パス_17" data-name="&lt;パス&gt;" class="cls-4" points="53.91 68.69 55.55 69.27 56.95 68.24 56.91 69.95 58.28 70.97 56.64 71.45 56.13 73.09 55.14 71.69 53.43 71.69 54.45 70.33 53.91 68.69"/><path class="cls-5" d="M123.41,51.72l-2,.61-.65,2-1.2-1.71h-2.08L118.73,51l-.65-2,2,.68,1.71-1.23,0,2.09Zm-2.39.21,1.3-.38-1.09-.79,0-1.33-1.09.79-1.27-.45.41,1.27-.82,1.06h1.34l.75,1.09Z"/></svg>