<svg id="レイヤー_1" data-name="レイヤー 1" xmlns="http://www.w3.org/2000/svg" viewBox="0 0 180 180"><defs><style>.cls-1{fill:#f5cba5;}.cls-2{fill:#f8d7bd;}.cls-3{fill:#9fa0a0;}.cls-4{fill:#fae1cc;}.cls-5{fill:#544236;}.cls-6{fill:#4d3d31;}.cls-7{fill:#aa8853;}.cls-8{fill:#c49d61;}.cls-9{fill:#036eb8;}.cls-10{fill:#604c3f;}</style></defs><title>recruit-process-3</title><path class="cls-1" d="M82.53,79.62S90.72,69.39,94.42,68a23.55,23.55,0,0,1,6.27-1.45S97.26,41.49,75.94,31.47c0,0-4.48,12.31-6.4,15s-14,25.09-14,25.09S63.72,81.57,82.53,79.62Z"/><path class="cls-2" d="M85.14,37.39c.31,1.28,2.94,18.18,3.51,20s8.92,9.14,11.79,9.54,3.11-1.94,3.08-3.7a4.66,4.66,0,0,1,.5-2.56,2.39,2.39,0,0,0,1.67-3.16s2.69-1,2.28-1.8a6.94,6.94,0,0,1-.09-2.84,6.56,6.56,0,0,1,3.05-.26c1.76.17,2.69-1.15,1.84-3.43s-2.79-7.43-2.06-8.34a13.55,13.55,0,0,0,2.48-5.27c.38-2.81-2.73-11.88-2.73-11.88-.91-1.06-4.84-6.24-8.08-7.59s-13.36-6-21.19-2.5S70.72,24.3,71.06,29.26,79.9,34.06,85.14,37.39Z"/><path class="cls-3" d="M103.17,22.56s5.22.52,8.33-1.12c1.64-.86,1.53-3.41.77-4s-.47-1.43-.7-2.51-3.74-1.36-4.26-1.46,1.23-3-1.46-3.08-4.45-1-4.75-1.67-1.38-2.32-4.28-2.39S85.88,5.5,84.63,5.25,80.51,6,78,7,64.32,14.47,63.49,22c-1.07,9.54,0,11.89.13,14,.08,1.18.58,10.71.58,10.71l.51-2.15a41.34,41.34,0,0,1,.44,4.21c0,1.22.32-1.67.32-1.67s.25,1.48.26,2,.23,2.72.23,2.72a16.43,16.43,0,0,0,4.46-1.27,11.54,11.54,0,0,0,2.7-2.33l-.39,1.47a4.71,4.71,0,0,1,2.74-1.4,20.92,20.92,0,0,0,8.28-3.59L83.31,46a37.37,37.37,0,0,0,3.8-3,16.2,16.2,0,0,0,3.68-4.74c1.36-2.6,3.42-4.24,4.59-4.2s5,2.13,5.42,3.24,1.79,3.65,1.79,3.65a20.11,20.11,0,0,1,2.1-4.2,15.14,15.14,0,0,1,2.37-2.31l-1.76-1,.92-.84-3,.09s2.49-1.74,1.78-2-.9-3.15-.32-4-.85-1.2-1.22-2.09S103.79,22.68,103.17,22.56Z"/><path class="cls-1" d="M98.38,37.41s-.13,1.82-1.07,2.24-.54,1.75,0,2.78.08,4.13-.53,3.39S94.6,42,94.71,40.88s1-1.24,1.4-2.28S97.11,33.36,98.38,37.41Z"/><path class="cls-4" d="M100.19,37.66s-.38-3.37-2.44-3.88S94,35.54,93.3,36.43s-.85,5.56,0,7.27,2,5.09,3,5.72,1.54-3.59.59-4.81a12.33,12.33,0,0,1-2.5-3.89,4.65,4.65,0,0,1,1.07-4.5c.88-.65,1.92-1.06,2.61-.71S100.48,39,100.19,37.66Z"/><path class="cls-5" d="M116.82,172.63s19.41,17.79,25.36,21.34,12.92,5.28,12.22,10.41S136.27,221,136.27,221Z"/><path class="cls-5" d="M88.2,74.42s12.53,11.73,13.39,14,7.1,29.9,7.23,31.31S79.51,85.81,88.2,74.42Z"/><path class="cls-6" d="M59.11,60.78s-6.28,9.68-8.81,12.57S40.2,86.05,38.21,91.6,32,111.88,32.9,115.8s8,32.05,9.81,42.44c2.84,16.14-.09,47,9.8,55.22C61.56,221,64.3,254.39,64.3,254.39s23.87-9,38.1-11.46,29.29-18.18,33.87-22,6.35-5.35,7-10c.26-1.79-.59-6-5.55-12.46s-11.54-13.2-14.79-19.06-8.16-26.44-8.44-31.14-.76-10.58-.76-10.58-16.6-35.83-19.19-40.6S64.4,56,59.11,60.78Z"/><path class="cls-7" d="M95.92,86s9.87,17.12,11.16,19.51,4.58,28.84,4.58,28.84-11.56-12.89-18-21.82-1.88-23.57-1.88-23.57S91.24,84.15,95.92,86Z"/><path class="cls-8" d="M89.73,73.85s4.28,5.41,4.73,6.43S95.92,86,95.92,86a6.94,6.94,0,0,0-4.17,3l-7-8.81Z"/><path class="cls-9" d="M62.08,58l3.72-7S78.07,59.89,83.24,65.5s8.87,10.27,8.87,10.27S87.47,80.71,86.7,87Z"/><path class="cls-6" d="M134.76,160.67s-6.82,8.36-8.77,9.75-7.48.33-7.48.33-6-10-6.86-12.24,3.43-8.69,8.47-8.44S135.29,152.48,134.76,160.67Z"/><path class="cls-9" d="M112.91,158.1s5.5,6.16,6.34,7.51,3.28,3.77,8.55-5.86S116.67,153.89,112.91,158.1Z"/><path class="cls-5" d="M113.76,137.69s-4.82-26.82-25-54.23C84,77,71.77,63.05,69,60.08S58.62,57,58.62,57L57.4,63.15s7.07,1.43,13.37,9.15A109.37,109.37,0,0,1,82.44,89.62l7,3.72-4.14.88S105.37,125.07,113.76,137.69Z"/><path class="cls-1" d="M92.16,141a1.62,1.62,0,0,0-2,.68,2.12,2.12,0,0,0,.36,2.4s-1.87-.91-2.51-.12.19,2.12,1.36,3.09,4.18,5.84,6,6.75a83.81,83.81,0,0,0,12.3,3.8c4.83,1.13,8.09,2,10.23,2.76s5.68-.07,6.52-5.66S92.16,141,92.16,141Z"/><path class="cls-10" d="M56.85,77.37s-10.38,3.82-15.2,10.55c-1.83,2.56-5.12,10.57-.14,24.5,2.81,7.85,10.09,9.73,13.16,10.45S69,128.21,69,128.21s14.51,11.18,19.41,13.94,32.66,16.68,33.71,17.16,3.28,7.72,4.16,7.92,6.12.51,7.84-1.87a17.25,17.25,0,0,0,3.15-8.52c.28-3.17-.9-12.93-1.48-15.38s-8.64-7.58-8.64-7.58-1.32-8.18-2.65-9.42-22.17-13.06-23.78-15.06-.49-3.81-1.06-4.41S85.31,89,79.4,84.51C76.14,82,63.09,74.44,56.85,77.37Z"/></svg>