<svg id="レイヤー_1" data-name="レイヤー 1" xmlns="http://www.w3.org/2000/svg" viewBox="0 0 326.36 196.64"><defs><style>.cls-1{fill:#fff;}</style></defs><title>site-title</title><path class="cls-1" d="M14.63,1.79H1.79V28.11H0V0H14.63Z"/><path class="cls-1" d="M44.1,42.19v-.28c3.17-.78,12.6-4.92,12.6-13.29,0-2.31-.82-5.53-3.68-7.23a10.33,10.33,0,0,0-1.84-.83c-.59,2.21-4.87,8.47-8.64,11.83,1.1,1.65,1.19,1.84,1.19,2.67,0,1.33-.87,2.85-2,2.85-1.47,0-2.25-1.66-2.8-2.85-2.07,1.51-5.8,4.18-8.93,4.18A3.14,3.14,0,0,1,27.22,37a4.26,4.26,0,0,0-1.29-1.74,2.84,2.84,0,0,1-.78-2.21c0-3.45,4.6-9.16,11.91-12.33.09-1,.23-2.9.74-6.3a25,25,0,0,1-4.37.46c-2.17,0-3.73-.28-5.16-1.75a4.09,4.09,0,0,1-1.42-2.39,14.15,14.15,0,0,0,5.38,1,37.73,37.73,0,0,0,6.12-.69c.69-3.82.73-4,.73-4.83,0-2.26-1.1-2.63-3.49-3.5A4.79,4.79,0,0,1,38.9,1.47c2.85,0,5.75,1.89,5.75,3.31,0,.65-.09.83-1.06,2.63a26.22,26.22,0,0,0-1.1,2.67,46.91,46.91,0,0,0,5.29-2.21,2.39,2.39,0,0,1,1.1-.28c1.29,0,3.59,1.2,3.59,2.39,0,.88-1.19,1.38-1.93,1.66a63.12,63.12,0,0,1-9.2,2.16,44,44,0,0,0-1.06,5.75A28.19,28.19,0,0,1,47,18.4a5.74,5.74,0,0,0-1.06-2.34c3.32-.33,4.79,1.38,5.25,2.53C59.51,19.92,62,25.3,62,29.26,62,32.89,59.93,40.76,44.1,42.19ZM37,22.45c-6.21,3.77-8.28,9.66-8.28,11.32a1.83,1.83,0,0,0,2,2.07c1,0,4.09-1,7.36-3.59A30.24,30.24,0,0,1,37,22.45ZM40.14,21a20.83,20.83,0,0,0,1,8.42,26.77,26.77,0,0,0,5.75-9.48A18,18,0,0,0,40.14,21Z"/><path class="cls-1" d="M96.72,11a67.76,67.76,0,0,1-10.07,2.48c-.37.78-4.37,9.11-5.75,12.1s-3.27,6.3-4.28,7a1.7,1.7,0,0,1-.92.32,2.54,2.54,0,0,1-2.07-2.76c0-1.38.55-2,1.52-3.22A89.35,89.35,0,0,0,82.6,14.31a12.23,12.23,0,0,1-3,.37c-4.6,0-5.88-2.76-5.88-4.14a4.22,4.22,0,0,1,.13-1.06c1.34,1.88,4,2,5.57,2A22.12,22.12,0,0,0,84,11a25.58,25.58,0,0,0,1.33-5.48c0-.92-.41-1.89-3.31-2.44a4.4,4.4,0,0,1,3.31-1.47c1.89,0,5.62,1.52,5.62,3.13,0,.73-.28,1.15-1,2.21a17,17,0,0,0-1.56,2.9,34.15,34.15,0,0,0,3.45-1.39c2-.92,2.21-1.05,2.76-1.05.92,0,3.17.82,3.17,2.25A1.45,1.45,0,0,1,96.72,11Zm11.87,10.85a1.77,1.77,0,0,1-1.28.46,4.45,4.45,0,0,1-2.44-.87,6.56,6.56,0,0,0-3.73-1.29c-4.46,0-4.46,4.37-4.46,5.47a22.59,22.59,0,0,0,.69,5.3c3.26.59,9,2.8,9,6.25a2.19,2.19,0,0,1-2,2.39c-1.11,0-2.76-1.33-3.5-2a11.66,11.66,0,0,0-3.13-2,5.85,5.85,0,0,1-2.11,4.37,8.81,8.81,0,0,1-5.48,1.75c-3.45,0-8-1.75-8-5.61s4-5.75,9.06-5.75c.87,0,1.43,0,2,.09-.09-1.47-.14-2-.14-3,0-7.73,7.64-8.42,8-8.46s.79-.14.79-.65c0-.69-2.26-2.3-6.49-3.12a10.42,10.42,0,0,1,4.37-.88c5.8,0,9.43,3.41,9.43,6A2.22,2.22,0,0,1,108.59,21.85ZM88.9,32.94c-1,0-4.92.14-4.92,2.71s4.65,2.63,4.78,2.63c4.51,0,4.61-3.45,4.65-4.65A12.48,12.48,0,0,0,88.9,32.94Z"/><path class="cls-1" d="M140.61,12.93a51.57,51.57,0,0,1-7.41,2.57c-3.27,9.62-7,19.37-8.14,21.67-1.43,3.08-2.07,3.13-2.85,3.13a2.82,2.82,0,0,1-2.49-3c0-1,.14-1.33,1.61-3.72a82,82,0,0,0,8.1-17.21,29.6,29.6,0,0,1-4.51.51c-4,0-5.66-2.67-5.93-4.6a10.56,10.56,0,0,0,5.29,1.24,24.67,24.67,0,0,0,6.3-.92,25,25,0,0,0,1.15-5.8c0-2-2-2.85-3.54-3.26a3.85,3.85,0,0,1,2.89-1.15c2.12,0,6,1.65,6,3.81,0,.65-.14.88-.83,2.07a19.3,19.3,0,0,0-1.47,2.9,12.37,12.37,0,0,0,2.53-1.24c1.89-1.2,2.12-1.33,2.9-1.33a2.59,2.59,0,0,1,2.53,2.3C142.77,12,141.44,12.56,140.61,12.93Zm14.67,26.45a16.09,16.09,0,0,1-6.44,1c-11.27,0-13.11-5-13.11-7a6.39,6.39,0,0,1,2.12-4.69,7.88,7.88,0,0,0-.23,1.89c0,5,5.89,5,8.14,5A22.73,22.73,0,0,0,151,35a7.42,7.42,0,0,1,1.7-.23A4,4,0,0,1,156.2,38,1.47,1.47,0,0,1,155.28,39.38Zm-.41-18.77c-.51,0-2.9-.23-3.36-.23-2.25,0-6.62,1.93-7.31,2.25l-.14-.27c1.24-.92,4.32-3.13,4.32-3.87,0-1.19-4.18-1.19-4.6-1.19a14.13,14.13,0,0,0-3.22.27c2.53-2.57,6.76-3,8.7-3,5.79,0,7.54,3,7.54,4.28S156,20.61,154.87,20.61Z"/><path class="cls-1" d="M186.08,38.83l-.09-.32c6.76-2.63,14.49-8,14.49-18,0-6.67-4.19-12.33-13.11-12.33a5.86,5.86,0,0,0-2.21.27c4.09,2.17,4.09,4.15,4.09,4.74,0,1.66-4,10.17-7,15.05-3.54,5.79-5.29,7.31-6.9,7.31s-1.89-.69-3.31-2.9a6.29,6.29,0,0,0-1.8-1.93c-1.42-1.19-2.07-3.4-2.07-5.57,0-10.16,8.74-18.54,20.24-18.54,8.88,0,17.53,5.2,17.53,15.05C206,36,189.76,38.32,186.08,38.83ZM183.59,8.74c-5.29,1.57-11.45,8.19-11.45,15.83,0,1.88.87,6.39,2.8,6.39s4.14-4.69,6-8.69c1.11-2.26,3.77-7.82,3.77-10.54A4.45,4.45,0,0,0,183.59,8.74Z"/><path class="cls-1" d="M247.35,7.64c0,4.18,0,16.65.09,21.85,0,1.52.14,8,.14,9.34,0,1.15,0,1.75-.78,2.21a5.4,5.4,0,0,1-2.67.73c-1.93,0-1.84-1.42-1.75-2.76H225.87a3.42,3.42,0,0,1-.19,1.75,4,4,0,0,1-3.31,1.43c-1.89,0-1.89-1.2-1.89-2s.28-5.06.28-6c.05-2.21.28-17.44.28-22.22a72.46,72.46,0,0,0-.51-10.31l5.8,2.67h15.73l1.43-2c.13-.18.41-.64.73-.64s.69.37.88.51l3.54,2.8a1,1,0,0,1,.51.83C249.15,6.26,248.87,6.49,247.35,7.64Zm-4.92-2.26H225.87v9.76h16.56Zm0,10.86H225.87v9.89h16.56Zm0,11H225.87V37.91h16.56Z"/><path class="cls-1" d="M277.39,24.24c-1.15,0-1.57-.69-1.8-1.74-.09-.37-.32-1.38-.41-1.84a25.37,25.37,0,0,1-2.44.78c.09,11.73.14,12.7.28,16.88,0,.23,0,1.61,0,1.75,0,1.06-.32,2.76-2.9,2.76-1.56,0-1.56-1-1.56-1.47,0-2.12.14-11.64.18-13.57a4.45,4.45,0,0,1-1.19.83,47.45,47.45,0,0,1-6.26,12.05l-.32-.19c1.7-4.6,2.67-12.74,2.39-15.32l5,1.66a1.51,1.51,0,0,1,.36.18V22.59c-1.65.46-3.54,1-5.29,1.38-.32.64-.46.87-.83.87s-.45-.27-.59-.73l-1.43-4.65a20.87,20.87,0,0,0,4.33.46c1.19,0,2.76-.05,3-.09a42.93,42.93,0,0,0,6.48-13.9l4.83,3.13a.72.72,0,0,1,.37.55c0,.47-.14.65-1.89,1.06a123.15,123.15,0,0,1-8.32,9.11c1.79-.14,3.54-.23,5.33-.46A11.71,11.71,0,0,0,273,16.19l.23-.23c6,1.75,6.81,4.7,6.81,5.71A2.51,2.51,0,0,1,277.39,24.24ZM272.56,5a46.57,46.57,0,0,1-4.7,4.93A4.41,4.41,0,0,1,270,13.43a2.61,2.61,0,0,1-2.53,2.67c-1.24,0-1.52-.64-2.53-3a11.29,11.29,0,0,0-3.36-4.79l.14-.37a13.87,13.87,0,0,1,5,1.34A32.36,32.36,0,0,0,268.32.6l5.57,2.62c.37.18.46.37.46.6C274.35,4.37,273.84,4.55,272.56,5Zm4.27,28.85c-1.56,0-1.7-.92-2.07-3.31a12.18,12.18,0,0,0-1.56-4.65l.23-.28c2.71,1.11,5.84,3.36,5.84,5.76A2.46,2.46,0,0,1,276.83,33.86Zm9.07-5.15c-2.26,4.83-4.92,8.65-11.09,11.59l-.18-.28A27.54,27.54,0,0,0,281.8,27h-1a18.31,18.31,0,0,0-2.76.23l-.74-1.52a42,42,0,0,0,4.42.18l1.1-1.38a1.06,1.06,0,0,1,.6-.41,1.48,1.48,0,0,1,.69.28l2.9,2.43a.91.91,0,0,1,.41.65C287.46,28,287.09,28.16,285.9,28.71Zm13.57,11.64c-3.54-2.72-6.4-8.7-7.87-13.85,0,3.63.09,4.65.19,9.06,0,.37,0,1.61,0,2,0,1.7,0,4.46-5.52,5.47-.69-3-1.84-4-4.83-5.61l0-.32c2.39.18,4.05.23,4.46.23,1.66,0,1.66-.51,1.66-2.81V23.88c0-.92,0-2.49-.1-3.36h-2.71c.09,1.65-1.06,2.39-2.62,2.39-1,0-1.7-.46-1.7-1.38,0-.23.09-1.33.09-1.56s.14-3.18.14-5.8a64.63,64.63,0,0,0-.51-9.75l4.83,2.16h1.75a25.54,25.54,0,0,0,.55-6.3l5.47,1.84c.28.09.46.27.46.5,0,.6-.46.74-1.61,1-.59.6-1.7,1.7-3.22,3h6l1.37-1.93c.14-.19.42-.51.65-.51a1.54,1.54,0,0,1,.69.32l3.4,2.35a.83.83,0,0,1,.37.6c0,.69-.73,1.24-1.65,1.93,0,2.48.09,6.58.18,8.46,0,.37.14,2,.14,2.3,0,2.21-1.94,2.53-3,2.53-1.8,0-1.75-1.15-1.66-2.11h-4.42l1,.23c.51.14,1,.18,1,.69s-.64,1-1,1.24c.05,1.84,2.16,5.11,2.81,5.94a25.74,25.74,0,0,0,4.32-6.35l4,4A1,1,0,0,1,303,27c0,.51-.46.56-.92.56a9,9,0,0,1-1.2-.1,55.34,55.34,0,0,1-5.89,2,21.71,21.71,0,0,0,9.25,6.44v.37A8.27,8.27,0,0,0,299.47,40.35ZM295,7.68H284.79V13H295Zm0,6.4H284.79v5.33H295Z"/><path class="cls-1" d="M311.73,42h12.84V15.69h1.79V43.8H311.73Z"/><path class="cls-1" d="M63.92,100.42c-.65,0-3.5-.14-4.05-.14-12.79,0-16.66,6.4-16.66,10,0,1.93,1.38,4.73,6.4,5.79.92.19,5,.6,5.75.92a3.55,3.55,0,0,1,2,3.18c0,2-1.52,2.25-3,2.25-5,0-13.84-3-13.84-10.3,0-5.3,3.58-8.52,8.83-11.74-5.52.28-14.54,5.43-15.51,6-1.51.92-2.2,1.38-2.89,1.38a3.33,3.33,0,0,1-3.13-3.12c0-1.34.73-1.61,2.85-2.4,5.89-2.2,9.2-5.06,14.45-9.89,1.19-1.1,5.75-5.29,5.75-6.07,0-.23-.19-.46-.6-.46-.78,0-3.73,1.29-7.36,4-1.52,1.15-1.7,1.29-2.21,1.29-1.24,0-3.77-1.75-3.77-4.78a3.69,3.69,0,0,1,1.24-3.13c.27.87.87,2.67,2.67,2.67,1.56,0,8.05-2.07,9.24-2.44a5.92,5.92,0,0,1,2.17-.55c1.28,0,4.46,2.39,4.46,4.23,0,1.19-.32,1.38-4.42,3.77-.41.23-6.76,4.46-8,5.29S38,100,37,100.6c-.6.37-.65.42-.65.6a.27.27,0,0,0,.28.28c.41,0,20.88-5.61,21.57-5.8a12.1,12.1,0,0,1,3-.55c2,0,5.61,1.33,5.61,3.4C66.81,100.33,65.39,100.42,63.92,100.42Z"/><path class="cls-1" d="M93.49,119.33,93.4,119c6.76-2.63,14.49-8.05,14.49-18,0-6.67-4.19-12.33-13.11-12.33a5.86,5.86,0,0,0-2.21.27c4.1,2.17,4.1,4.14,4.1,4.74,0,1.66-4,10.17-7,15-3.54,5.79-5.29,7.31-6.9,7.31s-1.88-.69-3.31-2.9a6.24,6.24,0,0,0-1.79-1.93c-1.43-1.19-2.07-3.4-2.07-5.57,0-10.16,8.74-18.54,20.24-18.54,8.88,0,17.53,5.2,17.53,15C113.37,116.52,97.17,118.82,93.49,119.33ZM91,89.24c-5.29,1.57-11.46,8.19-11.46,15.83,0,1.88.88,6.39,2.81,6.39s4.14-4.69,6-8.69c1.1-2.26,3.77-7.82,3.77-10.54A4.45,4.45,0,0,0,91,89.24Z"/><path class="cls-1" d="M161.8,101.94H148.28V116.2c0,1.61,0,1.93,4.41,1.93,2.95,0,3.87,0,5.76-7.5h.36c.74,6.12,1,6.21,1.94,6.72s1.05.55,1.05,1.06a4.38,4.38,0,0,1-1.42,2.85c-1.29,1.15-3.32,1.66-8.1,1.66-1.79,0-6.39,0-7.64-1.11s-1.24-2.44-1.24-9.06v-8c0-.73,0-1.88-.09-2.8h-7l3.12,1.15c.14,0,.79.27.79.69s-.79.92-1.38,1.24c-.6,5.61-2.81,16.47-18.17,18.45l-.05-.37c3.77-1.7,7.64-4.14,10-7.87,2.9-4.6,2.95-11.31,2.95-11.45a9.23,9.23,0,0,0-.14-1.84h-6.76a26.76,26.76,0,0,0-5,.32l-.78-1.7c2.8.27,6.07.27,6.57.27h11.74c0-7.08-.05-7.91-.05-9.1h-7.82A30.16,30.16,0,0,1,124,99.64l-.28-.19c4.33-7,5.66-14.17,5.43-17.29l6.35,2.39c.28.09.6.23.6.69,0,.64-1,1-2.12,1.29a27.8,27.8,0,0,1-2,4.09h7.18c-.09-6-.09-6.67-.6-9.25l6.63,1.52c.32.09.73.28.73.69s-.5.88-1.84,1.43c0,.87,0,4.83-.09,5.61h6.76L153,87.54c.23-.32.46-.6.69-.6s.46.23.83.51l3.68,3.08c.23.23.46.41.46.74s-.41.46-.74.46H144v1.15c0,.5-.05,7.08,0,8h10.4l2.25-3.08c.19-.23.46-.6.69-.6s.55.23.88.51l3.81,3.08a1.09,1.09,0,0,1,.46.74C162.49,101.89,162.08,101.94,161.8,101.94Z"/><path class="cls-1" d="M204.58,101.48a47.89,47.89,0,0,0-12.88,3.4,22.52,22.52,0,0,1,.37,4.28c0,1.2,0,4.92-2.48,4.92-1.34,0-2.4-1.42-2.4-3.26,0-.55.14-2.95.14-3.41V107c-2.48,1.43-6.48,4.1-6.48,6.72,0,3,4.41,3.22,6.85,3.22a40.07,40.07,0,0,0,7-.74c.6-.09,2-.27,2.3-.27a3.65,3.65,0,0,1,3.31,2.9,2,2,0,0,1-1.38,1.88,38.73,38.73,0,0,1-8.19.88c-2.9,0-12.56-.23-12.56-6.12,0-4.65,5.43-8.65,8.93-10.86-.32-2.12-.74-4.42-3.31-4.42-2.77,0-4.88,2.3-6.22,4.56a26.62,26.62,0,0,1-2.53,3.82,1.59,1.59,0,0,1-1,.37c-1.47,0-1.79-1.62-1.79-3,0-1.7.27-2.21,2.57-4.51a44.06,44.06,0,0,0,5.94-7.82,17.27,17.27,0,0,1-2.12.14c-4.87,0-6.21-3.08-6.12-5,1.57,1.38,3.27,1.94,6.17,1.94a33.32,33.32,0,0,0,4-.32c.69-1.25,2.26-4,2.26-5.07,0-.78-1.29-1.56-3.5-1.65a5.13,5.13,0,0,1,4.28-1.89c2.53,0,4.83,1.61,4.83,2.72,0,.78-.23,1.05-1.34,2.25a18.89,18.89,0,0,0-1.93,2.58c.83-.28,4.33-1.75,5.06-2a3.39,3.39,0,0,1,1.06-.23c1.24,0,3,1.34,3,2.21s-.74,1.33-1.43,1.61a46.19,46.19,0,0,1-10.4,2.3c-.69,1.06-3.86,5.52-4.37,6.49a11.39,11.39,0,0,1,5-1.15c4,0,5.11,2.16,5.75,3.86l8-4.14c1.1-.6,1.19-1,1.19-1.33,0-.6-.18-.69-2-1.57a3.52,3.52,0,0,1,2-.5c2.94,0,6.07,2.57,6.07,5C206.33,101.11,205.55,101.34,204.58,101.48Z"/><path class="cls-1" d="M238.3,114.91c0,.83.09,4.74.09,5.61a2.08,2.08,0,0,1-.5,1.57,4.35,4.35,0,0,1-2.63,1c-1.38,0-1.38-1-1.33-2.21h-8v.55c0,1.66-1.79,1.93-2.57,1.93-1.89,0-1.89-1.06-1.89-1.79,0-1.11.19-6.49.14-7.73a18.67,18.67,0,0,1-7.45,7.36l-.28-.19c5.48-5.88,5.84-15.64,5.84-20.15A33.72,33.72,0,0,0,219.3,95l5.34,2.11h8.65l1.42-1.65c.14-.19.42-.51.74-.51a1.38,1.38,0,0,1,.73.37l2.76,2.11a1.09,1.09,0,0,1,.46.79,1,1,0,0,1-.27.73c-.14.19-1.06.92-1.24,1.11-.1,1,.09,6.3.09,7.45a1.65,1.65,0,0,1-.55,1.52,4.52,4.52,0,0,1-2.3.69,1.39,1.39,0,0,1-1.57-1.61h-10a17.94,17.94,0,0,1-.83,3.17l3,1.29h8l1.29-1.56c.18-.23.41-.46.64-.46a1.42,1.42,0,0,1,.79.36l2.71,1.84a1,1,0,0,1,.41.65C239.63,113.72,239.5,113.81,238.3,114.91Zm0-21.67c-1,0-1.2-.27-2.94-2.71a21.34,21.34,0,0,0-5.3-5.57,30.37,30.37,0,0,1-7.13,7.18c1.8.14,5,.18,5.11.18h1.66L231,90.44c.23-.33.28-.6.69-.6.23,0,.55.27.83.46l2.71,1.93a1.1,1.1,0,0,1,.46.69c0,.42-.36.51-.69.51h-7.82a22.91,22.91,0,0,0-5,.32l-.36-.83a48.2,48.2,0,0,1-7.55,4.23l-.09-.32c8.37-7.36,11.22-13.94,11.91-16l5.25,2.26a.74.74,0,0,1,.55.69c0,.46-.27.55-1.06.69,2.44.5,9.89,2.16,9.89,6.35A2.49,2.49,0,0,1,238.3,93.24Zm-4.74,9.57h-9.34c-.09,1-.18,2.17-.46,4.14h9.8Zm0-4.64h-9.15l-.14,3.54h9.29Zm.37,15.45h-8v6.12h8ZM246.17,89c-.14,1.89-.14,3.59-.14,5.57,0,2.58.23,14.12.23,16.47,0,.78,0,2.85-2.95,2.85-1.61,0-1.61-1.24-1.61-1.84s.1-2.53.1-3c0-4.18,0-8.23,0-11.31,0-9.71,0-10.13-.55-12.47l5.57,1.52a.73.73,0,0,1,.55.73C247.41,87.72,247.41,88,246.17,89Zm8.23-3c-.09,7.73-.23,23.61.19,30.55,0,.32,0,.69,0,1,0,2-.46,5.16-7.08,6-.37-3.73-2.81-5-5-6.12V117c2.21.27,5.39.37,6,.37.79,0,1.34,0,1.34-1.38V87.54a23.43,23.43,0,0,0-.88-5.48l6.31,1.8a.65.65,0,0,1,.55.69C255.83,84.82,255.74,85.1,254.4,86Z"/><path class="cls-1" d="M284.85,120.71c-5.15,0-9.66-2.21-9.66-6.12,0-3.31,3.64-4.74,6-4.74,2.16,0,6,1.2,7,6.17,2.8-.69,5.15-4.19,5.15-7.73a6.32,6.32,0,0,0-6.63-6.63c-8.28,0-13,7.27-15.5,11.09-.55.87-1.38,2.16-2.53,2.16-1.43,0-2.12-1.56-2.12-3,0-1.79,1-2.81,3.41-5.15,2-1.93,3-3.27,11.18-13.43,1.52-1.89,3.36-4.19,3.91-5.11a1.23,1.23,0,0,0,.23-.6c0-.18-.09-.37-.42-.37-.87,0-7,3.31-7.31,3.55a2.87,2.87,0,0,1-1.75.82,4.55,4.55,0,0,1-4.14-4.51,5.27,5.27,0,0,1,.92-2.89c1,1.65,1.7,2.57,3.5,2.57,2.34,0,7-1.52,8.37-2a17.82,17.82,0,0,1,2.25-.74c1.84,0,4.6,2.26,4.6,3.73,0,1.15-.41,1.42-2.76,3-1.7,1.15-9.79,9.2-11.5,12.28a21.8,21.8,0,0,1,10.58-3c8.42,0,10.82,5.8,10.82,9.11C298.52,114.45,293.68,120.71,284.85,120.71Zm-5.43-8.56a2.11,2.11,0,0,0-2.2,2c0,2.67,5,3.4,6,3.4a6.4,6.4,0,0,0,1.56-.18C283.56,113,280.57,112.15,279.42,112.15Z"/><path class="cls-1" d="M33.94,175.85A14.55,14.55,0,0,1,43.07,173a26.09,26.09,0,0,1,6,.81,2.4,2.4,0,0,0,.94.13c0,.78.21,2.91.48,5a.72.72,0,0,1-.92.07c-.5-2.3-2-4.94-6.93-4.94-5.17,0-9.57,3.28-9.57,10.28s4.5,11,10,11a7.2,7.2,0,0,0,7.06-4.84.71.71,0,0,1,.88.14,12.94,12.94,0,0,1-1.62,4.63,6.77,6.77,0,0,0-1.19.34,19.93,19.93,0,0,1-5.34.77,14.8,14.8,0,0,1-8.42-2.26,10.92,10.92,0,0,1-4.8-9.3A11.24,11.24,0,0,1,33.94,175.85Z"/><path class="cls-1" d="M55.89,186.13c0-1.32,0-1.49-.91-2.1l-.31-.2a.48.48,0,0,1,0-.61,26,26,0,0,0,3.42-1.66c.17,0,.27.11.27.24v2c0,.17,0,.27.1.31,1.19-1,2.47-2,3.72-2a1.4,1.4,0,0,1,1.52,1.35A1.5,1.5,0,0,1,62.28,185a1.3,1.3,0,0,1-.74-.24,2.78,2.78,0,0,0-1.49-.54,1.51,1.51,0,0,0-1.22.67,5.16,5.16,0,0,0-.44,2.61v4.6c0,2.43.07,2.84,1.35,2.94l1.22.1a.58.58,0,0,1-.07.84c-1.59-.06-2.57-.1-3.75-.1s-2.23,0-3.11.1a.58.58,0,0,1-.07-.84l.64-.1c1.25-.2,1.29-.51,1.29-2.94Z"/><path class="cls-1" d="M69,187.18c-.88,0-.91.07-.91.91,0,3.42,2,6.32,5.61,6.32a3.63,3.63,0,0,0,3.11-1.65.45.45,0,0,1,.61.4,5.91,5.91,0,0,1-5.31,3.15,6.06,6.06,0,0,1-4.9-2.23,7.22,7.22,0,0,1-1.42-4.4c0-4.16,2.74-7.64,6.8-7.64,2.9,0,4.8,2,4.8,4a2,2,0,0,1-.14.88c-.1.2-.57.24-2,.24Zm2.1-1c2.5,0,3.24-.13,3.51-.33.11-.07.21-.21.21-.65,0-.94-.64-2.13-2.61-2.13s-3.72,1.83-3.75,2.94c0,.07,0,.17.24.17Z"/><path class="cls-1" d="M86.9,188.83c.5-.16.57-.47.57-1l0-1.55c0-1.25-.37-2.94-2.46-2.94-1,0-2.1.47-2.17,1.52,0,.54-.07,1-.34,1.15a3.66,3.66,0,0,1-1.92.64.43.43,0,0,1-.48-.47c0-1.76,3.82-4.16,6.29-4.16s3.62,1.42,3.52,4l-.2,5.89c-.07,1.55.23,2.94,1.55,2.94a2,2,0,0,0,.85-.2c.17-.11.33-.24.44-.24s.23.2.23.44A3.54,3.54,0,0,1,90,196.31a2.72,2.72,0,0,1-2.2-1.05c-.13-.2-.33-.47-.54-.47a5.16,5.16,0,0,0-1.31.67,5,5,0,0,1-2.44.85,3.5,3.5,0,0,1-2.37-.78,3.18,3.18,0,0,1-1-2.37c0-1.32.64-2.09,2.8-2.87Zm-2.1,6a3.8,3.8,0,0,0,2.06-.85c.41-.41.41-.88.44-1.59l.07-2c0-.38-.14-.44-.34-.44a6.46,6.46,0,0,0-1.39.33c-2,.68-3,1.19-3,2.51A2,2,0,0,0,84.8,194.79Z"/><path class="cls-1" d="M99.47,183.93c-.57,0-.6.1-.6.81v6.33c0,2,.23,3.75,2.46,3.75a2.64,2.64,0,0,0,.92-.17c.3-.1.74-.47.84-.47.27,0,.41.37.34.57a4.68,4.68,0,0,1-3.55,1.56c-2.91,0-3.52-1.63-3.52-3.65v-7.75c0-.91,0-1-.71-1h-.94a.55.55,0,0,1-.1-.71,6.5,6.5,0,0,0,2.16-1.05,8.39,8.39,0,0,0,1.42-2,.63.63,0,0,1,.71.17v1.52c0,.61,0,.64.61.64h3.75a1.08,1.08,0,0,1,0,1.42Z"/><path class="cls-1" d="M109,187.18c-.88,0-.91.07-.91.91,0,3.42,2,6.32,5.61,6.32a3.63,3.63,0,0,0,3.11-1.65.45.45,0,0,1,.61.4,5.92,5.92,0,0,1-5.31,3.15,6.06,6.06,0,0,1-4.9-2.23,7.15,7.15,0,0,1-1.42-4.4c0-4.16,2.74-7.64,6.79-7.64,2.91,0,4.81,2,4.81,4a2,2,0,0,1-.14.88c-.1.2-.57.24-2,.24Zm2.1-1c2.5,0,3.24-.13,3.51-.33.1-.07.21-.21.21-.65,0-.94-.65-2.13-2.61-2.13s-3.72,1.83-3.75,2.94c0,.07,0,.17.24.17Z"/><path class="cls-1" d="M139.51,190.69c0,3.62.2,4.16,2,4.3l1.28.1a.64.64,0,0,1-.06.84c-2.1-.06-3.25-.1-4.6-.1s-2.64,0-4.43.1a.66.66,0,0,1-.07-.84l1.05-.1c2-.2,2-.68,2-4.3V189a6.79,6.79,0,0,0-1.08-4.19l-4-7.78c-1.15-2.23-1.66-2.4-2.67-2.57l-.95-.17a.61.61,0,0,1,.07-.84c1.08.06,2.3.1,3.92.1s2.77,0,3.62-.1c.3.1.3.64.1.84l-.44.07c-1.18.17-1.42.34-1.42.61a16.65,16.65,0,0,0,1,2.6c1.25,2.5,2.5,5.17,3.82,7.51,1-1.79,2.16-3.76,3.18-5.72a31.14,31.14,0,0,0,2.19-4.46c0-.2-.61-.44-1.42-.54l-.61-.07a.56.56,0,0,1,.07-.84c1.22.06,2.2.1,3.25.1s2,0,3.14-.1a.56.56,0,0,1,.07.84l-.95.17c-1.75.3-2.77,2.43-4.46,5.34l-2.13,3.69c-1.49,2.57-1.59,2.87-1.59,5.48Z"/><path class="cls-1" d="M163.65,189a6.91,6.91,0,0,1-7.13,7.27,6.68,6.68,0,0,1-6.93-7,7.1,7.1,0,0,1,7.2-7.3A6.75,6.75,0,0,1,163.65,189Zm-7.27-6c-2.23,0-3.88,2.13-3.88,5.85,0,3.08,1.38,6.39,4.36,6.39s3.89-3.11,3.89-5.71C160.75,186.7,159.6,183.05,156.38,183.05Z"/><path class="cls-1" d="M171.06,190.86c0,2.34.58,3.89,3.15,3.89a4.41,4.41,0,0,0,2.73-1,2.37,2.37,0,0,0,.68-2v-5.55c0-2.2-.24-2.26-1.25-2.67l-.44-.17a.45.45,0,0,1,0-.74,13.67,13.67,0,0,0,4-.61c.17,0,.27.1.3.23-.06.65-.1,1.7-.1,2.95v5.68c0,2.67.1,3.68,1,3.68a6.46,6.46,0,0,0,1.32-.17c.2.17.24.85,0,1a17.51,17.51,0,0,0-4.43,1.25.48.48,0,0,1-.41-.23V195c0-.3-.1-.47-.3-.47a8.88,8.88,0,0,1-4.67,1.76c-3,0-4.09-1.49-4.09-4.23v-5.65c0-2.13,0-2.43-1-2.87l-.4-.17a.5.5,0,0,1,.07-.74,12.12,12.12,0,0,0,3.61-.61c.21,0,.31.1.34.23a25.24,25.24,0,0,0-.1,2.95Z"/><path class="cls-1" d="M187.16,186.13c0-1.32,0-1.49-.92-2.1l-.3-.2a.46.46,0,0,1,0-.61,26,26,0,0,0,3.42-1.66c.17,0,.27.11.27.24v2c0,.17,0,.27.1.31,1.18-1,2.47-2,3.72-2a1.4,1.4,0,0,1,1.52,1.35,1.5,1.5,0,0,1-1.45,1.56,1.36,1.36,0,0,1-.75-.24,2.72,2.72,0,0,0-1.48-.54,1.49,1.49,0,0,0-1.22.67,5.16,5.16,0,0,0-.44,2.61v4.6c0,2.43.07,2.84,1.35,2.94l1.22.1a.58.58,0,0,1-.07.84c-1.59-.06-2.57-.1-3.75-.1s-2.23,0-3.11.1a.58.58,0,0,1-.07-.84l.64-.1c1.25-.2,1.29-.51,1.29-2.94Z"/><path class="cls-1" d="M212.31,183.05c0,.92.11.92,1.12.92h2.3a12.23,12.23,0,0,0,2.87-.21c.38-.13.65-.3.85-1.18l.3-1.35a.69.69,0,0,1,.88,0c0,.81-.13,2.16-.13,3.41s.13,2.5.13,3.28c-.13.2-.64.2-.88,0l-.33-1.32a1.61,1.61,0,0,0-1.09-1.28,11.12,11.12,0,0,0-2.6-.17h-2.3c-1,0-1.12,0-1.12.91v4.7c0,3.55.07,4.06,2.07,4.23l1.15.1c.2.13.13.74-.07.84-2-.06-3.15-.1-4.5-.1s-2.63,0-4.22.1a.64.64,0,0,1-.07-.84l.84-.1c2-.24,2-.68,2-4.23V178.59c0-3.55-.07-4-2-4.26l-.54-.07c-.2-.13-.13-.74.07-.84,1.42.06,2.57.1,3.92.1h6.22c2.17,0,4.13,0,4.57-.1,0,1.55,0,3.17.1,4.46a.61.61,0,0,1-.81.1c-.27-1.52-.68-2.77-2.37-3.21a14.64,14.64,0,0,0-3.28-.2h-2.06c-1,0-1,.06-1,1.35Z"/><path class="cls-1" d="M229.63,190.86c0,2.34.57,3.89,3.14,3.89a4.41,4.41,0,0,0,2.74-1,2.37,2.37,0,0,0,.68-2v-5.55c0-2.2-.24-2.26-1.25-2.67l-.44-.17a.45.45,0,0,1,0-.74,13.73,13.73,0,0,0,4-.61c.17,0,.27.1.3.23-.07.65-.1,1.7-.1,2.95v5.68c0,2.67.1,3.68,1.05,3.68a6.64,6.64,0,0,0,1.32-.17c.2.17.23.85,0,1a17.63,17.63,0,0,0-4.43,1.25.47.47,0,0,1-.4-.23V195c0-.3-.1-.47-.31-.47a8.84,8.84,0,0,1-4.66,1.76c-3,0-4.09-1.49-4.09-4.23v-5.65c0-2.13,0-2.43-1-2.87l-.4-.17a.5.5,0,0,1,.06-.74,12.14,12.14,0,0,0,3.62-.61c.2,0,.31.1.34.23a25.24,25.24,0,0,0-.1,2.95Z"/><path class="cls-1" d="M248.5,183.93c-.58,0-.61.1-.61.81v6.33c0,2,.23,3.75,2.47,3.75a2.63,2.63,0,0,0,.91-.17c.3-.1.74-.47.84-.47.27,0,.41.37.34.57a4.68,4.68,0,0,1-3.55,1.56c-2.91,0-3.51-1.63-3.51-3.65v-7.75c0-.91,0-1-.71-1h-1a.56.56,0,0,1-.1-.71,6.5,6.5,0,0,0,2.16-1.05,8.39,8.39,0,0,0,1.42-2c.17-.07.58-.07.71.17v1.52c0,.61,0,.64.61.64h3.75a1.08,1.08,0,0,1,0,1.42Z"/><path class="cls-1" d="M259,190.86c0,2.34.58,3.89,3.15,3.89a4.46,4.46,0,0,0,2.74-1,2.4,2.4,0,0,0,.67-2v-5.55c0-2.2-.24-2.26-1.25-2.67l-.44-.17a.46.46,0,0,1,0-.74,13.59,13.59,0,0,0,3.95-.61.34.34,0,0,1,.31.23c-.07.65-.11,1.7-.11,2.95v5.68c0,2.67.11,3.68,1.05,3.68a6.46,6.46,0,0,0,1.32-.17c.2.17.24.85,0,1a17.63,17.63,0,0,0-4.43,1.25.48.48,0,0,1-.41-.23V195c0-.3-.1-.47-.3-.47a8.88,8.88,0,0,1-4.67,1.76c-3,0-4.09-1.49-4.09-4.23v-5.65c0-2.13,0-2.43-1-2.87l-.41-.17a.5.5,0,0,1,.07-.74,12.26,12.26,0,0,0,3.62-.61c.2,0,.3.1.33.23a27.85,27.85,0,0,0-.1,2.95Z"/><path class="cls-1" d="M275.11,186.13c0-1.32,0-1.49-.91-2.1l-.31-.2a.48.48,0,0,1,0-.61,26,26,0,0,0,3.42-1.66c.17,0,.27.11.27.24v2c0,.17,0,.27.1.31,1.19-1,2.47-2,3.72-2a1.4,1.4,0,0,1,1.52,1.35A1.5,1.5,0,0,1,281.5,185a1.3,1.3,0,0,1-.74-.24,2.78,2.78,0,0,0-1.49-.54,1.51,1.51,0,0,0-1.22.67,5.16,5.16,0,0,0-.44,2.61v4.6c0,2.43.07,2.84,1.35,2.94l1.22.1a.58.58,0,0,1-.07.84c-1.59-.06-2.57-.1-3.75-.1s-2.23,0-3.11.1a.58.58,0,0,1-.07-.84l.64-.1c1.25-.2,1.29-.51,1.29-2.94Z"/><path class="cls-1" d="M288.26,187.18c-.88,0-.91.07-.91.91,0,3.42,2,6.32,5.61,6.32a3.63,3.63,0,0,0,3.11-1.65.45.45,0,0,1,.61.4,5.91,5.91,0,0,1-5.31,3.15,6.08,6.08,0,0,1-4.9-2.23,7.22,7.22,0,0,1-1.42-4.4c0-4.16,2.74-7.64,6.8-7.64,2.9,0,4.8,2,4.8,4a2,2,0,0,1-.14.88c-.1.2-.57.24-2,.24Zm2.1-1c2.5,0,3.24-.13,3.52-.33.1-.07.2-.21.2-.65,0-.94-.64-2.13-2.6-2.13s-3.72,1.83-3.76,2.94c0,.07,0,.17.24.17Z"/></svg>