<svg id="レイヤー_1" data-name="レイヤー 1" xmlns="http://www.w3.org/2000/svg" viewBox="0 0 300 300"><defs><style>.cls-1{fill:#fff;}</style></defs><title>staff-assist</title><path class="cls-1" d="M297.6,189h0c0-.39,0-.78,0-1.17h0c0-.68,0-1.37-.05-2.08h0c0-.42,0-.8-.05-1.14h0c-.06-1.23-.15-2.46-.26-3.68h0c0-.39-.07-.83-.12-1.31h0c0-.07,0-.24,0-.48h0v0h0a95.53,95.53,0,0,0-18.59-48.6A102.62,102.62,0,0,0,250.64,105l0-2c-.26-23.63-8.18-40.76-14.29-52A69.52,69.52,0,0,0,219.2,30.35a84.93,84.93,0,0,0-28.92-15.06h0a140.64,140.64,0,0,0-35.9-5.81h0c-.75,0-1.52,0-2.31,0h-.19c-.62,0-1.16,0-1.65,0h0l-1.76,0h0l-2,.08h0l-1.6.09h0l-2,.15h0l-1.53.14h0c-.65.07-1.33.13-2,.22h0l-1.23.16h0c-1.33.17-2.65.37-4,.59h0l-1.3.23h0l-2.05.4h0l-1.33.28h0c-.68.15-1.35.3-2,.47h0l-1.25.31h0c-2.36.61-4.68,1.29-7,2.06h0c-.36.12-.75.24-1.16.39h0l-1.94.7h0l-1.22.46h0L113,17h0l-1.16.5h0c-1.27.55-2.52,1.12-3.76,1.73h0l0,0c-.2.09-.44.2-.73.35h0c-.6.3-1.16.6-1.7.88h0l-1.27.67h0l-1.62.9h0l-1.3.77h0c-.5.29-1,.6-1.53.92h0c-.51.32-1,.64-1.46.95h0l-.72.48-1.3.87h0l-1.77,1.25h0l-.32.22h0l0,0h0A95.6,95.6,0,0,0,61.44,68a102.73,102.73,0,0,0-8.17,36.86l-1.69,1c-20.34,12-31.21,27.46-37.86,38.35A70.46,70.46,0,0,0,3.36,181.58,92.22,92.22,0,0,0,5.75,202a140.28,140.28,0,0,0,12.91,34v0c.38.7.77,1.43,1.21,2.17l.27.46,0,.06h0c.5.85,1,1.69,1.53,2.53h0c.28.45.55.88.82,1.29h0c.38.59.76,1.18,1.16,1.77h0c.3.45.6.9.92,1.35h0c.4.58.8,1.14,1.19,1.69h0c.28.4.58.82.91,1.26h0c.6.81,1.21,1.6,1.82,2.37h0l1.07,1.31h0c.45.56.92,1.12,1.4,1.69h0l1.06,1.21h0c.43.49.86,1,1.3,1.45h0c.35.39.72.78,1.09,1.17h0c.48.51,1,1,1.44,1.48h0c.3.3.63.65,1,1h0c.78.76,1.57,1.52,2.37,2.25h0c.34.32.66.59.93.83h0c.55.48,1.1,1,1.67,1.46h0l1.08.91h0l1.63,1.33h0l1.06.83h0q1,.78,2,1.5h0l.58.43.13.1h0c.63.45,1.28.88,1.92,1.32l.85.57h0l.79.5h0c.71.45,1.42.9,2.14,1.34h0l.94.56h0l1.28.72c.3.17.6.35.9.51h0l.8.45h0c1.71.91,3.44,1.75,5.19,2.55.33.15.65.31,1,.45h0l.15.07h0a96,96,0,0,0,40.16,8.88,101.18,101.18,0,0,0,47.26-12l1.72,1h0c20.59,11.59,39.38,13.3,52.14,13.61l1.82,0a69.48,69.48,0,0,0,25.68-4.87,85.15,85.15,0,0,0,26.53-17.13,140.79,140.79,0,0,0,23-28.19h0c.42-.67.85-1.38,1.26-2.11h0v0h0c.39-.68.73-1.32,1.06-1.92h0l.55-1h0c.36-.68.7-1.35,1-2h0q.3-.57.6-1.17h0c.33-.67.65-1.34,1-2h0q.27-.57.51-1.11h0c.31-.69.64-1.39.95-2.12h0v0l.1-.23h0c.63-1.47,1.21-2.94,1.76-4.42l.18-.48h0c.08-.23.18-.49.29-.78h0c.27-.75.52-1.49.76-2.22h0l.33-1h0c.24-.73.47-1.48.69-2.23h0q.13-.47.24-.87h0c.71-2.53,1.33-5.07,1.83-7.62h0c.05-.23.1-.49.16-.79h0c.15-.77.28-1.53.4-2.29h0c.05-.32.11-.64.16-1h0c.09-.64.19-1.3.28-2,0-.11,0-.21,0-.32h0c0-.3.07-.57.1-.79h0q.45-3.77.58-7.51h0c0-.32,0-.67,0-1h0c0-.71,0-1.41,0-2.1ZM247.76,270c-9.51,5.88-21.62,9.19-36,9.19-1.8,0-3.63,0-5.5-.16h0c-11.73-.67-26.2-2.68-42.44-10.88A171.74,171.74,0,0,0,185,248.85a86.3,86.3,0,0,0,9,3.33,90.34,90.34,0,0,0,26.45,4.12,68.55,68.55,0,0,0,30.67-6.82,49.39,49.39,0,0,0,20.67-18.75h0l0,0v0h0l0,0h0l0,0h0l0-.05,0,0A61.6,61.6,0,0,1,268.35,245,49.93,49.93,0,0,1,247.76,270ZM10.36,189.29c0-12.14,4.12-25.38,13-38.89,6.45-9.83,15.42-21.35,30.65-31.32a171.37,171.37,0,0,0,6.08,28,86.7,86.7,0,0,0-7.41,6.16h0c-17.53,16.33-26.31,36.14-26.32,54.2a48.38,48.38,0,0,0,6,23.78l.11.21v0l.08.14a60.6,60.6,0,0,1-12.22-12.26A49.81,49.81,0,0,1,10.36,189.29ZM202.92,28.15c8.9,6.21,16.87,15.58,23.22,28.15,5.29,10.5,10.79,24,11.8,42.19a170.84,170.84,0,0,0-27.29-8.74A85.37,85.37,0,0,0,209,80.27h0C205,62.94,197,48.82,186.68,39c-10.06-9.61-22.3-15.12-34.81-15.35l-.43,0h-.17a58.19,58.19,0,0,1,22.58-4.79A50.09,50.09,0,0,1,202.92,28.15Zm-36.6,5.38c7,3.7,13.3,10,18.52,18.43s9.33,19,12,31.08c.3,1.35.56,2.72.79,4.09-7.55-1.2-15-1.93-21-2.36-6.64-.48-11.3-.6-11.78-.61s-1-.06-1.48-.09q-5.91-.33-11.9-.33A323.91,323.91,0,0,0,117.1,85.8c-3,.32-5.94.67-8.87,1a106,106,0,0,1,8.58-30c4.56-9.83,10.54-17.93,17.35-23.24l1.25-.56.75-.34c.43-.18.89-.36,1.4-.54l0,0h0l.9-.33.48-.15,1-.33h0l.8-.23c.42-.12.83-.22,1.24-.32l.38-.1h0l.52-.11h0l.54-.1a38,38,0,0,1,7.26-.77h.9A33.08,33.08,0,0,1,166.32,33.53ZM145.58,137.6c3.34-.12,6.75-.19,10.2-.19,1.92,0,3.85,0,5.78.07A193.15,193.15,0,0,1,189.44,140,333.92,333.92,0,0,1,175,170.65a212.23,212.23,0,0,1-22.93,34.67,334.09,334.09,0,0,1-19.27-27.81,211.69,211.69,0,0,1-18.58-37.19C122.83,139.18,133.72,138,145.58,137.6ZM212.75,212c10.42-15.65,18.83-33.41,26-50.38a106,106,0,0,1,21.73,22.46c6.23,8.86,10.26,18.09,11.45,26.64q-.09,1.17-.24,2.34h0c0,.23-.08.52-.14.88h0c-.05.31-.1.6-.15.89s-.07.46-.11.67h0c-.07.36-.16.75-.25,1.17s-.19.79-.29,1.17-.2.75-.31,1.1l-.06.22h0c-.08.27-.18.56-.28.88h0l-.17.51c0,.09-.06.18-.08.26l-.09.24c-.05.16-.11.32-.16.47l-.15.37h0a39.61,39.61,0,0,1-2.65,5.53l0,0h0l0,0,0,.08a33.85,33.85,0,0,1-15.21,13.34c-6.47,3-14.31,4.51-23.1,4.51a101.32,101.32,0,0,1-28.89-4.65l-1.79-.54c-1.32-.42-2.63-.88-3.93-1.37,4.81-5.93,9.19-12.06,12.52-17C210.06,216.38,212.49,212.41,212.75,212ZM78.09,189.54c8.34,16.86,19.52,33,30.63,47.71A104.65,104.65,0,0,1,76,245c-1.66.1-3.3.15-4.91.15h-.24a57.27,57.27,0,0,1-21.23-3.74l-.53-.38c-.45-.32-.91-.64-1.36-1h0l-.76-.61h0c-.42-.34-.81-.66-1.17-1s-.58-.52-.89-.8h0a2,2,0,0,0-.21-.2l-.67-.65c-.34-.33-.65-.65-1-1h0c-.2-.21-.41-.45-.64-.71h0c-.36-.41-.7-.79-1-1.16l-.26-.33h0l-.08-.1c-.31-.4-.63-.8-.93-1.21l-.33-.47c-.22-.3-.44-.6-.64-.91-.1-.14-.19-.28-.28-.42-.22-.33-.43-.67-.63-1-.09-.15-.18-.29-.26-.44s-.31-.53-.47-.8a33.33,33.33,0,0,1-4-16.1,44.8,44.8,0,0,1,2.62-14.59,63.62,63.62,0,0,1,4.52-10,101.14,101.14,0,0,1,20.51-25.17h0q1.53-1.41,3.12-2.73A275.52,275.52,0,0,0,78.09,189.54Zm213.06-9.27h0c0,.36.07.77.12,1.22h0q.15,1.71.24,3.42h0c0,.4,0,.75.05,1.06h0c0,.62,0,1.27,0,1.93h0c0,.37,0,.74,0,1.1,0,.66,0,1.32,0,2h0c0,.3,0,.63,0,1h0q-.14,3.5-.55,7h0c0,.29-.06.53-.09.74h0c0,.1,0,.21,0,.31-.08.6-.17,1.2-.26,1.83h0l-.15.91c-.12.72-.24,1.44-.37,2.14,0,.21-.1.46-.15.74h0q-.63,3.14-1.49,6.26c-.08.3-.15.59-.24.89h0c-.08.3-.16.57-.23.82h0c-.2.69-.42,1.39-.64,2.1h0c-.1.31-.21.62-.31.94h0c-.24.71-.47,1.41-.72,2.09-.07.21-.17.46-.27.74h0l-.51,1.33c-.18-12.39-3.9-25.21-10.67-37.26a106.79,106.79,0,0,0-30-33.35,119.19,119.19,0,0,0-40.06-19.61c-14.86-4.08-31.77-5.83-52.64-5.83h-.57a266,266,0,0,0-41.43,2.84A103.36,103.36,0,0,1,107,102c0-.79,0-1.58,0-2.37a260.64,260.64,0,0,1,44.53-3.51h.56c43,0,72.47,8.55,92.55,19.49s30.86,24.27,36.58,34.17A77.07,77.07,0,0,1,291.15,180.27ZM127.6,18.45h0l1.17-.3,1.91-.44h0l1.26-.26c.65-.14,1.29-.26,1.92-.38h0l1.24-.21c.33-.06.67-.1,1-.15C125.64,23,116.54,32.39,109.54,44A106.29,106.29,0,0,0,95.31,87.17a133.16,133.16,0,0,0-.84,14.65,118.42,118.42,0,0,0,6.06,37.28c4.13,12.74,10.46,26.14,19.26,41.35h0a263.63,263.63,0,0,0,23.28,34.64,103.75,103.75,0,0,1-22.71,16.8,261.62,261.62,0,0,1-25.45-37.07h0c-22.55-39-29.56-69.76-29.56-93,0-21.3,5.87-36.37,11.33-45.84a77.24,77.24,0,0,1,21.44-23.8h0c.53-.38,1.08-.77,1.65-1.16h0c.4-.28.81-.55,1.22-.82l.67-.45h0l1.36-.88h0l1.42-.86h0l1.22-.71h0c.5-.29,1-.58,1.51-.85h0l1.18-.63h0c.56-.29,1.08-.57,1.59-.82h0l.72-.35h0c1.15-.56,2.32-1.1,3.51-1.61h0l1.09-.47h0c.57-.24,1.16-.47,1.77-.71h0l1.14-.44h0l1.81-.66h0l1.08-.37h0C123.21,19.66,125.38,19,127.6,18.45ZM60.88,270.62h0l-.75-.41h0l-.83-.48-1.2-.68h0l-.88-.52h0c-.66-.4-1.33-.82-2-1.24h0c-.29-.18-.54-.33-.74-.47h0c-.27-.17-.53-.36-.79-.54q-.91-.6-1.8-1.23l-.67-.49h0c-.63-.47-1.26-.93-1.88-1.41h0q-.48-.36-1-.78h0c-.52-.4-1-.82-1.54-1.24h0l-1-.85h0l-1.57-1.38h0l-.87-.78h0c-.75-.69-1.49-1.4-2.22-2.12h0c-.29-.28-.6-.6-.94-1h0c-.46-.47-.92-.93-1.35-1.39h0l-1-1.1h0c-.41-.45-.81-.91-1.22-1.37h0l-1-1.14h0l-1.32-1.59h0l-.25-.31c11.11,6.21,24.48,9.4,38.71,9.4a107,107,0,0,0,42.76-9.27,119.22,119.22,0,0,0,37.1-25c11-10.88,21-24.71,31.44-42.88h0a265.66,265.66,0,0,0,18.36-37.51,103.71,103.71,0,0,1,25.92,11.28,263.27,263.27,0,0,1-19.4,40.59h0c-21.55,37.37-43.69,58.63-63.21,70.58S109.21,280,97.77,280h0a77.07,77.07,0,0,1-31.06-6.57h0c-.65-.29-1.3-.6-1.94-.9l-1-.45-.06,0C62.75,271.6,61.81,271.12,60.88,270.62Z"/><path class="cls-1" d="M19.88,238.14h0Z"/><polygon class="cls-1" points="259.68 268.44 259.68 268.44 259.67 268.44 259.68 268.44"/><polygon class="cls-1" points="5.75 201.96 5.75 201.95 5.75 201.95 5.75 201.96"/></svg>