<svg id="レイヤー_1" data-name="レイヤー 1" xmlns="http://www.w3.org/2000/svg" viewBox="0 0 322.67 230.18"><defs><style>.cls-1{fill:#fffaf0;}.cls-2{fill:#abcfd3;}.cls-3{fill:#aa8566;}.cls-4{fill:#8c6fd6;}.cls-5{fill:#0d134f;opacity:0.25;}.cls-12,.cls-14,.cls-15,.cls-5,.cls-8{isolation:isolate;}.cls-6{fill:#805734;}.cls-7{fill:#f25757;}.cls-8{fill:#4f0d2a;}.cls-12,.cls-8{opacity:0.15;}.cls-9{fill:#5cb1ff;}.cls-10{fill:#8bb0b5;}.cls-11{fill:#abd7ff;}.cls-12{fill:#4f3620;}.cls-13{fill:#27b51f;}.cls-14,.cls-15{fill:#4d241a;}.cls-14{opacity:0.5;}.cls-15{opacity:0.3;}.cls-16{fill:#82e641;}.cls-17{fill:#ad6a34;}.cls-18{fill:#41b3e2;}.cls-19{fill:#fff;}.cls-20{fill:none;stroke:#b4bfb4;stroke-miterlimit:10;stroke-width:0.5px;}.cls-21{fill:#60a89a;}.cls-22{fill:#cc3636;}.cls-23{fill:#455d6a;}.cls-24{fill:#aa6427;}</style></defs><title>work-3</title><rect class="cls-1" x="12.59" y="150.77" width="8.81" height="61.66"/><rect class="cls-2" x="21.4" y="150.77" width="13.21" height="61.66"/><rect class="cls-1" x="124.89" y="150.77" width="8.81" height="61.66"/><rect class="cls-2" x="111.68" y="150.77" width="13.21" height="61.66"/><rect class="cls-3" x="12.59" y="205.82" width="22.02" height="8.81"/><rect class="cls-3" x="111.68" y="205.82" width="22.02" height="8.81"/><rect class="cls-4" x="111.68" y="150.77" width="22.02" height="8.81"/><rect class="cls-4" x="12.59" y="150.77" width="22.02" height="8.81"/><rect class="cls-5" x="28" y="150.77" width="88.08" height="63.86"/><rect class="cls-6" x="69.84" y="84.78" width="4.4" height="13.21"/><rect class="cls-7" x="41.22" y="95.79" width="61.66" height="8.81"/><rect class="cls-8" x="41.22" y="100.13" width="61.66" height="8.81"/><rect class="cls-1" x="32.41" y="104.6" width="79.27" height="110.1"/><rect class="cls-9" x="41.22" y="113.4" width="61.66" height="66.06"/><rect class="cls-2" x="41.22" y="179.47" width="61.66" height="35.23"/><path class="cls-10" d="M58.83,177.2a2.2,2.2,0,0,0-2.2,2.2v35.23H61V179.4A2.19,2.19,0,0,0,58.83,177.2Z"/><path class="cls-10" d="M94.06,177.2a2.2,2.2,0,0,0-2.2,2.2v35.23h4.41V179.4A2.2,2.2,0,0,0,94.06,177.2Z"/><path class="cls-10" d="M76.45,177.2a2.19,2.19,0,0,0-2.2,2.2v35.23h4.4V179.4A2.2,2.2,0,0,0,76.45,177.2Z"/><path class="cls-10" d="M50,177.2a2.2,2.2,0,0,0-2.2,2.2v35.23h4.41V179.4A2.2,2.2,0,0,0,50,177.2Z"/><path class="cls-10" d="M85.26,177.2a2.2,2.2,0,0,0-2.21,2.2v35.23h4.41V179.4A2.2,2.2,0,0,0,85.26,177.2Z"/><path class="cls-10" d="M67.64,177.2a2.19,2.19,0,0,0-2.2,2.2v35.23h4.4V179.4A2.19,2.19,0,0,0,67.64,177.2Z"/><rect class="cls-11" x="89.66" y="113.34" width="4.4" height="63.86"/><rect class="cls-11" x="76.45" y="113.34" width="4.4" height="63.86"/><rect class="cls-11" x="63.24" y="113.34" width="4.4" height="63.86"/><rect class="cls-11" x="50.02" y="113.34" width="4.4" height="63.86"/><rect class="cls-11" x="41.22" y="122.15" width="61.66" height="4.4"/><rect class="cls-11" x="41.22" y="135.36" width="61.66" height="4.4"/><rect class="cls-11" x="41.22" y="148.57" width="61.66" height="4.4"/><rect class="cls-11" x="41.22" y="161.78" width="61.66" height="4.4"/><rect class="cls-11" x="41.22" y="175" width="61.66" height="4.4"/><polygon class="cls-1" points="104.13 213.81 104.13 166.92 138.88 151.81 173.63 166.92 173.63 213.81 104.13 213.81"/><rect class="cls-7" x="128.3" y="177.54" width="21.15" height="37.82"/><polygon class="cls-7" points="172.12 147.28 172.12 164.95 163.06 160.92 163.06 147.28 172.12 147.28"/><polygon class="cls-12" points="104.13 166.92 104.13 171.45 138.88 156.34 173.63 171.45 173.63 166.92 138.88 151.81 104.13 166.92"/><rect class="cls-9" x="155.5" y="177.54" width="12.09" height="15.11"/><rect class="cls-9" x="110.17" y="177.54" width="12.09" height="15.11"/><path class="cls-13" d="M123.77,209.32a4.54,4.54,0,0,0-1.69.33,4.52,4.52,0,0,0-6.9-2.57,7.52,7.52,0,0,0-13.47.79,5.79,5.79,0,0,0-6.65,6v1.51H128.3v-1.51A4.53,4.53,0,0,0,123.77,209.32Z"/><path class="cls-13" d="M152.69,209.53a4.52,4.52,0,0,1,6.87-2.45,7.5,7.5,0,0,1,13.77,1.73,6,6,0,0,1,9.37,5v1.51H149.46v-1.51A4.52,4.52,0,0,1,152.69,209.53Z"/><rect class="cls-14" x="131.33" y="195.67" width="3.02" height="4.53"/><rect class="cls-15" x="163.06" y="147.28" width="9.07" height="6.04"/><rect class="cls-7" x="161.55" y="144.3" width="12.09" height="6.04"/><path class="cls-16" d="M173.21,215.32H161.55a5.83,5.83,0,1,1,11.66,0Z"/><path class="cls-16" d="M116.21,215.32H103a6.59,6.59,0,1,1,13.17,0Z"/><path class="cls-16" d="M120.75,215.32H112.1a4.33,4.33,0,0,1,8.65,0Z"/><polygon class="cls-17" points="138.88 147.32 98.08 165.45 98.08 171.5 104.13 171.5 104.13 168.48 138.88 153.37 173.63 168.48 173.63 171.5 179.68 171.5 179.68 165.45 138.88 147.32"/><g id="g11321"><g id="g8149"><path id="path5167" class="cls-18" d="M321.79,81.88a67.73,67.73,0,1,1-67.72-67.72A67.72,67.72,0,0,1,321.79,81.88Z"/></g></g><polygon class="cls-18" points="226 142.39 203 149.45 210.71 129.45 226 142.39"/><rect class="cls-19" x="210.7" y="48.76" width="88" height="67.14"/><line class="cls-20" x1="218.8" y1="52.11" x2="218.8" y2="112.55"/><line class="cls-20" x1="227.14" y1="52.11" x2="227.14" y2="112.55"/><line class="cls-20" x1="235.47" y1="52.11" x2="235.47" y2="112.55"/><line class="cls-20" x1="243.81" y1="52.11" x2="243.81" y2="112.55"/><line class="cls-20" x1="252.15" y1="52.11" x2="252.15" y2="112.55"/><line class="cls-20" x1="260.48" y1="52.11" x2="260.48" y2="112.55"/><line class="cls-20" x1="268.82" y1="52.11" x2="268.82" y2="112.55"/><line class="cls-20" x1="277.16" y1="52.11" x2="277.16" y2="112.55"/><line class="cls-20" x1="285.49" y1="52.11" x2="285.49" y2="112.55"/><line class="cls-20" x1="293.83" y1="52.11" x2="293.83" y2="112.55"/><line class="cls-20" x1="293.83" y1="109.85" x2="215.57" y2="109.85"/><line class="cls-20" x1="293.83" y1="102.63" x2="215.57" y2="102.63"/><line class="cls-20" x1="293.83" y1="95.42" x2="215.57" y2="95.42"/><line class="cls-20" x1="293.83" y1="88.2" x2="215.57" y2="88.2"/><line class="cls-20" x1="293.83" y1="80.98" x2="215.57" y2="80.98"/><line class="cls-20" x1="293.83" y1="73.76" x2="215.57" y2="73.76"/><line class="cls-20" x1="293.83" y1="66.55" x2="215.57" y2="66.55"/><line class="cls-20" x1="293.83" y1="59.33" x2="215.57" y2="59.33"/><line class="cls-20" x1="293.83" y1="52.11" x2="215.57" y2="52.11"/><rect class="cls-21" x="227.14" y="88.2" width="8.34" height="21.65"/><rect class="cls-22" x="243.81" y="80.98" width="8.34" height="28.87"/><rect class="cls-23" x="260.48" y="59.33" width="8.34" height="50.52"/><rect class="cls-24" x="277.16" y="66.55" width="8.33" height="43.31"/></svg>