<svg id="レイヤー_1" data-name="レイヤー 1" xmlns="http://www.w3.org/2000/svg" xmlns:xlink="http://www.w3.org/1999/xlink" viewBox="0 0 300 300"><defs><style>.cls-1{fill:#fff;}.cls-2{fill:url(#radial-gradient);}.cls-3{fill:url(#radial-gradient-2);}.cls-4{fill:url(#radial-gradient-3);}</style><radialGradient id="radial-gradient" cx="63.84" cy="25.21" r="211.16" gradientUnits="userSpaceOnUse"><stop offset="0.05" stop-color="#f8c15d"/><stop offset="0.5" stop-color="#ee7e00"/><stop offset="0.95" stop-color="#cc4708"/></radialGradient><radialGradient id="radial-gradient-2" cx="123.71" cy="190.64" r="158.71" gradientUnits="userSpaceOnUse"><stop offset="0.05" stop-color="#c6e5f8"/><stop offset="0.5" stop-color="#008fd6"/><stop offset="0.95" stop-color="#00649d"/></radialGradient><radialGradient id="radial-gradient-3" cx="210.28" cy="47.13" r="183.31" gradientUnits="userSpaceOnUse"><stop offset="0" stop-color="#dce57b"/><stop offset="0.55" stop-color="#9cc820"/><stop offset="0.95" stop-color="#5d9626"/></radialGradient></defs><title>アートボード 3</title><path class="cls-1" d="M93.8,28.69C61.11,52,53.59,85.74,53.27,106.69l-3.17,1.88C30,120.5,19.27,135.68,12.59,146.6,4,160.74-.6,179.13,4.84,203.19a139.82,139.82,0,0,0,12.87,33.86c.38.71.77,1.42,1.18,2.12,10.8,18.71,26.23,32.65,43.94,40.38,36.55,16.64,69.51,6.3,87.81-3.91l3.22,1.81c20.4,11.47,38.9,13.15,51.7,13.47,16.57.41,34.76-4.84,52.88-21.58a140.41,140.41,0,0,0,22.89-28.08c.42-.68.84-1.37,1.24-2.08,10.81-18.71,15.17-39.05,13-58.24-3.86-40-29.31-63.35-47.3-74.1l0-3.68c-.27-23.41-8.06-40.27-14.18-51.51-7.93-14.55-21.58-27.68-45.13-35a140.21,140.21,0,0,0-35.76-5.79c-.81,0-1.61,0-2.43,0C129.13,10.82,109.34,17.22,93.8,28.69Zm57,183.46c-12.32-15.72-32.52-44-42.6-73.58,19.77-2.82,54.34-6.18,85-.11C185.76,157,171.39,188.6,150.79,212.15ZM237.9,158c20.73,15,35.7,35.88,38.18,54.79h0a42.33,42.33,0,0,1-5.75,18.75c-12.2,20.28-41.08,24.65-73.84,14.27-2.73-.88-5.44-1.9-8.1-3a270.54,270.54,0,0,0,21.75-30.27C221.33,195.65,230.29,176.27,237.9,158Zm-175-2.17a270,270,0,0,0,15.36,34c9,18.1,21.26,35.55,33.31,51.29-23.36,10.46-48.92,13-66.53,5.67h0A42.1,42.1,0,0,1,31.67,232.4c-11.47-20.7-.81-47.9,24.56-71.07C58.35,159.38,60.58,157.53,62.89,155.79Zm68.2-126.12h0a42.11,42.11,0,0,1,19.1-4.4c23.67.42,41.89,23.24,49.28,56.81.61,2.8,1.08,5.66,1.43,8.53a269.11,269.11,0,0,0-37.09-3.69c-20.16-1.31-41.42.63-61.08,3.19C105.35,64.67,116,41.26,131.09,29.67Z"/><path class="cls-2" d="M276.06,212.75c-2.18,32.78-39.15,52.35-81.52,39.36A86.5,86.5,0,0,1,183.7,248a167.81,167.81,0,0,1-26.59,23.71c18.78,10.56,35.6,13,48.79,13.72C253.48,288.05,281.24,258,276.06,212.75ZM138,16.77a60.57,60.57,0,0,1,15.18-5.9c-.81,0-1.61,0-2.43,0-34.17,0-63.81,16-79.26,42.79C59.34,74.64,45.64,121.36,90,198.13a265.65,265.65,0,0,0,27.85,40.11,109.17,109.17,0,0,0,28-20.76c-8.51-10.17-16.78-22.46-25.19-37C99.45,143.75,92.74,118,96.12,87.28,99.65,55.29,116.19,28.83,138,16.77Z"/><path class="cls-3" d="M30.41,247.25a60.58,60.58,0,0,1-12.69-10.2c.38.71.77,1.42,1.17,2.12,17.09,29.6,45.77,47.27,76.7,47.26,24.26,0,71.57-11.51,115.85-88.34a265.93,265.93,0,0,0,20.84-44.18,109.16,109.16,0,0,0-32-13.86c-4.55,12.46-11.06,25.78-19.49,40.36-21.17,36.72-40.11,55.41-68.4,67.83C83,261.18,51.76,260.09,30.41,247.25ZM131.09,29.67C160.58,15.17,196,37.4,205.94,80.6a85.8,85.8,0,0,1,1.83,11.45,168.16,168.16,0,0,1,33.84,11.18c-.25-21.55-6.58-37.31-12.53-49.11C207.61,11.58,167.65,2.58,131.09,29.67Z"/><path class="cls-4" d="M243.66,153.65c25.94,19,40.59,46.61,40.14,71.51a61,61,0,0,1-2.48,16.1c.42-.69.84-1.38,1.24-2.09,17.09-29.59,18.05-63.25,2.58-90C273,128.13,239.39,92.89,150.72,93A264.93,264.93,0,0,0,102,97a109.09,109.09,0,0,0,4,34.61c13.07-2.29,27.86-3.31,44.71-3.3C193.1,128.3,218.75,135.37,243.66,153.65ZM53.48,114.28c-18.53,11-29,24.35-36.26,35.39C-8.89,189.54,3.3,228.64,45,246.75c-27.31-18.28-25.77-60.08,6.68-90.28a86.13,86.13,0,0,1,9-7.32A169.68,169.68,0,0,1,53.48,114.28Z"/></svg>